<svg xmlns="http://www.w3.org/2000/svg" viewBox="0 0 200.93 200.39"><defs><style>.cls-1{fill:#202020;}</style></defs><title>Instagram Icon</title><g id="Layer_2" data-name="Layer 2"><g id="Layer_1-2" data-name="Layer 1"><path class="cls-1" d="M164.44,198l.92-.15.91-.23C166.09,197.58,165.61,197.77,164.44,198Z"/><path class="cls-1" d="M162.72,197.76l-.15,0S162.64,197.79,162.72,197.76Z"/><path class="cls-1" d="M28.78,187.95a3.87,3.87,0,0,0,1.25.38A7.25,7.25,0,0,0,28.78,187.95Z"/><path class="cls-1" d="M.18,98a.23.23,0,0,0,.13.07C.28,97.9.24,97.85.18,98Z"/><path class="cls-1" d="M183.77,188.44l-.65.54C183.07,189.18,183.66,188.63,183.77,188.44Z"/><path class="cls-1" d="M52.9,191.41a.57.57,0,0,0,.21-.13A.57.57,0,0,0,52.9,191.41Z"/><path class="cls-1" d="M199.78,127c0-.24,0-.49,0-.75A4.12,4.12,0,0,0,199.78,127Z"/><path class="cls-1" d="M9.79,77.08a2.48,2.48,0,0,0-.15-.67C9.67,76.82,9.71,77.12,9.79,77.08Z"/><path class="cls-1" d="M8.49,76.75c.38,5.28.75-1.13,1.15-.34-.11-1.41,0-4.41-.33-3,.8-2.77-.44-8.37.19-11.37-.08-.13-.34,1.6-.54-.47a11.81,11.81,0,0,1,.46-4.14,32.27,32.27,0,0,1-.28-5.17c-.2-2.06-.78,2.19-1.12-.68-.54-1.95-.08-4.59-.23-6.89.38-2.76.26,2.75.44,3.9L8.1,44.7c0-.63-.06-1.34,0-1.91l0-1.76c.19-1,.31-.78.36,0,0,.37,0,.87,0,1.41l0,.83v.9L8.54,43c0-.36.08-.73.1-1.1.05-.73.06-1.46,0-2.13a9.3,9.3,0,0,0-.06-2.9,8.29,8.29,0,0,1,.28-1.15l.27-1a12.31,12.31,0,0,1,.67-2,4,4,0,0,0,.14,1.8,6.33,6.33,0,0,1,0,2.39c-.66,4-.35-1.58-1,1.88l.41.36a5.28,5.28,0,0,0-.22,2.1c0,.71.06,1.36.06,2.23-.1,1.06-.19-.29-.2-.84l0,.54v1.76l0,2.18A19.92,19.92,0,0,0,9.3,51c.21-2.25.17-5.06.15-7.56.07-2.24.13-4.08.59-4.89l.13-1.93c.09-.64.22-1.27.32-1.9a27,27,0,0,1,.89-3.79c-.19-.09-1.46,2.39-1,.17a11.9,11.9,0,0,0,1.46-1.95c.3-.45.61-1,.93-1.54s.76-1.14,1.16-1.78c-.53.33,0-.79.51-1.83s1.2-2,.55-1.49a3.76,3.76,0,0,1-1,1.33c-.31.26-.52.4-.6.47,1.7-2.5-.22-.65.74-2a10.93,10.93,0,0,1,1.58-1.83c.26-.21.27-.16.29-.1s.07.24,2-1.68c-.31.5-.82,1.41-1.49,2.45-.36.5-.64,1.13-1,1.74s-.74,1.22-1.07,1.87a6.38,6.38,0,0,0,1.08-1.29,7.65,7.65,0,0,1,1.61-1.83c-1.4,1.07.4-1.25-.67-.29a31.87,31.87,0,0,1,11-9.63,3.75,3.75,0,0,1-1.33,1.18L23.86,14.6,23.3,15l-.47.45a9,9,0,0,0-.7.75c-.34.43-.38.68.1.64C24.13,15.23,24,15,25.72,13.95c.42-.13,1-.33,1.62-.59s1.34-.64,2.1-1l2.46-1a23.76,23.76,0,0,1,2.56-.78l-1.55.13a16.86,16.86,0,0,1,2.47-.74c1-.13,2-.22,2.72-.32l-.38.18a12,12,0,0,1,1.48-.35c.24,0,.3,0,.29.07a14.07,14.07,0,0,1,1.67-.2l1.1-.07h1.36c1.88,0,4,0,5.77,0,0-.42-3.56,0-5.28-.06-.23,0-1.19-.12-1.87-.21s-1-.16-.28-.34c4.4,0,7.55-.52,12.59-.51L53,8a42.72,42.72,0,0,1,6.19-.17c4.37.29-3.21.59-.56.83-1.72.37-4.71,0-5.16.49l2.75.59c2.3-.36,4.84.18,6.45.1l-1.73-.26c.34-.46,1.95-.11,2.76,0l-1.16-.67c-2.52-.11-4.25.47-6.08.08,4.47-.21,3.44-.75,8.83-.77.24.26-1,.1-1.6.29,1.84.18,3.78-.36,6.77-.15-1.71.16-4.48.43-2.28.78l1.6-.5c1.38.08.81.28,1.38.29,2,.1-.45-.52,2.65-.39.46.1,1.49.21,1,.33,3.56,0,1.71-.16,5-.41-3,0-3.09-.76,0-.85,4.37.08,7.34-.34,10.34.29l2-.33c-1.25.47,2.76.16,4.15.24.46.52-6.55,0-6.55.83,2.87.08,1.62.34.69.57,3.11-.08,1.15-.6,2.52-.94,0,.21,5.29.06,3.46.52,2.64,0,3.1-.51,5-.41-.29.21-.63.48-.45.74a18.36,18.36,0,0,1,3.21.06c-.46-.1.91-.44-1.38-.29.57-.41,5.4,0,5.28-.36.24.47,4.94.1,7.35.29-.24-1.11-4.47.42-5.28-.49,3.21-.38,10.8,0,16-.53,4.47.21,0,.42.92.83-4.13.18-5.17-.15-8.73.05a104.63,104.63,0,0,0,13.21-.26c4.26,0,4.73,1.11,9.9.83a3.59,3.59,0,0,0-2.19-.57c1.38-.13,3,0,4.48,0,.91-.23-2.3-.27-.24-.47.81.07,2.53.12,2.19.36l-.34,0c4.94-.33,3.57.86,7.81.18a20,20,0,0,0-2.3-.07c-.8-.28,1.83-.67,3.79-.78-.37.25,1.76,0,3.06.15.41.23-.34.19-1.43.22a13.91,13.91,0,0,0-2.67.15l3.78.07c-.24,0-.53,0-.79-.07.71-.08,1.31-.09,1.95-.13l1.91-.1c-2.66,0-1.26-.57-.06-.56a32.08,32.08,0,0,1,3.59.66c.94.24,1.46.58,1.26.74a4.59,4.59,0,0,1,2.26.16c1.13.27,2.46.79,3.59,1.13-2.37-1-.15-.51.6-.31L173.35,11A13.1,13.1,0,0,1,175,12.15a4.67,4.67,0,0,0-1.47-.65c-.14,0,0,.13.27.31.5.35,1.23,1,.76.91a10.71,10.71,0,0,1-2.34-.88c-.45-.22-.92-.48-1.4-.73l-1.49-.61a13.91,13.91,0,0,0,1.26.7c.4.2.75.43,1.1.59a16.06,16.06,0,0,0,2,.8c.64.26,1.25.54,1.9.87a7.16,7.16,0,0,1,2,1.36c-.06.09-.19.13-.46,0a11.76,11.76,0,0,1-1.33-.75,3.22,3.22,0,0,0,.69.42l1.15.7c.44.27.92.58,1.41.92a8.13,8.13,0,0,1,1.33,1.24c-.36-.53-1.12-1.79.81-.28.33.43.68.84,1,1.27l.88,1.36A14.1,14.1,0,0,0,184.27,21a1.09,1.09,0,0,0,.53.34c.29.08.56.06,1.59,1.24l-.94-1.86c.27,0,.91.84,1.54,1.67s1.1,1.73,1.37,1.62c-.25-.43-.5-.79-.74-1.13s-.53-.61-.79-.9a15.77,15.77,0,0,1-1.62-2c-.09-.95,1.8,1.93,2.71,2.77a22.38,22.38,0,0,1,2.61,6.11c-.33.2-1.11-.87-1.87-1.84a5.12,5.12,0,0,0-1.14-1.17c-.35-.25-.62-.32-.75-.05a15.42,15.42,0,0,1,.82,1.31l.77,1.47a15.77,15.77,0,0,1,.76,1.53l.62,1.59a17.16,17.16,0,0,1,.92,3L191,36a7.9,7.9,0,0,1,.1,1.11c.79,3.44,1.21,3.13,1.66,2.53a16.8,16.8,0,0,1,.07,3.22l-.33-1.7c.28,2.16.33,4.18.45,6.07s.16,3.88.15,6.41c.13,2.86.59,1.71.95,1l.08,3.1.1-.47c.49.69.33,3.45.31,5.51-.21,0-.26-1.26-.39-1.14a31.26,31.26,0,0,0,.08,6.08c-.21,0-.68-1.25-.54-3.44,0-.23.13-.12.18-.34l-.28-3.68c.26,4.25-.28,6.78-.78,6.67.26,4.25.52-3.46.72,1.6-1,6.67.28,12.64-1.14,16.33.29,3.09.78,6.77.82,11.59.42,0,.16,3.22.69,2.75.55-4.6-.82-8.61,0-12.3-.2-2.06-.55-1.37-.78-2.29,0-1.83,0-3.56.28-3.79.26,4.25,1,1.14,1,6.54.36-.69.23-5.06.32-7,.2.57.42,0,.59-1.28.34,1.38.64,4.47.93,6.08-.2-.57-.31.47-.43,0l.6,5.63c-.26,1.73-.57,2.2-.8,1.27-.13,3.11.44,8.38-.19,8.39.1,4,.38-1.27.55-1.62l0,.34L195.89,95c.73-.47-.18,4.83.52,5.51,1.33.67-.42,6-.21,9l-1-3.44.21,3c-.37-1.72-1-1.71-1.4-4.35,0,4.13-.32,10-.14,12.64-.33,1-.64,1.49-1,1,.6,4.14-.31,6.44-.32,10,.36,3.78.49-3.8,1-1a17.63,17.63,0,0,0,0,4.25,73.73,73.73,0,0,1,.31-7.93,3.06,3.06,0,0,0,.65,2.42l.1-3.45c.59.23,0,4.25.34,5.85-.52-1-.54-.46-1.06-1.48a61.63,61.63,0,0,1-.11,10c-.21,1.49-.26-1.26-.41-2.07-.36.69.21,3-.23,3.56-.33-.46,0-1.83-.13-2.87l-.16,8.73c-.21,0-.28-2.18-.2-3.55a21.58,21.58,0,0,0,.59,7.69c-.21,3-.52,6.43-.83,5.41.13,1.38.33.46.54.45a18.22,18.22,0,0,0,.27,4,12.16,12.16,0,0,1,.24,2.71l.48-1.74c-.3,1.87-.15,2.1,0,2.28s.36.32-.06,2c-.32-.6-.82-.44-1.34,0a3.21,3.21,0,0,1-.08,1.69c-.21.73-.53,1.55-.7,2.23.63-.75-.43,3.06.56.95a5.34,5.34,0,0,1-.26,1.14c-.11.35-.22.67-.33,1-.22.61-.44,1.15-.65,1.67a14.55,14.55,0,0,0-1.23,3.11c.38-.68.2,0-.06.76s-.57,1.46-.08.95c-.42.71-.84,1.35-1.22,1.89a9.16,9.16,0,0,1-1.14,1.22c-.66.59-1,.71-1,.23.35-.44.82-1,1.17-1.44s.49-.85.33-.89a9.51,9.51,0,0,1-.81,1.22l-.86,1.19c-.29.39-.56.81-.88,1.17l-1,1.1c-.58.45-1.15,1.06-1.74,1.42s-1.06.62-1.3.52a6.17,6.17,0,0,1-1.1,1.25c-.48.39-1.06.74-1.6,1.1s-1.07.73-1.53,1a3.74,3.74,0,0,0-1.08.93,7,7,0,0,1,1.1-.84c.37-.22.69-.46,1-.63.63-.36,1.19-.58,1.51-.78l-.67.61.39-.26c-.52.71-1,1.47-1.58,2.17,2.2-1.17.06-.69,2.84-2.74.68-.36.75-.2.52.22a10.36,10.36,0,0,1-1.46,1.65c-1.19,1.28-2.6,2.32-1.08,1.68a4.67,4.67,0,0,0,1.79-1.57,10.08,10.08,0,0,1,1.2-1.69l-.43.37,1.7-1.76c.28-.3.57-.58.84-.88l.76-1c.35,0-.5,1.25-.5,1.25,1-1.1,1.81-1.94,2.51-2.69s1.21-1.46,1.79-2.14a21.92,21.92,0,0,0,1.7-2.33c.3-.46.65-.93,1-1.51l1-1.95c-.3.39-1.55,1.15-.45-1.44.53-2,1.05-2,1.66-3.6a8.28,8.28,0,0,1-.89,3.18l.55.1c-.11.61-.26,1.08-.37,1.48s-.18.73-.23,1c-.11.56-.14.94-.21,1.36a5.08,5.08,0,0,1-.53,1.6c-.17.36-.38.79-.66,1.31a13.42,13.42,0,0,1-1.11,1.85,8.71,8.71,0,0,1-1.6,2.85c-.56.68-1.2,1.44-1.88,2.19l-.51.56-.56.51-1.1,1,1.61-1c-1.21,1.58-1.45,1.6-1.79,1.7s-.75.32-2.6,2l-1.74.58a15.35,15.35,0,0,1-1.67.34c-.92.11-1.29-.09-.31-1-.74.4-1.35.76-1.88,1.09l-1.51.84a16.74,16.74,0,0,1-3.29,1.62c-2,.07.64-.93.08-1.37-1,.39-2.11.92-2.8,1.25s-.93.51-.1.48l-2,.4a13.92,13.92,0,0,1-2,.31c-.07-.06.27-.14.69-.22l1.19-.3c-.4.05-.87.22-1.39.3s-1.07.21-1.6.33c-1.06.25-2,.54-2.49.64.34,0,1.36-.26,1.82-.24-.42.09-.92.27-1.46.33l-1.6.25a11.41,11.41,0,0,0-2,.41,9.87,9.87,0,0,1,2.7-.11,10.38,10.38,0,0,0,1.17,0,8.65,8.65,0,0,0,1.6-.36,2.63,2.63,0,0,1-2,.66,20.26,20.26,0,0,0,3.23-.1c.49,0,.93-.06,1.32-.06a4.05,4.05,0,0,1,1,0,15.22,15.22,0,0,0-2.32.41c-.58.17-1,.36-1.17.42.43,0,1-.1,1.55-.19a10.4,10.4,0,0,0,1.8-.37,29.37,29.37,0,0,0,2.82-.93c.23.33,1.81-.31,3.1-.8l.88-.34c.25-.12.45-.21.59-.26s.3,0-.16.4c.22-.41,2.55-1.44,3.78-2,0,.08-.16.26-.44.5s-.7.48-1.15.76c-.91.55-1.95,1.25-2.58,1.66-6.43,2.7-.05-.52-1.66-.15-.82.29-1.62.66-2.46.87l-2.52.68c.54,0-1.94,1,1.39.1a11.24,11.24,0,0,1-3.24,1.2,14.26,14.26,0,0,1-4.26.43c-.62.2,1.39.15,2,0-.29.17-1.27.47-1.63.7-.18.12-.21.23.1.3a5.85,5.85,0,0,0,2,0c-1.27.16,2.1-.65-.2-.53.87-.19,2.51-.33,3.7-.49s1.94-.21,1,.21a42.55,42.55,0,0,0,7.45-3.05c.59.07-1.31.8-2.13,1.19.48-.2,1-.37,1.45-.61l1.39-.72a27.59,27.59,0,0,0,2.74-1.51l-.85.31-.88.24a14.34,14.34,0,0,0,2.73-1.54,14.19,14.19,0,0,0,2.16-1.69l1.85-1.79c.62-.58,1.15-1.28,1.78-1.91a4.49,4.49,0,0,1-1.31,1.88l-2.73,2.46a3.13,3.13,0,0,0,1.73-1.18,15.6,15.6,0,0,1,2.27-2.29c.44-.27.63-.26.55,0a26.3,26.3,0,0,0,1.84-2.43c.64-.6.39-.16.15.15,1.52-2.11,1.34-2.2,1.36-2.44s.2-.61,2.11-3.4a16.26,16.26,0,0,0-2.15,3,14.75,14.75,0,0,1-2,2.55c-.81.6-.27-.25.52-1.35.39-.55.86-1.15,1.23-1.7s.62-1,.72-1.27a17.66,17.66,0,0,1,1.36-1.5c.4-.4.71-.78,1.06-1.17a12.23,12.23,0,0,0,1-1.4,9.6,9.6,0,0,0,1.06-2.29c-1.08,2.76.5.39-1.65,4-1,2.17.86-.93,1.38-1.21.25-.51,0-.42,0-.53s0-.41.73-1.8l0,.15.84-2.42c.23-.82.41-1.65.61-2.47.23-.54.47-1.1.66-1.69s.31-1.21.44-1.82l.39-1.85c.09-.62.14-1.25.2-1.86.35-2.43.24-4.68.67-6.28l-.61.73c0-.74,0-1.5,0-2.28l0-2.37c0-1.56-.06-3-.12-4,.33.45.36,2.29.47,4.24A82.19,82.19,0,0,0,197,142c-.41,2.42-.37,2.77-.65,5.06-.8-3.21.49-3.8.1-7.94.55-.11.47,1.26,1,.23-.38-1.72-.3-4.6-.62-6.55.54-1,1,.79,1,5-.47,3.22.36,6.78-.1,9.43l.34-1.61c.16,3.22.07,5.17.33,7.92l-.08-.11.55,1.38v-1.49a29.28,29.28,0,0,1,.82,5.07c-.06-4.66-1-4.95-1.44-7.14,0-4.14,1-5.76.54-8.51.26-.22.54-2.53.78-.69.15,2.29-.19,3.9.18,4.13,0-2.41.21-1.49.14-5.17-.49-.69-1-3.44-1.35-6.07a59.81,59.81,0,0,1-.1-8.52c0,2.76.52,5.51.88,4.82-.51-1.61.41-5.4-.29-4.59,0-3.21,0-8.62.63-9,.22,3-.14,6,0,8.56,0-.71.17-1.4.31-1l-.06,3.8a28.66,28.66,0,0,0,.42-6c0,.23-.15.69-.18.35,0-.92,0-2.07,0-3l.55-.11c-.26-2.75.44-8.05,0-13.09l.11.45c.11-4-1-4.36-1.11-8.72.26,1.26.49.68.75.46-.28-2.18.18-3.33.32-5.52-.32,2.54-.59-1.71-.76.13-.56.12-.56-4.37-.49-6.67.72-1.37.39,7.12,1.12,3.67.06-2.29-.34-2.87-.47-1.25a70.75,70.75,0,0,1,.6-9.32c-.54-3.43-.25-4.81-.95-7,0,1.84.54,1.95.26,4.25l-.52-2.53c0-3.33.42-6,.49-8.28l.23,2.41-.08-.12c.23.92.1,4,.49,3.67-.49-2.18,0-3.91-.36-6.78l.08.11c-.41-5.05.8-8.74-.22-11.94,0,.92-.37,2.76-.57,2.19.24-1.16.16-4.25.45-4.14l.1,1c.08-2.87.13-4.6,0-5.64-.36-.8-.64,0-.83-2.05.23-5.06.83,2.05,1.14-1.39l-.1-1.18-.16-1.33L200,39.12a10.55,10.55,0,0,0,.19-1.2q-.16-1.48-.38-2.89a21.16,21.16,0,0,0-.67-2.71,23,23,0,0,0-.84-2.58l-1.07-2.46a21.42,21.42,0,0,0-1.24-2.4c-.46-.79-.87-1.61-1.37-2.39-1.06-1.55-2.06-3.21-3.37-4.84.09-.11.4.1.83.51a10.36,10.36,0,0,1,1.49,1.75c.52.72,1.06,1.52,1.53,2.24s.79,1.44,1,1.9a9,9,0,0,0-.82-2c-.39-.68-.85-1.38-1.32-2.09l-.72-1.09-.82-1.06c-.54-.71-1.06-1.45-1.53-2.21a20.55,20.55,0,0,0-2.86-2.86c-.78-.58-1.3-.73-1.21-.46C183.8,9.73,185,10.1,184.66,9.7a14.86,14.86,0,0,1-3.53-2.08l-2.43-1.44c-.41-.24-.8-.49-1.2-.69L176.34,5l0-.37L174,3.68,171.56,3c1.2.48,0,.37-.06.57l-1.18-.46a25.3,25.3,0,0,0,3.46,1.62c1.19.58,2.46,1.07,3.7,1.64a40.11,40.11,0,0,1,3.54,2A17.51,17.51,0,0,1,183.89,11c-1.27-.82.21.54-1.07-.27-1-.77-1.14-1-1.17-1.14-.77-.23-2.48-1.2-.39.34-.46.43-4.65-2.57-8-3.7-2.4-1.55,3,.53,4.4,1.07a10.39,10.39,0,0,0-1.85-.79,13.53,13.53,0,0,1-2.22-1.06l.66-.28a8.56,8.56,0,0,0-1.42-.5c-.37-.1-.64-.16-.83-.2-.38-.07-.45,0-.41.07s.6.56,0,.61a6.87,6.87,0,0,1-2.78-.7c-1-.36-2.07-.8-2.72-.94l1.45.24a16.33,16.33,0,0,0-2.31-.61c-.67-.08-1.24-.12-1.8-.15l-1.72-.1c-.62,0-1.31,0-2.16-.08l-1.59-.5a19.69,19.69,0,0,0,4.57.2,8.71,8.71,0,0,1,3.22.17c-3.09-.77-2.74-1-1.3-1,.36,0,.79,0,1.24,0s.93.09,1.39.14c.93.1,1.82.21,2.36.23-1.4-.3-2.7-.67-3.87-.94a22.31,22.31,0,0,1-2.93-.73c-1,0-2.11.06-3.18,0s-2.2-.13-3.1-.14a22.15,22.15,0,0,0-5.58.34c-2-.1,1.71-.38-.35-.39-3.79-.06-7.81,0-11.83.34-2.08,0-1.72-.26-2.3-.49-10-.32-13.9,1-24.81.66l1.6-.29c-2.29-.06-4.25-.16-5.39.23-2.89-.93-9.77.57-13.45-.42C89.41,0,89.19.84,85.39,1c0-.21,1.15-.61-.81-.7C72.18.62,61,.69,47.37.85A5.26,5.26,0,0,1,48.51.67c-2.23,0-4.38,0-6.63.11l-3.59.3c-1.18.16-2.33.42-3.48.63A56.91,56.91,0,0,0,22.51,6.16c-.64.41-1.89,1.29-2.81,2s-1.43,1.31-.79,1c1.58-1,2.07-.68,2.11-.38-1.46.95-2.27,1.67-2.88,2a4.59,4.59,0,0,1-1.23.63c-.59.17-.95.19-2.65,1.82-1.6.5,1.87-2.38,1.52-2.83a43.94,43.94,0,0,0-4.67,5.15c-.35.34-.69.69-1,1L9.2,17.79c-.57.78-1.16,1.54-1.66,2.34-.95,1.64-1.94,3.16-2.77,4.65a1.78,1.78,0,0,0,.31-1.11c0-.28.09-.67.88-1.68-.17.35,0,.15-.17.49.77-1.24,1.24-2,1.55-2.61s.54-.88.7-1.2.32-.63.62-1.13a13.66,13.66,0,0,1,1.58-2.2,34.53,34.53,0,0,0-2.2,3A33.67,33.67,0,0,0,6,21.68,32.82,32.82,0,0,0,4.18,25.1L3.4,26.7l-.6,1.51c.38-.33.15.46-.19,1.48A10.5,10.5,0,0,0,2,32.59l-.11.23c.2.06-.29,2.5-.27,3.27L.81,37c-.18,1.77.38-.45.2,1.3-.1.62-.06,1.65-.12,2.84L.81,43l0,1.82c0,2.4-.19,4.59-.52,4.87.05,2.77.41,3.56.33,6.43a8.73,8.73,0,0,1-.31-1C.16,61.2.37,68.67,0,74.43c.16,4.7.26,8.72.69,11.7,0-1.26.1-4.94.46-2.64a47.83,47.83,0,0,1,.28,5.16c-.32-.46-.31,4.95-.53,1-.71,1,.14,8.42-.57,8.36.22.91.09,6.46.47,8.54-.31.46-.21-3-.43-3l.1,2.53H.25c-.18,4.84.68,5.74.82,8.61L1,114.62l.11,2-.57-2.29c.08,3.1.59,4.7.7,8.15l-.18.34.2,2.08c0-.35-.11-.47-.16-.24.54,2,.33,6.44.78,8.27-.08,1.38-.75,2.54-.29,4.37l-.67-.34c-.08-4.59.47-1.71.23-6.54-.86,3.57-.76,13.56-.7,20.23.11,1.35.15,2.91.16,4.54v2.46c0,.8.06,1.76.09,2.61s.06,1.71.18,2.5.27,1.52.41,2.18a13.9,13.9,0,0,0,.46,1.74,5.76,5.76,0,0,0,.6,1.14l-.55-.51A38.1,38.1,0,0,0,3,172l.78,2.37,1,2.28A43,43,0,0,0,12,186.91a31.5,31.5,0,0,0,8.75,6.6l1.34,1.21c.79.29,1.74.58,2.74,1,.51.18,1,.42,1.58.59l1.73.53,1.81.57,1.91.44,1.94.44c.65.12,1.32.18,2,.27l1.95.24c.64.08,1.28,0,1.9.07,1.22,0,2.47.05,3.45,0a21.32,21.32,0,0,0,4.69-.71c3.44.31-1,.52-1.38.77,2.53.11,6.78-.78,9.19-.17,0,.21-3.56.2-2,.33,1.84.39,2.63-.39,4.71,0-.92-.41,3.33-.88,6.42-1A3.56,3.56,0,0,1,64,198c-.45-.31,1.85-.25,3.11-.29a1.09,1.09,0,0,1-.46.11c16-.53,34.22-.77,51-.39l-3.09.29a68.9,68.9,0,0,1,8,0l-.35,0c4.48.64,5.06-.62,8.51.11L130,198c5.4,0,8.61.66,13.89.31,4.15.24,3.69.57,6.56.86a9.93,9.93,0,0,0,3.67-.49l-1.16,0c-1.26-.37,2.53-.31,4.25-.47-1.26-.59-.58-1.5-5.42-2.1-3.56.2-3.46-.94-7.47-.85-2.29.78-5.75-.58-9.42.12,2-.54-4.37-.29-1.16-.88-1.5-.42-7.8.46-10.69,0,.47-.12.36-.24,1-.31-4,.31-2.76-.37-5.75-.37l.11.55c-1.15.18-1.5-.21-2.53-.11.81.07,2.53.33,1.62.55a39,39,0,0,1-4,.31c0-.21,1-.31,1.72-.38,0,0-3.23,0-3.45-.31a30.51,30.51,0,0,0,3.66-.49c-4.24-.16-.34-.18-2.41-.62.58.65-3.68.28-6,.42-.24-.26,1.61-.08,2.18-.28-4.38-1.14-6.55.2-12.18,0a5.26,5.26,0,0,1,1.15-.18c-2.65.18-4.49-.42-6.21,0-2.53-.11-.46-.73-4.37-.72,1.15.67-4.6-.13-4.7.59l-3-.42c-2.65.39.71,1.2-4.47,1.27-4.71-.26.45-1.18-2.31-1.55l-1.15.39-2.3-.28.35,0c-1.38.13-3.9,0-3.91-.19.23-.16,1.72-.16,1.94-.33-2.28.36-9.07-1-11.48.1-1.36-.19-4.15-.19-3.79-.53-1.23.47-6.12-.15-7.94.15.25-.17-1.52-.41-2.85-.3.87.11,1.08.18.85.29a7.76,7.76,0,0,1-1.36.3,8.76,8.76,0,0,0-1.47-.24,15.45,15.45,0,0,1-1.87-.21,6.39,6.39,0,0,1-2.63-.8c-2.2-.25-1.53.35-2.11.62a13.52,13.52,0,0,0-1.45-.58l-1.76-.81a7.11,7.11,0,0,1-1.32-.72c-.27-.23-.34-.4-.09-.46,1.07.56,3.62,1.57,3.26,1-2.07-1-1-.18-2.81-.76.16,0-1-.93-.6-.94-.51-.21-1.12-.48-1.77-.8a16.14,16.14,0,0,1-1.93-1.24c2,1.54-1.6-.44-.46.56.78.27,1.51.6,2.3.81,2.62,1.22.39.58,1.31,1.21-2.38-1-3.3-1.5-4.3-1.8l-.76-.26-.82-.41a18.2,18.2,0,0,1-2.4-1.48c-.61-.73-1.75-1.95-2.08-2.34,1.22,1.13,1.41.44.8-.25a9.75,9.75,0,0,1-2.5-2.76c-.54-1-1.07-2-1.6-3,.43.86.52,1.08.33,1.09a1.65,1.65,0,0,1-.79-.53c-2.72-3.84-.83-1.66-1.49-3.59a27,27,0,0,1-2.73-8.72l-.21-2-.12-1,0-1-.24-4.34c-.18,1-.39,2.11-.5,3l.57.88c-.31,2.14-1.18-.3-1.6-1.57.15-.29.07-4.36.36-2.74l-.23-3.91c-.23.58-.13,3.11-.38,1.28.16-1.28.28-5.29.59-2.77,0-2.06-.16-4.7-.47-4.25,0-3.33.67.34.88,1.83,0-2.64.49-2.3.63-1.5l-.07-3.67c.14.8.36.8.5,1.59.2-2.41-.39-4.13,0-6.19l-.44-.92c.36-6.66.42-6,.47-12.19l-.33,1c-.59-4.7.52-3.44.28-9.76-.2-3.56-.34-5.86-.87-5.39a7.82,7.82,0,0,1,.31-3.45,28.15,28.15,0,0,1-.51-7.57c.16,1.72.29,3.1.38,4.71.52-.47.11-5.51.36-8.15C9,94.56,8.41,88.58,8,85.26c-.42,1.5-1,.93-1.47-2.05.33.46.33-4,.56-6.09.31,1,.76-4.6.89-.25-.16,1.26-.6,1.84-.44,3.57a48.23,48.23,0,0,0,1-6.67A10.4,10.4,0,0,1,8.86,77C8.72,76.17,8.62,76.64,8.49,76.75Z"/><path class="cls-1" d="M183.77,188.44l.38-.32-.53.32C183.8,188.33,183.82,188.36,183.77,188.44Z"/><path class="cls-1" d="M38.94,9.7c.2,0,.56-.12.56-.19A1.69,1.69,0,0,0,38.94,9.7Z"/><path class="cls-1" d="M101.1,9.18A.34.34,0,0,1,101,9C100.94,9.08,100.95,9.12,101.1,9.18Z"/><path class="cls-1" d="M178.29,188.08l.8-.73A9.58,9.58,0,0,0,178.29,188.08Z"/><path class="cls-1" d="M148.37,103.88l-.05-.76A2.84,2.84,0,0,0,148.37,103.88Z"/><path class="cls-1" d="M148.06,104.57v.06S148.07,104.61,148.06,104.57Z"/><path class="cls-1" d="M116.58,145.87a1.29,1.29,0,0,0,.48-.33C116.75,145.73,116.61,145.8,116.58,145.87Z"/><path class="cls-1" d="M75.1,149a.23.23,0,0,0,.08-.07C75.11,148.93,75.07,148.94,75.1,149Z"/><path class="cls-1" d="M146.88,95.15l.06.34C147,95.54,146.95,95.22,146.88,95.15Z"/><path class="cls-1" d="M125.63,141.17a.26.26,0,0,0,0-.13A.27.27,0,0,0,125.63,141.17Z"/><path class="cls-1" d="M134.33,70.69l-.27-.2A1.11,1.11,0,0,0,134.33,70.69Z"/><path class="cls-1" d="M72.46,138.16a.6.6,0,0,0-.27-.09C72.33,138.16,72.44,138.21,72.46,138.16Z"/><path class="cls-1" d="M71.72,138.8c1.69,1.16.05-.72.48-.73-.45-.3-1.26-1.11-1-.58a2,2,0,0,0-.57-.79,11,11,0,0,0-.85-.8,4.81,4.81,0,0,1-1.46-1.64c-.08,0,.22.62-.43.13-.85-.84-.51-1-.72-1.45a6.41,6.41,0,0,1-1.35-1.45c-.6-.55,0,1-.85.28-.82-.36-1-1.46-1.61-2.16-.32-1.07.73.82,1.07,1.12l-1.73-2.5c-.29-.86.55.15,1,.93a6,6,0,0,0-.92-1.63c-.36-.47-.65-.85-.89-.93a18.73,18.73,0,0,1-.69-1.75c.48.56,1,.27,1.53,1.21.75,1.64-.67-.39-.08,1l.36,0c.16.66.67,1,1.05,1.57.13.38-.15,0-.33-.21.34.54.61,1.05.89,1.51a2.89,2.89,0,0,0,1,1.11l-.68-1.23c-.25-.43-.52-.85-.77-1.25-.5-.81-1-1.49-.95-1.93l-1.91-2.86c-.15.06.14,1.25-.49.46a6,6,0,0,0-.39-2.81c-.24.61-1.1-1.86-1.21-1.13a1,1,0,0,1,.18,1c-.47-1.22-.44,0-.71-.7-.39-1.14-.23-1.16-.17-1.15s.17,0,0-1.14c.16.21.42.59.7,1.07s.69,1,1,1.57c.17-.15-.49-1.18-.41-1.76,0,.8-.53-.39-.47.24-.61-1.75-1.73-3.75-2.07-6,.35.13.61,1.06.87,1.85s.65,1.4.92,1c-.39-1-.65-1-.74-1.87a3.91,3.91,0,0,0-.1-1.78,11.92,11.92,0,0,1-.39-2.31l-.16.69a9.25,9.25,0,0,1-.11-2.31l.09.17-.16-.65c0-.1,0-.13.05-.13a4.9,4.9,0,0,1-.13-1.73c0-.73.11-1.54.08-2.24-.32,0-.08,1.38-.15,2,0,.09-.11.46-.2.73s-.14.44-.26.12c.08-1.74-.27-3-.1-5a3.94,3.94,0,0,0-.16.62,7.38,7.38,0,0,1,.22-2.45c.48-1.68.25,1.32.58.31.18.7-.33,1.82.07,2,.18-.34.4-.67.59-1-.13-.91.41-1.82.44-2.44l-.29.62c-.32-.19,0-.76.12-1.06l-.56.35c-.23,1,.1,1.69-.3,2.35.11-1.74-.37-1.42,0-3.52.2-.06,0,.41.11.66A18.35,18.35,0,0,1,58,95.85c-.05.69-.13,1.77.35,1l-.21-.69c.19-.51.28-.26.35-.47.26-.72-.42.07,0-1.08.12-.16.3-.52.33-.32a9.27,9.27,0,0,0,.35-2c-.4,1.1-1,1-.6-.21.65-1.61.74-2.87,1.74-3.73l.12-.8c.1.6.59-.94.88-1.41.43,0-1.14,2.34-.56,2.6.54-1,.51-.46.51-.07.47-1.11-.21-.6-.21-1.19.14.07.94-1.86.94-1,.48-.91.28-1.23.72-1.86.07.18.18.39.39.43-.07-.14.58-.89.68-1-.16.11-.1-.48-.47.34-.14-.35,1.08-1.81.84-1.91.34.11,1.22-1.51,1.9-2.18-.72-.43-.79,1.59-1.54,1.44a17.79,17.79,0,0,1,1.58-2.39c.32-.49.74-.93,1.11-1.39a13.9,13.9,0,0,0,1-1.36c1.31-1.21.23.22.7.16-1,1.3-1.47,1.41-2.25,2.57.53-.55,1.25-1.26,1.86-2S69.65,75.8,70,75.35c1.23-1.14,1.9-.66,3.3-2.11-.38,0-.4-.14-.93.21a6.32,6.32,0,0,1,1.38-1.08c.18-.35-.85.38-.29-.22.29-.15.85-.53.85-.3l-.09.1a2.67,2.67,0,0,1,1.4-.84,2.15,2.15,0,0,0,1.17-.82c-.19,0-.41.28-.79.43-.38,0,.33-.8,1-1.27,0,.23.6-.32,1.1-.55.47.07-1.12.78-1.24,1.1l1.3-.73-.29.12,1.24-1.1c-.92.68-.66,0-.24-.34,1-.53,2.11-.91,2.13-.56,0-.37,1.25-1,2.13-1.48-1,.37-.25-.22,0-.44l1.69-.25c-1.6.69.45.16.15.52-.33.53-1.4.62-2.22,1a4.4,4.4,0,0,0,2-.69,4.33,4.33,0,0,1,1.76-.8c.05.15,0,.37-.66.57a3,3,0,0,0,.84-.41,3.22,3.22,0,0,1,1.42-.49c-.29,0-1-.2,0-.58l1.43,0c1.56-.31.42-.54,1.67-1l-.9,0c0-.18.46-.3.89-.41s.85-.16.84-.36c-.84.09-1.21.55-2.09.65-.41-.27,1-.48,1.49-.78a12.72,12.72,0,0,1,2.84,0c.12.56-2.07,1-1.65,1.72.83-.18,1.85-.4,2.81-.58a6.25,6.25,0,0,1,1.36-.14,6.94,6.94,0,0,1,1.07,0c1.51-.25,1.37-.69,1.13-1a4,4,0,0,1,1.37,0l-.73.22a17.72,17.72,0,0,1,2.48-.22,25.55,25.55,0,0,1,2.57,0c1.15,0,.73-.35.48-.68l1.25.13-.18-.1c.33-.32,1.43,0,2.26.11,0,.16-.54.12-.51.22a11,11,0,0,0,2.44.39c0,.18-.59.32-1.44.1-.09-.05,0-.1-.11-.15l-1.51,0a5.6,5.6,0,0,1,2,.38c.43.2.62.48.56.65,1.69.23-1.26-.73.74-.36a16,16,0,0,0,3.51,1.27,4.58,4.58,0,0,1,2.45,1.48l1,.16c.34.07.68.18,1.05.28a17.54,17.54,0,0,1,2.42.91c.07-.14.38,0,.67.07s.54.22.56,0a6,6,0,0,0-2.39-1.1,4.86,4.86,0,0,1-2.11-1c-.84-.15-.67.2-1.09.23-.7-.23-1.33-.5-1.36-.72,1.67.4.7-.56,2.77.18-.16-.34-1.88-.87-2.61-1.21.27-.06.1-.3-.35-.6.62,0,1.91.19,2.63.22-.28.05.1.28-.12.3.39.07.8.11,1.19.21l1.16.31c.58.49.65.79.23.77a20.55,20.55,0,0,0,2,.91c.66.27,1.1.62,1,.81,1.47.8-.31-.52-.37-.71l.14.05c-.51-.31-1.07-.51-1.61-.77.08-.58,1.77,1,2.23.74.75-.71,2,1.58,3.14,2.11-.53-.07-1.09-.11-1.62-.16l1.15.51c-.77-.14-1,.26-2.1,0,1.48.82,3.2,2.5,4.15,3,.18.44.18.73-.12.81a3.49,3.49,0,0,1,1.61,1.32,10,10,0,0,0,1.21,1.5c1.31.82-.87-1.28.19-.8.21.45,1,.87,1.27,1.16a24.25,24.25,0,0,1-2.19-2.36c.61.58.78.25,1.06.3l-1-1c.36-.27,1.32,1.15,2,1.43-.58,0-.42.16-1,.17a9.59,9.59,0,0,1,2.77,3c.29.55-.49-.25-.79-.41,0,.39.93.78.84,1.17-.31,0-.51-.53-.85-.79a26.13,26.13,0,0,1,2.17,2.74c-.13.1-.67-.58-1-1a5,5,0,0,0,2.2,2.18c.63,1,1.13,2.34.72,2.12.36.41.3,0,.43-.07.76,1.42,1.34,1.28,1.86,2.11l-.13-.78c.54,1.51.66.06,1.11,1.41-.37-.06-.64.19-.83.55.37.06.51,1,.77,1.52.11-.47.82,1,.67,0a6.77,6.77,0,0,1,.78,1.49,3.45,3.45,0,0,0,.65,1.25c-.14-.65.72,1,.73.42.5,1.29.47,2.29,0,2-.14-.45-.27-1.2-.49-1.06a19.68,19.68,0,0,1,.84,2.32c0,.64.13,1.42-.19,1.6.57.67.35,2.28.85,2.79a3.34,3.34,0,0,1-.23-1.8l.16.35a1.36,1.36,0,0,1,0-.2c.28.3.59.6.85.91,0-1.06-.43-.1-.78-1.51.12-.68.51,0,.87.61s.63,1.33.71.63c-.09-1.11-.58-.81-1-1.63l0,.23-.74-1.91c.16-.15.47.41.47.41-.16-.6-.25-1.08-.34-1.5s-.2-.76-.29-1.12a28,28,0,0,0-.78-2.75c0,.21-.38.92-.87-.15-.5-.7-.22-.93-.49-1.59.25.35.72.56.76,1.16l.36-.21c1.22,1.68,1.18.55,2.3,3.12.16,0,.47.48.76,1.14a16.71,16.71,0,0,1,.63,2.29l.08-.79c.91,1.41-.34.39.59,2.26l-.24.78a5.35,5.35,0,0,1-.33.73c-.23.39-.49.54-.79,0a23.61,23.61,0,0,0,.63,3.07c-.33.81-.54-.32-1-.12a7.9,7.9,0,0,0,.36,1.24c.1.3.22.41.33.06l-.09,1.74c-.09.05-.13-.56-.13-.8a6.14,6.14,0,0,0,.41,2.32,2,2,0,0,1-.06-.76,11.57,11.57,0,0,0,.57,2.1c-.28-1.05.22-1.16-.13-2.26a.84.84,0,0,1,.35.85,11.33,11.33,0,0,1,.41-2.27,2,2,0,0,0,.22,1.45,9.72,9.72,0,0,0-.26-2.58c.51-.16-.5-2.72.17-1.86a3.12,3.12,0,0,1-.34-1.71c.23,0,.56,1.36.9,1.93.66,2.75-.38,0-.44.66a14.29,14.29,0,0,1,.23,2.1c.06-.22.4.83.3-.56a5.38,5.38,0,0,1,.45,3.08c.16.25.1-.56.09-.81.16.24.77,1.6.76-.19,0,.51-.29-.85-.41.07-.1-.7,0-2.65.34-1.91a27.8,27.8,0,0,0-.73-3.15c.2-.24.19.59.35.93L149,98.13l-.14.75a5.84,5.84,0,0,0-.56-2.29c-.32-.65-.68-1.23-.95-1.91.44.09.78,1.26,1.22,2.15.25-1-.4-.54-.7-2,0-.22.1-.29.25-.22l-.65-1.08c0-.35.09-.19.15,0-.47-.94-.61-.89-.73-.93s-.25-.17-.81-1.43c.38,1.61.75,1.23,1.07,2.6-.1.86-.85-1.41-1.22-1.7-.36-1.28.15-1.64-.74-3.11.59,1.05.37-.09,1,1.5.52.83,0-.53.15-.81-.23-.4-.3.43-.67-.77l.07,0-.56-.88-.64-.83a15.1,15.1,0,0,0-1.4-2.67c-.24-.43-.51-.83-.74-1.2a3.47,3.47,0,0,1-.45-1.07l-.21.47L140.59,81a8.31,8.31,0,0,0-1-1.38,1.16,1.16,0,0,1,.6.4c.21.25.45.59.7.92a10.89,10.89,0,0,0-1.78-2.39,18.63,18.63,0,0,0-1.8-1.7,20.44,20.44,0,0,0,.9,2,1.93,1.93,0,0,1-1-1.18,2.81,2.81,0,0,0-1-1.5c.28-.31.63.17.64-.42-.71-.36-1.49-1.31-2.23-1.76,0-.61.77-.27,2,1.07.71,1.22,2.07,2.1,2.49,3.22l-.21-.71c.47.52.81,1,1.15,1.39l1.05,1.28H141l.66.29-.34-.56A8.62,8.62,0,0,1,143,81.54c-1.13-1.72-1.73-1.5-2.57-2.08-1.05-1.45-.9-2.47-1.91-3.22.1-.2-.36-1.15.27-.61.7.75.93,1.48,1.21,1.39a22.9,22.9,0,0,0-1.3-1.91,7.63,7.63,0,0,1-2.57-1.32,14.09,14.09,0,0,1-1.43-1.34,14.69,14.69,0,0,1-1.25-1.25,6.77,6.77,0,0,0,1.37.92c.39.2.64.27.64.06-.75-.25-1.54-1.84-1.63-1.23-.51-.49-1.21-1.13-1.76-1.71s-1-1-.93-1.25a6.89,6.89,0,0,1,.84.56c.25.22.48.45.7.68a13.67,13.67,0,0,0,1.33,1.25c-.23-.22-.38-.51-.17-.47l1.22,1.18a7.68,7.68,0,0,0-1.77-2c.05.1.16.29,0,.2l-1-.9.23-.35a18,18,0,0,1-2-1.6c-.4-.34-.82-.69-1.27-1-.23-.17-.46-.34-.7-.49s-.51-.27-.78-.38l.22,0c-1.51-1-2.07-.4-3.78-1.32.58.12.44-.16.45-.39a8.43,8.43,0,0,1-2.11-1.34c.92.72-.89.06-.2.54-.14.4-1.93-.48-2.84-.94-.34-.78,3,1.1,1.83-.07-.92-.49-1.27-.32-.66.08-.29-.15-.6-.33-.95-.5l-1.06-.47a9,9,0,0,1-1.74-1,15.64,15.64,0,0,1-1.78-.31,3.63,3.63,0,0,0-1.43,0c.79.2,1-.21,1.89.33a9.53,9.53,0,0,0-1.2.05c-1.44-.35-2.5-1-3.49-1.27l1.09.1-.07,0c.44-.07,1.77.38,1.7.06-1,.11-1.72-.43-3-.5l.06,0c-2.28-.09-3.82-1.22-5.33-.66.41,0,1.19.46.92.56-.48-.3-1.87-.31-1.81-.52l.47,0a15.62,15.62,0,0,0-2.52-.15c-.37.25,0,.48-.93.58-2.25-.28.93-.58-.61-.89a19.94,19.94,0,0,0-2.11.33l-.47-.22a13.3,13.3,0,0,0-4.35.55l-2.11.58c-.72.19-1.48.32-2.28.56-.07-.18.46-.52,1.14-.72s1.48-.38,1.88-.45c-1.09-.2-2.49.48-3.89.63s-2.13.87-1.87,1c-1.5.54-1.17,0-1.39,0-.35.61-2.28,1.14-3.45,1.68l-.15-.22-.88.5-.84.58c.47-.2.15.21.22.36l-.47.2a4.66,4.66,0,0,0,1.47-.44c.5-.18,1-.43,1.48-.67A6.53,6.53,0,0,1,85.93,60c-.54.29.26.15-.28.45-.48.15-.58.15-.66.07-.22.3-.91.75.08.38.12.53-1.88,1.12-3.15,1.78-.58.08-.38-.19.06-.47a14.75,14.75,0,0,0,1.33-.86,5.7,5.7,0,0,1-1.64.75l0-.44c-1.75,1-.36.55-.62,1.09-.28.7-1.62.75-2.1,1l.49-.35a12.39,12.39,0,0,0-2.8,1.7l-.72.06a3.17,3.17,0,0,0,1.54-1,2.12,2.12,0,0,1,1-.79c-2.49.79.11-1,.72-1.65a8,8,0,0,1-2.59,1c-1.16,1.29-3.08,1.62-4.08,3-.74.46.46-.69-.29-.15s-1.39,1-2.08,1.58a13.68,13.68,0,0,0-2,1.85c-.69.61-.7.37-1,.42a24.37,24.37,0,0,0-2.17,2c-.55.68-1,1.33-1.49,2s-1,1.31-1.51,2A30.25,30.25,0,0,1,60.22,78l.25-.7c-.64.8-1.26,1.44-1.27,2a5.75,5.75,0,0,0-1.61,2.37c-.25.51-.51,1-.79,1.49a3.7,3.7,0,0,1-.87,1.18c-1,1.91-.61,2.22-1.13,3.82-.15-.06-.24-.66-.61.14-.42,1.33-.86,2.61-1.24,3.89L52,96.13a15.9,15.9,0,0,0-.34,2l-.28,2.06a31.36,31.36,0,0,0-.3,4.35A1.48,1.48,0,0,1,51,104c-.06,1-.1,2-.06,2.93l.33,2.84c.16,1.86.59,3.58.73,5.21.17.59.63,2.35.81,1.75-.11-.74.24-.91.46-.91.16.69.31,1.1.35,1.39a1.1,1.1,0,0,1,0,.57c-.09.26-.24.41,0,1.32-.37.72-.64-1.08-1.11-1l1,2.61c.27,1.56,1.17,2.91,1.38,4.28-.15-.59-.44,0-.6-1.07.08.14.07,0,.15.16-.74-2.22-.72-1.09-1.47-3.05.3.87.79,1.85,1.17,2.84s.71,2,1.05,2.71c.18-.47.72,1.13,1.12,1.44v.11c.14-.07.68.79.85,1l-.23.58c.37.61.12-.29.48.32.62.81,2.5,3.84,2.26,4.32a27.47,27.47,0,0,1,1.89,2.13c-.16,0-.38-.22-.45-.22.38.55.8,1.13,1.24,1.71l1.48,1.65c.49.55,1,1.1,1.44,1.64s1,1,1.38,1.5c.81.66,1.56,1.27,2.25,1.8a12.34,12.34,0,0,0,2,1.13c-.47-.3-1.69-1.36-.72-1A12.44,12.44,0,0,1,72.19,146c-.3.08,1.6,1.48.13.6,0,.78,3.16,1.91,2.85,2.35a9.79,9.79,0,0,1,1.51.76,7.21,7.21,0,0,0,1.95.74c.08.3-1.26-.43-1.33-.29l1,.42-.07.14c1.88,1,2.48.67,3.68,1l-.07,0,.83.22-1.1.05c1.31.42,2.1.3,3.54.73l.1.18c.3.05.59.13.9.16-.16,0-.22,0-.14.09.94-.17,2.78.47,3.63.33.56.2.94.85,1.8.61l-.24.47c-2-.32-.66-.5-2.75-.82a9.22,9.22,0,0,0,3.73,1.33,27.19,27.19,0,0,0,4.93.58,16.59,16.59,0,0,1,2,0,16.62,16.62,0,0,0,2.15,0,6.48,6.48,0,0,0,3.09-.58l-.23.32a30.63,30.63,0,0,0,4-.22c.83-.17,1.68-.27,2.51-.46l2.41-.62a22.43,22.43,0,0,0,2.24-.67,19.19,19.19,0,0,0,1.89-.91h.75c1.13-.79,3.11-1.89,5-2.91a9.73,9.73,0,0,0,1.32-.84c.41-.29.8-.58,1.15-.85a5.5,5.5,0,0,0,1.44-1.5c.69-.3.63-.19.44.09s-.62.58-.63.7a4.44,4.44,0,0,0,.77-.53l.77-.77a3.86,3.86,0,0,1,1.62-1.11c.1.12-1.15,1-.53.7.82-.25.74-.92,1.66-1.2-.27,0,0-.32.28-.82a12.4,12.4,0,0,1,1.32-1.56.9.9,0,0,1-.29.2c-.3,0,.46-.67.83-1.06a.33.33,0,0,1-.09.19l.9-.92c.29-.32.56-.67.84-1l1.7-2,.43-.51.39-.56.78-1.11c.52-.75,1.07-1.47,1.57-2.24a64,64,0,0,0,5-9.68l-.25,1.31a16.87,16.87,0,0,1,1.19-3.21l0,.15a3.08,3.08,0,0,0,.57-1.89,2.5,2.5,0,0,1,.48-1.58l0,.29a22.59,22.59,0,0,0,1.32-5.81c.25-.87.34-1.26.47-1.58a6.24,6.24,0,0,0,.4-1.19,2.68,2.68,0,0,0-.29-1.61l0,.5c-.31.53-.18-1.1-.26-1.83-.47.53-1.14.26-1.69,2.24a2.31,2.31,0,0,1-.36,1.45,3.67,3.67,0,0,0-.49,1.56c.44,1-.79,2.26-.5,3.82-.15-.44-.23,0-.41.35s-.29.65-.35,0c-.47.5-.43,3.15-1.13,4.16,0-.2-.11-.19-.1-.47-.3,1.6-.64,1-1,2.07l.41.1c0,.48-.35.51-.43.92.16-.29.58-.87.61-.47a8.85,8.85,0,0,1-.34,1.62c-.15-.05-.07-.48,0-.76,0,0-.47,1.22-.73,1.21a4.68,4.68,0,0,0,.2-1.51c-.69,1.55-.17.08-.76.73.57,0-.44,1.4-.73,2.27-.22,0,.22-.6.19-.87-1.54,1.17-.91,2.44-2.29,4.24a1.21,1.21,0,0,1,.12-.46c-.43,1-1.19,1.35-1.3,2.08-.62.79-.55-.15-1.44,1.08.67-.06-1.15,1.38-.75,1.74-.33.24-.62.51-1,.73-.48,1,.88.37-.47,1.93-1.4,1.25-.53-.73-1.46-.11l-.09.54-.75.52a1.18,1.18,0,0,0,.08-.12c-.32.44-1.12,1-1.22.92s.41-.54.39-.68A7.42,7.42,0,0,1,128.6,139a6.85,6.85,0,0,0-1,.8,1.54,1.54,0,0,0-.57.82c-.51.2-1.37.85-1.41.56-.08.28-.57.62-1.09,1a6.85,6.85,0,0,0-1.36.86c0-.15-.66,0-1.06.38.67-.25.37.09.05.51a5.75,5.75,0,0,0-1.33.62c-.51.21-1,.39-1.21.25-.77.63-.32.75-.38,1.12-.68,0-2.46,1-2.34.34.51-.15,1.62-.6,1.28-.8-1,.27-.34.31-1.07.72,0-.09-.65-.08-.55-.26a9,9,0,0,1-1.77.61c1.1-.17-.54.56.14.52l.86-.69c1.19-.46.35.16.85.11-2.08.85-1.48,1.2-3.45,2.13-.42,0-1.15.07-1.37.11.69-.2.43-.6,0-.58-1.06.65-2.11.32-3.06.43.84-.07.47.32.19.49-2,.57-.82,0-1.73-.12-.77.13-1.48.21-2.14.27a17.86,17.86,0,0,1-1.89,0c-.6,0-1.18,0-1.76,0s-1.17.08-1.8.1a9.11,9.11,0,0,0,1.19.43l.39-.41c.93.26-.15.89-.69,1.17-.14-.11-1.71-.14-1.08-.32l-1.53.09c.22.18,1.21.16.49.31-.5-.15-2.06-.31-1.06-.49-.8,0-1.84,0-1.69.24-1.29-.2.19-.43.77-.59-1-.09-.84-.47-.53-.52l-1.39-.17c.32-.06.34-.22.65-.28-.88-.29-1.6.05-2.32-.39l-.41.27a8.9,8.9,0,0,1-1.4-.46l-.87-.33c-.52-.18-1-.34-2.15-.64l.31.33c-1.85-.09-1.12-.8-3.43-1.42l-.9-.21c-.26-.07-.48-.14-.67-.18-.37-.07-.58,0-.58.18A1.67,1.67,0,0,1,81.7,145,4.58,4.58,0,0,1,79,144c.63.24,1.12.45,1.71.64,0-.37-1.79-1.12-2.56-1.8-.34-.11-1.09-.33-1.87-.65s-1.61-.72-2.23-1c.28.6-.17.85-1.33.38.15,0-.14-.32-.52-.69s-.81-.87-1.05-1.2c.45.09-1-1.64.37-.57.28.42.24.83.82,1.19A11.14,11.14,0,0,0,70.86,138a2.26,2.26,0,0,1,1.11.63C71.67,138.52,71.75,138.7,71.72,138.8Z"/><path class="cls-1" d="M146.88,95.15l0-.2,0,.26C146.82,95.13,146.85,95.12,146.88,95.15Z"/><path class="cls-1" d="M57.61,108.26c0-.09-.09-.25-.14-.25A.57.57,0,0,0,57.61,108.26Z"/><path class="cls-1" d="M63.19,85.06a.31.31,0,0,1-.11,0S63.12,85.08,63.19,85.06Z"/><path class="cls-1" d="M144.61,97.41l-.19-.42A2.4,2.4,0,0,0,144.61,97.41Z"/><path class="cls-1" d="M166.19,45l0-.17S166.16,44.88,166.19,45Z"/><path class="cls-1" d="M166,45.15h0S166,45.16,166,45.15Z"/><path class="cls-1" d="M158,52.1a.15.15,0,0,0,.06-.11S158,52.07,158,52.1Z"/><path class="cls-1" d="M149.37,55.63l0-.05A.05.05,0,0,0,149.37,55.63Z"/><path class="cls-1" d="M165.78,43v.08C165.85,43.11,165.82,43,165.78,43Z"/><path class="cls-1" d="M159.64,51.48l0-.06Z"/><path class="cls-1" d="M163.47,37l-.07,0A.11.11,0,0,0,163.47,37Z"/><path class="cls-1" d="M150.81,50.75l-.08,0A.08.08,0,0,0,150.81,50.75Z"/><path class="cls-1" d="M150.36,51.22c.38.1.19-.33.37-.44-.1,0-.22-.17-.25,0,.14-.38-.52-.24-.43-.59,0,0-.06.19-.23.15s0-.24,0-.35-.37-.17-.31-.18c-.16-.05-.23.35-.49.29s-.21-.24-.36-.34c.06-.26.21.1.33.11l-.38-.4c0-.2.26-.07.32.08a.37.37,0,0,0-.45-.38c0-.14-.09-.19-.06-.34.17.06.51-.11.64,0,.11.29-.31,0-.25.3l.21-.09c-.06.16.14.15.22.24s-.08,0-.13,0c.13.17.1.4.42.38,0-.35-.44-.57-.28-.8l-.53-.37c-.1,0-.16.3-.38.21a.63.63,0,0,0,.23-.61c-.24.18-.37-.26-.56-.07.18.06,0,.19-.05.21-.1-.21-.27.06-.33-.06-.08-.44.17,0,.16-.48a2.86,2.86,0,0,1,.68.34c.12-.06-.1-.2,0-.33-.12.17-.29,0-.32.12-.19-.28-.61-.58-.72-1,.43,0,.44.62.92.38-.12-.16-.31-.12-.3-.28.25-.17-.06-.44-.07-.71l-.13.13c-.11-.09,0-.29,0-.4l.06,0-.09-.11a0,0,0,0,1,0,0c-.15-.12,0-.45-.07-.7-.21,0,0,.24-.05.36s-.14.26-.29.15c0-.31-.23-.55-.2-.92l-.08.11c-.14-.13,0-.29,0-.46.19-.29.26.27.41.1.17.14-.08.33.19.38l.32-.15c-.15-.17.14-.3.11-.41l-.14.09c-.22-.06,0-.14,0-.19l-.34,0c-.08.17.19.33,0,.42-.06-.32-.34-.29-.28-.68.13,0,0,.08.12.14.1-.11-.11-.3,0-.49,0,.14.13.36.34.25l-.22-.17c.06-.08.15,0,.17-.06s-.26,0-.14-.23c.06,0,.13-.07.17,0,.08-.24,0-.14-.08-.4-.07.2-.44.09-.4-.14s0-.59.42-.66l-.08-.2c.17.19.16-.15.24-.23.25.09-.22.44.17.61.13-.17.2,0,.28.08.06-.21-.24-.2-.35-.36.1,0,.19-.33.34-.1.09-.16-.11-.31,0-.41a1.24,1.24,0,0,0,.3.21c-.07-.06.12-.15.14-.17s-.15-.17-.17,0c-.15-.14.19-.33,0-.42.2.12.25-.25.43-.33-.45-.32,0,.38-.42.16,0-.3.45-.64.54-1.07.3-.17.15.15.35.24-.13.28-.31.22-.39.48a1.26,1.26,0,0,0,.54-.78c.22-.22.62.18.79-.15-.15-.11-.17-.15-.3-.12,0-.12.17-.13.25-.19s-.22,0-.16-.18c.07,0,.18-.06.24,0v0c.19-.34.44.19.5-.25-.07-.06-.06.06-.16.06s-.08-.35,0-.47c0,.12.12,0,.23-.06.16.14-.19.18-.15.32l.25-.11h-.07l.16-.33c-.15.17-.21-.16-.14-.24s.43-.12.5.09c-.08-.22.17-.32.32-.45-.22,0-.1-.17-.07-.26l.38.1c-.29.17.14.17.12.34s-.23.19-.39.24c.45.26.34-.37.68-.29,0,.1.05.23-.07.24.07.06.17-.29.39-.22-.07-.06-.24-.23-.07-.37l.31.19c.29,0,0-.29.24-.48l-.2-.13c0-.23.34-.08.3-.32-.17,0-.21.24-.39.21-.12-.22.18-.18.25-.33a1.08,1.08,0,0,1,.6.22c.06.38-.34.53-.2,1,.28-.11.72-.3.93-.15.27-.13.24-.43.19-.65a.24.24,0,0,1,.26,0l-.14.13a2,2,0,0,1,1-.21c.22,0,.16-.28.13-.47h.25l0-.05c.09-.23.3-.12.47-.08,0,.1-.12.11-.13.18a.5.5,0,0,0,.49,0c0,.11-.17.3-.32.21s0-.06,0-.09l-.31.09c.36-.08.5.22.43.47.34,0-.2-.32.2-.32.37.59,1,.14,1,.91a1.46,1.46,0,0,1,1,0c.1-.19.26,0,.35-.2-.21-.42-.79.07-.89-.41-.19,0-.21.22-.31.3s-.25-.1-.23-.23c.36,0,.26-.45.68-.31,0-.18-.35-.25-.49-.35a.24.24,0,0,0,0-.31,4,4,0,0,1,.66-.25c-.08.07,0,.16-.08.2a4.37,4.37,0,0,1,.58-.08c.09.19.06.34-.07.41.22.17.77.13.61.42.32.14,0-.22,0-.32h0c-.11-.06-.23-.1-.35-.15.13-.35.35.26.56,0,.39-.54.37.47.64.52l-.52.24.28,0c-.23.08-.41.34-.69.4.29.17.57.59.79.64a.69.69,0,0,1-.23.42c.44,0,.27.45.46.62s0-.37.27-.4c0,.15.17.18.26.21-.12,0-.25-.33-.36-.54.12.12.26-.07.36-.11l-.18-.23c.21-.21.28.22.48.21-.24.13-.22.17-.46.3a.76.76,0,0,1,.52.61c0,.16-.17,0-.26,0-.1.16.24.1.1.28s-.11-.09-.2-.12a4.81,4.81,0,0,1,.37.56c-.08.07-.2,0-.24-.15,0,.23.15.31.59.29.06.24.06.55-.11.57.11.05.15-.06.24-.12.11.29.45.13.56.29l.09-.22c0,.37.33-.1.33.22a1.64,1.64,0,0,0-.57.33c.2-.05.11.18.16.28.15-.15.28.15.38-.11.27.18.07.41.38.5,0-.15.28.16.38,0a.35.35,0,0,1-.29.52c0-.09,0-.26-.14-.2a3.8,3.8,0,0,1,.19.45c-.07.15-.08.31-.3.39.29.09-.06.47.26.52-.22-.12,0-.29,0-.37l.06.06a.09.09,0,0,1,0,0l.45.12c.11-.24-.27,0-.33-.26.31-.35.7.45.87.13s-.29-.14-.47-.28v0l-.26-.36a.29.29,0,0,1,.25,0c-.12-.5,0-.62-.13-1.18,0,.06-.37.3-.51.11s0-.23,0-.37c.08.06.32,0,.23.21l.25-.12c.47.27.63,0,.94.5.21,0,.45.36.47.72l.13-.21c.43.26-.26.13.14.51-.3.27-.69.67-1,.49,0,.31.17.37.21.64-.27.2-.34,0-.63,0,.07.17.21.4.37.24l-.1.37c-.06,0-.07-.11-.07-.16-.06.14.1.4.22.47s-.07-.12,0-.16c.09.14.25.42.33.44-.17-.22.18-.25,0-.48.08,0,.25.05.21.18.17-.21.13-.41.32-.51-.14.18.08.28.12.32a.76.76,0,0,0-.11-.57c.34-.06-.15-.6.23-.44-.13,0-.17-.24-.11-.38s.27.28.47.4c.26.62-.25,0-.34.18a3.42,3.42,0,0,1,.07.47c0-.05.25.18.21-.14a.53.53,0,0,1,.23.7c.1.06.08-.13.08-.19s.48.37.51-.06c0,.12-.17-.2-.28,0,0-.16.07-.63.27-.46-.06-.21-.26-.57-.33-.73.15-.07.09.13.17.21l-.18-.57-.14.2c.06-.45-.41-.63-.61-.92.27,0,.37.24.56.44.27-.28-.2-.1-.24-.46a.19.19,0,0,1,.18-.08l-.3-.21c0-.09.08-.06.1,0-.41-.38-.34.11-.67-.45,0,.39.29.24.35.56-.15.23-.42-.26-.57-.3,0-.3.33-.47,0-.76.22.21.24-.08.38.28.21.16.07-.15.2-.25-.08-.08-.24.17-.31-.12h0a4.29,4.29,0,0,0-.45-.32c-.06-.46-.71-.72-.6-1.12l-.21.2a3.51,3.51,0,0,0-.52-.65c.16-.06.28.08.42.21a1.56,1.56,0,0,0-1-.78,2.7,2.7,0,0,0,0,.58c-.5,0,0-.44-.41-.6.2-.19.26-.07.4-.31-.25,0-.41-.23-.65-.25.13-.26.41-.29.71,0,0,.38.56.4.54.75l0-.23a6.92,6.92,0,0,0,.59.55h0l.31,0-.08-.13a1.28,1.28,0,0,1,.63.23c-.29-.4-.67-.19-1-.23-.23-.34.06-.77-.3-.85.09-.1,0-.38.26-.3s.17.39.34.29c-.16-.2,0-.19-.28-.48a1.83,1.83,0,0,1-.93,0,1.57,1.57,0,0,1-.64-.57c.22.16.59.2.67,0-.29.06-.27-.53-.45-.22-.23-.25-.65-.61-.5-.86.34.1.43.47.68.6-.05-.06-.05-.16,0-.18l.28.3c-.13-.31,0-.35-.34-.59,0,0,0,.11,0,.09s-.16-.16-.24-.22l.17-.22c-.32-.08-.57-.73-1.16-.87l.07,0c-.35-.28-.67.16-1.1,0,.18,0,.18-.18.22-.3-.27,0-.28-.24-.47-.42.18.27-.3.18-.16.35-.11.25-.54,0-.75-.08,0-.4.77.15.59-.35-.22-.14-.35,0-.22.16-.26-.18-.7-.36-.84-.65-.44.12-.55-.06-.87.22.19,0,.28-.21.48,0l-.34.17c-.34-.07-.56-.36-.8-.46l.28,0,0,0c.12-.09.44.06.45-.14-.3.18-.42-.1-.77,0l0,0c-.57.1-.9-.55-1.31-.09.1,0,.28.23.2.31-.11-.15-.44-.13-.42-.27l.12,0a1.39,1.39,0,0,0-.61,0c-.09.18,0,.32-.23.41-.54-.14.23-.41-.14-.58-.17,0-.34.13-.51.2l-.12-.16c-.79-.14-1.32.49-2.08.65-.08-.28.48-.5.68-.54-.29-.2-.6.18-1,.11s-.49.34-.4.47c-.34.19-.31-.09-.37-.12,0,.33-.51.39-.78.56l-.08-.15a4.11,4.11,0,0,0-.36.38c.12,0,.08.15.12.25l-.12,0c.58.22.85-.69,1.46-.35-.11.11.09.13,0,.24s-.14,0-.18-.05c0,.16-.15.33.07.24.1.34-.37.42-.62.65-.33-.11.12-.41.19-.62-.11.07-.15.25-.36.23l-.06-.26c-.37.32,0,.27,0,.55s-.37.16-.47.24l.09-.12c-.37.06-.31.33-.59.47l-.23-.11c.47,0,.24-.57.52-.55-.66,0-.14-.55-.05-.84a.78.78,0,0,1-.67.18c-.17.5-.79.32-.89.88-.2.08,0-.26-.14-.14a2.61,2.61,0,0,0-.9.91c-.17.14-.22,0-.34,0a2.06,2.06,0,0,0-.81,1,4,4,0,0,1-.73,1.16l0-.22c-.17.18-.34.32-.24.53-.55,0-.32,1-.9,1.14-.3.44,0,.62,0,1-.1,0-.24-.23-.36-.05a14.21,14.21,0,0,0-.56,3.93s-.07-.09-.08-.13a3.52,3.52,0,0,0,.17,1.37,5.14,5.14,0,0,1,.23,1.22c.08.13.25.53.41.37,0-.18.22-.24.37-.26.33.58-.26.38-.1.79-.31.23-.3-.21-.61-.14l.38.58c0,.39.33.66.27,1,0-.15-.27.05-.22-.22,0,0,0,0,.07,0-.16-.53-.27-.22-.5-.67a6,6,0,0,1,.6,1.3c.19-.17.23.24.42.27v0c.1,0,.26.13.32.18l-.23.23c.11.13.12-.11.22,0s.64.85.41,1.09c.19.22.39.18.53.44-.08,0-.15,0-.19,0a4.49,4.49,0,0,0,.63.8,6.83,6.83,0,0,1,.61.8,2.28,2.28,0,0,0,1.15.52c-.12-.06-.37-.34-.07-.34s.31.13.5.2c-.13.1.31.42-.07.28-.13.37.76.41.57.7.13,0,.6.31.88.22,0,.16-.32,0-.37.05l.26.07,0,.09c.42.3.68,0,1,0l0,0,.21,0-.33.18c.32.07.56-.11.9,0v.1l.23,0a.05.05,0,0,0,0,.07c.27-.21.67,0,.89-.17.12.07.16.43.39.23l-.1.32c-.47,0-.12-.27-.62-.26.24.52,1.29.67,2,.67.56-.16,1.48.15,1.68-.37l0,.21a7.47,7.47,0,0,0,.95.06c.39-.09.79-.17,1.15-.27a1.92,1.92,0,0,0,.93-.48l.21.1a3.31,3.31,0,0,1,1-.92c.4-.29.74-.63.71-1,.36-.05.07.27.1.39.26-.08.31-.7.69-.59.07.08-.22.29-.06.25s.09-.31.39-.26c-.19-.1,0-.55.15-.78,0,0,0,0-.08,0s0-.21.12-.31a.1.1,0,0,1,0,.07,26.58,26.58,0,0,0,2.44-4l0,.32a1.25,1.25,0,0,1,.27-.71v0c.44-.31-.17-.54.27-.76l0,.07c.13-.49.49-.74.39-1.27.18-.38.31-.33.48-.6a.4.4,0,0,0-.23-.37l0,.11c-.19.11-.14-.25-.22-.41-.3.12-.75.06-1.07.47.08.31-.47.26-.47.59.36.24-.36.42-.06.78-.23-.21-.23.31-.45,0-.24.06.07.66-.24.81,0-.05-.1-.06-.12-.12,0,.34-.25.14-.32.35l.26.09c.05.12-.14.07-.12.16s.22-.13.3,0a.7.7,0,0,1,0,.36.23.23,0,0,1-.13-.2s-.11.23-.24.19,0-.23-.12-.36c-.18.27-.09,0-.35.05.32.09,0,.3,0,.49-.13,0,0-.13-.06-.21-.66,0-.1.48-.44.78a.18.18,0,0,1,0-.12c0,.21-.35.17-.25.37-.15.12-.32-.18-.48,0,.32.13-.24.22,0,.44l-.29,0c0,.27.5.35.26.66s-.41-.42-.68-.4l.09.19-.21,0v0c0,.11-.2.19-.27.11s0-.14,0-.21c0,.23-.75.05-.55.54-.13,0-.28.09-.36-.06.08.25-.36.18-.39.36,0-.08-.19-.13-.24,0,.15,0,.13.13.13.29-.17-.08-.37.19-.55-.05-.08.21.06.37.12.57-.18-.11-.48.08-.55-.25.1,0,.31,0,.18-.21s0,.11-.14.21-.17-.15-.18-.25a.38.38,0,0,1-.3.08c.22.08,0,.25.12.34l.08-.28c.19-.09.11.15.22.2-.34.19-.15.48-.47.76a1.3,1.3,0,0,0-.28-.09c.12,0,0-.33-.07-.37-.14.29-.39-.06-.56-.08.15,0,.12.25.08.33-.32.23-.16-.09-.33-.21-.53.13-.88-.27-1.29-.06.06.1.13.2.2.28l.06-.26c.16.19,0,.59-.11.76,0-.09-.31-.06-.19-.2l-.28.1c0,.12.22.08.08.19-.09-.09-.37-.16-.18-.3-.14,0-.33.06-.32.22-.23,0,.06-.32.17-.43-.18,0-.13-.26-.07-.32h-.24c.06-.06.07-.17.13-.23-.13-.12-.29.15-.38-.08l-.1.21c-.38-.26-.32-.3-.69-.41l0,.17c-.38.2-.12-.32-.53-.33-.25,0-.4,0-.49.26-.16,0-.13-.13-.14-.24-.15.09-.5.23-.56,0H152c.09-.23-.28-.23-.37-.42a7.45,7.45,0,0,1-1,.13.63.63,0,0,1-.57.49c.12-.1-.14-.32-.17-.51.15-.07,0-.5.28-.35,0,.12-.1.31,0,.34a1.73,1.73,0,0,0,0-.68.26.26,0,0,1,.29,0C150.41,51.11,150.4,51.17,150.36,51.22Z"/><path class="cls-1" d="M165.78,43v0l0,.07S165.77,43,165.78,43Z"/><path class="cls-1" d="M148,45.9a.13.13,0,0,0-.08,0A.18.18,0,0,0,148,45.9Z"/><path class="cls-1" d="M148.82,41.83l-.06,0Z"/><path class="cls-1" d="M164.08,43.79l-.07-.08S164,43.76,164.08,43.79Z"/></g></g></svg>