<svg xmlns="http://www.w3.org/2000/svg" viewBox="0 0 285.71 199.39"><defs><style>.cls-1{fill:#202020;}</style></defs><title>Youtube Icon</title><g id="Layer_2" data-name="Layer 2"><g id="Layer_1-2" data-name="Layer 1"><path class="cls-1" d="M265.43,196.22a17.15,17.15,0,0,0,2.26-1,6.23,6.23,0,0,0-.67.3l-.65.32Z"/><path class="cls-1" d="M263.2,196.46l-.2,0A.37.37,0,0,0,263.2,196.46Z"/><path class="cls-1" d="M89.16,190.18a16.12,16.12,0,0,0,1.93-.16A8.88,8.88,0,0,0,89.16,190.18Z"/><path class="cls-1" d="M.36,137.24c.05.06.09.09.13.09C.46,137.13.41,137.07.36,137.24Z"/><path class="cls-1" d="M282.16,174.62l-.2,1.1C282,176,282.19,174.9,282.16,174.62Z"/><path class="cls-1" d="M123.27,190.7a.78.78,0,0,0,.27-.13A.78.78,0,0,0,123.27,190.7Z"/><path class="cls-1" d="M284.56,93.46l0-.95A6.65,6.65,0,0,0,284.56,93.46Z"/><path class="cls-1" d="M10,110.64a3.89,3.89,0,0,0-.15-.86C9.84,110.3,9.89,110.68,10,110.64Z"/><path class="cls-1" d="M8.66,110.22c.38,6.72.75-1.44,1.15-.44-.11-1.79,0-5.62-.33-3.81.8-3.52-.44-10.66.19-14.47-.08-.16-.34,2-.54-.59a18.91,18.91,0,0,1,.46-5.26,52.2,52.2,0,0,1-.28-6.58c-.2-2.62-.78,2.79-1.12-.87-.54-2.48-.08-5.85-.23-8.77.38-3.51.26,3.5.44,5l-.25-9.94c.28-2.92.52,1.31.46,4.24.34-4,0-9.07-.41-10.24.1-2.49,0-3.8.18-6.14.25,2.33,1,2.18,1.14,5.83,0,6-.59-2.18-.7,2.93l.46.44a45.25,45.25,0,0,0,.11,6.28c-.11,1.31-.16-.29-.23-1.16,0,4.25-.21,7.62.31,10.82.42-5.72-.15-14.34.37-16.84L9.21,49.23c-.21,0-.55,4-.86.74.54-1.32.78-4.68.88-9.08-.59,1.62-.52-7-1-4.81A7,7,0,0,1,8,39.44c0-4.25-.54-.57-.57-2.91.13-7.75.37.28.59-7.32.26,1.6.85,5.7,1.09,9.93.26-.29,0-4.23.26-6-.31,2.5-.55-1.74-.68.31l-.11-2.35L8.5,29.88l0-.61v-.52a19.34,19.34,0,0,1,.27-4.26,18.51,18.51,0,0,1,3.74-8.38A5.81,5.81,0,0,1,11.6,18c-.22.46-.45,1-.71,1.47s-.43,1.08-.65,1.59a9.31,9.31,0,0,0-.45,1.5,5.11,5.11,0,0,0-.21,1.18c0,.64.1.88.47.5.11-.72.3-1.22.39-1.67s.14-.79.25-1.11a6.67,6.67,0,0,1,1-2.23,6,6,0,0,0,.58-.68c.22-.25.48-.53.72-.84.47-.65,1.13-1.31,1.77-2.06a18.32,18.32,0,0,1,5-3.72c-.28.09-.58.17-.86.27l-.83.36a10.5,10.5,0,0,1,2.64-1.47l1.61-.54,1.48-.33-.43.23.84-.3L25,10c.28,0,.35,0,.35,0a6.91,6.91,0,0,1,.85-.2l1.11-.09c.72-.08,2-.05,3.13-.05,2.39,0,5.06,0,7.34,0,0-.42-4.53,0-6.72-.06-.3,0-1.5-.12-2.38-.21l-.58-.07a1,1,0,0,1-.28-.07c-.09,0,0-.13.46-.21C34,9,38,8.49,44.39,8.5l-2-.13a69.15,69.15,0,0,1,7.89-.17c5.57.29-4.09.59-.72.83-2.19.37-6,0-6.57.49l3.5.59c2.93-.36,6.16.18,8.21.1L52.45,10c.43-.46,2.48-.11,3.51,0l-1.48-.67c-3.21-.11-5.4.47-7.74.08,5.69-.21,4.38-.75,11.25-.77.31.26-1.32.1-2,.29,2.34.18,4.81-.36,8.61-.15-2.18.16-5.7.43-2.91.78l2-.5c1.75.08,1,.28,1.75.29,2.5.1-.57-.52,3.37-.39.59.1,1.9.21,1.32.33,4.53,0,2.18-.16,6.41-.41-3.79,0-3.94-.76,0-.85,5.56.08,9.35-.34,13.16.29l2.48-.33c-1.6.47,3.52.16,5.28.24.58.52-8.34,0-8.34.83,3.65.08,2.06.34.88.57,4-.08,1.46-.6,3.21-.94,0,.21,6.73.06,4.4.52,3.36,0,3.94-.51,6.42-.41-.37.21-.8.48-.57.74a29.72,29.72,0,0,1,4.09.06c-.58-.1,1.16-.44-1.76-.29.73-.41,6.88,0,6.72-.36.3.47,6.29.1,9.36.29-.3-1.11-5.69.42-6.72-.49,4.09-.38,13.75,0,20.33-.53,5.69.21,0,.42,1.17.83-5.25.18-6.58-.15-11.11.05,5,.19,13.16.08,16.81-.26,5.42,0,6,1.11,12.6.83A5.51,5.51,0,0,0,152.17,9c1.75-.13,3.81,0,5.7,0,1.16-.23-2.93-.27-.3-.47,1,.07,3.22.11,2.79.36l-.44,0c6.28-.33,4.55.86,9.95.18-.44-.18-1.61,0-2.93-.07-1-.28,2.33-.67,4.83-.78-.45.24,2.19,0,3.94.13,1.17.41-4.39.12-5.26.39l4.83.06-1-.06,5.25-.39c-3.66.13-1.76-.5-.15-.55,3.65.08,7.31.16,6.87.62.44-.46,5-.44,8.19-.54-3.51-.16-.44-.39.57-.54l5.27.45c-5.56.13,1.17.41-.13.72-1.6.47-5,.23-7.9.16,5.72.85,8-.46,13-.05,0,.21-.44.46-2.63.41.88.14,4.53-.41,7.9-.17-.88-.15-2.79-.57.57-.75l4.4.52c5.12.11,1.75-.55,6-.8l-2.77-.36c.43-.46,5.7,0,5.84-.51-2.63,0-4.1.37-6.86.23-1-.49,3.5-.26,5.09-.52,5.71.21,4.54.23,8.79.62.16.76-7,.95-6.11,1.94,5.55-.13,13.6-.38,17.24-.09,5-.23,4.52-.83,3.79-1.27a30.11,30.11,0,0,1,4.39.1l-2.33.25,7.93-.34A19.44,19.44,0,0,1,263.7,9c1.58.46,2,.64,2.12.45s-.34-.59-.65-.93l1.7.76c.57.25,1.08.61,1.63.9l-.44-.38c1-.07,3.72,2.08,5.36,4-.16.15-1.21-1-1.23-.74.71.86,1.62,1.88,2.39,3,.43.51.75,1.07,1.1,1.56l.49.7.39.63c-.2.1-1.2-1.07-2.63-3.19-.12-.25,0-.19-.1-.44-.46-.56-1-1-1.54-1.55s-1.13-.92-1.68-1.38a13.93,13.93,0,0,1,3.82,4.38c.58,1.23.7,2,.45,2,1.2,2.09.87,1.18.6.32-.12-.43-.32-.8-.23-.78a1.41,1.41,0,0,1,.33.4c.16.28.4.73.75,1.38a33.11,33.11,0,0,1,1.21,5.48c.05.44.13.88.17,1.31l.06,1.29c.07.81,0,1.8.05,2.66,0,3.55,0,6.62-.73,9,.29,3.94.78,8.62.82,14.76.42,0,.16,4.1.69,3.5.55-5.86-.82-11,0-15.66-.2-2.62-.55-1.74-.78-2.91,0-2.33,0-4.53.28-4.83.26,5.41,1,1.45,1,8.32.36-.87.23-6.44.32-8.92.2.73.42,0,.59-1.62.34,1.76.64,5.69.93,7.74-.2-.72-.31.6-.43,0l.6,7.16c-.26,2.2-.57,2.79-.8,1.62-.13,4,.44,10.67-.19,10.69.1,5.11.38-1.62.55-2.06l0,.44-.05-5.41c.73-.6-.18,6.15.52,7,1.33.85-.42,7.62-.21,11.41l-1-4.38.21,3.81c-.37-2.19-1-2.18-1.4-5.54,0,5.26-.32,12.73-.14,16.09-.33,1.31-.64,1.89-1,1.31.6,5.26-.31,8.19-.32,12.73.36,4.81.49-4.83,1-1.33a28.52,28.52,0,0,0,0,5.41c-.18-1.46.15-6.58.31-10.1,0,2.64.46,2.34.65,3.08l.1-4.4c.59.29,0,5.41.34,7.45-.52-1.3-.54-.58-1.06-1.88a99.79,99.79,0,0,1-.11,12.73c-.21,1.9-.26-1.6-.41-2.63-.36.88.21,3.8-.23,4.53-.33-.58,0-2.33-.13-3.66l-.16,11.12c-.21,0-.28-2.77-.2-4.52a34.76,34.76,0,0,0,.59,9.79c-.21,3.8-.52,8.18-.83,6.89.13,1.75.33.58.54.57-.11,5.13.64,5.69.65,8.76l.39-2.33c-.41,5,.65,1.16.34,5.54-.41-.72-.88-.43-1.32.31.41.73,0,3.51,0,5.41.41-1.18.38,4.08.78,1,.33,4.39-.23,6.43.3,9.65.13-2,.42,3.8.72,2,0,4.25-.46,7.17-.9,6,0-1.47.21-3.82-.13-3.66l.08,7.74c-.11,1-.17,2.07-.3,2.94s-.33,1.47-.57,1.59a10,10,0,0,1-.69,4.34c-.22.77-.6,1.47-.8,2.13a7.66,7.66,0,0,0-.51,1.67c.74-2.31,1.67-4,2-4.88l-.19,1.11c0-.16.09-.33.17-.56a22,22,0,0,1-.21,3.28c1.32-2.83-.13-.67.85-4.85.33-.89.49-.82.55-.23a6.54,6.54,0,0,1,0,1.2l-.2,1.57c-.37,2.16-1.1,4.29-.09,2.45a10.6,10.6,0,0,0,.67-1.8,5.12,5.12,0,0,0,.08-1.13c0-.65-.11-1.23-.07-2.6l-.12.7.15-1.54c0-.51,0-1,0-1.54,0-1-.06-2.07-.11-3.12.26-.29.47,1.61.47,1.61,0-7.61.41-8.79.5-17-.1.59-.9,2.2-1-1.45-.2-2.62.28-2.93.33-5.11a14.42,14.42,0,0,1,.24,4.23l.55-.14c.67,6.13,1.21,2.91,1.4,11.25a13.65,13.65,0,0,1,.45,3.92,55.62,55.62,0,0,1-.07,7.24l.49-2.4c.24,2.6.05,2.86-.18,3.26a3.28,3.28,0,0,0-.35,1.05c-.07.3-.09.7-.21,1.22s-.23,1.17-.37,2a20.24,20.24,0,0,1-2.68,3.65c-.82.82-1.26.88-.79-.79-.26.47-.47.93-.7,1.32l-.67,1.1c-.38.71-.8,1.28-1.19,1.87l-.59.87-.69.85-.78.92-1,.93c-2.15,1.14.44-1.29-.31-1.41-.5.46-1,1-1.51,1.43s-1,.85-1.33,1.18c-.74.6-1,.91,0,.52a24.5,24.5,0,0,1-4.79,2.18c-.09,0,.31-.21.81-.42s1.07-.53,1.4-.68c-.47.18-1,.47-1.64.74s-1.28.52-1.91.79c-1.3.44-2.5.9-3.07,1.06.44-.06,1.7-.48,2.28-.54-.52.16-1.14.42-1.81.58l-2,.48a19.45,19.45,0,0,0-2.53.44c1.64-.24,2.54-.15,3.46-.25.46,0,.93-.06,1.49-.14a15.69,15.69,0,0,0,2-.64,2.57,2.57,0,0,1-.68.48,5.06,5.06,0,0,1-1.87.53c2.95-.16,5.7-1.32,7-1.56-.61.2-1.12.44-1.6.63s-.9.36-1.25.53c-.7.36-1.19.62-1.44.71a11.82,11.82,0,0,0,2-.6l1.12-.42,1.09-.54,1-.54c.33-.19.63-.4.91-.59.56-.38,1-.7,1.32-1,.31.17,2.15-1.11,3.42-2.41.68-.59,1.16-1.25,1.46-1.49s.33-.19-.05.49c.17-.5,2.34-3,3.28-4.56,0,.07-.06.37-.26.81a10.08,10.08,0,0,1-.88,1.6c-.7,1.23-1.74,2.49-2.28,3.34-.82.82-1.45,1.41-1.91,1.84s-.83.62-1,.75c-.38.24-.24,0,.07-.32.66-.67,1.76-2.1.92-1.46a13.28,13.28,0,0,1-1.33,1.09c-.46.34-.9.71-1.38,1a26.58,26.58,0,0,1-3,1.71c.33-.11-.23.3-.39.49s.15.2,2.14-.91a9.62,9.62,0,0,1-1.63,1.17l-1.07.63c-.39.18-.81.36-1.23.54s-.87.36-1.32.52l-1.41.37a13,13,0,0,1-2.82.41c-.81.3,1.85,0,2.65-.32-.19.1-.6.3-1,.48a8,8,0,0,0-1.1.49c-.23.15-.26.26.15.28a9.13,9.13,0,0,0,2.74-.39c-1.67.4,2.74-1-.31-.49.57-.17,1.4-.35,2.25-.67s1.77-.56,2.51-.88c1.49-.59,2.47-.89,1.38-.15a29,29,0,0,0,4.59-3.28c.77-.67,1.45-1.41,2.09-2s1.09-1.29,1.48-1.74c.35-.16,0,.25-.47.81l-.82.92c-.3.29-.58.57-.78.8a27.29,27.29,0,0,0,5.12-6.66c-.53.62-1,1.27-1.57,1.83a15.43,15.43,0,0,0,1.22-1.82l.52-.89.41-.9c.26-.6.52-1.17.71-1.75s.34-1.16.49-1.72a11.62,11.62,0,0,0,.34-1.69l.26-1.68.12-1.71a15.81,15.81,0,0,0,.08-1.75c.29.35.28,1.51.15,3a29.06,29.06,0,0,1-1,4.81,8,8,0,0,0,.79-1.53,5.1,5.1,0,0,0,.15-1.12c0-.39,0-.84.13-1.5s.14-1.54.35-2.79c.16-.66.28-.83.43-.48l-.13-2c0-.69-.15-1.2-.22-1.8.06-1,.18-.45.21,0-.59-6-.77.15-1-7.89-.28,4.84.38,4.11.33,8.19-.39,2.36-.7-4.66-.93-5.84.13-3.94.94-4.39.5-9.36.26,3.5.51.14.52,5.11.28,2.78.24-1.47.55-2-.1-1.31-.57.88-.49-2.78l.08.14-.59-6c.29-5.57-.65-12.57,0-16.38l-.57.88c0-3.5-.07-8.48-.18-11,.33.57.36,2.92.47,5.4a132.85,132.85,0,0,0-.7-16.08c-.41,3.08-.37,3.52-.65,6.45-.8-4.09.49-4.84.1-10.1.55-.14.47,1.61,1,.29-.38-2.19-.3-5.85-.62-8.34.54-1.32,1,1,1,6.42-.47,4.1.36,8.63-.1,12l.34-2.05c.16,4.1.07,6.58.33,10.08l-.08-.14.55,1.75V127a50.86,50.86,0,0,1,.83,6.42c-.08-5.86-1-6.28-1.45-9.05,0-5.27,1-7.33.54-10.84.26-.29.54-3.22.78-.88.15,2.91-.19,5,.18,5.26,0-3.07.21-1.9.14-6.58-.49-.88-1-4.38-1.35-7.73a96.86,96.86,0,0,1-.1-10.84c0,3.51.52,7,.88,6.13-.51-2,.41-6.87-.29-5.84,0-4.09,0-11,.63-11.42.22,3.87-.14,7.62,0,10.9,0-.9.17-1.79.31-1.26l-.06,4.83a46.25,46.25,0,0,0,.42-7.61c0,.29-.15.88-.18.44V85.1l.55-.14c-.26-3.5.44-10.25,0-16.67l.11.58c.11-5.12-1-5.55-1.11-11.11.26,1.61.49.87.75.58-.28-2.77.18-4.25.32-7-.32,3.23-.59-2.18-.76.16-.56.16-.56-5.56-.49-8.48.72-1.75.39,9.07,1.12,4.67.06-2.92-.34-3.65-.47-1.6a114.34,114.34,0,0,1,.6-11.86c-.27-2.19-.33-3.72-.41-5a14.92,14.92,0,0,0-.9-4.55c.11.69.24,1.21.33,1.67l.22,1.26a12.82,12.82,0,0,1,.16,1.41,14.9,14.9,0,0,1-.08,1.76l-.26-1.61-.34-1.88a29.79,29.79,0,0,0-3.07-12.11c.37.5.63,1.06.95,1.6a16.77,16.77,0,0,1,.86,1.65l-.14-.14a17.15,17.15,0,0,1,1.3,3.34c.19.63.36,1.2.5,1.58s.21.57.28.42c-.59-1.62-1-3.09-1.55-4.64-.14-.39-.28-.79-.44-1.19l-.58-1.22c-.21-.42-.42-.85-.68-1.29s-.58-.86-.9-1.31l.16.11a39.72,39.72,0,0,0-6.78-7.76A15.55,15.55,0,0,0,267,2.51c1.36.47,3.68,2.15,2.8,1.9a18.83,18.83,0,0,0-3.45-1.76c-1.27-.56-2.37-.87-2.25-1a12.28,12.28,0,0,1,1.56.37,26.36,26.36,0,0,0-5.25-1.3,11.38,11.38,0,0,0-1.87-.18c-.54,0-1,0-1.41,0a1.29,1.29,0,0,0-.79.45,4.33,4.33,0,0,1-1.92.36C248,1.11,257.06.51,252.68.2l-6,.38L245.36.25c-8.91-.32-15.78.75-25.29.75-.15-.55,6.72-.78,9.06-.82C226.2-.3,222,.37,218,0c-3.67-.08-6.43.41-5.85.72-4.52.2-3.22-.33-3.8-.42-1.47.6-7.17.39-10.82.52L197.4.5,191.7.92c1.46,0,.15.34.15.55l-1.46,0c5.57.93,12.57-.65,18.28.41-1.75.13.6.31-1.16.44-1.46,0-1.75-.08-1.9-.21-.88.28-3.21.52-.14.51-.14.72-6.29.54-10.52.78-3.37-.46,3.5-.69,5.25-1a35.9,35.9,0,0,1-5.26.18l.57-.54c-5.84.29-1.6.47-2.91,1-1.59.69-5.26,0-6.87,0l1.75-.13c-4.53-.23-5.55.34-9.64.3l-1.92-.43c5.14.54,6.28-.75,9.21-.47-7.46-.5,1.6-1.11,3.94-1.56a46.46,46.46,0,0,1-7.89-.26c-4.68.7-9.81-.26-14.33.57-2.49-.1,2.18-.38-.45-.39-4.82-.06-9.94,0-15.06.34-2.64,0-2.19-.26-2.93-.49-12.73-.32-17.69,1-31.59.66l2-.29C116,.77,113.46.68,112,1.07,108.34.14,99.58,1.64,94.9.65c-6.15-.18-6.43.62-11.26.77,0-.21,1.47-.61-1-.7-15.78.33-30,.4-47.37.56a8.4,8.4,0,0,1,1.46-.18c-2.82,0-5.62,0-8.39.09A28.39,28.39,0,0,0,18.93,3a27.82,27.82,0,0,0-7.86,4.56,33.79,33.79,0,0,0-5.8,6.17l-1,1.85a20,20,0,0,0-1,2.28,7.26,7.26,0,0,0-.5,1.68c0,.34,0,.4.26,0a5.53,5.53,0,0,1,.66-1.33,3.34,3.34,0,0,1,.55-.66c.31-.26.49-.21.59-.08-1.77,4.22-1.88,5.36-2.34,6A4.19,4.19,0,0,0,2,24.68a11,11,0,0,0-.26,1.11,9.37,9.37,0,0,0-.17,1.86c-.4,1-.49,0-.51-1.28s.21-2.78-.08-2.84A29.56,29.56,0,0,0,.63,28.2c0,.38,0,.79,0,1.15l.06,1,.11,2c-.23,4.53.18,9.07-.16,13,.08-1.76-.54-.57-.26-3.5,0,.45.08.15.11.59C.57,35.73.16,38.8,0,32.8c.18,5.27.36,12.43.22,17.12.49-1,.21,3.8.52,5.11l0,.29c.21,0,.36,2.91.42,3.8L.49,60.3c.08,2.05.31-.58.39,1.46.15,2.91.22,13.31-.44,14C.5,79.32.86,80.34.77,84c-.16-.29-.23-1.16-.31-1.3C.34,90.42.55,99.93.17,107.26c.16,6,.26,11.1.69,14.89,0-1.61.1-6.29.46-3.36.26,1.61.16,4.09.28,6.57-.32-.58-.31,6.3-.53,1.33-.71,1.25.14,10.72-.57,10.64.22,1.16.09,8.22.47,10.87-.31.59-.21-3.81-.43-3.8l.1,3.21H.42c-.18,6.16.68,7.3.82,11l-.08-.14.11,2.48L.7,158c.08,3.94.59,6,.7,10.37l-.18.44.11,1.34.17,1.47c-.06-.5-.15-.66-.18-.34.18.69.27,1.6.52,2.6l.32,1.57c.12.54.3,1.07.45,1.61s.29,1.08.5,1.59l.6,1.45a10.48,10.48,0,0,0,1.23,2.19c.35.89.66,1.73,1.07,2.63a7.7,7.7,0,0,0,2,2.67l-.82,0c-.5-.66-.9-1.18-1.2-1.62s-.47-.81-.63-1.1a11.1,11.1,0,0,1-.55-1.18c-.12-.31-.21-.64-.5-1.26l-.58-1.2c-.23-.51-.47-1.16-.8-2a15.53,15.53,0,0,0,.58,2.27,23.54,23.54,0,0,0,1.2,2.81,26.8,26.8,0,0,0,4.41,6.17,30,30,0,0,0,6.72,5.13,29.66,29.66,0,0,0,7.47,2.79l.74.15.77.09,1.61.2c1.1.13,2.26.11,3.44.18h6.24c4,0,7.59-.07,9-.57l-.73.41,11.55.34c9.8-.17,19.89.14,27.35-.41l2.05.34c7.73-1.14,26.32-.47,31.42-1.84,4.38.31-1.32.52-1.75.77,3.23.11,8.63-.78,11.7-.17,0,.21-4.53.2-2.49.33,2.34.39,3.35-.39,6,0-1.17-.41,4.24-.88,8.17-1a5.73,5.73,0,0,1-1-.07c-.57-.31,2.36-.25,4-.29a1.68,1.68,0,0,1-.58.11c20.31-.53,43.56-.77,64.92-.39l-3.93.29c3.07-.23,8.49-.07,10.23,0l-.44,0c5.71.64,6.44-.62,10.83.11l-.87.07c6.87,0,11,.66,17.68.31,5.28.24,4.7.57,8.36.86a15.79,15.79,0,0,0,4.67-.49l-1.47,0c-1.61-.37,3.22-.31,5.41-.47-1.61-.59-.74-1.5-6.9-2.1-4.53.2-4.4-.94-9.51-.85-2.92.78-7.32-.58-12,.12,2.48-.54-5.56-.29-1.48-.88-1.9-.42-9.93.46-13.6,0a5.49,5.49,0,0,1,1.32-.31c-5.12.31-3.51-.37-7.31-.37l.14.55c-1.47.18-1.91-.21-3.22-.11,1,.07,3.22.33,2.06.55-1.76.13-3.22.31-5.12.31,0-.21,1.3-.31,2.19-.38,0,0-4.11,0-4.4-.31,1.47-.18,3.36-.18,4.66-.49-5.4-.16-.43-.18-3.07-.62.74.65-4.68.28-7.6.42-.3-.26,2-.08,2.77-.28-5.57-1.14-8.34.2-15.5,0a8.4,8.4,0,0,1,1.47-.18c-3.37.18-5.72-.42-7.91,0-3.22-.11-.59-.73-5.57-.72,1.46.67-5.85-.13-6,.59l-3.81-.42c-3.37.39.9,1.2-5.69,1.27-6-.26.57-1.18-2.94-1.55l-1.47.39-2.93-.28.45,0c-1.76.13-5,0-5-.19.29-.16,2.2-.16,2.47-.33-2.91.36-11.55-1-14.61.1-1.73-.19-5.28-.19-4.83-.53-1.57.47-7.79-.15-10.11.15.3-.16-1.9-.42-3.66-.29,2.35.18.88.36-.72.62-2.06-.34-7.91,0-8.79-.62-3.22.31-2,.72-2.75,1.13-2.06-.34-8.65-.28-7.48-.93,1.77.08,5.72.21,5-.23-3.36-.24-1.46.18-4.23.25.21-.12-1.88-.4-1.35-.59-1.64.07-3.93.06-6.26,0,3.65.29-2.33.46-.14.72l3.5-.47c4.25,0,.89.36,2.5.52-7.46.13-6,.8-13,1.11-1.32-.11-3.65-.29-4.39-.31,2.34,0,1.89-.64.56-.75-3.92.51-7-.32-10.23-.44,2.79.15,1.32.54.3.68-6.72.36-2.64-.23-5.57-.5-10.37.07-17-.72-25.29-.31l3.95.55,1.31-.52c3.08.41-.57,1.17-2.32,1.51-.44-.18-5.57-.08-3.52-.37l-.62,0H28.33a15.5,15.5,0,0,1-2.12-.14,7.21,7.21,0,0,0,1.65.41c.52.06.72.11-.31.17-1.43-.26-5.61-1.51-2.88-1.12-1.09-.23-2.27-.67-3.19-.91s-1.46-.48-1.31-.23a3.13,3.13,0,0,1-1.24-.76c-.06-.11.17-.08.53,0s.91.21,1.43.36c.26.07.52.16.76.22l.68.14a5.32,5.32,0,0,1-1.38-.68,1.31,1.31,0,0,1-.47-.43c-.07-.19.26-.19.66-.08a12.75,12.75,0,0,1-1.68-.85,14.17,14.17,0,0,1-1.6-1c.73.39.88.17,1.63.47-1.92-1.42-3.67-2.13-4.72-4a7.29,7.29,0,0,1-.94-.43A19.4,19.4,0,0,1,11,177.07l-.34-1-.28-1.21-.17-.71c-.05-.25-.07-.53-.12-.82a13.85,13.85,0,0,1-.21-2,8.3,8.3,0,0,0-.25,1.07,10.82,10.82,0,0,1-.25-1.53,7.69,7.69,0,0,1-.07-1.21,18.42,18.42,0,0,1,.18-2.11,37.77,37.77,0,0,0,.27-7c-.2-4.53-.34-7.46-.87-6.86a12.54,12.54,0,0,1,.31-4.4,45.41,45.41,0,0,1-.51-9.64c.16,2.19.29,3.94.38,6,.52-.6.11-7,.36-10.38-.25-2.34-.88-9.95-1.34-14.18-.42,1.91-1,1.19-1.47-2.61.33.58.33-5.13.56-7.75.31,1.3.76-5.86.89-.32-.16,1.61-.6,2.35-.44,4.55a77.09,77.09,0,0,0,1-8.5A16.65,16.65,0,0,1,9,110.5C8.89,109.47,8.79,110.07,8.66,110.22Z"/><path class="cls-1" d="M282.16,174.62a5,5,0,0,0,.1-.64,7.78,7.78,0,0,1-.22.78C282.11,174.49,282.15,174.5,282.16,174.62Z"/><path class="cls-1" d="M24.74,10.28c.23-.05.64-.19.64-.26A2.34,2.34,0,0,0,24.74,10.28Z"/><path class="cls-1" d="M103.62,9.6a.36.36,0,0,1-.14-.14C103.42,9.5,103.44,9.54,103.62,9.6Z"/><path class="cls-1" d="M277.4,178.89a8.32,8.32,0,0,0,.3-1.3C277.6,178.06,277.58,178.29,277.4,178.89Z"/><path class="cls-1" d="M113.87,62v.64A2,2,0,0,0,113.87,62Z"/><path class="cls-1" d="M114.23,61.45v-.05S114.22,61.42,114.23,61.45Z"/><path class="cls-1" d="M155.19,86.22a1.86,1.86,0,0,0-.54-.16A1.05,1.05,0,0,0,155.19,86.22Z"/><path class="cls-1" d="M193,101.52a.38.38,0,0,0-.14,0C192.8,101.53,192.83,101.55,193,101.52Z"/><path class="cls-1" d="M114,69.46l0-.29C114,69.11,114,69.39,114,69.46Z"/><path class="cls-1" d="M146.92,81.15a.25.25,0,0,0-.11,0A.26.26,0,0,0,146.92,81.15Z"/><path class="cls-1" d="M112.38,92.46c0,.09,0,.18,0,.27A.74.74,0,0,0,112.38,92.46Z"/><path class="cls-1" d="M179.07,101.39a.56.56,0,0,0-.15.22C179,101.52,179.11,101.43,179.07,101.39Z"/><path class="cls-1" d="M179.46,102.29c1.5-1.22-.64-.28-.55-.68-.4.33-1.36.84-.8.77-1.17,0-2.44,1.83-3.61,2,0,.08.63-.08.06.43-.93.62-1,.34-1.46.47a5.73,5.73,0,0,1-1.5,1.13c-.57.51,1,.1.22.85-.4.71-1.4.9-2.06,1.42-1,.27.76-.68,1-1l-2.34,1.6c-.82.25.12-.53.86-.91A4.28,4.28,0,0,0,167,110.1a15.83,15.83,0,0,1-1.57.78c.48-.5.15-1,1-1.58,1.49-.84-.31.69,1,0l-.07-.36c.64-.15.93-.62,1.49-1,.36-.12,0,.15-.2.32a8.25,8.25,0,0,0,2.53-1.77c-1.56.56-3.45,2.18-4.26,2.2l-2.54,2.06c.08.14,1.18-.22.51.45a4.31,4.31,0,0,0-2.56.75c.62.14-1.52,1.36-.8,1.34a.89.89,0,0,1,.91-.33c-1,.64.07.43-.49.79-1.95,1-.07-.28-2,.69a12.79,12.79,0,0,1,2-2.15c-.17-.13-1,.64-1.57.7.73-.16-.21.61.34.4-1.41,1-2.93,2.48-4.7,3.64,0-.73,2.82-2.25,1.86-2.57-.84.61-.68.89-1.42,1.27-.81,0-2.13,1.21-3.35,1.94l.64-.15a8,8,0,0,1-1.86,1.1l.1-.16-.47.42c-.09,0-.12,0-.13,0-.48.52-2.07,1.24-3.13,2,.16.27,1.11-.65,1.67-.93.18,0,1.29-.52.9,0-1.39.83-2.16,1.73-3.74,2.65l.55-.21a7.52,7.52,0,0,1-1.86,1.25c-1.47.62.77-1-.14-.64.39-.56,1.48-.84,1.42-1.27l-1.08.13c-.58.66-1.57.78-2,1.13l.64-.15c.07.36-.56.43-.84.54l.62.22c.83-.39,1.14-1.09,1.86-1.18-1.31,1-.78,1.12-2.46,2.13-.18-.12.29-.25.39-.48-.64.22-1,.93-2,1.34.47-.42,1.23-1.1.41-.93l-.31.62c-.46.2-.36,0-.54.07-.65.3.34.25-.67.74-.18,0-.54.14-.45,0-1.11.65-.47.42-1.41,1.19.93-.55,1.26-.08.32.55-1.39.75-2.15,1.58-3.33,1.72l-.48.57c.21-.54-.92.4-1.38.61-.34-.25,2-1.2,1.72-1.75-.92.48-.63.08-.43-.24-.94.63-.13.6-.42,1.07-.08-.14-1.67.94-1.28.3-.83.47-.77.9-1.41,1.19a.66.66,0,0,0-.15-.56c0,.16-.86.48-1,.56.18,0-.12.45.54-.06,0,.37-1.68,1-1.5,1.21-.25-.26-1.58.85-2.4,1.17.5.67,1.23-1.1,1.83-.66-.85.84-3.35,2-4.77,3.29-1.47.69-.16-.27-.6-.37,1.22-.88,1.66-.86,2.7-1.65a18.37,18.37,0,0,0-4,2.61,3.67,3.67,0,0,1-1.63.53,3.74,3.74,0,0,0-.79.2l-.11,0h0l-.07,0a.39.39,0,0,0-.13.11c.14.22.16.29.38.27-.12.18-.35.21-.51.3-.1.26.33,0,.08.36-.12,0-.35.11-.3-.13l0-.05c-.31.32-.4.19-.44.07s0-.23-.41.28c0,.18.16-.13.23-.08,0,.22-.44.84-.82,1.17.18-.32-.24.1-.4.12.15-.44.57-.44.79-.81l-.44.2.06,0-.47.47-.13-.08c.1.32-.38.92-.42.69a2.66,2.66,0,0,1,.46-1.66c-.34.34-.33-.38-.4-.85-.12.65-.29.28-.4.13q.17-.59.34-1.05c0,.45.13.36.22.21s.2-.36.32-.29c.35.12.17.51.12.92.32-.56.23-.64.1-.84a1.14,1.14,0,0,1-.18-.31.61.61,0,0,1,0-.25,2.65,2.65,0,0,1,.06-.5.25.25,0,0,1,.23.14.66.66,0,0,1,.07.23,1.25,1.25,0,0,1,0,.28c.05,0,0-.38-.09-.76a4,4,0,0,1,0-1.39c-.11.25-.43.79-.56-.16l.39-1.25c.09-1.46-.42-.5-.6-1.7l-.27.79c-.34-.12,0-1.62-.38-1.66a12.85,12.85,0,0,1,.17,1.95c-.37.3-.2-1-.39-1.45a10.3,10.3,0,0,1,.46-2.5c.57,0,.71,2,1.46,1.74a25.68,25.68,0,0,1-.06-4.9c-.17-1.41-.62-1.29-1-1.08a3.29,3.29,0,0,1,.07-1.25l.18.66a34.48,34.48,0,0,1-.37-4.57c-.1-1-.44-.62-.71-.37l-.06-1.12-.07.17c-.37-.25-.24-1.25-.23-2,.16,0,.2.45.29.41a5.51,5.51,0,0,0-.06-2.2c.16,0,.51.45.4,1.24,0,.08-.1,0-.13.12l.21,1.33c-.2-1.54.21-2.45.59-2.42-.2-1.54-.39,1.25-.54-.58.74-2.41-.21-4.57.85-5.91a20.86,20.86,0,0,1-.61-4.2c-.32,0-.12-1.17-.51-1-.41,1.67.61,3.12,0,4.45.15.74.42.49.59.83,0,.66,0,1.29-.21,1.37-.2-1.54-.77-.41-.78-2.37-.27.25-.17,1.83-.24,2.53-.15-.21-.32,0-.44.46-.26-.5-.48-1.62-.7-2.2.15.2.23-.17.32,0l-.45-2c.19-.63.43-.79.6-.46.1-1.13-.33-3,.15-3-.07-1.45-.28.46-.42.59l0-.12,0,1.54c-.55.17.13-1.75-.39-2-1-.24.32-2.17.16-3.24l.72,1.25L115.63,99c.28.62.76.62,1.05,1.57,0-1.49.24-3.62.11-4.58.25-.37.48-.54.72-.37-.45-1.5.23-2.33.24-3.62-.27-1.37-.37,1.37-.72.38a3.12,3.12,0,0,0,0-1.54,13,13,0,0,1-.23,2.87c0-.75-.34-.67-.49-.87l-.07,1.25c-.44-.08,0-1.54-.26-2.12.39.37.4.17.79.54a10.83,10.83,0,0,1,.08-3.62c.16-.54.2.46.31.75.27-.25-.16-1.08.17-1.29.24.17,0,.66.1,1l.12-3.16c.16,0,.21.79.15,1.29a4,4,0,0,0-.44-2.78c.16-1.08.39-2.33.62-2-.1-.5-.24-.17-.4-.16.09-1.46-.48-1.62-.49-2.49l-.29.66c.3-1.41-.49-.33-.26-1.58a.88.88,0,0,0,1-.09c-.31-.21,0-1,0-1.54-.31.34-.28-1.16-.59-.29-.25-1.25.17-1.83-.22-2.74-.1.58-.32-1.08-.54-.58,0-1.21.34-2,.67-1.71,0,.42-.16,1.09.1,1l-.06-2.2c.16-.55.23-1.25.58-1.34-.4-.7.28-2.08-.2-2.62a2.2,2.2,0,0,1-.16,1.62l-.07-.34a1.1,1.1,0,0,1,0,.18l-.61-1c-.24.91.4.16.39,1.46-.57,1.12-.87-2.54-1.22-1.37-.18,1,.37.79.58,1.58v-.21l.24,1.79c-.2.08-.36-.46-.36-.46,0,2.16-.3,2.5-.38,4.83.07-.17.67-.63.77.41.15.75-.21.83-.25,1.45-.07-.37-.4-.7-.18-1.2l-.42,0c-.5-1.74-.9-.83-1.05-3.2-.3-.11-.46-1.83-.37-3.11l-.27.63c-.53-1.33.43-.25,0-2,.55-.71,1.2-2,1.65-1a17.51,17.51,0,0,0-.16-2.7c.45-.67.49.33.94.21-.05-.79-.25-1.79-.5-1.2l.18-1.5c.1,0,.1.5.09.71a4.7,4.7,0,0,0-.29-2,1.49,1.49,0,0,1,0,.66,8.49,8.49,0,0,0-.46-1.83c.23.91-.28,1,0,2a.67.67,0,0,1-.31-.75c-.27.79-.22,1.58-.52,1.91a1.47,1.47,0,0,0-.15-1.23,7,7,0,0,0,.13,2.19c-.51.09.09,2.33-.44,1.54.18.12.2,1,.07,1.46-.22,0-.34-1.2-.6-1.7-.25-2.33.38,0,.54-.5l0-1.78c-.07.18-.36-.71-.33.45a3.8,3.8,0,0,1-.29-2.57c-.15-.21-.12.46-.13.66-.15-.21-.69-1.33-.77.13,0-.42.24.71.42,0,.06.58-.16,2.16-.44,1.54l.36,2.62c-.23.17-.1-.5-.21-.79l.14,2,.26-.58c-.18,1.5.43,2.45.61,3.65-.4-.17-.44-1.16-.65-2-.49.75.26.5.18,1.75-.07.17-.17.21-.29.13l.36,1c0,.29-.14.13-.16,0,.44,1.7.57,0,.76,2.24.21-1.38-.28-1.17-.24-2.33.29-.67.53,1.33.7,1.66-.1,1.12-.71,1.25-.38,2.66-.2-1-.38,0-.39-1.45-.21-.79-.18.42-.41.58.07.37.43-.25.37.79l-.06,0,.44,1.7c-.22,1.58.49,3.57,0,4.66l.43-.25c0,1,0,2.41.14,3.12-.24-.16-.27-.83-.35-1.54a14.66,14.66,0,0,0,.53,4.57,14.3,14.3,0,0,0,.49-1.83c.6,1.16-.37,1.38-.07,2.87-.42,0-.35-.46-.76-.08.28.62.22,1.66.47,2.37-.4.38-.75-.29-.78-1.83.35-1.17-.27-2.45.07-3.41l-.26.58c-.12-1.17,0-1.87-.24-2.87l.06,0-.42-.5v.54a6.33,6.33,0,0,1-.62-1.83c.06,1.67.72,1.78,1.09,2.57,0,1.5-.76,2.08-.4,3.08-.2.08-.4.92-.59.25-.11-.83.15-1.41-.14-1.49a18,18,0,0,0-.11,1.87,5.29,5.29,0,0,1,1,2.2,10.49,10.49,0,0,1,.07,3.08c0-1-.39-2-.66-1.74.38.58-.3,2,.22,1.66,0,1.16,0,3.12-.47,3.25-.17-1.1.11-2.17,0-3.1,0,.26-.12.51-.23.36l0-1.37a5.19,5.19,0,0,0-.32,2.16c0-.08.11-.25.13-.13,0,.33,0,.75,0,1.08l-.42,0c.2,1-.33,2.91,0,4.74l-.09-.16c-.09,1.46.73,1.58.83,3.16-.2-.46-.37-.25-.56-.17.21.79-.13,1.21-.24,2,.24-.92.44.62.57,0,.42,0,.42,1.58.37,2.41-.54.5-.29-2.58-.84-1.33,0,.83.26,1,.35.45a12.67,12.67,0,0,1-.45,3.37c.4,1.24.18,1.74.71,2.53,0-.67-.4-.7-.2-1.54l.39.91a25.41,25.41,0,0,1-.36,3l-.17-.87.06,0c-.17-.33-.07-1.46-.37-1.33.37.79,0,1.41.27,2.45l-.06,0c.31,1.83-.6,3.16.16,4.32,0-.33.28-1,.43-.79-.18.42-.12,1.54-.34,1.5l-.07-.38a10.41,10.41,0,0,0,0,2c.27.29.48,0,.62.74-.17,1.83-.62-.74-.86.5l.28,1.7-.24.38c-.24,2.53.56,4.49.57,7.19-.42,0-.59-1.91-.61-2.57-.37.83.14,2-.12,3.16-.06,1,.31,1.83.54,1.66.15,1.29-.24.92-.32,1.08a2.12,2.12,0,0,1,.33,1.31l0,.68v.85c0,.56,0,1.1,0,1.57l-.25.19.32,2.82c0-.77.26-.27.42-.4l0,.73a14.8,14.8,0,0,0,.12-4.48l-.07-1.14,0-.57v-.36a3,3,0,0,1,.28-1.28c.1.5.23-.17.33.33s-.06.5-.16.54c.21.25.39.91.38,0,.13,0,.23.13.29.32a2.1,2.1,0,0,1,.08.33c0,.17,0,.37.05.58.06.83.07,1.87.16,2.65-.17.76-.3.52-.42-.07s-.23-1.48-.35-1.84a8.78,8.78,0,0,1,.14,2.26l-.4,0c.11,1.29.2,1.38.31,1.23s.24-.55.44-.42.25.65.19,1.24a15.38,15.38,0,0,0-.17,1.58l-.1-.62c-.17,2.12.26,2,.22,3.65l-.1.4.27.1a2.89,2.89,0,0,0-.41.15,2.26,2.26,0,0,0-.23-1.53,1.64,1.64,0,0,1-.2-1.24c-.19,1.91-.4,2.1-.6,1.57s-.4-1.75-.57-2.21a21.49,21.49,0,0,1-.19,4.46,6.7,6.7,0,0,1,.2,1.76c.81-.5,1.57-.88,2.37-1.35a14.06,14.06,0,0,0,2.44-1.77c1.09-.56-1.1,1,.09.29a77.36,77.36,0,0,0,6.75-4.31c.65-.37.64-.15.9-.11,3.24-1.64,4-3.19,7.47-5l-.39.49c.74-.38,1.38-.68,1.59-1.14,1.25.07,2.82-2.17,4.35-2.21,1.57-.78,1.34-1.33,2.46-2.13.08.14-.13.6.52.3,3.73-2.5,7.18-4.6,11.37-7.23,0,.07-.19.24-.29.33,2.78-1.58,5.16-3.77,7.56-4.94.38-.34,1.6-1.22,1.06-1.23-.55.29-.81,0-.88-.18,1.88-1.47,1.26-.15,2.57-1,.7.21-.68.81-.43,1.22l1.79-1.46c1.19-.51,2.15-1.43,3.24-1.79-.46.2.07.43-.76.68.1-.09,0-.07.1-.16-1.67.94-.76.75-2.17,1.73a33.07,33.07,0,0,1,4.1-2.62c-.44-.16.85-.69,1.05-1.08h.09c-.08-.14.57-.65.77-.82l.52.23c.47-.35-.26-.12.21-.46.65-.52,3.17-2.07,3.6-1.76a17.79,17.79,0,0,1,1.88-1.4c0,.15-.2.32-.2.39,1.94-1,4.19-2.56,6.12-3.38.7-.49,1.35-.93,1.93-1.36l1.29-.92c.42-.31.79-.6,1.1-.88-.63.42-2.54,1.42-1.57.53A18.51,18.51,0,0,1,187,104c0,.27,2.66-1.31.94-.09a8,8,0,0,0,2.58-1.28,6,6,0,0,1,2.31-1.12,11.23,11.23,0,0,1,1.56-1.07A26.79,26.79,0,0,0,191.32,99c.13-.19,1.82.83,2.11.82L192,99l.26,0c-2.45-1.53-3.78-1.53-5.26-2.24h.12l-1-.49,1.57.39a19.21,19.21,0,0,0-2.25-1l-1.06-.41c-.36-.14-.8-.35-1-.45l0-.18-.73-.24c.12,0,.19,0,.14-.06-.82,0-2.15-.92-2.9-.95-.41-.3-.53-.94-1.27-1l.35-.38c1.48.76.37.61,2,1.3-.81-1.19-4-2.9-6.13-4-1.86-.66-4.4-2.7-5.49-2.45l.33-.16-2.74-1.83c-2.49-1.25-4.88-2.86-6.93-3.53l-.38-.51c-2.33-.33-6.7-3.35-8.47-3.16-1-.81.52-.16.72-.26-.76-.52-2.43-.69-3-1.52.08-.14,1.2.5.74.13-.44-.58-1-.21-1.47-.86.14.43-1.37,0-2.38-.51.17.11.17.11.23.19,0,.28-.67-.17-1.09-.36a.27.27,0,0,1,.19,0,165.06,165.06,0,0,1-16.24-8.77l1.08.35a12.07,12.07,0,0,1-2.53-1.43l.12,0c-1.18-1.21-1.82-.49-2.64-1.58l.24.08c-1.71-.94-2.47-2-4.27-2.66-1.22-.89-1-1-1.76-1.72a2,2,0,0,0-1.34-.33l.35.23c.26.47-.91-.24-1.51-.44.18.61-.37,1.08.94,2.33,1.2.5.75,1.23,2,1.88,1-.11,1.6,1.4,3,1.59-.81,0,1.27,1,0,.78.32.54,2.63,1.08,3.36,1.92-.19,0-.2.1-.44,0,1.38.51.73.73,1.68,1.26l.17-.38c.43.09.4.4.76.52-.23-.19-.68-.66-.31-.65a7,7,0,0,1,1.38.51c-.07.14-.44,0-.68-.06,0,0,1,.6,1,.81a5.82,5.82,0,0,0-1.34-.33c1.28.86,0,.18.53.83.06-.53,1.26.47,2,.78,0,.21-.54-.23-.79-.2,1,1.52,2.14,1,3.83,2.18a1,1,0,0,1-.43-.09c.9.35,1.26,1.07,1.94,1.13.76.52-.12.56,1.12,1.24-.12-.64,1.4.9,1.7.45l.79.81c1,.21.22-.91,1.88,0,1.39,1-.57.69.16,1.42l.51-.05.63.59-.12,0c.48.16,1.24.68,1.16.82s-.6-.2-.73-.13c.85.17,2.51,2.24,3.66,2,.36.36,1.24.86,1,1,.56-.09,1.88,1.18,2.56,1.3-.13.06.32.54.8.7-.52-.44-.09-.36.4-.31.39.51,1.94,1.13,2,1.63.91.24.77-.19,1.09-.35.39.51,2,1.38,1.52,1.65-.41-.3-1.34-.93-1.32-.54.75.63.43.08,1.14.43-.09,0,.32.52.12.57a8,8,0,0,1,1.54.9c-.8-.7.75,0,.3-.45l-1-.18c-1.06-.57-.09-.36-.43-.69,1.9,1,1.78.31,3.63,1.08.28.26.8.7,1,.81-.59-.3-.7.15-.41.41,1.16.21,1.62,1.19,2.38,1.71-.64-.48-.13-.53.18-.49,1.8.7.57.51,1.2,1.1,2.6,1.4,3.95,2.82,6.16,3.71l-.78-.91-.52.16c-.61-.69.57-.69,1.13-.67,0,.18,1.35.83.74.73l1.32.54c-.1-.25-.93-.63-.27-.47.35.33,1.57,1.12.66.87.65.38,1.55.72,1.51.44,1.06.57-.35.38-.9.25.82.49.55.72.24.68l1.18.61c-.31,0-.38.09-.69,0,.69.55,1.45.48,1.94,1.13l.45-.13a29.82,29.82,0,0,0,3.68,2.46l-.21-.4a2.22,2.22,0,0,1,1.35.76c.09.2-.1.28,0,.24s.4-.07.89-.24c.33,0,0,.12-.16.18a3,3,0,0,1,1.16.13.91.91,0,0,1-.26.07l-.12-.06-.48-.08c-.32,0-.33.06-.27.09s-.06.08-.26.09a.7.7,0,0,1,.41.27.86.86,0,0,1,.07.61c.4.13.85.4.5,1-.06-.11-.22-.08-.54,0s-1,.46-1.33.58c.2-.39-1.72.36-.42-.53.46-.13.8,0,1.28-.38a9.43,9.43,0,0,0-2.46.59c0-.15.39-.56.86-.83C179.19,102.25,179.38,102.23,179.46,102.29Z"/><path class="cls-1" d="M114,69.46l0,.17.09-.21C114.08,69.49,114.05,69.49,114,69.46Z"/><path class="cls-1" d="M151.49,118.71c-.06.06-.16.18-.14.22A.51.51,0,0,0,151.49,118.71Z"/><path class="cls-1" d="M132.15,130.5a.31.31,0,0,1,.09.07S132.22,130.52,132.15,130.5Z"/><path class="cls-1" d="M116.8,68l.08.4A1.9,1.9,0,0,0,116.8,68Z"/></g></g></svg>