<?xml version="1.0" encoding="utf-8"?>
<!-- Generator: Adobe Illustrator 21.1.0, SVG Export Plug-In . SVG Version: 6.00 Build 0)  -->
<svg version="1.1" id="Layer_1" xmlns="http://www.w3.org/2000/svg" xmlns:xlink="http://www.w3.org/1999/xlink" x="0px" y="0px"
	 viewBox="0 0 1920 1080" style="enable-background:new 0 0 1920 1080;" xml:space="preserve">
<style type="text/css">
	.st0{fill:#FFFFFF;stroke:#000000;stroke-width:4;stroke-miterlimit:10;}
	.st1{fill:none;stroke:#000000;stroke-miterlimit:10;}
	.st2{enable-background:new    ;}
</style>
<title>DIY Life - Blog Logo</title>
<path d="M983.7,210.9c-1.9,0-3.7,0.5-5.5,0.6s-3.7-0.7-5.6-0.6s-3.7-0.4-5.6-0.3s-3.7,0.3-5.6,0.4s-3.7,0.4-5.5,0.6s-3.6,1-5.5,1.2
	s-3.8-0.2-5.6,0s-3.7,0.7-5.5,1s-3.7,0.4-5.5,0.7s-3.6,0.7-5.5,1s-3.6,0.8-5.4,1.1s-3.8-0.2-5.6,0.2s-3.4,1.9-5.2,2.3
	s-3.8,0-5.6,0.4s-3.3,1.9-5.1,2.4s-3.6,0.9-5.4,1.4s-4-0.6-5.8-0.1s-3,3-4.8,3.5s-3.8,0.4-5.5,0.9s-3.8,0.4-5.5,1s-3,2.6-4.8,3.2
	s-3.8,0.6-5.5,1.2s-3.7,0.8-5.4,1.4s-3.5,1.3-5.2,2s-2.6,3.2-4.3,4s-3.9,0.4-5.5,1.2s-3.3,1.7-5,2.5s-3.5,1.4-5.1,2.2
	s-3.1,2-4.8,2.9s-3.3,1.6-5,2.5s-3.5,1.4-5.1,2.3s-2.8,2.5-4.4,3.5s-3,2.3-4.5,3.2s-3.3,1.7-4.9,2.7s-3.3,1.8-4.8,2.8
	s-2.5,2.9-4,3.9s-3.1,2-4.6,3.1s-3.6,1.3-5.1,2.4s-2.2,3.3-3.6,4.4s-3.6,1.5-5,2.6s-2.7,2.6-4.1,3.8s-3.2,1.9-4.6,3.1
	s-2.7,2.5-4.1,3.7s-2.6,2.7-3.9,4s-2.2,3.1-3.5,4.4s-2.9,2.3-4.3,3.6s-2.3,3-3.6,4.3s-3.8,1.5-5.1,2.8s-1.5,3.7-2.8,5
	s-3.7,1.7-4.9,3.1s-1.3,3.8-2.5,5.2s-2.5,2.8-3.7,4.2s-3.2,2.2-4.3,3.6s-2.5,2.8-3.6,4.3s-1.5,3.6-2.6,5s-2.7,2.6-3.7,4.2
	s-2.4,2.8-3.5,4.4s-2.4,2.8-3.5,4.4s-1.4,3.5-2.4,5.1s-2.6,2.8-3.6,4.3s-0.6,4-1.5,5.6s-3.3,2.4-4.2,4s-1.3,3.6-2.2,5.2
	s-2,3.1-2.9,4.8s-2.1,3.1-2.9,4.8s-1.6,3.4-2.4,5s-0.5,3.9-1.3,5.6s-2.4,3-3.2,4.7s-2.1,3.1-2.8,4.8s-1,3.6-1.7,5.3s-1.8,3.3-2.4,5
	s-0.8,3.7-1.5,5.4s-1.7,3.3-2.3,5.1s-0.9,3.6-1.5,5.4s-1.1,3.5-1.7,5.3s-1.8,3.3-2.3,5.1s-0.4,3.8-0.8,5.5s-0.9,3.6-1.3,5.4
	s-1.2,3.5-1.6,5.3s0.3,3.9-0.1,5.7s-1.1,3.5-1.5,5.4s-1.2,3.5-1.6,5.4s-0.6,3.7-0.9,5.5s-1.4,3.5-1.7,5.4s-0.6,3.7-0.9,5.5
	s0.6,3.8,0.4,5.7s-1.4,3.6-1.6,5.4s-0.4,3.7-0.6,5.6c-0.2,1.8,1.1,3.8,1,5.7s-1.5,3.6-1.6,5.5s0.2,3.7,0.1,5.6s-0.2,3.7-0.2,5.6
	s-0.4,3.7-0.4,5.6s-0.2,3.7-0.2,5.6s1.4,3.7,1.4,5.5s0.6,3.7,0.7,5.5s-0.1,3.7,0,5.6s-0.8,3.8-0.6,5.6s1.4,3.6,1.6,5.5
	s0.2,3.7,0.4,5.5s-0.8,3.8-0.5,5.7s0.7,3.7,1,5.5s1.1,3.6,1.5,5.4s1.2,3.5,1.6,5.4s0.6,3.7,0.9,5.5s0.2,3.8,0.6,5.6s0.2,3.8,0.6,5.6
	s2,3.3,2.4,5.1s-0.1,3.9,0.4,5.7s1.5,3.5,2,5.2s1.4,3.5,2,5.2s1.7,3.4,2.3,5.1s1.5,3.4,2.1,5.2s1.1,3.5,1.8,5.3s1.5,3.4,2.2,5.1
	s1.2,3.5,1.9,5.2s-0.2,4.1,0.5,5.8s1.6,3.4,2.3,5.1s1.9,3.2,2.7,4.9s1.7,3.3,2.5,5s2.8,2.7,3.7,4.4s1,3.7,1.8,5.3s0.9,3.8,1.8,5.4
	s1.8,3.3,2.7,4.9s2.2,3,3.2,4.6s2.2,3,3.2,4.6s1.9,3.2,2.9,4.7s2.3,2.9,3.3,4.5s1.8,3.3,2.8,4.8s3.2,2.3,4.3,3.8s1.8,3.3,2.9,4.7
	s1.6,3.5,2.7,4.9s2.3,3,3.4,4.4s1.9,3.2,3.1,4.6s2.6,2.7,3.8,4.1s3.4,2,4.6,3.4s2,3.2,3.2,4.6s2.6,2.7,3.8,4s3.2,2.1,4.5,3.4
	s2.3,2.9,3.6,4.2s2,3.2,3.4,4.5s2.3,3,3.7,4.2s2.8,2.5,4.2,3.7s3.7,1.4,5.2,2.6s3,2.2,4.5,3.3s2.3,3.1,3.7,4.2s2.7,2.6,4.2,3.7
	s3.7,1.3,5.2,2.4s2.8,2.5,4.3,3.5s2.3,3.2,3.8,4.3s3.2,1.9,4.7,3s3.9,0.8,5.4,1.9s2.8,2.5,4.3,3.5s3.4,1.5,5,2.5s2.5,3.1,4.1,4
	s3.5,1.4,5.1,2.3s3,2.2,4.7,3.1s3.7,0.9,5.4,1.7s2.8,2.6,4.5,3.4s4,0.2,5.7,1s2.7,3,4.4,3.8s3.8,0.6,5.5,1.4s3.1,2.3,4.8,3
	s3.5,1.3,5.2,2s3.7,0.9,5.4,1.5s3.7,0.8,5.4,1.4s3.6,0.9,5.4,1.5s3.3,1.7,5.1,2.3s3.5,1.3,5.3,1.8s3.6,0.8,5.4,1.3s3.4,1.5,5.2,2
	s3.9-0.3,5.7,0.1s3.4,1.8,5.2,2.2s3.7,0.5,5.5,0.9s3.6,0.8,5.4,1.2s3.5,1.2,5.4,1.5s3.7,0.1,5.6,0.4s3.6,1.2,5.4,1.4
	s3.8-0.9,5.7-0.7s3.6,0.8,5.5,1s3.7,0.7,5.5,0.8s3.7,0.9,5.5,1s3.8-0.8,5.6-0.7s3.7-0.2,5.6-0.1s3.7,0.9,5.5,1s3.7,0.8,5.6,0.8
	s3.7-0.8,5.6-0.8s3.7,0.4,5.6,0.3s3.7-0.6,5.5-0.7s3.7,0.2,5.6,0.1s3.7-0.7,5.5-0.8s3.8,0.3,5.6,0.1s3.6-1,5.5-1.2
	c1.8-0.2,3.6-1,5.4-1.3s3.7-0.3,5.5-0.6s3.6-0.7,5.5-1s3.7-0.4,5.5-0.8s3.6-1,5.4-1.3s4,0.8,5.8,0.3s3.4-1.7,5.2-2.1
	s3.4-1.7,5.2-2.2s3.9,0.2,5.7-0.3s3.7-0.5,5.5-1.1s3.2-2.3,4.9-2.9s3.6-0.9,5.4-1.5s3.8-0.4,5.5-1s3.2-2.1,4.9-2.8s3.9-0.2,5.6-0.9
	s2.9-2.6,4.7-3.3s3.5-1.2,5.2-1.9s3.2-1.9,4.9-2.7s3.4-1.4,5.1-2.2s3.5-1.2,5.2-2s3.5-1.3,5.2-2.1s3.6-1.1,5.3-2s3.3-1.7,4.9-2.6
	s3.1-2.1,4.7-3s2.9-2.3,4.5-3.3s2.7-2.7,4.3-3.7s3.3-1.7,4.8-2.8s2.9-2.3,4.4-3.3s3.9-0.9,5.4-2s3-2.3,4.4-3.3s2.2-3.2,3.7-4.3
	s3.7-1.2,5.2-2.3s3.2-2,4.6-3.1s2-3.5,3.4-4.6s3.1-2.1,4.5-3.3s3.5-1.6,4.9-2.9s2.5-2.8,3.8-4.1s2.8-2.4,4.2-3.7s2.7-2.5,4-3.8
	s2.8-2.5,4.1-3.8s1.7-3.5,3-4.9s3-2.3,4.2-3.7s2.5-2.7,3.8-4.1s2.1-3.1,3.3-4.5s3.1-2.3,4.3-3.7s2.5-2.8,3.7-4.2s1.6-3.5,2.7-4.9
	s2.9-2.4,4-3.9s2.3-2.9,3.4-4.4s0.9-3.9,2-5.4s2.2-3,3.2-4.5s1.9-3.2,2.9-4.7s2.5-2.8,3.5-4.3s2.7-2.7,3.7-4.3s2-3.2,2.9-4.8
	s2-3.2,2.9-4.8s1.6-3.4,2.4-5s1.7-3.3,2.5-5s1.3-3.5,2.1-5.2s1.5-3.4,2.3-5.1s2.2-3.1,3-4.8s-0.1-4.1,0.6-5.8s1.5-3.4,2.2-5.1
	s2.6-3,3.2-4.7s1.3-3.5,2-5.2s1.7-3.3,2.3-5.1s-0.5-4.1,0.1-5.8s2.3-3.1,2.9-4.9s1.6-3.4,2.1-5.2s-0.5-4,0-5.8s1-3.6,1.5-5.3
	s1.2-3.5,1.6-5.3s0.9-3.6,1.3-5.4s1.7-3.4,2.1-5.3s0.9-3.6,1.2-5.4s0.7-3.6,1-5.5s-1-3.9-0.7-5.8s1.5-3.5,1.7-5.4s1.1-3.6,1.3-5.5
	s0.5-3.7,0.7-5.5s0.1-3.7,0.2-5.6s-0.7-3.8-0.6-5.6s0.2-3.7,0.3-5.5s1.8-3.6,1.9-5.5s-1.4-3.8-1.4-5.6s1.7-3.7,1.7-5.5
	s-0.9-3.7-0.9-5.6s-0.9-3.7-1-5.5s0.7-3.7,0.6-5.6s0.7-3.8,0.5-5.6s-2.1-3.6-2.3-5.4s1.3-3.8,1.1-5.7s-0.1-3.7-0.3-5.6
	s-1.1-3.6-1.3-5.5s-1-3.6-1.3-5.4s-1.2-3.5-1.5-5.4s0.6-3.9,0.3-5.7s-0.2-3.8-0.5-5.6s-1.1-3.6-1.5-5.4s-0.7-3.7-1.1-5.5
	s-1.6-3.4-2-5.2s-1.3-3.5-1.8-5.3s0.2-3.9-0.4-5.7s-2.5-3.1-3-4.9s-1.1-3.5-1.7-5.3s-1.4-3.4-2.1-5.2s0.1-4-0.5-5.7s-1.9-3.2-2.6-5
	s-0.6-3.8-1.3-5.5s-2.2-3.1-2.9-4.8s-0.6-3.8-1.4-5.5s-2.8-2.8-3.6-4.5s-1.8-3.2-2.6-4.9s-0.9-3.7-1.7-5.4s-1.4-3.5-2.3-5.1
	s-2.2-3-3.1-4.6s-1.6-3.4-2.5-5s-2.6-2.8-3.5-4.4s-2.1-3-3.1-4.6s-1.9-3.2-2.9-4.7s-0.9-3.9-1.9-5.4s-2.8-2.6-3.8-4.1
	s-1.3-3.6-2.4-5.2s-3.5-2-4.7-3.5s-1.2-3.8-2.3-5.2s-2.2-3-3.3-4.5s-3.1-2.2-4.3-3.7s-2.4-2.8-3.7-4.2s-2-3.2-3.2-4.6
	s-2.7-2.6-3.9-4s-2.4-2.8-3.7-4.1s-3-2.2-4.3-3.5s-2.6-2.7-3.9-4s-1.8-3.5-3.1-4.8s-3.5-1.7-4.8-3s-2.4-2.8-3.8-4s-3.4-1.7-4.8-2.9
	s-1.8-3.6-3.3-4.7s-3.1-2.1-4.5-3.2s-3.5-1.5-5-2.6s-2.3-3.1-3.8-4.2s-3.6-1.3-5.2-2.4s-2.5-2.8-4.1-3.9s-2.6-2.9-4.1-3.9
	s-4-0.6-5.6-1.6s-3-2.2-4.6-3.2s-2.4-3.2-4-4.1s-3.7-1.1-5.3-2s-3.3-1.7-4.9-2.6s-3.1-2-4.8-2.9s-3.2-1.8-4.9-2.6s-3.1-2-4.8-2.8
	s-3.7-0.8-5.4-1.6s-3.1-2.1-4.8-2.9s-3.1-2.2-4.8-2.9s-3.5-1.4-5.2-2.1s-3.3-1.7-5.1-2.4s-3.5-1.1-5.3-1.8s-3.6-1-5.3-1.6
	s-3.6-0.9-5.4-1.4s-3.6-0.8-5.4-1.3s-3.7-0.4-5.5-1s-3.5-1.2-5.3-1.7s-3.4-1.7-5.2-2.2s-3.6-1-5.4-1.4s-3.4-1.8-5.2-2.2
	s-3.7-0.4-5.5-0.8s-3.7-0.4-5.5-0.7s-3.6-1-5.4-1.3s-3.8,0.4-5.7,0.1s-3.7-0.2-5.5-0.5s-3.6-1.5-5.4-1.7s-3.8,0.3-5.6,0.1
	s-3.7-0.7-5.5-0.8s-3.7-0.4-5.5-0.5s-3.7,0.1-5.6,0s-3.7-0.7-5.5-0.8s-3.7,0.6-5.6,0.5S985.6,210.9,983.7,210.9z M983.7,843
	c-1.8,0-3.7,0.5-5.5,0.5s-3.7-0.8-5.5-0.9s-3.7-0.6-5.5-0.7s-3.7-0.2-5.5-0.3s-3.7-0.1-5.5-0.3s-3.8,0.3-5.6,0.2s-3.6-1-5.4-1.2
	s-3.7-0.2-5.5-0.5s-3.6-0.7-5.5-1s-3.7-0.5-5.5-0.8s-3.7-0.5-5.5-0.9s-3.4-1.6-5.2-2s-3.8,0.3-5.6-0.2s-3.4-1.7-5.2-2.2
	s-3.9,0.1-5.6-0.4s-3.5-1.1-5.3-1.6s-3-2.7-4.8-3.3s-4.1,0.7-5.9,0.1s-3.2-2-5-2.6s-3.2-2.1-4.9-2.7s-4,0-5.7-0.7s-3.1-2.1-4.8-2.8
	s-3.1-2.1-4.8-2.8s-3.3-1.7-4.9-2.5s-4.2,0.1-5.8-0.7s-2.8-2.7-4.4-3.6s-3.3-1.6-4.9-2.5s-3.1-2-4.7-2.9s-3.4-1.5-5-2.5
	s-3.1-2-4.7-3s-2.9-2.4-4.4-3.4s-3.5-1.4-5-2.4s-3.3-1.7-4.8-2.8s-2.8-2.4-4.3-3.5s-2.8-2.4-4.3-3.5s-3.5-1.5-5-2.6
	s-2.8-2.4-4.3-3.5s-2.2-3.2-3.6-4.3s-3.7-1.4-5.1-2.6s-2.1-3.2-3.5-4.5s-3-2.2-4.3-3.5s-2.3-3-3.6-4.2s-2.7-2.5-4-3.8
	s-2.8-2.4-4.1-3.7s-3.1-2.1-4.4-3.5s-2.2-3-3.5-4.3s-2.8-2.4-4-3.8s-1.1-3.9-2.3-5.3s-3.5-1.9-4.6-3.4s-1.1-3.9-2.2-5.3
	s-3.5-2-4.6-3.4s-2.1-3-3.2-4.5s-1.3-3.6-2.3-5.1s-1.9-3.1-3-4.7s-2.9-2.5-3.9-4.1s-1.5-3.4-2.5-5s-1.6-3.3-2.6-4.9s-1.5-3.4-2.4-5
	s-2.5-2.8-3.3-4.5s-1.1-3.6-2-5.2s-3.1-2.5-3.9-4.2s-0.2-4-1-5.7s-2.2-3-2.9-4.7s-1.3-3.5-2-5.2s-1.1-3.5-1.8-5.2s-1.5-3.4-2.1-5.1
	s-2.5-3-3.1-4.7s-0.4-3.8-1-5.5s-0.6-3.7-1.1-5.4s-1.6-3.3-2.1-5.1s-0.7-3.6-1.2-5.4s-1.5-3.4-2-5.2s-0.5-3.7-0.9-5.5
	s-1.2-3.5-1.5-5.3s-0.8-3.6-1.2-5.4s0-3.7-0.3-5.6s-1.3-3.5-1.6-5.3s-0.7-3.6-1-5.5s-0.2-3.7-0.4-5.5s-1.6-3.5-1.8-5.4
	s0-3.7-0.2-5.5s0.2-3.7,0.1-5.6s-0.3-3.7-0.4-5.5s0.6-3.7,0.5-5.5s0-3.7-0.1-5.5s-1.2-3.7-1.2-5.5s1-3.7,1.1-5.5s0.2-3.7,0.2-5.5
	s-1.3-3.8-1.2-5.6s1.5-3.6,1.6-5.4s-0.1-3.7,0.1-5.5s0.4-3.7,0.6-5.5s0.7-3.6,1-5.5s0.7-3.6,1-5.4s-0.7-3.8-0.4-5.7s0.2-3.7,0.5-5.5
	s1-3.6,1.4-5.4s1.8-3.4,2.2-5.2s-0.2-3.8,0.2-5.6s1.1-3.5,1.6-5.3s2.1-3.2,2.6-5s0.8-3.6,1.3-5.4s0.5-3.7,1.1-5.5s0.6-3.7,1.2-5.4
	s1.3-3.5,2-5.2s1.8-3.3,2.5-5s2-3.2,2.7-4.9s0.4-3.8,1.1-5.5s2.5-2.9,3.2-4.6s1.1-3.5,1.8-5.2s1.2-3.5,2-5.1s1.1-3.6,2-5.2
	s1.5-3.4,2.3-5s1.9-3.2,2.8-4.8s1.6-3.4,2.5-4.9s2-3.1,3-4.7s3.4-2.2,4.4-3.8s1.9-3.1,2.9-4.7s1.7-3.3,2.7-4.8s2-3.1,3.1-4.6
	s1.1-3.8,2.2-5.3s2.9-2.5,4-3.9s3-2.3,4.2-3.7s2.4-2.8,3.5-4.2s2-3.1,3.3-4.5s2.2-3,3.4-4.4s2.5-2.7,3.8-4s2.3-2.9,3.6-4.2
	s2.8-2.4,4.1-3.7s1.7-3.5,3-4.8s3-2.2,4.3-3.5s3.3-1.9,4.7-3.1s2.8-2.4,4.2-3.6s3.1-2,4.5-3.2s2.7-2.5,4.1-3.7s2.1-3.3,3.6-4.4
	s3.3-1.7,4.8-2.8s2.9-2.2,4.4-3.3s2.5-2.8,4-3.9s3.3-1.8,4.8-2.8s3.6-1.3,5.1-2.3s3.4-1.5,5-2.4s3.1-2,4.7-2.9s2.5-3.1,4.1-4
	s3.1-2.1,4.7-3s3.7-0.9,5.3-1.8s3.4-1.4,5.1-2.2s2.8-2.7,4.5-3.5s3.5-1.3,5.2-2s3.9-0.3,5.6-1s3.3-1.6,5-2.3s2.9-2.7,4.6-3.4
	s3.7-0.7,5.4-1.3s3.3-1.7,5-2.3s3.9,0.1,5.7-0.4s3.4-1.6,5.1-2.1s3.7-0.6,5.4-1.1s3.3-1.9,5.1-2.4s3.8,0.1,5.6-0.3s3.2-2.4,5-2.8
	s3.9,0.8,5.7,0.4s3.4-1.6,5.3-2s3.8,0.2,5.6-0.1s3.6-0.7,5.4-0.9s3.6-1,5.4-1.3s3.6-1,5.4-1.1s3.6-0.7,5.5-0.9s3.7,0.3,5.6,0.1
	s3.7-0.1,5.5-0.2s3.7-0.4,5.5-0.5s3.7,0.5,5.5,0.4s3.7-1.3,5.5-1.3s3.7,1,5.5,1.1s3.7-0.2,5.5-0.1s3.7,0.2,5.5,0.3s3.7,0.8,5.5,0.9
	s3.7-0.2,5.5-0.1s3.6,1,5.4,1.2s3.8-1,5.7-0.8s3.6,0.9,5.4,1.2s3.6,0.8,5.4,1.1s3.5,1.2,5.3,1.6s3.8-0.3,5.6,0s3.7,0.4,5.5,0.8
	s3.4,1.6,5.2,2s3.4,1.6,5.2,2.1s3.8,0.2,5.5,0.7s3.4,1.4,5.2,2s3.7,0.6,5.4,1.2s3.4,1.6,5.1,2.2s3.6,0.8,5.3,1.4s3.2,1.9,5,2.5
	s3.7,0.7,5.4,1.4s3.7,0.9,5.3,1.6s3.3,1.6,5,2.4s3.4,1.4,5.1,2.2s3.3,1.8,4.9,2.6s3.4,1.4,5.1,2.3s2.6,3.1,4.2,3.9s3.7,1,5.3,1.9
	s3.7,1.1,5.2,2s2.6,2.9,4.1,3.9s2.9,2.3,4.4,3.3s3.8,0.9,5.4,1.9s2.9,2.3,4.4,3.3s2.6,2.8,4.1,3.8s3.5,1.4,5,2.5s2.3,3.1,3.7,4.3
	s3.8,1.2,5.2,2.4s2.7,2.5,4.1,3.7s3.2,2,4.5,3.2s2.7,2.5,4.1,3.8s2.4,2.8,3.8,4.1s2.4,2.8,3.7,4.1s2.1,3.1,3.4,4.4s2.5,2.7,3.8,4
	s2.8,2.5,4,3.8s2.9,2.4,4.1,3.7s3.1,2.2,4.3,3.6s2.2,3,3.4,4.4s2.6,2.6,3.8,4.1s1.2,3.8,2.3,5.2s2.4,2.8,3.5,4.3s3.2,2.2,4.3,3.7
	s1.1,3.8,2.1,5.3s1.7,3.3,2.7,4.8s3.2,2.3,4.2,3.9s1.7,3.3,2.6,4.9s1,3.7,1.9,5.3s2.2,3,3.1,4.6s1.7,3.3,2.5,4.9s1.7,3.3,2.6,4.9
	s1.5,3.4,2.3,5s2.8,2.8,3.5,4.4s1,3.6,1.8,5.3s1.4,3.4,2.2,5.1s1.9,3.2,2.6,4.9s0.5,3.8,1.2,5.5s1.1,3.5,1.8,5.2s2.1,3.2,2.7,4.9
	s0.4,3.8,0.9,5.5s1,3.5,1.5,5.3s2.5,3.1,3,4.9s0.9,3.6,1.3,5.4s1.1,3.5,1.5,5.3s0.2,3.7,0.6,5.5s-0.1,3.8,0.3,5.6s0.6,3.6,0.9,5.4
	s0.5,3.6,0.8,5.5s0.8,3.6,1.1,5.4s0.6,3.6,0.8,5.5s0.9,3.6,1.1,5.4s0.5,3.6,0.6,5.5c0.2,1.8-0.4,3.7-0.3,5.6s2,3.6,2.1,5.4
	s0.1,3.7,0.2,5.5s-1.1,3.7-1.1,5.6s0.1,3.7,0.1,5.5s-0.5,3.7-0.5,5.5s1.7,3.7,1.6,5.6s-1.4,3.6-1.5,5.5s-0.7,3.7-0.8,5.5
	s1.3,3.8,1.1,5.6s-0.4,3.7-0.6,5.5s-0.7,3.7-0.9,5.5s-0.5,3.7-0.8,5.5s-1.5,3.5-1.8,5.3s-0.8,3.6-1.1,5.4s-0.8,3.6-1.1,5.4
	s0.9,4,0.5,5.8s-1.8,3.4-2.2,5.2s-1.4,3.4-1.9,5.2s-1,3.5-1.5,5.3s-0.7,3.6-1.3,5.4s-0.1,3.8-0.7,5.6s-1.1,3.5-1.7,5.3
	s-2.8,2.9-3.4,4.7s0.2,4-0.5,5.7s-2.8,2.8-3.5,4.6s-0.6,3.8-1.3,5.4s-0.7,3.7-1.4,5.4s-2.3,3-3.1,4.7s-2.3,3-3.2,4.6s0,4.2-0.8,5.8
	s-3.1,2.5-4,4.2s-2,3.1-2.9,4.7s-1.3,3.5-2.2,5.1s-1.5,3.4-2.4,5s-1.4,3.5-2.4,5s-3,2.4-4.1,4s-2.5,2.8-3.5,4.3s-1.8,3.2-2.9,4.7
	s-2.3,2.9-3.3,4.4s-1.7,3.4-2.8,4.8s-2,3.1-3.2,4.6s-3.3,2.1-4.4,3.5s-1.3,3.8-2.5,5.2s-2.5,2.8-3.7,4.1s-2.3,2.9-3.5,4.3
	s-3.6,1.7-4.9,3s-2.1,3.1-3.4,4.4s-3.2,2-4.5,3.3s-2.1,3.1-3.4,4.4s-3.3,1.8-4.7,3s-1.8,3.5-3.2,4.7s-2.7,2.6-4.1,3.8
	s-3.4,1.7-4.8,2.8s-3.1,2-4.6,3.1s-2.6,2.7-4.1,3.8s-3.1,2-4.6,3s-2.5,2.8-4.1,3.8s-2.9,2.3-4.5,3.3s-3.1,2-4.7,3s-3.8,0.8-5.4,1.8
	s-2.7,2.6-4.3,3.5s-3.7,0.9-5.3,1.8s-2.4,3.3-4,4.1s-3.9,0.6-5.5,1.4s-3.3,1.5-5,2.3s-2.9,2.5-4.5,3.3s-3.3,1.6-5,2.4
	s-3.6,1-5.3,1.7s-3.3,1.6-5,2.3s-3.5,1.2-5.2,1.9s-3.2,1.9-5,2.6s-3.5,1.2-5.3,1.8s-3.9,0-5.6,0.6s-3.2,2.2-4.9,2.7
	s-3.7,0.6-5.4,1.1s-3.3,1.9-5.1,2.4s-3.9-0.5-5.7-0.1s-3.5,1.2-5.3,1.6s-3.4,1.8-5.2,2.2s-3.8-0.3-5.6,0s-3.4,1.8-5.3,2.1
	s-3.8-0.2-5.6,0s-3.8-0.4-5.6-0.1s-3.5,2.2-5.3,2.4s-3.7,0.2-5.5,0.3s-3.8-1.1-5.6-1s-3.6,1.2-5.5,1.3s-3.7,0.4-5.5,0.5
	s-3.7-0.1-5.5-0.1S985.6,843,983.7,843z"/>
<polygon class="st0" points="661.8,435.9 660.2,437.8 658.9,439.8 657.6,441.9 656.7,444.2 655.6,446.4 654.9,448.7 654.1,451 
	653.6,453.4 653.3,455.8 652.8,458.2 653,460.6 652.8,463.1 653.3,465.5 653.9,467.8 654.3,470.1 655.3,472.2 656.1,474.4 
	657.8,476 659.3,477.8 660.9,479.4 663.3,480.5 665.7,481.5 668.2,482.1 670.7,482.3 673.1,481.5 675.6,481.1 677.9,480.1 
	679.9,478.5 682.2,477.4 683.8,475.5 685.4,473.6 686.6,471.5 687.9,469.3 689.1,467.1 689.4,464.6 689.9,462.1 690.6,459.7 
	690.3,457.3 690.8,454.8 690.2,452.4 690.2,450 690,447.6 689.5,445.2 689.1,442.8 688.5,440.5 687.7,438.2 686.8,435.9 
	686.1,433.6 685.6,431.2 684.4,429.1 683.4,426.9 682.5,424.6 681.4,422.5 680.5,420.2 679.2,418.1 678.2,416 676.6,418 
	674.8,419.8 673.1,421.8 671.5,423.8 669.8,425.8 668.2,427.8 666.7,430 664.7,431.7 663.2,433.8 "/>
<polygon class="st1" points="661.8,435.9 660.2,437.8 658.9,439.8 657.6,441.9 656.7,444.2 655.6,446.4 654.9,448.7 654.1,451 
	653.6,453.4 653.3,455.8 652.8,458.2 653,460.6 652.8,463.1 653.3,465.5 653.9,467.8 654.3,470.1 655.3,472.2 656.1,474.4 
	657.8,476 659.3,477.8 660.9,479.4 663.3,480.5 665.7,481.5 668.2,482.1 670.7,482.3 673.1,481.5 675.6,481.1 677.9,480.1 
	679.9,478.5 682.2,477.4 683.8,475.5 685.4,473.6 686.6,471.5 687.9,469.3 689.1,467.1 689.4,464.6 689.9,462.1 690.6,459.7 
	690.3,457.3 690.8,454.8 690.2,452.4 690.2,450 690,447.6 689.5,445.2 689.1,442.8 688.5,440.5 687.7,438.2 686.8,435.9 
	686.1,433.6 685.6,431.2 684.4,429.1 683.4,426.9 682.5,424.6 681.4,422.5 680.5,420.2 679.2,418.1 678.2,416 676.6,418 
	674.8,419.8 673.1,421.8 671.5,423.8 669.8,425.8 668.2,427.8 666.7,430 664.7,431.7 663.2,433.8 "/>
<polygon class="st0" points="831.9,828 830.8,825.8 829.5,823.8 828.1,821.8 826.8,819.7 824.9,818.2 823.2,816.5 821.2,815 
	819.5,813.3 817.3,812.2 815.2,811 812.8,810.2 810.6,809.2 808.1,809 805.6,808.8 803.1,808.7 800.6,809 798.2,809.9 796.1,810.8 
	794.4,812.3 792.7,813.8 791.6,815.9 790.4,818 790.1,820.4 789.7,822.8 790.3,825.2 790.5,827.6 791.5,829.9 793,831.8 
	794.5,833.7 796.1,835.5 798,837 800,838.4 802.1,839.5 804.3,840.6 806.4,841.9 808.7,842.5 811,843.4 813.4,843.9 815.7,844.9 
	818,845.3 820.5,845.5 822.8,846.2 825.3,846.3 827.7,846.8 830.1,847.3 832.5,847.1 835,847.3 837.4,847.8 839.8,847.6 
	838.9,845.5 838,843.3 837.2,841.1 836.4,838.9 835.3,836.8 834.6,834.5 833.9,832.3 833,830.1 "/>
<polygon class="st1" points="831.9,828 830.8,825.8 829.5,823.8 828.1,821.8 826.8,819.7 824.9,818.2 823.2,816.5 821.2,815 
	819.5,813.3 817.3,812.2 815.2,811 812.8,810.2 810.6,809.2 808.1,809 805.6,808.8 803.1,808.7 800.6,809 798.2,809.9 796.1,810.8 
	794.4,812.3 792.7,813.8 791.6,815.9 790.4,818 790.1,820.4 789.7,822.8 790.3,825.2 790.5,827.6 791.5,829.9 793,831.8 
	794.5,833.7 796.1,835.5 798,837 800,838.4 802.1,839.5 804.3,840.6 806.4,841.9 808.7,842.5 811,843.4 813.4,843.9 815.7,844.9 
	818,845.3 820.5,845.5 822.8,846.2 825.3,846.3 827.7,846.8 830.1,847.3 832.5,847.1 835,847.3 837.4,847.8 839.8,847.6 
	838.9,845.5 838,843.3 837.2,841.1 836.4,838.9 835.3,836.8 834.6,834.5 833.9,832.3 833,830.1 "/>
<polygon class="st0" points="625.4,480.4 624.8,482.9 624.6,485.4 624.5,487.9 624.5,490.4 624.8,492.9 625,495.3 625.3,497.8 
	625.9,500.2 626.3,502.7 627.2,505 628,507.4 629,509.7 630.2,511.9 631.3,514 632.5,516.2 633.7,518.4 635.1,520.5 637,522.2 
	638.7,523.9 640.3,525.6 642,527.3 644,528.6 646.1,529.7 648.4,530.4 650.7,531.2 653,531.6 655.6,532.1 658.2,532 660.8,531.6 
	663.4,531.5 665.5,530.1 667.7,528.9 669.5,527.1 671.2,525.3 672.9,523.5 674.3,521.4 675.8,519.3 676.5,516.9 677.3,514.6 
	678,512.2 677.9,509.6 678.1,507.2 677.8,504.7 677.8,502.2 676.9,499.8 676.6,497.3 675.8,494.9 674.4,492.8 673.7,490.3 
	672.3,488.2 671.1,486 669.6,484 668.3,481.9 667,479.6 665.1,477.9 663.6,476 662.2,473.9 660.2,472.3 658.8,470.1 656.7,468.6 
	655,466.8 653.3,464.9 651.4,463.3 649.6,461.6 647.6,460 645.6,458.4 643.5,457 641.6,455.4 639.8,453.6 637.6,452.4 635.5,451 
	633.5,449.5 631.5,448.2 631,450.5 630.6,453.1 630,455.5 629.5,458 628.8,460.5 628.3,462.9 627.9,465.4 627.3,467.9 626.9,470.4 
	626.7,473 625.8,475.4 625.5,477.9 "/>
<polygon class="st1" points="625.4,480.4 624.8,482.9 624.6,485.4 624.5,487.9 624.5,490.4 624.8,492.9 625,495.3 625.3,497.8 
	625.9,500.2 626.3,502.7 627.2,505 628,507.4 629,509.7 630.2,511.9 631.3,514 632.5,516.2 633.7,518.4 635.1,520.5 637,522.2 
	638.7,523.9 640.3,525.6 642,527.3 644,528.6 646.1,529.7 648.4,530.4 650.7,531.2 653,531.6 655.6,532.1 658.2,532 660.8,531.6 
	663.4,531.5 665.5,530.1 667.7,528.9 669.5,527.1 671.2,525.3 672.9,523.5 674.3,521.4 675.8,519.3 676.5,516.9 677.3,514.6 
	678,512.2 677.9,509.6 678.1,507.2 677.8,504.7 677.8,502.2 676.9,499.8 676.6,497.3 675.8,494.9 674.4,492.8 673.7,490.3 
	672.3,488.2 671.1,486 669.6,484 668.3,481.9 667,479.6 665.1,477.9 663.6,476 662.2,473.9 660.2,472.3 658.8,470.1 656.7,468.6 
	655,466.8 653.3,464.9 651.4,463.3 649.6,461.6 647.6,460 645.6,458.4 643.5,457 641.6,455.4 639.8,453.6 637.6,452.4 635.5,451 
	633.5,449.5 631.5,448.2 631,450.5 630.6,453.1 630,455.5 629.5,458 628.8,460.5 628.3,462.9 627.9,465.4 627.3,467.9 626.9,470.4 
	626.7,473 625.8,475.4 625.5,477.9 "/>
<polygon class="st0" points="680.3,469.4 678.3,470.8 676.2,472 674,473.1 672.3,474.8 670.2,476.1 668.3,477.6 666.5,479.2 
	664.9,481.1 663.3,483 661.9,484.9 660.1,486.6 658.8,488.6 657.8,490.8 656.5,492.9 655.2,495 654.2,497.2 653.4,499.5 
	652.5,501.8 652.2,504.2 651.5,506.5 650.8,509 650.7,511.6 650.8,514.2 650.6,516.8 651,519.3 651.6,521.9 652.5,524.3 
	653.7,526.6 654.7,528.6 656,530.5 657.6,532.1 659,533.8 660.8,535.3 662.9,536.3 665.2,537.1 667.6,537.6 670,538.1 672.4,538.5 
	674.8,538.7 677.3,538.7 679.6,538 681.9,537.3 684.3,536.7 686.6,535.9 688.7,534.6 690.8,533.3 692.5,531.6 694.3,529.9 
	695.9,528 697.5,526.3 698.9,524.3 700.2,522.2 701.6,520.2 702.6,517.9 704,515.7 704.8,513.3 705.5,510.9 706.5,508.6 
	707.2,506.2 708.2,503.9 708.5,501.4 709.2,498.9 710,496.5 710.1,494 710.6,491.5 710.9,489 711.7,486.6 711.6,484 712.2,481.5 
	712.4,479 712.2,476.5 712.8,474 712.6,471.5 712.7,469 712.5,466.4 712.7,463.9 713,461.4 712.4,458.9 712.4,456.4 712.5,453.7 
	710.2,455.2 707.7,455.9 705.6,457.3 703.2,458.3 700.8,459.2 698.6,460.4 696.2,461.3 693.9,462.5 691.7,463.7 689.5,465 
	687.1,466 684.7,466.9 682.6,468.3 "/>
<polygon class="st1" points="680.3,469.4 678.3,470.8 676.2,472 674,473.1 672.3,474.8 670.2,476.1 668.3,477.6 666.5,479.2 
	664.9,481.1 663.3,483 661.9,484.9 660.1,486.6 658.8,488.6 657.8,490.8 656.5,492.9 655.2,495 654.2,497.2 653.4,499.5 
	652.5,501.8 652.2,504.2 651.5,506.5 650.8,509 650.7,511.6 650.8,514.2 650.6,516.8 651,519.3 651.6,521.9 652.5,524.3 
	653.7,526.6 654.7,528.6 656,530.5 657.6,532.1 659,533.8 660.8,535.3 662.9,536.3 665.2,537.1 667.6,537.6 670,538.1 672.4,538.5 
	674.8,538.7 677.3,538.7 679.6,538 681.9,537.3 684.3,536.7 686.6,535.9 688.7,534.6 690.8,533.3 692.5,531.6 694.3,529.9 
	695.9,528 697.5,526.3 698.9,524.3 700.2,522.2 701.6,520.2 702.6,517.9 704,515.7 704.8,513.3 705.5,510.9 706.5,508.6 
	707.2,506.2 708.2,503.9 708.5,501.4 709.2,498.9 710,496.5 710.1,494 710.6,491.5 710.9,489 711.7,486.6 711.6,484 712.2,481.5 
	712.4,479 712.2,476.5 712.8,474 712.6,471.5 712.7,469 712.5,466.4 712.7,463.9 713,461.4 712.4,458.9 712.4,456.4 712.5,453.7 
	710.2,455.2 707.7,455.9 705.6,457.3 703.2,458.3 700.8,459.2 698.6,460.4 696.2,461.3 693.9,462.5 691.7,463.7 689.5,465 
	687.1,466 684.7,466.9 682.6,468.3 "/>
<polygon class="st0" points="601,556.3 602.5,558.3 603.8,560.5 605.3,562.4 606.5,564.7 608.1,566.6 609.8,568.4 611.5,570.3 
	613.3,572 614.8,574.1 616.9,575.5 618.7,577.3 620.9,578.6 622.8,580.3 624.9,581.7 627.1,582.9 629.5,583.9 631.6,585.2 634,586 
	636.2,587.2 638.6,588 641,588.7 643.5,589.3 645.9,590.2 648.3,590.5 650.7,590.7 653.1,591 655.6,590.9 658,590.8 660.4,590.8 
	662.8,590.3 665.2,590 667.5,589.2 669.8,588.3 672.2,587.8 674.2,586.3 676.4,585.4 678.5,584.1 680.5,582.8 682.2,581 683,580.2 
	683.3,579.8 684.8,577.8 685.8,575.5 686.3,573 687,570.7 687.7,568.3 688.1,565.8 688,563.3 688.1,560.9 687.3,558.5 686.8,556 
	686.4,553.6 685.2,551.4 683.9,549.3 682.9,547 681.4,545 679.8,543.1 678,541.4 676,539.8 674.1,538.3 672.2,536.8 670,535.5 
	668,534.1 665.8,533 663.6,531.8 661.3,530.8 659,529.9 656.7,529 654.5,528 652.2,527 649.9,526 647.4,525.7 645,525.1 
	642.7,524.3 640.3,523.5 637.9,523 635.5,522.5 633,522.2 630.5,521.7 628.1,521.5 625.7,520.9 623.2,520.7 620.7,520.5 
	618.3,519.9 615.8,519.9 613.4,519.4 610.9,519.4 608.4,519.5 605.9,519.2 603.4,519.1 601,518.7 598.5,519 596,518.8 593.5,518.6 
	591.1,519 588.6,518.9 586.2,519 584.2,519.6 584.4,521.7 585.1,524.1 586.2,526.4 587.7,528.6 588.4,531.1 589.7,533.3 
	590.8,535.6 592.1,537.8 593.1,540.2 593.9,542.6 595.5,544.7 596.5,547 597.4,549.5 598.9,551.6 599.7,554 "/>
<polygon class="st1" points="601,556.3 602.5,558.3 603.8,560.5 605.3,562.4 606.5,564.7 608.1,566.6 609.8,568.4 611.5,570.3 
	613.3,572 614.8,574.1 616.9,575.5 618.7,577.3 620.9,578.6 622.8,580.3 624.9,581.7 627.1,582.9 629.5,583.9 631.6,585.2 634,586 
	636.2,587.2 638.6,588 641,588.7 643.5,589.3 645.9,590.2 648.3,590.5 650.7,590.7 653.1,591 655.6,590.9 658,590.8 660.4,590.8 
	662.8,590.3 665.2,590 667.5,589.2 669.8,588.3 672.2,587.8 674.2,586.3 676.4,585.4 678.5,584.1 680.5,582.8 682.2,581 683,580.2 
	683.3,579.8 684.8,577.8 685.8,575.5 686.3,573 687,570.7 687.7,568.3 688.1,565.8 688,563.3 688.1,560.9 687.3,558.5 686.8,556 
	686.4,553.6 685.2,551.4 683.9,549.3 682.9,547 681.4,545 679.8,543.1 678,541.4 676,539.8 674.1,538.3 672.2,536.8 670,535.5 
	668,534.1 665.8,533 663.6,531.8 661.3,530.8 659,529.9 656.7,529 654.5,528 652.2,527 649.9,526 647.4,525.7 645,525.1 
	642.7,524.3 640.3,523.5 637.9,523 635.5,522.5 633,522.2 630.5,521.7 628.1,521.5 625.7,520.9 623.2,520.7 620.7,520.5 
	618.3,519.9 615.8,519.9 613.4,519.4 610.9,519.4 608.4,519.5 605.9,519.2 603.4,519.1 601,518.7 598.5,519 596,518.8 593.5,518.6 
	591.1,519 588.6,518.9 586.2,519 584.2,519.6 584.4,521.7 585.1,524.1 586.2,526.4 587.7,528.6 588.4,531.1 589.7,533.3 
	590.8,535.6 592.1,537.8 593.1,540.2 593.9,542.6 595.5,544.7 596.5,547 597.4,549.5 598.9,551.6 599.7,554 "/>
<polygon class="st0" points="697.4,514.7 695.4,516.2 693,516.9 691,518.3 688.9,519.6 686.8,520.8 684.8,522.2 682.8,523.6 
	680.9,525.1 679.1,526.8 677.3,528.4 675.6,530.2 674,532 672.2,533.7 670.7,535.7 669.5,537.8 668.4,540 667,542 665.8,544.1 
	664.7,546.3 663.8,548.6 663,550.9 662.4,553.3 661.4,555.7 660.8,558.1 660.8,560.7 660.6,563.2 660.9,565.7 660.8,568.3 
	661.4,570.8 662.2,573.2 663.1,575.5 664.1,577.8 664.9,580.2 666.7,582 668,584.2 669.9,585.8 671.9,587.3 674.1,588.4 
	676.4,589.3 678.8,589.7 681.2,590.5 683.7,590.6 686.1,591 688.5,591 691,590.7 693.4,590.1 695.8,589.8 698.1,588.7 700.3,587.6 
	702.4,586.5 704.4,585.1 706.3,583.5 708.4,582.2 710,580.3 711.8,578.7 713.3,576.7 714.7,574.7 716.5,572.9 717.5,570.6 
	719,568.6 720.2,566.4 721.5,564.2 722.3,561.8 723.2,559.5 724.1,557.1 725.4,554.9 726.1,552.5 726.6,550 727.4,547.7 
	728.3,545.3 729,542.9 729.5,540.4 730.2,538 730.3,535.5 730.9,533 731.6,530.6 731.9,528.1 732.1,525.6 732.8,523.2 733.1,520.7 
	733.4,518.2 733.5,515.7 733.7,513.2 733.9,510.6 734.1,508.1 734.1,505.6 734.3,503.1 734.2,500.7 732,501.5 729.7,502.4 
	727.4,503.4 725.1,504.3 722.8,505 720.4,505.7 718,506.4 715.9,507.7 713.6,508.6 711.2,509.4 708.8,510 706.5,510.9 704.2,511.8 
	702,512.9 699.7,513.8 "/>
<polygon class="st1" points="697.4,514.7 695.4,516.2 693,516.9 691,518.3 688.9,519.6 686.8,520.8 684.8,522.2 682.8,523.6 
	680.9,525.1 679.1,526.8 677.3,528.4 675.6,530.2 674,532 672.2,533.7 670.7,535.7 669.5,537.8 668.4,540 667,542 665.8,544.1 
	664.7,546.3 663.8,548.6 663,550.9 662.4,553.3 661.4,555.7 660.8,558.1 660.8,560.7 660.6,563.2 660.9,565.7 660.8,568.3 
	661.4,570.8 662.2,573.2 663.1,575.5 664.1,577.8 664.9,580.2 666.7,582 668,584.2 669.9,585.8 671.9,587.3 674.1,588.4 
	676.4,589.3 678.8,589.7 681.2,590.5 683.7,590.6 686.1,591 688.5,591 691,590.7 693.4,590.1 695.8,589.8 698.1,588.7 700.3,587.6 
	702.4,586.5 704.4,585.1 706.3,583.5 708.4,582.2 710,580.3 711.8,578.7 713.3,576.7 714.7,574.7 716.5,572.9 717.5,570.6 
	719,568.6 720.2,566.4 721.5,564.2 722.3,561.8 723.2,559.5 724.1,557.1 725.4,554.9 726.1,552.5 726.6,550 727.4,547.7 
	728.3,545.3 729,542.9 729.5,540.4 730.2,538 730.3,535.5 730.9,533 731.6,530.6 731.9,528.1 732.1,525.6 732.8,523.2 733.1,520.7 
	733.4,518.2 733.5,515.7 733.7,513.2 733.9,510.6 734.1,508.1 734.1,505.6 734.3,503.1 734.2,500.7 732,501.5 729.7,502.4 
	727.4,503.4 725.1,504.3 722.8,505 720.4,505.7 718,506.4 715.9,507.7 713.6,508.6 711.2,509.4 708.8,510 706.5,510.9 704.2,511.8 
	702,512.9 699.7,513.8 "/>
<g class="st2">
	<path d="M781.1,390.5c9.9-5.8,20.8-8.5,31.6-11.2c8.7-2.4,17.4-3.3,26.5-3c12.9,0.9,25.9,1.5,37.9,7.3c3.6,1.8,6.9,4,10.5,5.8
		c1.5,0.9,3,2.1,4.8,2.7c7.5,2.7,16.2,11.2,21.7,16.7c6,6.1,10.8,13.4,14.4,21.3c7.5,15.8,11.7,33.7,12,51.1c0,10-0.9,20.4-2.7,30.1
		c-9,49.2-43.6,94.5-92.7,108.8c-36.1,10.6-77.3-7-86.9-45.3c-1.8-7.9-1.8-15.5-0.6-23.4c0.3-3.3,1.2-6.4,1.8-9.7
		c1.8-6.7,5.7-11.9,12.3-15.2c0.9,0.6,2.1,1.2,3.3,1.8c-1.2,1.8-2.1,3.3-3.3,4.6c-3,3-3.6,7-3.9,10.6c-0.3,1.8-0.6,4-0.3,5.8
		c0,11.9,3.6,24.3,9.6,34.6c7.5,12.5,23.2,17,36.4,19.1c15,2.4,26.5-7.9,37.3-16.4c27.7-21,49.3-42.2,53.5-78.4
		c1.5-13.4,2.4-26.7,2.7-40.4c0-8.8-1.2-17-4.5-25.2c-3-7.9-5.7-15.8-9.9-23.4c-3.6-6.1-8.1-11.2-13.8-15.5
		c-7.2-5.5-15-10.3-23.8-13.7c-6.3-2.4-12.9-3.6-19.9-3.6c-0.6,0-1.2,0.3-1.8,0.3c-0.3,0-0.3,0.3-0.9,0.6c0.6,2.1,1.2,4,2.1,6.1
		c2.4,6.1,4.5,12.2,4.8,18.8c0.6,9.1,1.2,18.2,0.6,27.3c-0.6,8.2-2.7,16.1-3.3,24c-0.6,8.5-1.8,16.7-3.6,24.9
		c-2.4,10.9-4.5,22.2-6,33.1c-1.5,10-0.9,20.4-2.4,30.1c-0.6,5.2-0.9,10-0.3,14.9c0.3,5.8-0.6,10.9-2.1,16.4c0,0,0,0.6-0.3,0.6
		c-3.9,3.6-3.3,11.5-7.2,15.2c-7.2,6.7-11.4-11.2-12.3-16.1c-2.1-10.9-3-22.2-3-33.4c0-14,0.3-28,0.9-42.2
		c0.3-14.3,0.9-28.6,1.8-42.8c0.9-15.5,2.1-31,3.3-46.5c0.6-8.5,1.8-16.7,2.4-25.2c0.3-0.6,0-0.9,0-2.1c-2.7,0.6-5.1,0.6-7.2,1.5
		c-4.5,1.5-8.7,3.3-12.6,5.2c-0.6,0.3-1.2,0.9-1.8,0.9c-5.4,1.8-9.3,5.8-13.5,9.4c-0.6,0.6-1.5,1.2-2.1,0.9c-3-0.3-5.4-1.5-7.2-4.6
		C769.1,398.7,774.8,394.1,781.1,390.5z"/>
	<path d="M1029,597.1c-1.8,0.9-2.7,1.5-3.9,2.1c-4.8,1.5-10.2,2.7-15.3,2.7c-6,0-12.3,1.2-18.1,0.9c-5.1-0.3-10.2,0.6-15.3,1.8
		c-2.4,0.3-5.4,0.3-8.1,0.6c-1.2,0-3,0.3-3.6-2.1c6.3-4.6,13.5-5.5,21.1-6.4c-0.6-3.6-0.6-7-0.6-10.3c-1.5-15.8-3-31.6-4.2-47.1
		c-0.6-6.7-1.2-13.4-1.8-20.1c-0.3-10.3-0.9-21-0.9-31.3c0.3-11.5,0.3-22.8,1.8-34c0.6-6.4,0.9-12.8,1.5-19.4
		c0.9-11.5,2.1-23.4,3.6-35.3c1.5-11.5,3.6-23.1,5.1-34.3c0-0.9,0.3-1.5,0.3-3.3c-1.2,0.3-2.4,0.3-3.3,0.9
		c-3.9,0.3-8.1,1.2-12.3,1.5c-1.5,0.3-3,0-3.6-1.8c0.9-1.8,3-2.1,4.5-2.1c4.2-1.5,8.4-2.4,12.3-3.3c7.5-1.5,15-2.7,22.6-4
		c5.7-0.9,10.8,1.5,15.6,4c-7.2,2.7-15.3,3-22.9,4.6c0.3,0.6,0,0.9,0,0.9c3.6,2.1,4.2,5.8,4.5,9.7c0.3,1.8,1.2,4,1.5,6.1
		c0.9,5.2,1.5,10,2.4,15.5c1.5,7.9,2.7,15.8,4.2,23.4c0,0.9,0.3,1.8,0.3,3c0,8.5,0.6,17,0.6,25.5c0,6.7-0.9,12.8-1.5,18.8
		c-0.3,5.8-0.9,10.9-1.2,16.1c-0.3,5.5-0.9,10.9-0.9,16.1c0,6.4,0.6,12.8,1.2,18.8c0,4,0,7.9-0.3,11.5c-0.6,7.3-1.5,14.6-2.1,21.9
		c-0.3,2.4-0.9,5.2-1.2,7.6c0,5.8,0.3,11.9-0.6,17.3c-0.9,4.9-0.6,9.7-3.6,13.7c-1.5,2.1-1.8,4.6-2.7,7.3
		C1012.8,595,1020.9,592,1029,597.1z"/>
	<path d="M1123.8,679.2c-6.3,14.3-12,29.8-24.4,40.1c-3.6,2.7-6.9,5.8-11.1,7.6c-3,1.5-6.9,3.6-10.2,4.6c-3.3,0.6-6.6,2.7-9.9,3
		c-9,1.5-17.1,1.2-24.4-4.9c-0.9-0.9-1.8-2.1-3-2.7c-3-2.4-4.8-6.1-6.9-9.1c-4.2-5.5-4.5-13.4-3.9-20.1c2.1-30.4,28-52.6,49.6-71.1
		c7.8-6.4,15.9-12.8,23.8-19.1c1.2-0.6,2.1-1.5,3.3-2.1c4.8-4.3,9.6-8.5,14.4-12.5c1.5-1.2,2.1-2.4,2.4-4c0.9-6.7,1.8-13.7,2.4-20.4
		c0.6-9.7,0.3-19.8,1.8-29.8c0.3-1.5,0.3-3-0.3-4.9c-0.9,1.2-1.5,2.7-2.4,4c-3.9,5.5-7.5,10.9-11.4,16.4c-4.5,6.4-9,12.8-13.8,18.8
		c-4.8,6.1-10.2,11.2-17.4,14.3c-6.9,3-13.8,4.3-21.4,3.6c-7.5-0.9-12.9-5.5-17.1-11.9c-8.1-12.8-7.5-27.7-8.4-42.2
		c-1.5-24.6-0.9-49.8-0.6-74.5c0.3-10.6,0.9-21.6,1.5-32.2c0.3-5.5,1.8-11.9,0.9-17c-2.1,0.9-4.5,2.4-6.3,4
		c-4.8,4.3-8.4,9.7-12,14.9c-2.1,3-3.6,5.8-4.5,9.4c-0.6,2.1-2.4,4-2.7,6.7c0,1.5-2.7,2.1-4.2,1.2c-0.9-0.6-1.8-1.5-2.7-2.1
		c-1.8-1.5-1.8-2.1-0.9-4.6c2.4-5.8,4.8-11.5,7.2-17.3c4.8-10,12-17.9,21.7-23.7c4.2-2.4,9-3.3,13.8-2.1c2.4,0.9,4.8,1.5,7.5,1.8
		c3.6,0.9,6,3.3,7.5,6.7c2.4,4.9,3.9,10,4.2,15.8c0,4.3,1.2,8.8,1.2,13.4c1.2,23.7-1.5,47.1-1.2,70.8c0.3,18.8,1.8,38,3.3,56.8
		c0,0.9,0.6,1.8,0.9,2.7c0.6,1.2,1.5,2.4,2.1,4c1.5,3.3,3.9,4.3,7.2,3c4.8-1.8,9-5.2,12.3-9.1c9.9-11.2,18.4-23.1,26.2-35.6
		c3.3-5.2,6.6-10.6,9.9-15.8c1.2-1.5,1.8-3.3,2.1-5.2c0.9-10,2.1-19.8,3-29.5c0.6-7.6,0.9-15.2,1.5-22.8c1.2-11.5,1.5-23.1,5.1-34
		c0.9-3,1.8-6.1,3-8.8c0.9-2.1,1.5-2.4,3.9-1.8c3.9,1.5,6.9,4.3,8.7,7.9c1.2,2.1,2.1,4.6,2.4,7s2.7,4.6,2.7,7
		c2.1,32.5,11.1,56.2,4.2,85.4c-2.1,8.2-5.1,23.1-3.3,31.6c0.3,2.1,0.6,4.3-0.3,6.4c0,0.9,0,1.8,0,2.7c1.5,0,2.1-0.9,2.7-1.8
		c4.8-4.6,9.3-9.4,14.1-14.3c0.9-0.9,1.8-2.4,2.7-3.3c2.4-2.7,4.8-4.9,6.9-7.6c3.9-5.5,9-10,13.5-15.2c1.2-1.5,2.4-3.3,3.6-4.9
		c1.8-2.4,6.3-1.8,7.5,1.2c0.3,0.3,0,1.2-0.3,1.5c-0.6,1.2-1.5,2.4-2.4,3c-4.2,2.7-4.8,8.8-7.5,12.8c-3,5.2-7.5,9.1-11.1,14
		c-7.2,10.3-17.1,16.7-25.6,25.8c-0.6,0.3-0.6,1.2-0.9,1.2c-3.3,0.9-4.5,4.3-6.9,6.1c-0.3,0.3-0.6,0.9-0.6,1.2
		c0.3,2.4-1.5,4-2.4,6.1c-6.3,17-11.1,34.6-15.3,52.3c-3.3,13.4-8.1,25.8-13.8,38.6C1124.7,677.7,1124.4,678.3,1123.8,679.2z
		 M1118.9,610.2c-0.9,0.9-1.8,1.8-3,2.7c-0.6,0.6-1.5,1.2-2.1,1.8c-1.8,1.2-3.3,2.4-5.1,3.6c-2.4,2.1-3.9,5.2-7.2,6.4
		c-0.6,0-0.9,0.6-1.2,0.9c-0.9,0.9-1.5,1.8-2.4,2.7c-2.1,2.4-46.6,30.7-51.1,60.2c0,0.9-0.3,1.2-0.6,1.8c-0.6,2.4-1.2,4.6-1.5,7
		c-0.3,1.2-0.3,2.7-0.6,4c-1.2,6.4,0,12.5,3.6,17.6c1.8,2.1,3.6,4,5.4,6.1s4.5,3.3,7.2,3.3c3-0.3,6.3-0.9,9.3-1.2
		c3.9-0.3,7.2-1.8,10.5-4.3c5.1-3.6,9-8.8,11.7-14.3c2.4-4.3,4.5-8.2,6.6-12.5c0.9-2.1,2.4-4.3,3-6.4c1.8-5.8,3.6-11.5,5.1-17.3
		c1.2-4.6,2.1-9.4,3.3-14c1.8-6.1,3.3-12.2,4.2-18.5c1.5-8.8,3.3-17.3,5.1-25.8c0.3-1.2,0.3-2.4,0.3-3.6
		C1119.2,610.2,1119.2,610.2,1118.9,610.2z M1125.6,672.2c-0.6,0.3-0.9,0.9-1.5,1.2c0.3,0,0.3,0.3,0.6,0.6c0.3-0.6,0.9-0.9,1.2-1.2
		C1125.9,672.5,1125.6,672.2,1125.6,672.2z"/>
</g>
<polygon class="st0" points="616.3,626.8 617.9,628.6 619.7,630.3 621.1,632.3 622.8,634.1 624.7,635.7 626.7,637.1 628.5,638.9 
	630.3,640.5 632.4,641.8 634.2,643.6 636.4,644.6 638.4,646.2 640.6,647.3 642.7,648.6 644.9,649.6 647.1,650.8 649.4,651.7 
	651.8,652.2 654,653.3 656.4,654 658.8,654.4 661.2,655.3 663.6,655.7 666,656 668.4,656.5 670.9,656.8 673.3,657 675.8,657.1 
	678.3,656.9 680.7,657 683.1,656.7 685.5,656.2 687.9,655.9 690.2,654.8 692.6,654.4 694.7,653.2 696.9,652.1 699.1,651 
	701.1,649.7 703.1,648.3 705.3,646.8 707.1,644.8 708.9,642.9 710.5,640.7 711.9,638.5 713.7,636.4 714.4,634 714.6,631.5 
	714.7,629 715.1,626.6 715.3,624.1 715.2,621.7 715,619.2 714.5,616.8 713.8,614.4 713.4,611.9 712.7,609.6 711.4,607.4 
	710.4,605.2 708.9,603.2 707.8,601 706.2,599.1 704.4,597.3 702.6,595.7 700.7,594.1 699.1,592.2 696.9,591 694.9,589.5 
	692.6,588.5 690.6,587.1 688.4,586 686.1,585 683.7,584.4 681.4,583.3 679,582.8 676.7,581.9 674.3,581.3 671.8,580.8 669.4,580.5 
	667,579.8 664.5,579.6 662,579.4 659.6,579 657.1,579 654.7,578.8 652.2,578.4 649.7,578.5 647.3,578.3 644.8,578.4 642.3,578.5 
	639.8,578.1 637.4,578.6 634.9,578.5 632.4,578.6 629.9,578.6 627.5,579.1 625,579.4 622.6,579.7 620.1,579.6 617.6,579.9 
	615.2,580.6 612.8,580.9 610.3,581 607.8,581.3 605.4,581.9 602.9,582.1 600.6,583 598.1,583.4 595.7,583.6 593.3,584.3 590.9,585 
	588.4,585.3 585.9,586 587.4,588.3 589,590.3 590.5,592.3 592,594.3 593.5,596.4 595.1,598.4 596.4,600.5 598.1,602.4 599.5,604.5 
	601,606.5 602.7,608.5 604.2,610.5 605.6,612.6 606.9,614.8 608.3,616.9 610.2,618.7 611.8,620.7 613.2,622.8 614.5,624.9 "/>
<polygon class="st1" points="616.3,626.8 617.9,628.6 619.7,630.3 621.1,632.3 622.8,634.1 624.7,635.7 626.7,637.1 628.5,638.9 
	630.3,640.5 632.4,641.8 634.2,643.6 636.4,644.6 638.4,646.2 640.6,647.3 642.7,648.6 644.9,649.6 647.1,650.8 649.4,651.7 
	651.8,652.2 654,653.3 656.4,654 658.8,654.4 661.2,655.3 663.6,655.7 666,656 668.4,656.5 670.9,656.8 673.3,657 675.8,657.1 
	678.3,656.9 680.7,657 683.1,656.7 685.5,656.2 687.9,655.9 690.2,654.8 692.6,654.4 694.7,653.2 696.9,652.1 699.1,651 
	701.1,649.7 703.1,648.3 705.3,646.8 707.1,644.8 708.9,642.9 710.5,640.7 711.9,638.5 713.7,636.4 714.4,634 714.6,631.5 
	714.7,629 715.1,626.6 715.3,624.1 715.2,621.7 715,619.2 714.5,616.8 713.8,614.4 713.4,611.9 712.7,609.6 711.4,607.4 
	710.4,605.2 708.9,603.2 707.8,601 706.2,599.1 704.4,597.3 702.6,595.7 700.7,594.1 699.1,592.2 696.9,591 694.9,589.5 
	692.6,588.5 690.6,587.1 688.4,586 686.1,585 683.7,584.4 681.4,583.3 679,582.8 676.7,581.9 674.3,581.3 671.8,580.8 669.4,580.5 
	667,579.8 664.5,579.6 662,579.4 659.6,579 657.1,579 654.7,578.8 652.2,578.4 649.7,578.5 647.3,578.3 644.8,578.4 642.3,578.5 
	639.8,578.1 637.4,578.6 634.9,578.5 632.4,578.6 629.9,578.6 627.5,579.1 625,579.4 622.6,579.7 620.1,579.6 617.6,579.9 
	615.2,580.6 612.8,580.9 610.3,581 607.8,581.3 605.4,581.9 602.9,582.1 600.6,583 598.1,583.4 595.7,583.6 593.3,584.3 590.9,585 
	588.4,585.3 585.9,586 587.4,588.3 589,590.3 590.5,592.3 592,594.3 593.5,596.4 595.1,598.4 596.4,600.5 598.1,602.4 599.5,604.5 
	601,606.5 602.7,608.5 604.2,610.5 605.6,612.6 606.9,614.8 608.3,616.9 610.2,618.7 611.8,620.7 613.2,622.8 614.5,624.9 "/>
<polygon class="st0" points="671.8,636.9 671.2,634.6 670.9,632.2 670.4,629.8 670.4,627.4 670.7,625 670.8,622.7 671.2,620.3 
	671.6,618 672.1,615.6 672.8,613.3 673.5,611 674.3,608.7 675.3,606.4 676.5,604.3 677.6,602.1 679,600.1 680.1,597.9 681.3,595.8 
	682.7,593.8 683.9,591.7 685.3,589.6 687,587.8 688.4,585.8 690.1,584.1 691.8,582.3 693.4,580.5 695.3,578.9 697,577.1 
	698.9,575.6 700.9,574.2 702.8,572.7 704.7,571.1 706.9,570 709,568.7 710.9,567.2 712.9,565.8 715.1,564.7 717.3,563.6 
	719.4,562.3 721.8,561.6 723.8,560.1 726.2,559.3 728.4,558.1 730.7,557.2 733,556.2 735.3,555.3 737.5,554.2 739.7,552.9 
	742.1,552.2 744.3,551.2 746.5,549.8 748.9,549.1 751.1,548.1 753.4,547 755.7,546.2 758,545.2 760.1,544.1 759.8,546.5 
	759.7,549.1 759.2,551.5 758.8,554 758.5,556.5 757.9,559 757.8,561.5 757,563.9 756.8,566.4 756.3,568.9 755.7,571.3 755.2,573.8 
	754.5,576.2 753.8,578.6 753.3,581.1 752.5,583.5 751.8,585.9 751.2,588.4 750.1,590.7 749.4,593 748.8,595.5 748.1,598 747,600.2 
	746,602.5 745.1,604.9 744.1,607.2 743.2,609.5 742.3,611.9 740.9,614 739.7,616.3 738.8,618.6 737.5,620.8 736.4,623.1 734.7,625 
	733.5,627.2 732.1,629.3 730.7,631.4 729.2,633.4 727.2,635 725.8,637.1 723.9,638.8 722.3,640.7 720.2,642.2 718.2,643.7 
	716.2,645.3 714.3,646.9 712,647.9 709.9,649.3 707.5,650 705.1,650.9 702.8,651.7 700.3,652.3 697.8,652.4 695.3,652.7 
	692.8,652.8 690.3,652.4 687.8,652.1 685.3,651.5 683,650.5 680.7,649.6 678.5,648.3 676.8,646.3 675.1,644.2 674,641.8 
	672.5,639.5 "/>
<polygon class="st1" points="671.8,636.9 671.2,634.6 670.9,632.2 670.4,629.8 670.4,627.4 670.7,625 670.8,622.7 671.2,620.3 
	671.6,618 672.1,615.6 672.8,613.3 673.5,611 674.3,608.7 675.3,606.4 676.5,604.3 677.6,602.1 679,600.1 680.1,597.9 681.3,595.8 
	682.7,593.8 683.9,591.7 685.3,589.6 687,587.8 688.4,585.8 690.1,584.1 691.8,582.3 693.4,580.5 695.3,578.9 697,577.1 
	698.9,575.6 700.9,574.2 702.8,572.7 704.7,571.1 706.9,570 709,568.7 710.9,567.2 712.9,565.8 715.1,564.7 717.3,563.6 
	719.4,562.3 721.8,561.6 723.8,560.1 726.2,559.3 728.4,558.1 730.7,557.2 733,556.2 735.3,555.3 737.5,554.2 739.7,552.9 
	742.1,552.2 744.3,551.2 746.5,549.8 748.9,549.1 751.1,548.1 753.4,547 755.7,546.2 758,545.2 760.1,544.1 759.8,546.5 
	759.7,549.1 759.2,551.5 758.8,554 758.5,556.5 757.9,559 757.8,561.5 757,563.9 756.8,566.4 756.3,568.9 755.7,571.3 755.2,573.8 
	754.5,576.2 753.8,578.6 753.3,581.1 752.5,583.5 751.8,585.9 751.2,588.4 750.1,590.7 749.4,593 748.8,595.5 748.1,598 747,600.2 
	746,602.5 745.1,604.9 744.1,607.2 743.2,609.5 742.3,611.9 740.9,614 739.7,616.3 738.8,618.6 737.5,620.8 736.4,623.1 734.7,625 
	733.5,627.2 732.1,629.3 730.7,631.4 729.2,633.4 727.2,635 725.8,637.1 723.9,638.8 722.3,640.7 720.2,642.2 718.2,643.7 
	716.2,645.3 714.3,646.9 712,647.9 709.9,649.3 707.5,650 705.1,650.9 702.8,651.7 700.3,652.3 697.8,652.4 695.3,652.7 
	692.8,652.8 690.3,652.4 687.8,652.1 685.3,651.5 683,650.5 680.7,649.6 678.5,648.3 676.8,646.3 675.1,644.2 674,641.8 
	672.5,639.5 "/>
<polygon class="st0" points="754.6,599.4 752.3,600.4 750,601.1 747.6,601.9 745.4,603 743.1,604 741,605.2 738.8,606.4 
	736.6,607.6 734.3,608.5 732.3,610 730,611.1 728.2,612.9 726,614.1 724,615.6 722.3,617.3 720.4,619 718.5,620.5 716.7,622.3 
	715,624.1 713.4,626 711.8,627.9 710,629.6 708.7,631.8 707.2,633.7 706,635.9 704.3,637.8 703.1,640 702.2,642.3 700.8,644.4 
	699.9,646.7 698.7,648.9 697.6,651.1 697.1,653.6 696.3,656 695.3,658.3 695.1,660.9 694.8,663.4 694.5,665.9 694.4,668.4 
	694.4,670.9 694.9,673.4 695.1,675.9 695.4,678.4 696.1,680.8 696.8,683.3 697.8,685.7 699,688 700.4,690.3 702,692.3 703.7,694.3 
	705.3,696.3 706.8,698.5 708.9,699.8 711,701.2 713.2,702.2 715.5,703.1 717.8,704 720.2,704.6 722.6,705.1 724.9,706 727.4,706.2 
	729.8,706.6 732.3,706.9 734.7,706.9 737.2,707 739.6,706.7 742.1,706.5 744.5,706.2 746.9,705.6 749.3,704.8 751.7,704.3 
	754,703.4 756.2,702.2 758.2,700.8 760.4,699.8 762.6,698.6 764.5,697 766.7,695.8 768.3,693.9 770.4,692.6 772.1,690.7 
	773.9,689.1 775.6,687.3 777.3,685.5 778.9,683.6 780.1,681.5 781.8,679.7 783.3,677.7 784.4,675.4 786,673.5 787.2,671.4 
	788.3,669.2 789.7,667.2 790.9,665 791.9,662.8 793,660.5 793.8,658.2 795,656 795.9,653.7 796.8,651.4 797.8,649.2 798.3,646.8 
	799.5,644.6 800,642.1 800.7,639.8 801.5,637.5 802.2,635.1 802.9,632.7 803.7,630.4 804.2,628 804.9,625.6 805.5,623.2 
	805.9,620.8 806.8,618.5 807.3,616.1 807.6,613.6 807.9,611.2 808.5,608.8 809.1,606.4 809.5,603.9 809.9,601.5 810.1,599 
	810.3,596.6 810.9,594.2 811.3,591.8 811.3,589.3 811.6,586.8 811.6,584.4 812.1,581.8 809.6,582.6 807.2,583.4 804.8,584.2 
	802.4,584.9 799.9,585.2 797.6,586.2 795.1,586.6 792.8,587.6 790.3,588 787.9,588.6 785.5,589.4 783.2,590.4 780.7,590.8 
	778.4,591.8 775.9,592.2 773.5,592.9 771.2,593.8 768.8,594.7 766.3,595.1 764,596.1 761.7,596.9 759.3,597.6 757,598.5 "/>
<polygon class="st1" points="754.6,599.4 752.3,600.4 750,601.1 747.6,601.9 745.4,603 743.1,604 741,605.2 738.8,606.4 
	736.6,607.6 734.3,608.5 732.3,610 730,611.1 728.2,612.9 726,614.1 724,615.6 722.3,617.3 720.4,619 718.5,620.5 716.7,622.3 
	715,624.1 713.4,626 711.8,627.9 710,629.6 708.7,631.8 707.2,633.7 706,635.9 704.3,637.8 703.1,640 702.2,642.3 700.8,644.4 
	699.9,646.7 698.7,648.9 697.6,651.1 697.1,653.6 696.3,656 695.3,658.3 695.1,660.9 694.8,663.4 694.5,665.9 694.4,668.4 
	694.4,670.9 694.9,673.4 695.1,675.9 695.4,678.4 696.1,680.8 696.8,683.3 697.8,685.7 699,688 700.4,690.3 702,692.3 703.7,694.3 
	705.3,696.3 706.8,698.5 708.9,699.8 711,701.2 713.2,702.2 715.5,703.1 717.8,704 720.2,704.6 722.6,705.1 724.9,706 727.4,706.2 
	729.8,706.6 732.3,706.9 734.7,706.9 737.2,707 739.6,706.7 742.1,706.5 744.5,706.2 746.9,705.6 749.3,704.8 751.7,704.3 
	754,703.4 756.2,702.2 758.2,700.8 760.4,699.8 762.6,698.6 764.5,697 766.7,695.8 768.3,693.9 770.4,692.6 772.1,690.7 
	773.9,689.1 775.6,687.3 777.3,685.5 778.9,683.6 780.1,681.5 781.8,679.7 783.3,677.7 784.4,675.4 786,673.5 787.2,671.4 
	788.3,669.2 789.7,667.2 790.9,665 791.9,662.8 793,660.5 793.8,658.2 795,656 795.9,653.7 796.8,651.4 797.8,649.2 798.3,646.8 
	799.5,644.6 800,642.1 800.7,639.8 801.5,637.5 802.2,635.1 802.9,632.7 803.7,630.4 804.2,628 804.9,625.6 805.5,623.2 
	805.9,620.8 806.8,618.5 807.3,616.1 807.6,613.6 807.9,611.2 808.5,608.8 809.1,606.4 809.5,603.9 809.9,601.5 810.1,599 
	810.3,596.6 810.9,594.2 811.3,591.8 811.3,589.3 811.6,586.8 811.6,584.4 812.1,581.8 809.6,582.6 807.2,583.4 804.8,584.2 
	802.4,584.9 799.9,585.2 797.6,586.2 795.1,586.6 792.8,587.6 790.3,588 787.9,588.6 785.5,589.4 783.2,590.4 780.7,590.8 
	778.4,591.8 775.9,592.2 773.5,592.9 771.2,593.8 768.8,594.7 766.3,595.1 764,596.1 761.7,596.9 759.3,597.6 757,598.5 "/>
<polygon class="st0" points="629.9,721 632.2,722 634.3,723.3 636.5,724.3 638.8,725.3 641.3,725.9 643.5,727 645.8,728 
	648.2,728.8 650.5,729.5 653,729.9 655.4,730.5 657.8,731.4 660.3,731.5 662.7,732.3 665.2,732.5 667.7,732.5 670.1,733 
	672.6,733.3 675.1,732.9 677.6,733.3 680.1,733.3 682.5,733 685,732.6 687.5,732.2 690,732.1 692.4,731.8 694.9,731.2 697.3,730.6 
	699.7,729.8 702,729 704.5,728.5 706.7,727.3 709,726.4 711.2,725.2 713.5,724.3 715.5,722.8 717.7,721.5 719.5,719.8 721.5,718.3 
	723,716.3 724.6,714.4 726.3,712.5 727.7,710.5 728.9,708.3 730.1,706.2 731,703.8 731.8,701.5 732.7,699.1 733.6,696.8 734,694.4 
	734.6,691.9 734.5,689.4 735,688 735,687.1 734.1,684.7 733.4,682.3 732.7,679.9 731.7,677.6 730.7,675.3 729.5,673.2 728.3,671 
	727.2,668.7 725.6,666.8 724.2,664.7 722.4,662.9 721,660.8 719.2,659.1 717.1,657.6 715.4,655.8 713.2,654.5 711.2,653 
	709.2,651.5 706.8,650.7 704.5,649.6 702.4,648.3 699.9,647.7 697.5,647 695.1,646.3 692.7,645.8 690.2,645.2 687.7,645.1 
	685.2,644.7 682.7,644.4 680.2,644.3 677.7,644.2 675.2,644.4 672.7,644.6 670.2,644.9 667.8,645.3 665.3,645.8 662.9,646.1 
	660.4,646.4 658,646.9 655.5,647.2 653.1,648 650.8,648.7 648.4,649.3 646.1,650.3 643.8,651.2 641.3,651.8 639.1,652.9 
	636.7,653.7 634.4,654.6 632.2,655.7 629.9,656.6 627.7,657.8 625.4,658.7 623.1,659.8 620.9,660.9 618.8,662.1 616.5,663.1 
	614.3,664.3 612.2,665.7 610.2,667.2 608,668.3 605.8,669.5 603.8,671 601.5,672 599.7,673.7 597.4,674.8 595.5,676.3 593.4,677.6 
	591.4,679.1 589.3,680.4 587.3,681.9 585.5,683.7 583.3,684.9 581.4,686.4 579.7,688.2 578.6,690.7 580.3,693 582.5,694.1 
	584.5,695.6 586.7,696.8 588.8,698 591,699.3 593.2,700.3 595.3,701.7 597.4,703 599.6,704.2 601.6,705.6 604,706.4 605.9,708 
	608.2,709 610.4,710.2 612.5,711.5 614.7,712.7 616.8,713.9 618.9,715.3 621.2,716.4 623.3,717.6 625.5,718.8 627.7,719.9 "/>
<polygon class="st1" points="629.9,721 632.2,722 634.3,723.3 636.5,724.3 638.8,725.3 641.3,725.9 643.5,727 645.8,728 
	648.2,728.8 650.5,729.5 653,729.9 655.4,730.5 657.8,731.4 660.3,731.5 662.7,732.3 665.2,732.5 667.7,732.5 670.1,733 
	672.6,733.3 675.1,732.9 677.6,733.3 680.1,733.3 682.5,733 685,732.6 687.5,732.2 690,732.1 692.4,731.8 694.9,731.2 697.3,730.6 
	699.7,729.8 702,729 704.5,728.5 706.7,727.3 709,726.4 711.2,725.2 713.5,724.3 715.5,722.8 717.7,721.5 719.5,719.8 721.5,718.3 
	723,716.3 724.6,714.4 726.3,712.5 727.7,710.5 728.9,708.3 730.1,706.2 731,703.8 731.8,701.5 732.7,699.1 733.6,696.8 734,694.4 
	734.6,691.9 734.5,689.4 735,688 735,687.1 734.1,684.7 733.4,682.3 732.7,679.9 731.7,677.6 730.7,675.3 729.5,673.2 728.3,671 
	727.2,668.7 725.6,666.8 724.2,664.7 722.4,662.9 721,660.8 719.2,659.1 717.1,657.6 715.4,655.8 713.2,654.5 711.2,653 
	709.2,651.5 706.8,650.7 704.5,649.6 702.4,648.3 699.9,647.7 697.5,647 695.1,646.3 692.7,645.8 690.2,645.2 687.7,645.1 
	685.2,644.7 682.7,644.4 680.2,644.3 677.7,644.2 675.2,644.4 672.7,644.6 670.2,644.9 667.8,645.3 665.3,645.8 662.9,646.1 
	660.4,646.4 658,646.9 655.5,647.2 653.1,648 650.8,648.7 648.4,649.3 646.1,650.3 643.8,651.2 641.3,651.8 639.1,652.9 
	636.7,653.7 634.4,654.6 632.2,655.7 629.9,656.6 627.7,657.8 625.4,658.7 623.1,659.8 620.9,660.9 618.8,662.1 616.5,663.1 
	614.3,664.3 612.2,665.7 610.2,667.2 608,668.3 605.8,669.5 603.8,671 601.5,672 599.7,673.7 597.4,674.8 595.5,676.3 593.4,677.6 
	591.4,679.1 589.3,680.4 587.3,681.9 585.5,683.7 583.3,684.9 581.4,686.4 579.7,688.2 578.6,690.7 580.3,693 582.5,694.1 
	584.5,695.6 586.7,696.8 588.8,698 591,699.3 593.2,700.3 595.3,701.7 597.4,703 599.6,704.2 601.6,705.6 604,706.4 605.9,708 
	608.2,709 610.4,710.2 612.5,711.5 614.7,712.7 616.8,713.9 618.9,715.3 621.2,716.4 623.3,717.6 625.5,718.8 627.7,719.9 "/>
<polygon class="st0" points="650.3,781 652.5,782.2 654.8,782.9 656.9,784.3 659.3,785 661.5,785.9 663.8,786.9 666.1,787.6 
	668.4,788.4 670.7,789.2 673.1,789.7 675.4,790.3 677.8,790.8 680.3,791.1 682.6,791.8 685.1,792.1 687.5,792.1 690,792 
	692.4,792.3 694.8,792.4 697.3,792.3 699.7,792.2 702.1,791.8 704.5,791.4 707,791.3 709.4,790.9 711.8,790.1 714.2,789.6 
	716.5,788.8 718.9,788.4 721.2,787.5 723.5,786.6 725.7,785.6 727.9,784.5 730.3,783.8 732.3,782.2 734.5,781.1 736.3,779.3 
	738.4,778 740.3,776.3 742,774.5 743.4,772.5 745.1,770.7 746.3,768.5 747.8,766.5 749,764.3 750,762 750.8,759.6 751.8,757.2 
	752.1,754.7 752.5,752.2 753,749.8 752.6,747.4 752,745 751.7,742.5 750.8,740.3 750.1,737.9 749,735.7 747.9,733.5 747.1,731.2 
	745.4,729.4 744.2,727.2 742.7,725.3 741.2,723.3 739.2,721.8 737.4,720.2 735.4,718.8 733.6,717.1 731.5,715.8 729.1,715 
	727,713.9 724.8,712.8 722.5,712 720,711.4 717.7,710.7 715.2,710.7 712.8,710.2 710.4,709.6 707.9,709.6 705.5,709.7 703,709.3 
	700.5,709.4 698.1,709.6 695.6,709.8 693.2,710.2 690.8,710.5 688.3,710.9 685.9,711.5 683.5,711.9 681.1,712.6 678.7,713.2 
	676.3,713.8 674,714.7 671.7,715.4 669.3,716 666.9,716.7 664.5,717.4 662.3,718.6 660.1,719.6 657.7,720.4 655.4,721.1 
	653.1,722.1 650.9,723.1 648.7,724.4 646.5,725.4 644.3,726.6 642.1,727.6 639.9,728.8 637.8,730.1 635.5,731 633.4,732.4 
	631.2,733.4 629.1,734.8 627.1,736.3 624.9,737.4 622.9,738.8 620.6,739.8 618.7,741.4 616.6,742.7 614.4,743.9 612.6,745.6 
	610.5,746.9 608.6,748.4 606.3,749.5 604.5,751.2 602.3,752.6 604.5,754.1 606.9,755.1 608.8,756.8 611.1,757.9 613.3,759.2 
	615.5,760.3 617.6,761.8 619.6,763.4 622,764.3 624.2,765.6 626.2,767.3 628.5,768.2 630.5,769.9 632.9,770.8 635,772.3 
	637.1,773.7 639.3,774.9 641.4,776.3 643.6,777.5 645.9,778.7 648.2,779.7 "/>
<polygon class="st1" points="650.3,781 652.5,782.2 654.8,782.9 656.9,784.3 659.3,785 661.5,785.9 663.8,786.9 666.1,787.6 
	668.4,788.4 670.7,789.2 673.1,789.7 675.4,790.3 677.8,790.8 680.3,791.1 682.6,791.8 685.1,792.1 687.5,792.1 690,792 
	692.4,792.3 694.8,792.4 697.3,792.3 699.7,792.2 702.1,791.8 704.5,791.4 707,791.3 709.4,790.9 711.8,790.1 714.2,789.6 
	716.5,788.8 718.9,788.4 721.2,787.5 723.5,786.6 725.7,785.6 727.9,784.5 730.3,783.8 732.3,782.2 734.5,781.1 736.3,779.3 
	738.4,778 740.3,776.3 742,774.5 743.4,772.5 745.1,770.7 746.3,768.5 747.8,766.5 749,764.3 750,762 750.8,759.6 751.8,757.2 
	752.1,754.7 752.5,752.2 753,749.8 752.6,747.4 752,745 751.7,742.5 750.8,740.3 750.1,737.9 749,735.7 747.9,733.5 747.1,731.2 
	745.4,729.4 744.2,727.2 742.7,725.3 741.2,723.3 739.2,721.8 737.4,720.2 735.4,718.8 733.6,717.1 731.5,715.8 729.1,715 
	727,713.9 724.8,712.8 722.5,712 720,711.4 717.7,710.7 715.2,710.7 712.8,710.2 710.4,709.6 707.9,709.6 705.5,709.7 703,709.3 
	700.5,709.4 698.1,709.6 695.6,709.8 693.2,710.2 690.8,710.5 688.3,710.9 685.9,711.5 683.5,711.9 681.1,712.6 678.7,713.2 
	676.3,713.8 674,714.7 671.7,715.4 669.3,716 666.9,716.7 664.5,717.4 662.3,718.6 660.1,719.6 657.7,720.4 655.4,721.1 
	653.1,722.1 650.9,723.1 648.7,724.4 646.5,725.4 644.3,726.6 642.1,727.6 639.9,728.8 637.8,730.1 635.5,731 633.4,732.4 
	631.2,733.4 629.1,734.8 627.1,736.3 624.9,737.4 622.9,738.8 620.6,739.8 618.7,741.4 616.6,742.7 614.4,743.9 612.6,745.6 
	610.5,746.9 608.6,748.4 606.3,749.5 604.5,751.2 602.3,752.6 604.5,754.1 606.9,755.1 608.8,756.8 611.1,757.9 613.3,759.2 
	615.5,760.3 617.6,761.8 619.6,763.4 622,764.3 624.2,765.6 626.2,767.3 628.5,768.2 630.5,769.9 632.9,770.8 635,772.3 
	637.1,773.7 639.3,774.9 641.4,776.3 643.6,777.5 645.9,778.7 648.2,779.7 "/>
<polygon class="st0" points="809.3,717.7 807.4,720.2 805.4,722.6 803.4,725.1 801.1,727.2 799.1,729.7 797.1,732.1 794.6,734.1 
	792.2,736.2 790,738.5 787.5,740.4 784.9,742.2 782.4,744.1 779.6,745.6 777,747.5 774.2,748.9 771.4,750.4 768.5,751.6 
	765.5,752.7 762.5,753.6 759.4,754.3 756.3,755 753.2,755.7 750.1,756.3 747,756.9 743.8,757 740.5,756.9 737.3,756.2 734.2,755.5 
	731,754.8 728.1,753.2 725.4,751.5 722.5,750 720.1,747.8 717.8,745.3 715.6,742.7 713.9,739.8 712.3,736.8 710.8,733.8 710,730.8 
	709.9,727.7 709.8,724.6 709.7,721.5 710.1,718.4 710.5,715.3 710.8,712.3 711.6,709.3 712.5,706.3 713.1,703.3 714.2,700.4 
	715.5,697.5 717,694.8 718.8,692.3 720.6,689.8 722.5,687.4 724.5,685 726.6,682.8 728.8,680.6 731.2,678.6 733.8,676.8 
	736.1,674.7 738.7,673.1 741.6,671.9 744.3,670.5 747.2,669.3 749.9,667.7 753,666.9 756,666 758.9,664.8 762,664 765,663.3 
	768.1,662.8 771.3,662.5 774.4,662.1 777.5,661.8 780.6,661.1 783.7,661.1 786.9,661.1 790,661 793.1,661 796.3,660.7 799.4,660.8 
	802.5,661.4 805.7,661.2 808.8,661.9 812,662 815.1,662.1 818.2,662.7 821.3,663.4 824.4,663.4 827.5,664.3 830.5,665 833.6,665.4 
	836.7,666 839.8,666.6 842.7,667.6 840.9,670.1 839.2,672.8 837.4,675.4 835.8,678.2 834.2,680.9 832.2,683.4 830.7,686.2 
	829,688.8 827.3,691.5 825.2,694 823.6,696.7 821.7,699.2 820.1,702 818.1,704.5 816.6,707.3 814.9,710 812.9,712.5 811,715 "/>
<polygon class="st1" points="809.3,717.7 807.4,720.2 805.4,722.6 803.4,725.1 801.1,727.2 799.1,729.7 797.1,732.1 794.6,734.1 
	792.2,736.2 790,738.5 787.5,740.4 784.9,742.2 782.4,744.1 779.6,745.6 777,747.5 774.2,748.9 771.4,750.4 768.5,751.6 
	765.5,752.7 762.5,753.6 759.4,754.3 756.3,755 753.2,755.7 750.1,756.3 747,756.9 743.8,757 740.5,756.9 737.3,756.2 734.2,755.5 
	731,754.8 728.1,753.2 725.4,751.5 722.5,750 720.1,747.8 717.8,745.3 715.6,742.7 713.9,739.8 712.3,736.8 710.8,733.8 710,730.8 
	709.9,727.7 709.8,724.6 709.7,721.5 710.1,718.4 710.5,715.3 710.8,712.3 711.6,709.3 712.5,706.3 713.1,703.3 714.2,700.4 
	715.5,697.5 717,694.8 718.8,692.3 720.6,689.8 722.5,687.4 724.5,685 726.6,682.8 728.8,680.6 731.2,678.6 733.8,676.8 
	736.1,674.7 738.7,673.1 741.6,671.9 744.3,670.5 747.2,669.3 749.9,667.7 753,666.9 756,666 758.9,664.8 762,664 765,663.3 
	768.1,662.8 771.3,662.5 774.4,662.1 777.5,661.8 780.6,661.1 783.7,661.1 786.9,661.1 790,661 793.1,661 796.3,660.7 799.4,660.8 
	802.5,661.4 805.7,661.2 808.8,661.9 812,662 815.1,662.1 818.2,662.7 821.3,663.4 824.4,663.4 827.5,664.3 830.5,665 833.6,665.4 
	836.7,666 839.8,666.6 842.7,667.6 840.9,670.1 839.2,672.8 837.4,675.4 835.8,678.2 834.2,680.9 832.2,683.4 830.7,686.2 
	829,688.8 827.3,691.5 825.2,694 823.6,696.7 821.7,699.2 820.1,702 818.1,704.5 816.6,707.3 814.9,710 812.9,712.5 811,715 "/>
<polygon class="st0" points="687.6,790.8 689.1,788.9 690.9,787.1 692.1,784.9 694,783.3 695.4,781.3 696.9,779.3 698.7,777.6 
	700.6,776 702.1,774 704.2,772.7 706.2,771.1 708,769.5 710,768 711.9,766.4 714.2,765.4 716.4,764.3 718.5,763 720.7,762 
	722.9,760.8 725.2,759.8 727.6,759.2 729.8,758.1 732.2,757.4 734.6,756.8 737.1,756.6 739.5,756 742,755.8 744.4,755.4 
	746.8,755.6 749.3,755.3 751.8,755.5 754.2,756.2 756.5,756.8 758.9,757.5 761.1,758.4 763.4,759.3 765.6,760.5 767.7,761.8 
	769.4,763.6 771.4,765 773,767 774.9,768.5 776.2,770.6 777.6,772.6 778.5,773.5 778.8,774.2 779.3,776.6 779.8,779 780.1,781.5 
	780.5,783.9 780.6,786.4 780.3,788.9 780.4,791.4 780,793.8 779.8,796.3 778.9,798.6 778.3,801 777.7,803.5 776.5,805.6 775.6,808 
	774.2,810 772.7,812 771.6,814.3 769.9,816.1 768,817.7 766.4,819.6 764.6,821.3 762.6,822.8 760.6,824.2 758.5,825.5 756.5,827 
	754.2,828.1 751.9,829 749.7,830.1 747.4,831 745.1,832 742.8,832.9 740.4,833.8 738.1,834.6 735.7,835.4 733.3,835.9 730.8,836.2 
	728.3,836.7 725.8,836.9 723.4,837.3 720.9,837.8 718.4,838 716,838.4 713.5,838.7 711,838.6 708.5,838.9 706,838.9 703.5,838.9 
	701,839 698.5,838.8 696,838.9 693.5,838.7 691,838.5 688.5,838.4 686,838.3 683.5,837.8 681,837.6 678.5,837.5 676,837.5 
	673.6,837 671.1,836.5 668.6,836.4 666.2,835.6 663.7,835.6 662.2,833.8 662.3,831.4 663.8,829.3 665,827.2 666.5,825.1 
	667.7,822.9 668.8,820.6 670.3,818.6 671.7,816.5 672.7,814.2 674.3,812.2 675.5,810 676.8,807.8 678.3,805.8 679.6,803.7 
	680.9,801.5 682.3,799.4 683.4,797.1 685,795.1 686.3,793 "/>
<polygon class="st1" points="687.6,790.8 689.1,788.9 690.9,787.1 692.1,784.9 694,783.3 695.4,781.3 696.9,779.3 698.7,777.6 
	700.6,776 702.1,774 704.2,772.7 706.2,771.1 708,769.5 710,768 711.9,766.4 714.2,765.4 716.4,764.3 718.5,763 720.7,762 
	722.9,760.8 725.2,759.8 727.6,759.2 729.8,758.1 732.2,757.4 734.6,756.8 737.1,756.6 739.5,756 742,755.8 744.4,755.4 
	746.8,755.6 749.3,755.3 751.8,755.5 754.2,756.2 756.5,756.8 758.9,757.5 761.1,758.4 763.4,759.3 765.6,760.5 767.7,761.8 
	769.4,763.6 771.4,765 773,767 774.9,768.5 776.2,770.6 777.6,772.6 778.5,773.5 778.8,774.2 779.3,776.6 779.8,779 780.1,781.5 
	780.5,783.9 780.6,786.4 780.3,788.9 780.4,791.4 780,793.8 779.8,796.3 778.9,798.6 778.3,801 777.7,803.5 776.5,805.6 775.6,808 
	774.2,810 772.7,812 771.6,814.3 769.9,816.1 768,817.7 766.4,819.6 764.6,821.3 762.6,822.8 760.6,824.2 758.5,825.5 756.5,827 
	754.2,828.1 751.9,829 749.7,830.1 747.4,831 745.1,832 742.8,832.9 740.4,833.8 738.1,834.6 735.7,835.4 733.3,835.9 730.8,836.2 
	728.3,836.7 725.8,836.9 723.4,837.3 720.9,837.8 718.4,838 716,838.4 713.5,838.7 711,838.6 708.5,838.9 706,838.9 703.5,838.9 
	701,839 698.5,838.8 696,838.9 693.5,838.7 691,838.5 688.5,838.4 686,838.3 683.5,837.8 681,837.6 678.5,837.5 676,837.5 
	673.6,837 671.1,836.5 668.6,836.4 666.2,835.6 663.7,835.6 662.2,833.8 662.3,831.4 663.8,829.3 665,827.2 666.5,825.1 
	667.7,822.9 668.8,820.6 670.3,818.6 671.7,816.5 672.7,814.2 674.3,812.2 675.5,810 676.8,807.8 678.3,805.8 679.6,803.7 
	680.9,801.5 682.3,799.4 683.4,797.1 685,795.1 686.3,793 "/>
<polygon class="st0" points="839.1,759.2 837.6,761.2 836.5,763.4 835,765.4 833.5,767.3 831.9,769.2 830.1,770.9 828.4,772.6 
	826.7,774.3 825.2,776.3 823.2,777.8 821.2,779.2 819.2,780.7 817.3,782.1 815.3,783.7 813.2,785 810.9,785.8 808.9,787.3 
	806.5,787.9 804.3,789.1 802.1,790.2 799.7,790.8 797.3,791.3 795.1,792.4 792.6,792.6 790.2,793 787.8,793.6 785.3,794 
	782.9,794.3 780.4,794 778,793.8 775.5,793.6 773.1,793.1 770.7,792.7 768.3,792 766.2,790.8 763.8,790.1 761.6,788.9 759.5,787.7 
	757.7,785.9 755.8,784.4 754.2,782.5 752.4,780.7 751,778.7 749.8,776.6 749,774.2 748.7,771.8 748.3,769.3 747.9,766.9 
	747.8,764.5 747.6,762 747.7,759.5 748.1,757.1 748.9,754.7 749.4,752.3 750.5,750.1 751.1,747.7 752.5,745.7 753.9,743.6 
	755.1,741.5 756.7,739.5 758.5,737.8 760.2,736.1 762.1,734.5 763.9,732.9 766,731.5 768.2,730.4 770.2,728.9 772.4,727.8 
	774.5,726.5 776.9,725.8 779.2,724.8 781.4,723.7 783.8,723.1 786.1,722.1 788.5,721.6 791,721.2 793.3,720.1 795.8,719.7 
	798.3,719.5 800.7,718.9 803.1,718.4 805.6,718.1 808,717.8 810.5,717.6 813,717.2 815.4,717.1 817.9,717.1 820.4,717 822.9,716.9 
	825.4,716.8 827.8,716.7 830.3,716.6 832.8,716.5 835.3,716.3 837.8,716.4 840.3,716.7 842.7,716.8 845.2,717.2 847.7,717.3 
	850.2,717.3 852.6,717.6 855.1,717.6 857.6,717.8 860,718.3 862.6,718.6 861.3,720.8 860.1,722.9 859,725.1 857.7,727.2 
	856.6,729.5 855.3,731.6 854,733.7 852.8,735.8 851.7,738 850.2,740 849,742.2 848,744.4 847,746.7 845.6,748.8 844.3,750.8 
	843.2,753.1 841.6,755 840.7,757.3 "/>
<polygon class="st1" points="839.1,759.2 837.6,761.2 836.5,763.4 835,765.4 833.5,767.3 831.9,769.2 830.1,770.9 828.4,772.6 
	826.7,774.3 825.2,776.3 823.2,777.8 821.2,779.2 819.2,780.7 817.3,782.1 815.3,783.7 813.2,785 810.9,785.8 808.9,787.3 
	806.5,787.9 804.3,789.1 802.1,790.2 799.7,790.8 797.3,791.3 795.1,792.4 792.6,792.6 790.2,793 787.8,793.6 785.3,794 
	782.9,794.3 780.4,794 778,793.8 775.5,793.6 773.1,793.1 770.7,792.7 768.3,792 766.2,790.8 763.8,790.1 761.6,788.9 759.5,787.7 
	757.7,785.9 755.8,784.4 754.2,782.5 752.4,780.7 751,778.7 749.8,776.6 749,774.2 748.7,771.8 748.3,769.3 747.9,766.9 
	747.8,764.5 747.6,762 747.7,759.5 748.1,757.1 748.9,754.7 749.4,752.3 750.5,750.1 751.1,747.7 752.5,745.7 753.9,743.6 
	755.1,741.5 756.7,739.5 758.5,737.8 760.2,736.1 762.1,734.5 763.9,732.9 766,731.5 768.2,730.4 770.2,728.9 772.4,727.8 
	774.5,726.5 776.9,725.8 779.2,724.8 781.4,723.7 783.8,723.1 786.1,722.1 788.5,721.6 791,721.2 793.3,720.1 795.8,719.7 
	798.3,719.5 800.7,718.9 803.1,718.4 805.6,718.1 808,717.8 810.5,717.6 813,717.2 815.4,717.1 817.9,717.1 820.4,717 822.9,716.9 
	825.4,716.8 827.8,716.7 830.3,716.6 832.8,716.5 835.3,716.3 837.8,716.4 840.3,716.7 842.7,716.8 845.2,717.2 847.7,717.3 
	850.2,717.3 852.6,717.6 855.1,717.6 857.6,717.8 860,718.3 862.6,718.6 861.3,720.8 860.1,722.9 859,725.1 857.7,727.2 
	856.6,729.5 855.3,731.6 854,733.7 852.8,735.8 851.7,738 850.2,740 849,742.2 848,744.4 847,746.7 845.6,748.8 844.3,750.8 
	843.2,753.1 841.6,755 840.7,757.3 "/>
<polygon class="st0" points="749.2,835.4 749,832.9 749,830.4 749,828 749.2,825.5 749.7,823.1 749.7,820.6 750.3,818.2 751.3,816 
	752.1,813.6 753.1,811.4 753.8,809 755.2,807 756.5,804.9 757.5,802.6 759,800.6 760.5,798.7 762.2,796.8 764,795.2 765.8,793.5 
	767.7,792 769.5,790.2 771.8,789.2 774.1,788.3 776.4,787.4 778.8,786.6 781.1,785.8 783.6,785.5 786.1,785.8 788.6,785.5 
	791,786.2 791.8,786.1 792.4,786 794.4,787.4 796.2,789 798.3,790.2 799.7,792.3 801.2,794.2 802.6,796.1 803.7,798.3 804.7,800.5 
	804.9,802.9 805,805.3 805.1,807.7 804.9,810.1 804.6,812.5 804.1,814.9 803,817.1 802.5,819.5 801.4,821.7 800.4,823.9 
	798.8,825.8 797.6,828 796,830 794.7,832.1 792.9,833.9 791.6,836 789.9,837.9 788.1,839.6 786.2,841.3 784.5,843.1 782.7,844.8 
	780.9,846.6 779.1,848.3 777.2,849.9 775,851.2 773.2,852.9 771,854.2 769.3,856.1 767,857.3 765,858.7 763,860.3 761,861.7 
	758.8,863 756.7,864.3 754.6,865.6 752,864.5 751.7,862.1 751.7,859.7 751.1,857.3 750.9,854.8 750.4,852.4 750.5,850 750.1,847.5 
	749.6,845.1 749.6,842.7 749,840.3 749,837.8 "/>
<polygon class="st1" points="749.2,835.4 749,832.9 749,830.4 749,828 749.2,825.5 749.7,823.1 749.7,820.6 750.3,818.2 751.3,816 
	752.1,813.6 753.1,811.4 753.8,809 755.2,807 756.5,804.9 757.5,802.6 759,800.6 760.5,798.7 762.2,796.8 764,795.2 765.8,793.5 
	767.7,792 769.5,790.2 771.8,789.2 774.1,788.3 776.4,787.4 778.8,786.6 781.1,785.8 783.6,785.5 786.1,785.8 788.6,785.5 
	791,786.2 791.8,786.1 792.4,786 794.4,787.4 796.2,789 798.3,790.2 799.7,792.3 801.2,794.2 802.6,796.1 803.7,798.3 804.7,800.5 
	804.9,802.9 805,805.3 805.1,807.7 804.9,810.1 804.6,812.5 804.1,814.9 803,817.1 802.5,819.5 801.4,821.7 800.4,823.9 
	798.8,825.8 797.6,828 796,830 794.7,832.1 792.9,833.9 791.6,836 789.9,837.9 788.1,839.6 786.2,841.3 784.5,843.1 782.7,844.8 
	780.9,846.6 779.1,848.3 777.2,849.9 775,851.2 773.2,852.9 771,854.2 769.3,856.1 767,857.3 765,858.7 763,860.3 761,861.7 
	758.8,863 756.7,864.3 754.6,865.6 752,864.5 751.7,862.1 751.7,859.7 751.1,857.3 750.9,854.8 750.4,852.4 750.5,850 750.1,847.5 
	749.6,845.1 749.6,842.7 749,840.3 749,837.8 "/>
<polygon class="st0" points="833.9,784.1 831.6,783.2 829.5,782 827.2,781.1 824.8,780.7 822.4,780 820,779.5 817.6,779 
	815.2,778.5 812.8,778.4 810.3,778.4 807.9,778.6 805.5,778.9 803.1,779.5 800.7,780 798.3,780.5 796.1,781.8 793.9,782.7 
	791.6,783.5 789.6,784.9 787.7,786.3 786.2,788.3 784.5,790 783,791.9 782.2,794.1 781.3,796.2 780.7,798.3 780.1,800.6 780.2,803 
	780.8,805.3 781.5,807.6 783,809.7 784,811.8 785.4,813.8 787.1,815.5 789.1,817 791.3,818 793.5,819 795.7,820.2 798.1,820.3 
	800.4,821.1 802.9,821 805.3,820.8 807.7,820.9 810.3,820.9 812.7,820 815.3,820 817.7,819.4 820.1,818.6 822.5,817.7 824.8,816.7 
	827.3,816.1 829.7,815.3 832,814.2 834.3,813.1 836.5,811.9 838.7,810.6 841.1,809.7 843.1,808.2 845.3,806.9 847.5,805.5 
	849.8,804.5 851.8,803 854,801.8 856,800.1 858.3,798.6 855.8,797.4 853.6,796.1 851.5,794.6 849.4,793.2 847.1,792 845,790.6 
	842.7,789.4 840.4,788.2 838.2,786.8 836.2,785.3 "/>
<polygon class="st1" points="833.9,784.1 831.6,783.2 829.5,782 827.2,781.1 824.8,780.7 822.4,780 820,779.5 817.6,779 
	815.2,778.5 812.8,778.4 810.3,778.4 807.9,778.6 805.5,778.9 803.1,779.5 800.7,780 798.3,780.5 796.1,781.8 793.9,782.7 
	791.6,783.5 789.6,784.9 787.7,786.3 786.2,788.3 784.5,790 783,791.9 782.2,794.1 781.3,796.2 780.7,798.3 780.1,800.6 780.2,803 
	780.8,805.3 781.5,807.6 783,809.7 784,811.8 785.4,813.8 787.1,815.5 789.1,817 791.3,818 793.5,819 795.7,820.2 798.1,820.3 
	800.4,821.1 802.9,821 805.3,820.8 807.7,820.9 810.3,820.9 812.7,820 815.3,820 817.7,819.4 820.1,818.6 822.5,817.7 824.8,816.7 
	827.3,816.1 829.7,815.3 832,814.2 834.3,813.1 836.5,811.9 838.7,810.6 841.1,809.7 843.1,808.2 845.3,806.9 847.5,805.5 
	849.8,804.5 851.8,803 854,801.8 856,800.1 858.3,798.6 855.8,797.4 853.6,796.1 851.5,794.6 849.4,793.2 847.1,792 845,790.6 
	842.7,789.4 840.4,788.2 838.2,786.8 836.2,785.3 "/>
<g class="st2">
	<path d="M158.6,347c1.6,6.9,3.2,13.7,4,20.6c1.2,7.3,1.2,14.6,1.6,21.8c0.4,2.8,0.8,5.7,1.2,8.5c0.8,8.1,2,16.2,2.8,24.3
		c1.2,13.7,3.2,27.9,2.4,42.1c-0.4,3.6,0.4,7.3,0.4,11.3c0,0.4,0.4,0.8,0,1.2c-2,5.7-0.4,11.3,0,16.6c0.4,2,0,3.6,0,5.7
		c-1.2,7.3-1.2,14.2-0.8,21.4c0.4,2.4,0,4.9-0.4,6.9c-3.2,9.7-4.9,19.4-6.1,29.5c-0.8,6.9,0,14.2-2.8,21c-1.2,3.2-0.8,7.3-0.8,10.9
		c-0.4,2.8-0.4,5.7-0.8,8.5c-0.4,4.9-0.8,9.7-1.2,14.6c0,5.3,0,10.1-0.4,15c-0.4,3.2-1.2,6.5-1.6,9.7c-0.8,4.9-1.6,9.7-2.4,14.2
		c0,1.6,0,3.2-0.4,4.4c0,1.6-0.4,3.2-0.8,4.9c-0.4,1.2-0.8,2.8-1.2,4c-0.4,2-0.8,4-2,4.9c-2.4,2-2,3.6,0,5.3c0.4,0.4,0.4,1.2,1.2,2
		c-2.8-0.4-5.7-1.2-7.7-0.4c-2.4,0.8-4,2.8-6.1,4.4c-6.5-2.4-9.3-7.7-10.1-13.7c-1.2-12.1-2.4-23.9-3.2-36
		c-0.4-11.7-0.4-23-0.8-34.4c0-7.3-0.8-14.6-0.8-21.8c0-9.7,0.8-19.4,0.4-29.1c0-8.1-0.8-16.2-1.6-24.7c-0.4-6.5-1.2-12.9-1.6-19.8
		c-0.4-11.7-1.2-23.9-1.2-35.6c0-7.3,0.4-14.2,0.8-21c0.4-16.6,0.8-32.8,0.8-49.3c0.4-11.7,1.2-23.5,3.2-35.2
		c1.6-9.3,2.8-19,4.4-28.7c-4.4-0.4-8.9-1.2-13.3-1.6c-9.7-0.8-19.4-1.6-29.5-2c-4.9,0-9.7,0.8-14.6,0.4c-7.3-0.4-14.2-2.8-20.2-6.5
		c-0.8-0.4-1.6-1.2-2.4-2c2-3.2,5.3-3.6,8.1-3.6c6.1-0.8,12.5-1.6,18.6-2c15-1.2,30.3-2.8,45.7-3.6c12.1-0.4,24.3,0.4,36.8,0.4
		c6.9-0.4,13.7,0,20.6-0.8c15.8-1.2,31.1-1.2,46.9-0.4c2.8,0.4,5.3,0.8,7.3,2.8c0.8,1.2,2.4,1.2,4,2c-2.4,3.2-6.1,3.6-9.3,4.4
		c-0.4,0.8-0.8,2-1.2,2.8c-1.2,3.2-3.6,4.9-7.3,4.9c-8.1-0.8-16.2,0.8-24.7,1.6c-5.3,0.4-10.5,1.6-15.8,2s-10.9,0.8-16.2,0.8
		c-2.4,0.4-4.4,0.4-7.3,0.8C155.3,337.3,157.4,342.2,158.6,347z"/>
	<path d="M272.2,519.3c-1.2,3.6-2.8,7.3-6.5,9.3c-0.4,0.4-1.2,1.2-1.2,2c-2,5.3-5.7,9.7-7.3,15.4c-0.4,1.6-2,3.2-3.2,4.9
		c-2,3.6-4.4,6.9-4.4,11.7c0,0.8-0.4,1.2-0.8,2c-2.8,6.9-3.6,14.6-4,21.8c0,4.4-1.2,8.5-2.4,12.5c-1.2,3.2-1.6,6.5-0.4,9.7
		c0.4,2,0,4-0.4,6.1c-2,5.7-4,10.9-5.3,16.2c-0.8,3.2-2.4,6.1-4,9.3c0,0.4-1.2,0.8-1.6,1.2c-3.2,0-5.7-2.4-8.5-2.8
		c-0.8,0.8-1.6,2-2.4,3.2c-1.6,0-2.4-0.8-3.2-1.6c-1.6-2-3.6-2-5.7-1.6c-0.4,0-0.8,0.4-1.2,0.4c-2.4,0.4-3.2,0-4-2.4
		c0-0.4-0.4-0.8-0.4-1.2c0.4-4-1.6-7.3-2.4-11.3c-1.2-4.4-1.6-9.3-2-13.7c-0.4-6.1,0-12.1-0.8-17.8c0-0.4,0-0.4,0-0.4
		c0-8.5-0.8-16.6-1.2-24.7c-0.4-4,0.4-8.1,0.8-11.7c0-3.2,0.4-6.1,0.4-9.3c0-5.7,0-11.3,0.8-16.6c0.4-4.9,0.4-9.3,0-13.7
		c-0.4-7.3,0-14.6,1.2-21.8c0.8-4,1.2-8.1,2-12.1c1.2-7.7,2.4-15.8,3.6-23.5c1.6-7.7,2.4-15.4,4-23c0-2,0.4-4,1.2-6.1
		c1.6-7.3,3.6-14.6,5.7-21.4c0-0.4,0.4-1.2,0.4-1.6c3.2-10.5,6.5-21,9.7-31.5c2.8-8.5,6.1-17,9.3-25.1c1.6-4.4,3.6-8.5,5.7-12.5
		c1.2-3.6,3.2-6.9,5.3-9.7c1.6-2.8,3.2-5.7,4.4-8.9c2-4.4,4-8.9,8.1-12.1c2.4-2,4-4.9,5.7-8.1c1.6-3.2,3.6-6.1,6.9-8.5
		c8.9-6.9,19.4-10.1,30.7-10.9c2.4,0,4.9-0.4,7.3-0.4c4.4-0.4,9.3,0.4,13.7,1.6c8.1,1.6,15.8,4,22.6,8.1c4.4,2.4,7.7,6.1,10.9,10.5
		c2.4,3.6,4,7.7,5.3,12.1c0.4,1.2,0.8,2,1.2,3.2c0.8,2,1.6,4.4,1.6,6.9c0,1.6,0.4,2.8,0.4,4.4c0.4,2,0.8,4,0.4,6.1
		c-1.2,6.9-0.8,13.7-1.6,20.2c-0.8,7.7-2.4,15-4,21.8c-6.1,23-24.7,41.2-38.4,59.4c-6.5,8.5-11.7,15.4-19.8,21.8
		c-7.7,5.7-15.8,11.3-23.5,17.4c-13.3,10.5-24.7,21.4-41.7,25.9c-6.5,1.6-5.7,1.6-6.9,7.7c-0.8,3.2-1.2,6.1-1.2,9.3
		c-0.4,3.2,0,6.1,0,8.9c0.4,2.4,0,4.4,0,6.5c-0.4,2.4-0.4,5.3-0.8,7.7c-1.2,5.3-0.8,10.5-0.8,15.8c-0.4,3.6-0.8,7.3-0.4,10.9
		c0.4,0.8,0.4,1.2,0.8,2.4c0.8-1.2,1.2-2,1.6-2.8c3.2-8.5,8.5-16.6,12.5-25.1c2-4,4.9-7.3,7.3-11.3c1.6-2.4,3.6-5.3,5.7-8.1
		c1.6-1.6,3.2-3.6,4.9-5.3c4.4-4.4,9.7-8.1,15-11.3c4.9-2.8,10.5-4,16.2-3.2c2.8,0,4.4,1.6,6.1,3.6c0.8,1.6,2,3.2,3.2,4.9
		c1.6,1.6,2.4,3.6,2.8,6.1c3.2,13.7,8.5,25.5,8.5,40.4c-0.4,23.9-7.7,47.7-6.1,72c0.8,6.9,1.2,13.7,1.6,20.6c0,2.4-0.4,4.4-0.4,6.5
		c0,4.9,1.6,8.9,4.4,12.9c0.8,1.2,2,1.6,3.6,1.6c3.6,0,6.5-1.6,9.3-3.6c2-1.6,4-3.6,5.7-5.7c2.8-4,5.7-8.1,8.1-12.1
		c6.5-10.5,11.7-21.8,16.6-33.2c0.8-1.2,1.2-2.8,1.6-4s0.8-2.8,1.2-4c4-8.5,6.1-17.4,10.1-25.9c0.8-2,1.6-4,2-6.1
		c1.2-4.4,3.2-8.1,4.9-12.1c4-8.5,7.7-17.8,9.7-27.1c1.6-7.3,3.6-15,5.7-22.2c1.2-3.2,2.8-6.5,4.4-9.7c1.2-2.4,2.8-4.4,4.4-6.9
		c1.6-2.4,3.6-3.6,6.9-3.2c1.6,2.4,0.8,5.3,0,7.7c-0.4,2.4-1.6,4.9-2.4,7.3c-0.8,1.2-1.2,2.4-0.8,4c0.4,1.2,0,2.4-0.4,3.2
		c-1.2,4.4-2.4,8.9-3.6,13.7c-0.8,2.4-1.6,4.9-2.8,7.7c-4.9,12.1-8.1,23.9-10.1,37.2c-3.2,19.4-12.1,37.2-21,54.6
		c-7.3,13.7-13.7,32.8-27.5,41.2c-4.9,2.8-9.3,5.7-14.6,6.9c-1.2,0.4-2,1.2-3.2,1.6c-2,0.8-4,1.6-6.5,1.2c-1.2,0-2,0.4-3.2,0.4
		c-9.3,2.4-19.8-3.2-24.7-11.7c-2.4-4.4-4.4-8.9-5.7-14.2c-2-12.9-1.2-25.9-2.8-39.2c-0.4-7.3,0-15.8,0-23c1.2-21,5.7-40.4,6.9-61.5
		c0-5.7,0.8-11.7,0.4-17.8c0-1.2,0-2.4-1.2-3.2C279.5,510.8,273.8,515.2,272.2,519.3z M228.9,569.4V569V569.4z M238.2,490.6
		c4.9-3.2,10.1-6.5,14.6-9.7c6.9-5.3,13.3-10.5,19.8-15.4c9.3-7.3,17-15.4,24.7-23.9c1.2-1.6,2.8-3.2,4-4.9
		c4.9-4.9,9.7-10.1,14.6-15c1.2-1.2,2-2.4,3.2-3.6c3.6-4,6.5-8.9,9.3-13.7c6.1-9.7,11.3-19.8,15.8-30.3c1.2-3.2,2-6.1,3.2-9.3
		c0.4-2.4,0.8-5.3,1.2-7.7c0.8-4.4,1.2-8.9,1.6-12.9c0-3.2,0-6.5,0.4-9.7c0.4-1.6,0.4-3.6,0-5.3c-0.4-1.2-0.8-2-0.4-3.2
		c0-3.6-0.8-6.9-2.4-10.1c-0.4-0.8-0.8-1.6-0.8-2.4c-0.4-3.2-2-6.1-4-8.9c-1.2-2-2.4-4-3.2-6.5c-0.8-2.8-2.4-4.4-4.9-6.1
		c-1.6-0.8-3.2-1.2-4.4-2.4c-3.2-2-6.9-2-10.1-1.2c-4.9,1.2-9.3,3.6-13.3,6.1c-1.2,1.2-2.4,2.4-3.6,3.6c-1.6,2-3.2,4.4-4.9,6.5
		c-1.2,1.6-2.4,3.2-2.4,5.7c0,0.8-0.4,1.6-0.8,2c-3.2,5.3-5.3,10.5-7.7,16.2c-0.4,1.2-1.2,2-1.2,3.6c0,0.8-0.8,2-1.2,2.8
		c-1.2,1.6-1.6,3.2-2,4.9c-0.8,5.3-2.4,9.7-5.3,14.2c-0.8,1.6-1.2,3.2-2,4.4c-1.6,4.9-3.2,10.1-4.9,14.6c-2,4.4-2.8,9.3-4.4,13.7
		c-1.6,2.8-2,6.5-3.2,9.7c-2,6.1-4.4,12.1-6.5,17.8c-0.8,2.4-1.6,4.4-2,6.9c-0.8,6.9-3.6,12.9-6.9,19c-1.2,2.4-2.4,5.3-2.8,8.1
		c-0.8,4-1.6,8.1-2.8,12.5c-0.4,2-1.2,4-1.6,6.5c-0.8,3.6-0.8,7.3-2.8,10.5c-0.4,0.4-0.4,1.2-0.4,1.6c0,2.4-0.4,4.9-2,6.9
		c-0.8,1.6-1.2,3.2-0.4,5.7C236.2,491.4,237.4,491,238.2,490.6z"/>
	<path d="M521.7,497c-0.4,1.2-0.8,2.4-1.6,3.2c-3.2,4-5.7,8.5-7.7,13.3c-0.4,0.4-0.8,1.2-0.8,1.6c0,4.9-3.6,8.1-4.9,12.1
		c-2.4,2.8-3.6,6.9-6.1,10.1c-12.1,15-18.2,33.6-34.8,45.3c-12.5,9.3-25.5,21.8-42.5,20.6c-6.1-0.4-11.7-2.8-17.8-4.4
		c-0.4,0-0.8-0.4-1.6-0.8c-4.9-3.2-9.3-6.5-12.9-11.3c-5.3-7.7-7.7-16.2-8.1-25.1c-0.4-10.5-0.4-20.6,0.8-31.1
		c0.8-6.5,1.6-13.3,2-19.8c0-1.6,0.4-2.8,0.8-4.4c1.6-6.5,2.8-12.9,4-19.8c2-8.5,5.3-16.2,8.5-24.3c0.4-1.2,1.2-2.4,1.6-3.2
		c2.4-2.4,3.6-5.3,4.9-8.1c0-0.4,0.4-0.8,0.4-1.2c1.6-5.7,5.7-10.5,10.1-14.6c0.8-0.8,2-1.6,2.8-2c6.9-3.6,13.7-6.5,21.4-7.7
		c4.4-0.8,8.5-2,12.9-1.2c2.4,0,4.9,0.4,6.9,0.8c0.8,0,1.6,0.4,2.4,0.4c26.3,0.8,14.6,48.5,0.8,59c-2,1.2-4.4,2.4-6.1,4.4
		c-0.4,0.8-1.2,1.2-2,1.2c-2,1.2-4,2.4-6.5,3.2c-4.9,1.6-9.3,3.6-13.7,4.4c-7.3,1.2-6.9,0.8-8.5,6.9c-0.4,2-0.8,3.6-0.8,5.3
		c0.4,20.6-11.3,53.4,1.2,71.2c2,2.8,4.9,4.9,8.1,6.1c1.6,1.2,3.2,0.8,5.3,0.4c3.6-1.2,7.3-2.8,10.5-5.3c4.9-3.2,9.3-6.5,13.7-9.7
		c2-1.6,3.6-3.2,5.3-5.3c4.9-6.5,9.7-12.5,13.3-19.8c0.8-1.6,2-2.8,2.8-4c6.5-7.7,10.9-16.6,16.2-24.7c0.8-1.2,1.6-2.4,2-3.6
		c2.8-6.5,6.5-12.1,10.5-17.8c0.8-1.6,2-3.2,4.4-3.2C519.7,495,520.5,495.8,521.7,497z M465.9,440.4c0-0.8-0.4-1.6-1.2-2
		c-4-4-8.5-6.5-14.6-5.7c-4.4,0.8-7.7,2.8-9.3,7.3c-1.6,4.4-4,8.9-4.4,14.2c0,1.2-0.4,2.8-1.2,4c-2,4.4-2.4,9.3-3.2,13.7
		c-0.4,3.6-0.8,6.9-2,10.1c-0.8,2.4-1.6,4.4-0.8,6.9c6.9-0.8,12.9-2.4,19-5.3c4-2,7.3-4.4,9.7-8.1c3.6-4.9,6.5-9.7,9.7-15
		c0.4-0.8,1.2-2,0.4-3.2c-0.4-2,0-3.6,0.8-5.7c0.4-1.2,0.8-2.8,1.2-4C467.9,445.3,466.7,442.8,465.9,440.4z"/>
</g>
<g class="st2">
	<path d="M1491.3,603.8c8.9,2.4,17.4,5.3,25.5,8.5c14.2,5.7,44.1,25.1,58.2,27.9c9.3,1.6,14.6-1.6,21.8-6.9c2.8-1.6,5.3-3.2,8.5-4
		c0,0.8,0.4,1.2,0.4,1.2c-6.1,6.9-10.1,15-16.6,21c-1.2,1.6-2.8,2.8-4.4,3.6c-4.9,3.2-26.7,10.9-40.4,7.3
		c-16.2-4.4-31.9-10.5-46.9-17.8c-6.1-3.2-12.1-6.9-18.2-10.1c-1.6-0.8-3.2-2-5.3-2.8c-2.8,4.4-5.7,8.5-8.1,12.9
		c-2,3.6-4.9,6.1-9.3,7.7c-1.6,0.8-3.6,2-5.7,2.8c-16.6,5.7-33.2,8.9-49.7-0.8c-5.3-2.8-8.5-7.7-12.5-11.7c-6.1-6.5-4-13.3-2-20.2
		c1.2-2.8,4-5.7,6.5-7.7c9.3-7.7,19.4-11.7,31.1-12.5c4.4-0.4,8.5-0.8,13.7-1.2c0-2.8,0.8-5.7,0.4-8.5c0-11.3-0.8-22.6-0.4-34.4
		c0.4-13.7,1.2-27.9,2-41.7c1.2-14.2,2.8-28.7,4.9-42.9c3.2-24.3,7.7-48.1,15.4-71.2c3.6-12.1,8.5-23.9,15.8-34.8
		c6.5-10.1,13.7-19.4,24.7-25.5c6.9-3.6,13.3-8.1,20.2-12.5c6.1-4,12.9-4,19.8-4.4c9.3-0.8,17.4,2.8,25.5,6.1c5.3,2,10.1,4,14.2,8.1
		c1.2,1.2,2.8,2.8,3.6,4.4c2.4,4.4,1.2,6.9-3.2,8.5c-1.2,0.4-2.8,0.4-3.2-0.4c-1.6-2-4-1.6-6.5-2.4c-7.7-1.6-15-3.2-22.6-4.4
		c-6.1-0.8-12.1-2-17.8-1.2c-3.6,0-7.3,3.2-10.1,5.7c-6.9,5.3-12.9,11.7-16.2,20.2c-2,4.9-3.6,10.1-4.9,15.4
		c-4,15.8-6.9,31.9-8.1,48.1c-0.8,11.7-2.8,23.5-3.6,35.2c-0.4,6.1-0.4,12.1-0.4,17.8c0,2.8-0.4,5.3-0.4,8.1c-0.4,1.2-0.8,2.4-0.8,4
		c-0.4,7.3-0.4,15-0.8,22.2c0,1.6-0.4,3.2-0.8,4.9c-2.4,9.3-1.2,18.6-2,27.9c-0.4,6.5-0.8,13.3-0.4,20.2c0.4,6.5-0.8,12.9-1.2,19.4
		c0,2.4-0.4,5.3-0.4,8.5C1484.4,602.2,1488.1,602.6,1491.3,603.8z M1434.3,613.5c-8.1-1.2-16.2-0.8-23.9,2
		c-9.3,2.8-14.6,9.7-17,18.6c4,5.3,8.9,8.9,15,9.7c4.4,0.8,8.9,1.2,13.3,1.6s6.9-1.6,9.3-5.3c5.3-8.1,5.7-17,5.3-26.3
		C1435.5,613.9,1435.1,613.5,1434.3,613.5z"/>
</g>
<g class="st2">
	<path d="M1638.1,499.9c-0.8,2.4-1.2,4.4-1.6,6.1c-2.4,4-3.2,8.1-5.3,12.1c-0.4,1.2-1.2,2.8-2,4c-2,1.6-2.8,4-3.6,6.5
		c-0.8,1.2-1.2,2.4-2,4c-1.2,2.4-2.4,4.4-2.8,6.9c-0.4,1.2-1.6,2.8-2,4c-2.4,6.1-5.3,11.7-6.9,18.2l-0.8,0.4c-2,3.2-3.6,6.1-6.1,9.3
		c-2.8,4.9-8.5,8.1-13.3,11.7c-2.4,2.8-6.1,4.4-9.3,5.7c-0.4,0-1.2,0.4-1.6,0.8c-3.6,0.8-7.3,1.2-10.1,2c-2.4,0.4-4.9,0.4-6.5-0.4
		c-4-1.6-8.5-2.4-12.1-4c-6.1-2.4-9.3-6.9-12.1-12.1c-2.4-5.7-3.2-11.3-4-17.4s-0.4-11.7-0.4-17.8c-0.4-6.5,0-13.3,0-20.2
		c-0.4-11.3,0-22.2,1.2-33.6c0.8-5.7,1.2-11.3,2-17c0.4-6.1,1.2-10.9,2.4-16.6c1.6-4.9,3.2-9.3,4.9-14.6c0.4-1.6,1.6-1.6,2.8-1.6
		c3.2,0.4,6.5,0,8.9,1.6c2,0.8,3.2,1.6,4,3.2c0.8,2.4,2,3.6,3.2,6.5c0.4,0.8,1.2,2.4,1.2,3.6c0.4,3.6,0.4,7.3,1.2,10.9
		c0.8,7.3,0,14.2,0,21c0.4,2.8,0.4,5.3-0.4,8.5c-0.4,1.6,0,3.2,0,4.9c0.4,4,0.8,7.3-0.4,11.3c-1.2,4.9-0.8,9.3-1.2,15
		c0,1.6,0,4,0,5.3c-0.4,0.4-0.8,0.4-0.8,0.8c0.8,4.9-0.4,9.3-0.8,13.3c0.4,0.8,0,2,0,2.4c1.2,2.8,0.8,5.3,0.8,7.3
		c-0.4,2.8-0.8,5.3-0.4,7.7c0.8,3.6,1.2,7.7,0.8,11.7c0.4,3.6,1.2,6.1,2.8,8.9c0.4,0.8,1.2,0.8,2,0.8c1.2,0,2.8,0,4-0.4
		c3.2-1.2,5.7-3.6,8.1-5.7c1.6-1.6,3.6-3.2,4.4-5.3c6.5-7.7,12.5-15.4,17.4-23.9c1.6-4,4-6.9,5.7-11.3c2.8-3.6,4.4-7.3,6.5-12.1
		c2.8-5.7,5.3-10.5,7.3-17c0.4-2,2-3.2,2.8-5.7c2-3.2,5.3-4.4,9.7-4.9C1637.3,496.6,1638.1,498.2,1638.1,499.9z M1546.7,395.1
		c0.8-0.4,1.2-0.8,1.6,0c1.6,0.4,4,0,6.1,0c4.4-0.8,8.5,0.8,10.9,4.4c-0.8,4.9-1.6,9.7-3.2,14.6c-1.2,1.2-2.4,2.4-3.6,4
		c0,0-0.4,0-0.8,0.4c-2.8,0-6.1,0.8-8.9-2c-1.6-1.6-3.2-3.2-4-5.3c-2-2.4-3.2-4.9-2.8-8.5c0.4-2-0.4-4.4,0-6.5
		C1543.5,395.9,1544.7,395.1,1546.7,395.1z"/>
	<path d="M1651,584c3.6-2.8,7.7-4.9,12.1-6.1c6.1-2,11.3-5.7,16.6-9.7c5.3-4.4,10.9-8.9,17-12.9c3.2-1.6,5.7-4.4,8.5-6.9
		c3.6-3.6,6.9-7.3,10.5-11.3c1.6-1.6,3.2-3.2,4.9-5.3c2.8-3.6,5.7-6.9,8.5-10.5c5.3-6.5,10.5-13.7,15.8-20.2c1.2-1.6,0.8-3.2,0-4.9
		c2.8-2.4,6.1-2.4,9.7-2.8c-0.4,1.6-1.6,2.8-2.4,3.6c-1.2,2-2.8,3.6-3.6,6.1c0,0.4-0.4,1.2-0.4,1.6c0.4,2.8-1.2,4.9-2.8,6.9
		c-1.6,2-3.2,4-4.9,6.1c-2.4,2.4-4.9,4.9-6.9,7.3c-0.8,0.8-1.6,1.6-2,2.4c-0.4,2.8-2,4.9-3.6,6.5c-2.8,2.8-5.7,6.1-8.9,8.1
		c-3.6,2.4-6.5,6.1-9.3,9.3c0,0.4-0.4,1.2-0.8,1.6c-4,2.4-7.3,6.1-11.3,8.5c-3.6,2.4-7.7,4.9-10.9,8.1c-3.6,3.6-7.7,6.5-12.1,8.5
		c-4,2-7.7,4-11.7,6.5c-1.6,0.8-2,1.6-1.2,3.2c0.4,0.8,0.8,1.6,1.2,2.4c1.6,2.4,3.6,4.9,5.3,6.9c3.6,5.3,8.5,12.1,10.5,18.6
		c1.2,4,0.8,8.5,2.4,12.5c3.2,9.3,6.9,16.6,6.9,26.7c-0.4,10.5-4,21.4-10.1,30.3c-2.4,3.2-5.3,6.1-9.7,6.9c-1.6,0.4-3.2,1.2-5.3,1.6
		c-5.3,1.6-9.3-0.4-13.3-3.2c-2-2-3.6-4.4-5.3-6.5s-2.8-4.4-4.4-6.9c-3.6-6.5-7.3-13.3-10.1-20.2c-0.4-1.2-0.8-2.4-1.6-3.2
		c-1.6-3.2-2.4-6.5-2.4-9.7c-0.4-2-0.8-3.6-1.2-5.3c-2.8-7.7-3.2-15.4-5.3-23c0-1.6,0-2.8,0-4.4c0-5.7-0.4-11.3-1.6-17
		c-1.2-7.3-2-15-3.2-22.2c0-1.6-0.4-3.2-0.4-4.9c-0.8-4-1.2-8.1-1.2-12.1c0-3.2-0.4-6.5-0.8-9.7c0-1.6,0-2.8,0-4.4
		c0.8-7.7,0-15.4,0-22.6c0-2.4,0-4.4,0.4-6.5c1.2-4.4,2-9.3,2.4-13.7c0.8-6.9,2-13.7,2.8-20.6c2-12.5,4.4-25.1,7.3-38
		c0.4-2.8,1.2-5.7,1.6-8.9c0.4-4.4,1.6-8.9,3.6-12.9c2.4-5.3,4.4-10.9,6.1-16.2c3.2-10.5,7.3-20.6,10.5-31.1
		c7.7-23,19-44.1,31.5-64.7c3.6-6.5,10.1-10.9,15.4-16.6c7.3-7.7,16.6-10.9,27.1-11.3c15.4-1.2,32.8-2.8,45.7,7.7
		c10.9,8.9,14.2,26.7,12.5,40c-1.2,8.1-3.6,15.8-5.3,23.5c-0.4,1.2-0.8,2.4-1.2,3.6c-1.2,3.2-2,6.9-2.4,10.5c0,1.2-0.8,2.4-1.2,3.2
		c-0.8,3.6-2,6.9-3.6,10.5c-0.4,2-1.2,4-0.8,6.1c0,0.8-0.4,2-0.8,2.8c-1.2,4.4-3.2,8.9-5.7,13.3c-2,3.6-3.6,7.7-5.7,11.7
		c-3.2,6.5-6.9,12.5-11.3,18.2c-1.6,1.6-2.8,4-4.4,5.7c-2.4,3.2-4,7.3-6.5,10.9c-1.2,2-2.8,3.6-4.4,5.7c-4,3.6-7.7,7.7-11.7,11.7
		c-2.8,2.8-6.1,5.7-9.3,8.9c-0.8,0.8-1.6,1.6-2.4,2c-0.4,0.8-1.2,1.6-1.6,2c-5.3,4-10.1,8.5-15.4,12.1c-2.8,2-5.7,3.6-8.9,5.3
		c-1.2,0.8-2.8,2-4.4,2.8c-0.4,0.4-1.2,0.8-1.6,0.8c-4.4,1.6-8.9,4.4-13.3,5.3c-2.8,0.4-4.9,1.6-6.1,4.4c0,0.8-0.8,1.2-1.2,2
		c-0.8,1.2-1.2,2.8-0.8,4.9c2,8.5-0.4,18.6-1.2,27.1c-0.4,11.7-1.6,23-2.8,34.4c0,1.2-0.8,2-0.4,2.8c1.2,2.8,0.4,5.3-0.4,8.1
		c0,0.4,0.4,0.8,0.8,2C1647,586,1649,585.2,1651,584z M1646.6,612.3c1.6,6.9,2.4,14.2,4.4,21.4c1.6,4.9,2.8,9.7,4.4,14.6
		c0.8,2.4,0.8,4.4,0.8,6.5c0.4,2.8,0,5.7,1.6,7.7c1.2,1.6,1.6,3.6,1.6,5.7c0.4,1.6,1.2,2.8,1.6,4.4c0.8,4,4,6.5,7.3,8.5
		c0,0.4,0.8,0.4,1.2,0.4c2.4,0.4,4.4-0.4,5.3-3.2c0.8-4,1.6-8.5,1.2-12.5c0-1.2,0-2.8-0.4-4c-2-8.1-4-16.6-7.3-24.3
		c-0.8-1.6-0.8-2.8-1.2-4.4c-0.4-2-1.2-3.6-2-5.7c-0.8-1.6-1.6-3.6-2.4-5.3c-0.8-1.2-1.2-2.8-2.4-4c-2.8-3.2-4.4-6.9-6.5-10.9
		c-1.2-3.6-4.4-5.7-7.3-8.1C1646.2,603.4,1645.4,607.8,1646.6,612.3z M1657.1,493c4.9-2,8.9-4.4,12.9-7.7
		c15.8-10.9,30.3-23,44.1-36.8c2.4-2.4,4-4.9,5.7-8.1c1.2-2.4,2.4-4.4,4-6.5c5.3-5.7,8.5-12.5,12.1-18.6c7.3-11.7,12.5-25.1,17-38
		c6.9-19,10.9-37.6,7.3-57.4c-1.6-10.1-6.1-21.4-14.2-27.9c-2.8-2.4-8.1-2-12.5-3.6c-5.7-1.6-11.3,7.3-13.8,11.3
		c-1.6,2.8-4,5.3-5.7,8.5c-1.2,2-1.2,5.3-2.4,6.9c-6.5,9.7-10.5,22.6-15.4,33.2c-4,8.9-6.5,17.4-8.9,26.7c-2,8.5-6.5,16.2-9.7,24.7
		c-8.1,23.9-10.9,49.3-19.8,73.6c-0.8,1.6-1.6,3.2-1.2,5.3c0.4,2,0,4-1.2,6.1c-0.4,1.2-1.2,2.4-1.2,4s0.4,3.2,0.4,5.3
		C1655.5,493.8,1656.7,493.4,1657.1,493z M1684.6,665.2l0.4,0.4L1684.6,665.2z M1775.6,310.2c-0.4,0-0.4-0.4-0.8-0.4c0,0,0,0-0.4,0
		c0.4,0.4,0.4,0.4,0.8,0.8C1775.2,310.2,1775.2,310.2,1775.6,310.2z"/>
	<path d="M1873,497c-0.4,1.2-0.8,2.4-1.6,3.2c-3.2,4-5.7,8.5-7.7,13.3c-0.4,0.4-0.8,1.2-0.8,1.6c0,4.9-3.6,8.1-4.9,12.1
		c-2.4,2.8-3.6,6.9-6.1,10.1c-12.1,15-18.2,33.6-34.8,45.3c-12.5,9.3-25.5,21.8-42.5,20.6c-6.1-0.4-11.7-2.8-17.8-4.4
		c-0.4,0-0.8-0.4-1.6-0.8c-4.9-3.2-9.3-6.5-12.9-11.3c-5.3-7.7-7.7-16.2-8.1-25.1c-0.4-10.5-0.4-20.6,0.8-31.1
		c0.8-6.5,1.6-13.3,2-19.8c0-1.6,0.4-2.8,0.8-4.4c1.6-6.5,2.8-12.9,4-19.8c2-8.5,5.3-16.2,8.5-24.3c0.4-1.2,1.2-2.4,1.6-3.2
		c2.4-2.4,3.6-5.3,4.9-8.1c0-0.4,0.4-0.8,0.4-1.2c1.6-5.7,5.7-10.5,10.1-14.6c0.8-0.8,2-1.6,2.8-2c6.9-3.6,13.7-6.5,21.4-7.7
		c4.4-0.8,8.5-2,12.9-1.2c2.4,0,4.9,0.4,6.9,0.8c0.8,0,1.6,0.4,2.4,0.4c26.3,0.8,14.6,48.5,0.8,59c-2,1.2-4.4,2.4-6.1,4.4
		c-0.4,0.8-1.2,1.2-2,1.2c-2,1.2-4,2.4-6.5,3.2c-4.9,1.6-9.3,3.6-13.7,4.4c-7.3,1.2-6.9,0.8-8.5,6.9c-0.4,2-0.8,3.6-0.8,5.3
		c0.4,20.6-11.3,53.4,1.2,71.2c2,2.8,4.9,4.9,8.1,6.1c1.6,1.2,3.2,0.8,5.3,0.4c3.6-1.2,7.3-2.8,10.5-5.3c4.9-3.2,9.3-6.5,13.7-9.7
		c2-1.6,3.6-3.2,5.3-5.3c4.9-6.5,9.7-12.5,13.3-19.8c0.8-1.6,2-2.8,2.8-4c6.5-7.7,10.9-16.6,16.2-24.7c0.8-1.2,1.6-2.4,2-3.6
		c2.8-6.5,6.5-12.1,10.5-17.8c0.8-1.6,2-3.2,4.4-3.2C1871,495,1871.8,495.8,1873,497z M1817.2,440.4c0-0.8-0.4-1.6-1.2-2
		c-4-4-8.5-6.5-14.6-5.7c-4.4,0.8-7.7,2.8-9.3,7.3c-1.6,4.4-4,8.9-4.4,14.2c0,1.2-0.4,2.8-1.2,4c-2,4.4-2.4,9.3-3.2,13.7
		c-0.4,3.6-0.8,6.9-2,10.1c-0.8,2.4-1.6,4.4-0.8,6.9c6.9-0.8,12.9-2.4,19-5.3c4-2,7.3-4.4,9.7-8.1c3.6-4.9,6.5-9.7,9.7-15
		c0.4-0.8,1.2-2,0.4-3.2c-0.4-2,0-3.6,0.8-5.7c0.4-1.2,0.8-2.8,1.2-4C1819.2,445.3,1818,442.8,1817.2,440.4z"/>
</g>
</svg>
