<?xml version="1.0" encoding="utf-8"?>
<!-- Generator: Adobe Illustrator 21.1.0, SVG Export Plug-In . SVG Version: 6.00 Build 0)  -->
<svg version="1.1" xmlns="http://www.w3.org/2000/svg" xmlns:xlink="http://www.w3.org/1999/xlink" x="0px" y="0px"
	 viewBox="0 0 1920 1080" style="enable-background:new 0 0 1920 1080;" xml:space="preserve">
<style type="text/css">
	.st0{fill:#FFFFFF;stroke:#000000;stroke-width:8;stroke-miterlimit:10;}
	.st1{display:none;}
	.st2{display:inline;}
	.st3{font-family:'bromello';}
	.st4{font-size:210px;}
</style>
<g id="Layer_1">
	<title>DIY Life - Blog Logo</title>
	<g>
		<path d="M292,443.6c0.8,3.6,1.7,7.1,2.1,10.7c0.6,3.8,0.6,7.6,0.8,11.3c0.2,1.5,0.4,2.9,0.6,4.4c0.4,4.2,1.1,8.4,1.5,12.6
			c0.6,7.1,1.7,14.5,1.3,21.8c-0.2,1.9,0.2,3.8,0.2,5.9c0,0.2,0.2,0.4,0,0.6c-1.1,2.9-0.2,5.9,0,8.6c0.2,1,0,1.9,0,2.9
			c-0.6,3.8-0.6,7.4-0.4,11.1c0.2,1.3,0,2.5-0.2,3.6c-1.7,5-2.5,10.1-3.1,15.3c-0.4,3.6,0,7.4-1.5,10.9c-0.6,1.7-0.4,3.8-0.4,5.7
			c-0.2,1.5-0.2,2.9-0.4,4.4c-0.2,2.5-0.4,5-0.6,7.6c0,2.7,0,5.3-0.2,7.8c-0.2,1.7-0.6,3.4-0.8,5c-0.4,2.5-0.8,5-1.3,7.4
			c0,0.8,0,1.7-0.2,2.3c0,0.8-0.2,1.7-0.4,2.5c-0.2,0.6-0.4,1.5-0.6,2.1c-0.2,1-0.4,2.1-1,2.5c-1.3,1-1.1,1.9,0,2.7
			c0.2,0.2,0.2,0.6,0.6,1c-1.5-0.2-2.9-0.6-4-0.2c-1.3,0.4-2.1,1.5-3.1,2.3c-3.4-1.3-4.8-4-5.3-7.1c-0.6-6.3-1.3-12.4-1.7-18.7
			c-0.2-6.1-0.2-12-0.4-17.9c0-3.8-0.4-7.6-0.4-11.3c0-5,0.4-10.1,0.2-15.1c0-4.2-0.4-8.4-0.8-12.8c-0.2-3.4-0.6-6.7-0.8-10.3
			c-0.2-6.1-0.6-12.4-0.6-18.5c0-3.8,0.2-7.3,0.4-10.9c0.2-8.6,0.4-17,0.4-25.6c0.2-6.1,0.6-12.2,1.7-18.3c0.8-4.8,1.5-9.9,2.3-14.9
			c-2.3-0.2-4.6-0.6-6.9-0.8c-5-0.4-10.1-0.8-15.3-1c-2.5,0-5,0.4-7.6,0.2c-3.8-0.2-7.4-1.5-10.5-3.4c-0.4-0.2-0.8-0.6-1.3-1.1
			c1-1.7,2.7-1.9,4.2-1.9c3.1-0.4,6.5-0.8,9.7-1c7.8-0.6,15.8-1.5,23.7-1.9c6.3-0.2,12.6,0.2,19.1,0.2c3.6-0.2,7.1,0,10.7-0.4
			c8.2-0.6,16.2-0.6,24.4-0.2c1.5,0.2,2.7,0.4,3.8,1.5c0.4,0.6,1.3,0.6,2.1,1.1c-1.3,1.7-3.1,1.9-4.8,2.3c-0.2,0.4-0.4,1-0.6,1.5
			c-0.6,1.7-1.9,2.5-3.8,2.5c-4.2-0.4-8.4,0.4-12.8,0.8c-2.7,0.2-5.5,0.8-8.2,1.1c-2.7,0.2-5.7,0.4-8.4,0.4
			c-1.3,0.2-2.3,0.2-3.8,0.4C290.3,438.6,291.4,441.1,292,443.6z"/>
		<path d="M351,533.1c-0.6,1.9-1.5,3.8-3.4,4.8c-0.2,0.2-0.6,0.6-0.6,1c-1,2.7-2.9,5-3.8,8c-0.2,0.8-1.1,1.7-1.7,2.5
			c-1.1,1.9-2.3,3.6-2.3,6.1c0,0.4-0.2,0.6-0.4,1c-1.5,3.6-1.9,7.6-2.1,11.3c0,2.3-0.6,4.4-1.3,6.5c-0.6,1.7-0.8,3.4-0.2,5
			c0.2,1,0,2.1-0.2,3.2c-1,2.9-2.1,5.7-2.7,8.4c-0.4,1.7-1.3,3.1-2.1,4.8c0,0.2-0.6,0.4-0.8,0.6c-1.7,0-2.9-1.3-4.4-1.5
			c-0.4,0.4-0.8,1-1.3,1.7c-0.8,0-1.3-0.4-1.7-0.8c-0.8-1-1.9-1-2.9-0.8c-0.2,0-0.4,0.2-0.6,0.2c-1.3,0.2-1.7,0-2.1-1.3
			c0-0.2-0.2-0.4-0.2-0.6c0.2-2.1-0.8-3.8-1.3-5.9c-0.6-2.3-0.8-4.8-1.1-7.1c-0.2-3.1,0-6.3-0.4-9.2c0-0.2,0-0.2,0-0.2
			c0-4.4-0.4-8.6-0.6-12.8c-0.2-2.1,0.2-4.2,0.4-6.1c0-1.7,0.2-3.2,0.2-4.8c0-2.9,0-5.9,0.4-8.6c0.2-2.5,0.2-4.8,0-7.1
			c-0.2-3.8,0-7.6,0.6-11.3c0.4-2.1,0.6-4.2,1-6.3c0.6-4,1.3-8.2,1.9-12.2c0.8-4,1.3-8,2.1-12c0-1,0.2-2.1,0.6-3.2
			c0.8-3.8,1.9-7.6,2.9-11.1c0-0.2,0.2-0.6,0.2-0.8c1.7-5.5,3.4-10.9,5-16.4c1.5-4.4,3.1-8.8,4.8-13c0.8-2.3,1.9-4.4,2.9-6.5
			c0.6-1.9,1.7-3.6,2.7-5c0.8-1.5,1.7-2.9,2.3-4.6c1-2.3,2.1-4.6,4.2-6.3c1.3-1,2.1-2.5,2.9-4.2s1.9-3.2,3.6-4.4
			c4.6-3.6,10.1-5.3,16-5.7c1.3,0,2.5-0.2,3.8-0.2c2.3-0.2,4.8,0.2,7.1,0.8c4.2,0.8,8.2,2.1,11.8,4.2c2.3,1.3,4,3.1,5.7,5.5
			c1.3,1.9,2.1,4,2.7,6.3c0.2,0.6,0.4,1.1,0.6,1.7c0.4,1,0.8,2.3,0.8,3.6c0,0.8,0.2,1.5,0.2,2.3c0.2,1,0.4,2.1,0.2,3.2
			c-0.6,3.6-0.4,7.1-0.8,10.5c-0.4,4-1.3,7.8-2.1,11.3c-3.1,12-12.8,21.4-20,30.9c-3.4,4.4-6.1,8-10.3,11.3c-4,2.9-8.2,5.9-12.2,9
			c-6.9,5.5-12.8,11.1-21.6,13.4c-3.4,0.8-2.9,0.8-3.6,4c-0.4,1.7-0.6,3.2-0.6,4.8c-0.2,1.7,0,3.2,0,4.6c0.2,1.3,0,2.3,0,3.4
			c-0.2,1.3-0.2,2.7-0.4,4c-0.6,2.7-0.4,5.5-0.4,8.2c-0.2,1.9-0.4,3.8-0.2,5.7c0.2,0.4,0.2,0.6,0.4,1.3c0.4-0.6,0.6-1,0.8-1.5
			c1.7-4.4,4.4-8.6,6.5-13c1-2.1,2.5-3.8,3.8-5.9c0.8-1.3,1.9-2.7,2.9-4.2c0.8-0.8,1.7-1.9,2.5-2.7c2.3-2.3,5-4.2,7.8-5.9
			c2.5-1.5,5.5-2.1,8.4-1.7c1.5,0,2.3,0.8,3.1,1.9c0.4,0.8,1.1,1.7,1.7,2.5c0.8,0.8,1.3,1.9,1.5,3.1c1.7,7.1,4.4,13.2,4.4,21
			c-0.2,12.4-4,24.8-3.2,37.4c0.4,3.6,0.6,7.1,0.8,10.7c0,1.3-0.2,2.3-0.2,3.4c0,2.5,0.8,4.6,2.3,6.7c0.4,0.6,1,0.8,1.9,0.8
			c1.9,0,3.4-0.8,4.8-1.9c1-0.8,2.1-1.9,2.9-2.9c1.5-2.1,2.9-4.2,4.2-6.3c3.4-5.5,6.1-11.3,8.6-17.2c0.4-0.6,0.6-1.5,0.8-2.1
			s0.4-1.5,0.6-2.1c2.1-4.4,3.2-9,5.3-13.4c0.4-1,0.8-2.1,1-3.2c0.6-2.3,1.7-4.2,2.5-6.3c2.1-4.4,4-9.2,5-14.1
			c0.8-3.8,1.9-7.8,2.9-11.6c0.6-1.7,1.5-3.4,2.3-5c0.6-1.3,1.5-2.3,2.3-3.6c0.8-1.3,1.9-1.9,3.6-1.7c0.8,1.3,0.4,2.7,0,4
			c-0.2,1.3-0.8,2.5-1.3,3.8c-0.4,0.6-0.6,1.3-0.4,2.1c0.2,0.6,0,1.3-0.2,1.7c-0.6,2.3-1.3,4.6-1.9,7.1c-0.4,1.3-0.8,2.5-1.5,4
			c-2.5,6.3-4.2,12.4-5.3,19.3c-1.7,10.1-6.3,19.3-10.9,28.4c-3.8,7.1-7.1,17-14.3,21.4c-2.5,1.5-4.8,2.9-7.6,3.6
			c-0.6,0.2-1,0.6-1.7,0.8c-1,0.4-2.1,0.8-3.4,0.6c-0.6,0-1.1,0.2-1.7,0.2c-4.8,1.3-10.3-1.7-12.8-6.1c-1.3-2.3-2.3-4.6-2.9-7.4
			c-1-6.7-0.6-13.4-1.5-20.4c-0.2-3.8,0-8.2,0-12c0.6-10.9,2.9-21,3.6-31.9c0-2.9,0.4-6.1,0.2-9.2c0-0.6,0-1.3-0.6-1.7
			C354.8,528.7,351.8,531,351,533.1z M328.5,559.1v-0.2V559.1z M333.4,518.2c2.5-1.7,5.3-3.4,7.6-5c3.6-2.7,6.9-5.5,10.3-8
			c4.8-3.8,8.8-8,12.8-12.4c0.6-0.8,1.5-1.7,2.1-2.5c2.5-2.5,5-5.3,7.6-7.8c0.6-0.6,1.1-1.3,1.7-1.9c1.9-2.1,3.4-4.6,4.8-7.1
			c3.2-5,5.9-10.3,8.2-15.8c0.6-1.7,1-3.2,1.7-4.8c0.2-1.3,0.4-2.7,0.6-4c0.4-2.3,0.6-4.6,0.8-6.7c0-1.7,0-3.4,0.2-5
			c0.2-0.8,0.2-1.9,0-2.7c-0.2-0.6-0.4-1-0.2-1.7c0-1.9-0.4-3.6-1.3-5.3c-0.2-0.4-0.4-0.8-0.4-1.3c-0.2-1.7-1-3.2-2.1-4.6
			c-0.6-1.1-1.3-2.1-1.7-3.4c-0.4-1.5-1.3-2.3-2.5-3.2c-0.8-0.4-1.7-0.6-2.3-1.3c-1.7-1-3.6-1-5.3-0.6c-2.5,0.6-4.8,1.9-6.9,3.1
			c-0.6,0.6-1.3,1.3-1.9,1.9c-0.8,1-1.7,2.3-2.5,3.4c-0.6,0.8-1.3,1.7-1.3,2.9c0,0.4-0.2,0.8-0.4,1.1c-1.7,2.7-2.7,5.5-4,8.4
			c-0.2,0.6-0.6,1.1-0.6,1.9c0,0.4-0.4,1-0.6,1.5c-0.6,0.8-0.8,1.7-1,2.5c-0.4,2.7-1.3,5-2.7,7.4c-0.4,0.8-0.6,1.7-1,2.3
			c-0.8,2.5-1.7,5.3-2.5,7.6c-1.1,2.3-1.5,4.8-2.3,7.1c-0.8,1.5-1.1,3.4-1.7,5c-1,3.2-2.3,6.3-3.4,9.2c-0.4,1.3-0.8,2.3-1.1,3.6
			c-0.4,3.6-1.9,6.7-3.6,9.9c-0.6,1.3-1.3,2.7-1.5,4.2c-0.4,2.1-0.8,4.2-1.5,6.5c-0.2,1-0.6,2.1-0.8,3.4c-0.4,1.9-0.4,3.8-1.5,5.5
			c-0.2,0.2-0.2,0.6-0.2,0.8c0,1.3-0.2,2.5-1,3.6c-0.4,0.8-0.6,1.7-0.2,2.9C332.3,518.6,332.9,518.4,333.4,518.2z"/>
		<path d="M480.6,521.5c-0.2,0.6-0.4,1.3-0.8,1.7c-1.7,2.1-2.9,4.4-4,6.9c-0.2,0.2-0.4,0.6-0.4,0.8c0,2.5-1.9,4.2-2.5,6.3
			c-1.3,1.5-1.9,3.6-3.1,5.3c-6.3,7.8-9.5,17.4-18.1,23.5c-6.5,4.8-13.2,11.3-22.1,10.7c-3.1-0.2-6.1-1.5-9.2-2.3
			c-0.2,0-0.4-0.2-0.8-0.4c-2.5-1.7-4.8-3.4-6.7-5.9c-2.7-4-4-8.4-4.2-13c-0.2-5.5-0.2-10.7,0.4-16.2c0.4-3.4,0.8-6.9,1-10.3
			c0-0.8,0.2-1.5,0.4-2.3c0.8-3.4,1.5-6.7,2.1-10.3c1-4.4,2.7-8.4,4.4-12.6c0.2-0.6,0.6-1.3,0.8-1.7c1.3-1.3,1.9-2.7,2.5-4.2
			c0-0.2,0.2-0.4,0.2-0.6c0.8-2.9,2.9-5.5,5.3-7.6c0.4-0.4,1.1-0.8,1.5-1c3.6-1.9,7.1-3.4,11.1-4c2.3-0.4,4.4-1,6.7-0.6
			c1.3,0,2.5,0.2,3.6,0.4c0.4,0,0.8,0.2,1.3,0.2c13.7,0.4,7.6,25.2,0.4,30.7c-1,0.6-2.3,1.3-3.1,2.3c-0.2,0.4-0.6,0.6-1.1,0.6
			c-1,0.6-2.1,1.3-3.4,1.7c-2.5,0.8-4.8,1.9-7.1,2.3c-3.8,0.6-3.6,0.4-4.4,3.6c-0.2,1-0.4,1.9-0.4,2.7c0.2,10.7-5.9,27.7,0.6,37
			c1,1.5,2.5,2.5,4.2,3.2c0.8,0.6,1.7,0.4,2.7,0.2c1.9-0.6,3.8-1.5,5.5-2.7c2.5-1.7,4.8-3.4,7.1-5c1-0.8,1.9-1.7,2.7-2.7
			c2.5-3.4,5-6.5,6.9-10.3c0.4-0.8,1-1.5,1.5-2.1c3.4-4,5.7-8.6,8.4-12.8c0.4-0.6,0.8-1.3,1.1-1.9c1.5-3.4,3.4-6.3,5.5-9.2
			c0.4-0.8,1.1-1.7,2.3-1.7C479.5,520.5,479.9,520.9,480.6,521.5z M451.6,492.1c0-0.4-0.2-0.8-0.6-1.1c-2.1-2.1-4.4-3.4-7.6-2.9
			c-2.3,0.4-4,1.5-4.8,3.8c-0.8,2.3-2.1,4.6-2.3,7.3c0,0.6-0.2,1.5-0.6,2.1c-1.1,2.3-1.3,4.8-1.7,7.1c-0.2,1.9-0.4,3.6-1,5.3
			c-0.4,1.3-0.8,2.3-0.4,3.6c3.6-0.4,6.7-1.3,9.9-2.7c2.1-1.1,3.8-2.3,5-4.2c1.9-2.5,3.4-5,5-7.8c0.2-0.4,0.6-1,0.2-1.7
			c-0.2-1.1,0-1.9,0.4-2.9c0.2-0.6,0.4-1.5,0.6-2.1C452.6,494.6,452,493.4,451.6,492.1z"/>
	</g>
	<g>
		<path d="M1240.1,479.7c-0.4-0.2-0.8-0.8-1-1.3c-0.4-0.8-0.8-1.7-1.5-2.9c2.5-4.8,3.4-10.5,4.2-16.2c0.4-3.8,0-7.6-0.8-11.1
			c-1.9-8-12.2-3.4-16.2,0.2c-2.9,2.7-4.8,6.5-6.7,10.1c-4,7.4-7.8,14.7-10.9,22.5c-2.3,5.7-4.4,11.3-6.9,17
			c-2.1,5.3-4.2,10.9-5.7,16.4c-2.9,11.8-6.9,23.1-8.8,35.3c-0.6,4.4-1.3,9.2-1.7,13.7c-0.4,6.5,0.6,12.6,0.4,18.9
			c0,5.3,3.1,9.7,8.4,10.7c6.5,1,13,0.4,19.1-2.3c5.5-2.3,9.5-6.5,13.9-10.1c6.7-5.5,12.2-12,18.1-18.3c5.5-5.7,10.5-11.5,14.3-18.5
			c3.8-6.5,7.6-12.8,11.6-19.3c0.2-0.6,0.6-1.3,1.3-1.7c2.1-1.3,4.8-1.9,7.6-2.3c-0.2,0.8-0.2,1.5-0.2,1.9c-0.2,0.4-0.8,1.1-0.6,1.5
			c0.6,2.5-1,4.4-2.1,6.3c-1,2.1-2.5,4-3.8,5.9c-5.9,8.6-10.3,18.7-17,26.7c-16.2,18.7-35.9,36.3-59,45.8
			c-5.9,2.3-11.8,2.9-17.9,1.9c-3.2-0.6-5.9-2.1-8.4-4.2c-6.3-4.8-9-11.6-10.3-19.1c-3.8-23.3,1.5-46.4,6.9-69.1
			c2.1-8.8,4.2-17.2,7.1-25.8c5.7-16.4,11.8-31.7,24.8-43.7c5.7-5.3,12.4-8.8,20-10.9c7.4-2.1,16.4-4.4,24.2-3.4
			c5.5,0.6,8.2,4.2,9.7,9c0.6,2.1,0.6,4.2,0.8,6.1c0.2,2.1,0.4,4.2,0.4,6.3c0,1.9-0.4,3.8-0.8,5.9c-1.1,4.2-1.5,8.4-4,12.2
			c-0.4,0.6-0.8,1.5-1.3,2.1c-1,1.7-2.1,3.2-3.6,5C1242.7,480.6,1241.4,480.1,1240.1,479.7z"/>
		<path d="M1295.6,495.5c-0.4,0.4-0.8,0.8-1,1.3c-0.4,1-0.8,1.9-1.9,2.5c-0.4,1.5-1.5,2.3-2.1,3.4c-0.8,1.7-1.7,3.6-2.1,5.7
			c-1,4.4-2.1,9-3.6,13.4c-1.1,2.9-1.7,6.1-2.5,9c-0.8,2.9-2.3,5.7-2.9,8.6c0,0.2-0.2,0.6-0.4,1c-1.7,2.3-1.9,5-1.7,7.8
			c0.2,2.9,0.4,5.9,0.8,8.8c0,1,0.6,1.9,1.5,2.5c0.8,0.8,1.9,1.7,2.7,2.5c1,0.8,2.1,1,3.2,0.6c3.6-1.3,7.1-2.1,10.1-4.6
			c1.5-1,3.4-2.1,4.8-3.4c1-0.6,1.7-1.5,2.5-2.3c1.7-1.7,3.1-3.4,4.4-5.5c0,0,0.2-0.2,0.2-0.4c0.4-1.5,1-2.5,1.9-3.6
			c0.2-0.4,0.2-0.8,0.4-1.5c-1.3-0.6-2.5-1.5-3.8-2.3c-3.6-2.3-6.7-5-9.2-8.4c-1-1.5-2.1-2.9-2.9-4.4c-2.7-5.3-2.9-10.7-1.7-16.2
			c0.6-3.4,2.3-6.3,3.6-9.2c0-0.2,0.2-0.4,0.2-0.4c1.7-0.6,2.5-2.5,4.4-2.7c0.8,0,1.7-0.2,2.5-0.4c2.9-0.4,5,1,7.6,2.3
			c3.2,1.7,6.7,3.2,8.4,6.5c1.5,2.7,2.3,5,2.3,8.2c0.2,1.3,0.4,2.3,0.6,3.4c0.6,2.5,0.6,5.7,0.4,8.2c-0.2,2.1-1.7,3.8-1.9,5.7
			c-0.4,1.5-0.4,2.7-0.8,4.4c0.6,0,1.1,0.4,1.5,0.4c1.3,0,2.7-0.2,4.2-0.4c8.4-1.3,16.4-6.3,22.5-12.2c0.4-0.4,0.8-1.1,1-1.5
			c0.4-0.4,0.6-1,1-1.3c0.8-0.2,1.7-0.4,2.3,0c1,0.4,1.9,0.8,2.5,1.7c-1,3.4-10.1,11.3-13,12.4c-3.8,1.3-7.1,3.8-10.9,5.3
			c-3.4,1.3-6.3,2.3-9.9,1.7c-1.5-0.4-2.9,0.2-4.4,0.4c-1.1,0.2-1.7,1.3-2.1,2.3c-1,1.9-1.9,4-2.7,6.1c-1.3,2.9-4.4,4.6-6.1,7.1
			c-1.3,1.7-2.7,3.8-4.4,4.8c-1.9,1.3-3.4,2.9-5.3,4.2c-2.5,1.5-4.8,3.4-8,3.2s-6.3-2.1-9-3.6c-5.5-3.1-11.5-8-14.5-13.7
			c-1.5-2.9-2.1-6.5-2.3-9.9c-0.4-3.8-0.6-7.6-0.4-11.3c0.4-3.6,1.3-7.1,2.3-10.5c1.7-5,3.8-9.9,6.1-14.5c0.6-1.5,1.5-2.7,2.7-4
			c1.3-1.5,2.7-3.2,4-4.8c1.3-1.5,2.9-2.3,4.4-3.4c2.3-1.7,4.6-2.9,7.1-4.6c0.8-0.6,1.9-0.8,3.2-0.6c2.1,0.2,4,0.8,5.9,2.1
			C1297.5,493.2,1296.6,494.4,1295.6,495.5z M1313.2,531.4c0-0.4,0-0.8,0.2-1.3c1.7-1.9,1.9-5.5,1.7-7.8c-0.2-3.1,0-7.3-1.7-10.3
			c-1-1.7-2.3-3.4-2.7-5.5v-0.2c-0.4-0.2-0.6-0.6-1-0.6s-0.8,0.2-1,0.8s-0.4,1.5-0.8,2.1c-1.1,2.3-1.7,4.6-2.1,6.9
			c0,0.4-0.2,0.8-0.4,1.3c-1.3,2.7-1.5,5.3-0.6,8s2.1,5.3,3.8,7.4c1,1,1.9,2.3,3.4,2.5C1312.6,533.7,1313.4,532.9,1313.2,531.4z"/>
		<path d="M1348.1,476.2c-2.3-0.6-4.4-1.5-6.3-1.9c-1.5-0.4-3.1-0.8-4.6-1.3c-0.6-0.4-1.5-0.8-2.1-1c-2.9-1-5.7-1.7-8.6-1.9
			c-1-0.2-2.5-0.8-3.6-1.3c-2.1-0.4-3.8-1-5.9-0.4c-1.3,0-2.7,0.2-3.8,0.2c-0.8,0-1.9-0.2-2.7-0.2c-0.4-0.2-0.6-0.6-0.2-0.8
			c0.2-0.2,0.4-0.4,0.4-0.6c1.5-0.6,2.9-1.5,4.2-2.1c2.5-1.3,4.8-1.5,7.4-1.7c2.5,0,5.3,0.2,7.8,0.4c1.9,0,3.8,0.2,5.7,0.4
			c1,0.2,2.1,0.2,2.9,0.4c1.7,0.4,3.1,0.4,4.4,0.2c2.3-0.2,4.4-0.2,6.9,0c0.6,0.2,1.7,0.4,2.3,0.2c0.6-0.6,0.6-1.5,0.6-1.9
			c0.6-3.4,1.3-6.7,1.7-10.1c0.2-2.1,0.8-4,1.7-5.9c0-0.2,0.2-0.4,0.2-0.4c1.5,0,2.7,0.2,3.6,1.5c0.4,0.8,0.8,1.5,1.1,2.1
			c0.6,1.3,0.8,2.5,0.2,3.8c-0.2,0.6-0.2,1.7-0.2,2.3c0.2,1.9,0.2,4,0.8,5.9c0,0.4,0,0.8,0,1c0,0.6,0.2,1.3,0,1.9
			c0,1.5,0.6,2.3,2.1,2.9c2.3,1,5,1.7,7.4,2.5c0.4,0.2,1,0.4,1.5,0.4c3.2,0.2,6.1,0,9-1c4-1.5,7.8-2.9,11.8-4.4
			c0.8-0.4,2.1-0.6,2.9-1.1c1.3-0.6,2.5-0.4,3.8,0.4c0.2,1.3-0.8,2.1-0.2,3.1c-1,1.3-2.3,2.1-3.4,2.9c-0.2,0.2-0.6,0.4-1.1,0.6
			c-1.5,0.6-3.1,1.3-4.6,2.1c-0.2,0-0.4,0-0.6,0c-1.3,0.4-2.3,0.6-3.4,1.5c-0.4,0.2-0.8,0.2-1.3,0.4c-0.6,0.2-1,0.6-1.7,1
			c-0.6,0.2-0.8,0.6-1.5,0.6c-0.8,0-1.3,0.2-1.7,1.1c0,0.2,0,0.4-0.2,0.4c-0.6,1-0.8,1-2.1,0.2c-0.6,0.2-1.3,0.6-2.1,1
			c-0.4,0.4-1.3,0.6-1.9,0.6c-0.2,0.2-0.2,0-0.2,0.2c-1.5,0.6-3.2,0.6-4.4,0.4c-1.5,0-2.9,0-4.2-0.2c-0.4,0-1,0-1.3,0
			c-0.4,0-1.1,0-1.7,0c-0.2,1.5,0,3.2,0,4.6c-0.2,2.7,0,5.7-0.2,8.8c0,0.8,0,1.7,0,2.5c0,0.4,0,0.8,0,1c-0.4,1-0.4,1.9-0.2,2.9
			c1.9,24.8-1.5,49.8-1.5,74.8c0,0.6,0,1.5,0,2.1c0.2,0.8,0,1.7,0,2.5c0,0,0,0.4,0,0.8c0.2,0.8,0,1.9,0,2.9c-0.4,1.7,0.4,3.6,2.1,4
			c0.8,0.2,1.5,0,2.1-0.4c0.8-0.8,1.5-1.3,2.5-2.3c1.3-1.7,2.7-3.6,4-5.3c4.4-6.1,8.4-12.2,12.4-18.1c0.2-0.6,0.4-1.3,0.8-1.5
			c1.5-2.1,2.7-4.4,4.2-6.5c1.5-2.3,2.9-4.6,4.4-6.7c1-1.7,2.1-3.4,3.6-5c2.1-3.6,4.6-6.9,6.9-10.3c0.2-0.4,0.2-0.8,0.4-1.1
			c0.8-1.3,1.7-2.7,2.5-4c1-1.3,1.9-2.9,2.5-4.6c0.6-1,1-2.3,1.9-3.4c0.6-0.6,1.3-0.6,2.1-0.4c1.9,0.6,2.5,1.5,1.5,3.4
			c-0.2,0.2-0.2,0.2-0.4,0.4c-0.2,0.4-0.6,0.8-0.6,1.1c-0.2,0.8-0.4,1.5-0.8,2.1c-0.6,1-1.3,2.1-1.9,3.4c-2.7,4.6-5,10.1-8.2,14.7
			c-5.5,7.8-10.7,15.3-14.7,23.9c-2.1,4-4,8-6.5,11.8c-2.5,3.8-6.3,5.9-9.5,9c-1,1.5-2.3,2.5-3.8,2.9c-0.4,0-0.6,0.4-0.8,0.4
			c-1,0.6-1.7,0.8-2.7,0.8c-2.7,0-5.7,0-8.6-0.8c-4.8-0.8-8-3.8-9.7-8.6c-1.3-2.9-1.7-6.1-1.9-9c-0.2-1.5-0.4-2.7-0.6-4
			c0-0.8,0-1.3-0.2-2.1c-0.2-1.9-0.4-3.8-0.4-5.7c0-0.8,0-1.9,0-3.1c0-1.9,0-4,0-6.1c0-2.1,0.2-4.6,0.2-6.7c0.2-1.3,0.2-2.1,0.2-3.4
			c0-1.7,0.2-3.4,0.2-5c0.2-3.8,0.4-7.6,0.6-11.3c0.2-0.8,0.2-1.7,0.2-2.5c0.2-4.4,0.8-8.8,1.7-13c0.2-2.7,0.4-5.9,0.6-8.8
			c0.8-4.8,1-9.9,2.1-14.7c0.4-2.3,0.6-4.8,0.8-6.9c0.2-1,0.2-1.7,0.4-3.2C1349.8,477.2,1348.9,476.6,1348.1,476.2z"/>
		<path d="M1410.9,476.2c-2.3-0.6-4.4-1.5-6.3-1.9c-1.5-0.4-3.1-0.8-4.6-1.3c-0.6-0.4-1.5-0.8-2.1-1c-2.9-1-5.7-1.7-8.6-1.9
			c-1-0.2-2.5-0.8-3.6-1.3c-2.1-0.4-3.8-1-5.9-0.4c-1.3,0-2.7,0.2-3.8,0.2c-0.8,0-1.9-0.2-2.7-0.2c-0.4-0.2-0.6-0.6-0.2-0.8
			c0.2-0.2,0.4-0.4,0.4-0.6c1.5-0.6,2.9-1.5,4.2-2.1c2.5-1.3,4.8-1.5,7.4-1.7c2.5,0,5.3,0.2,7.8,0.4c1.9,0,3.8,0.2,5.7,0.4
			c1,0.2,2.1,0.2,2.9,0.4c1.7,0.4,3.1,0.4,4.4,0.2c2.3-0.2,4.4-0.2,6.9,0c0.6,0.2,1.7,0.4,2.3,0.2c0.6-0.6,0.6-1.5,0.6-1.9
			c0.6-3.4,1.3-6.7,1.7-10.1c0.2-2.1,0.8-4,1.7-5.9c0-0.2,0.2-0.4,0.2-0.4c1.5,0,2.7,0.2,3.6,1.5c0.4,0.8,0.8,1.5,1.1,2.1
			c0.6,1.3,0.8,2.5,0.2,3.8c-0.2,0.6-0.2,1.7-0.2,2.3c0.2,1.9,0.2,4,0.8,5.9c0,0.4,0,0.8,0,1c0,0.6,0.2,1.3,0,1.9
			c0,1.5,0.6,2.3,2.1,2.9c2.3,1,5,1.7,7.4,2.5c0.4,0.2,1,0.4,1.5,0.4c3.2,0.2,6.1,0,9-1c4-1.5,7.8-2.9,11.8-4.4
			c0.8-0.4,2.1-0.6,2.9-1.1c1.3-0.6,2.5-0.4,3.8,0.4c0.2,1.3-0.8,2.1-0.2,3.1c-1,1.3-2.3,2.1-3.4,2.9c-0.2,0.2-0.6,0.4-1.1,0.6
			c-1.5,0.6-3.1,1.3-4.6,2.1c-0.2,0-0.4,0-0.6,0c-1.3,0.4-2.3,0.6-3.4,1.5c-0.4,0.2-0.8,0.2-1.3,0.4c-0.6,0.2-1,0.6-1.7,1
			c-0.6,0.2-0.8,0.6-1.5,0.6c-0.8,0-1.3,0.2-1.7,1.1c0,0.2,0,0.4-0.2,0.4c-0.6,1-0.8,1-2.1,0.2c-0.6,0.2-1.3,0.6-2.1,1
			c-0.4,0.4-1.3,0.6-1.9,0.6c-0.2,0.2-0.2,0-0.2,0.2c-1.5,0.6-3.2,0.6-4.4,0.4c-1.5,0-2.9,0-4.2-0.2c-0.4,0-1,0-1.3,0
			c-0.4,0-1.1,0-1.7,0c-0.2,1.5,0,3.2,0,4.6c-0.2,2.7,0,5.7-0.2,8.8c0,0.8,0,1.7,0,2.5c0,0.4,0,0.8,0,1c-0.4,1-0.4,1.9-0.2,2.9
			c1.9,24.8-1.5,49.8-1.5,74.8c0,0.6,0,1.5,0,2.1c0.2,0.8,0,1.7,0,2.5c0,0,0,0.4,0,0.8c0.2,0.8,0,1.9,0,2.9c-0.4,1.7,0.4,3.6,2.1,4
			c0.8,0.2,1.5,0,2.1-0.4c0.8-0.8,1.5-1.3,2.5-2.3c1.3-1.7,2.7-3.6,4-5.3c4.4-6.1,8.4-12.2,12.4-18.1c0.2-0.6,0.4-1.3,0.8-1.5
			c1.5-2.1,2.7-4.4,4.2-6.5c1.5-2.3,2.9-4.6,4.4-6.7c1-1.7,2.1-3.4,3.6-5c2.1-3.6,4.6-6.9,6.9-10.3c0.2-0.4,0.2-0.8,0.4-1.1
			c0.8-1.3,1.7-2.7,2.5-4c1-1.3,1.9-2.9,2.5-4.6c0.6-1,1-2.3,1.9-3.4c0.6-0.6,1.3-0.6,2.1-0.4c1.9,0.6,2.5,1.5,1.5,3.4
			c-0.2,0.2-0.2,0.2-0.4,0.4c-0.2,0.4-0.6,0.8-0.6,1.1c-0.2,0.8-0.4,1.5-0.8,2.1c-0.6,1-1.3,2.1-1.9,3.4c-2.7,4.6-5,10.1-8.2,14.7
			c-5.5,7.8-10.7,15.3-14.7,23.9c-2.1,4-4,8-6.5,11.8c-2.5,3.8-6.3,5.9-9.5,9c-1,1.5-2.3,2.5-3.8,2.9c-0.4,0-0.6,0.4-0.8,0.4
			c-1,0.6-1.7,0.8-2.7,0.8c-2.7,0-5.7,0-8.6-0.8c-4.8-0.8-8-3.8-9.7-8.6c-1.3-2.9-1.7-6.1-1.9-9c-0.2-1.5-0.4-2.7-0.6-4
			c0-0.8,0-1.3-0.2-2.1c-0.2-1.9-0.4-3.8-0.4-5.7c0-0.8,0-1.9,0-3.1c0-1.9,0-4,0-6.1c0-2.1,0.2-4.6,0.2-6.7c0.2-1.3,0.2-2.1,0.2-3.4
			c0-1.7,0.2-3.4,0.2-5c0.2-3.8,0.4-7.6,0.6-11.3c0.2-0.8,0.2-1.7,0.2-2.5c0.2-4.4,0.8-8.8,1.7-13c0.2-2.7,0.4-5.9,0.6-8.8
			c0.8-4.8,1-9.9,2.1-14.7c0.4-2.3,0.6-4.8,0.8-6.9c0.2-1,0.2-1.7,0.4-3.2C1412.5,477.2,1411.7,476.6,1410.9,476.2z"/>
		<path d="M1498.2,545.2c-2.5,2.3-5.5,4.4-9.2,4.6c-2.5,0.2-4.8,1.3-7.3,1.5c-4.8,0.2-9.2-0.8-12.2-5.3c-1-1.3-1.7-2.9-2.1-4.6
			c-1.3-4.6-1.5-9.2-0.4-14.1c0.4-2.1,0.6-4.2,1.1-6.3c0.6-2.1,1.3-4.2,1.9-6.3c0.8-2.5,1.9-5,2.5-7.6c1.5-5,4-9.7,7.3-13.7
			c1.3-1.3,2.3-2.5,3.4-4c1.7-2.3,4.2-3.6,6.7-4.4c1.7-0.6,3.4-1.3,5-1.9c2.9-1.1,6.1-0.8,9-1.5c0.6,0,1.3,0,1.9-0.2
			c2.5-0.8,4.8-0.4,7.4,0c1.9,0.2,3.6,1.7,4.8,3.4c0.8,1.3,1.9,2.5,2.5,4c1.3,2.3,1.1,4.4-0.8,6.1c-0.4,0.4-1.3,0.6-2.1,0.6
			c-0.6,0.2-1.1-0.2-1.3-1c-0.4-3.4-2.9-5.5-5-8c-0.2-0.2-0.4-0.4-0.6-0.6c-2.3-0.8-4.8-1-7.1-0.4c-4,0.8-7.6,2.3-9.7,5.9
			c-2.9,5.3-4.8,11.8-6.9,17.2c-1,2.7-1.9,5.7-2.9,8.4c-2.1,6.7-4,13-2.3,20c0.8,4,6.5,7.1,10.1,5.5c4.8-2.1,9-9.9,11.5-14.3
			c0.6-1.5,0.8-3.2,1.3-4.8c0.4-1.7,0.6-3.6,1.3-5c0.6-2.5,1.7-5,2.5-7.6c0.8-2.7,1.9-5.3,2.5-8c0.6-2.1,1.7-3.4,3.6-3.6
			c1.5-0.4,2.7-0.6,4-0.8c1.7-0.2,2.7,0.6,3.2,2.1c0.2,0.4,0.4,0.8,0.6,1.3c0.4,2.1-1.5,4-0.4,6.1c0.2,1,0,2.1,0,3.2
			c0,4.4-1.7,10.5-2.5,14.9c-0.8,5-0.8,8.4-1.7,13.4c-0.4,1.7-0.8,3.2-1.1,4.8c-0.4,3.2-0.8,6.3-1.3,9.7c-0.2,1.3-0.4,2.7-0.4,4
			c0,1.7-2.1,11.3,4,8.6c1.7-0.8,6.3-5,7.4-6.5c2.1-3.2,5.9-8.4,7.6-12c3.4-6.9,8.2-18.1,11.6-25c0.6-1,0.2-2.7,1.5-2.7
			c0.8-0.2,1.7-0.2,2.7-0.4c1,0,1.5,0.2,1.3,1.3c-0.2,1.3-0.2,2.7-0.8,3.8c-1.9,2.7-5.9,12.8-7.1,15.8
			c-5.5,12.6-13.2,30.7-27.1,35.5c-3.4,1.1-9.5,0.6-12.2-1.9c-0.8-0.6-1.5-1.5-1.9-2.3c-2.7-4.4-2.9-9.5-2.7-14.5
			c0.2-4,0.6-7.8,1.1-11.8c0-0.4,0-1.1,0-1.9C1499.3,544.4,1498.6,544.8,1498.2,545.2z"/>
		<path d="M1583.3,628.4c-0.8,0.8-1.5,1.9-2.7,2.1c-0.2,0-0.4,0-0.6,0c-1.3,1.3-3.2,1.7-4.6,2.5c-1.9,1-3.8,1.7-5.7,1.9
			c-3.2,0.6-6.3,0.8-9.5,1.1c-2.7,0.4-7.4-0.4-10.1-1.5c-0.6-0.2-1.3-0.4-1.9-0.6c-0.2-0.2-0.4-0.6-0.8-1c-2.9-2.1-4.4-5-5.5-8.6
			c-0.2-0.6-0.4-1.3-0.6-1.9c-0.8-1.1-1-2.3-1-3.6c-0.4-4.8,0.2-9.2,1.9-13.7c3.1-8,7.6-14.9,13-21c1.9-2.1,3.8-4.2,5.5-6.3
			c3.6-4,7.3-7.4,11.3-10.7c2.7-2.1,5.3-4.2,7.8-6.3c0.8-0.6,1.3-1.5,1.3-2.5c-0.2-2.1,0-4.2-0.2-6.3c-0.2-3.2,0.2-6.3,0.4-9.2
			c0.2-1.9,0.2-3.8,0.4-5.9c-0.4,0.2-0.6,0.2-0.8,0.4c-1.3,1-2.3,2.1-3.4,2.9c-2.1,1.9-4.6,3.4-7.1,4.4c-1.3,0.4-2.5,1.1-3.8,1.5
			c-0.4,0.2-1,0.4-1.5,0.4c-3.6,0.2-7.1,0-10.7-0.8c-1.7-0.6-3.1-1.5-4.6-2.7c-0.8-0.8-1.7-1.7-2.5-2.5c-2.5-2.1-4.4-4.8-5-8.4
			c-0.4-3.4-0.6-6.9-0.4-10.5c0.4-4.6,1.3-8.8,2.3-13.2c1-5.9,4-10.9,6.7-16.2c0.8-1.3,1.7-2.5,2.3-3.8c0.8-1.3,1.9-2.5,3.2-3.2
			c0.2,0,0.2-0.2,0.4-0.2c1-1,2.1-2.1,3.2-2.9c1-0.8,2.5-1.3,3.6-2.3c0.2-0.4,0.8-0.6,1.3-0.8c1.3-0.2,2.3-0.6,3.6-0.8
			c0.4,0,0.8-0.2,1.3-0.2c2.3,0.2,4.6,0.2,6.7,0.4c3.8,0.8,7.4,2.1,10.9,3.8c0.6,0.4,1.5,0.6,2.1,0.8c0.8,0.2,1.5,0.4,1.9,1
			c0.4,0.4,0.2,1.3-0.2,1.5c-1.1,0.6-1.9,0.8-2.9,0.2c-1.5-0.8-3.2-1.5-4.8-2.1c-1.7-0.6-3.2-0.4-4.8,0.2c-2.5,1.3-4.8,2.9-6.9,5
			c-1,0.8-2.1,1.9-2.5,3.4c-0.2,0.4-0.6,0.8-1.1,1.3c-1,0.8-1.7,1.9-2.1,3.2c-0.4,1.3-1.3,2.5-2.1,3.6c-0.8,1.3-1.3,2.3-1.7,3.8
			c-0.6,2.1-1.5,4.4-2.3,6.7c-0.4,1.3-1.1,2.7-1.1,4.2c-0.2,0.6-0.2,1-0.4,1.7c-0.6,2.1-1,4.4-1,6.7c0,1-0.4,2.1-0.8,3.1
			s-0.8,2.3-0.6,3.4c0,0.6-0.2,1.3-0.2,1.7c0,0.6-0.8,1.1-0.6,1.7c0.2,0.6,0.4,1.3,0.6,1.7c0.2,1.3,0.6,2.5,0.6,3.8
			c0.2,0.8,0.6,1.5,1.5,1.7c1.3,0.6,2.7,0.6,4,0.2c1.9-0.4,3.8-1.3,5.3-2.5c2.7-1.9,5-4.2,6.9-7.1c1.5-2.1,2.9-4.2,4-6.5
			c0-0.2,0.2-0.4,0.2-0.4c2.7-4,3.4-8.6,4-13c0.2-2.3,0.6-4.4,1.3-6.5c0.8-2.5,1.5-5.3,2.1-7.8c0.2-0.8,0-1.9,0.2-2.9
			c0.6-0.4,1.3-0.8,1.9-1c1.3-0.4,2.7-0.4,4,0.2c1.3,0.6,1.9,1.7,1.9,3.1c-0.4,2.5,0.2,4.8,1,7.4c0.6,2.3,0.8,4.8,0.8,7.1
			c0,3.4,0.4,6.5,0.8,9.7c0.2,2.7,0.6,5.5,0.6,8.4c0,0.8,0.2,1.9,0.2,2.9c0.2,2.1,0,4.2,0.2,6.3c0.2,2.5,0.2,4.8-0.2,7.1
			c0,0.2,0,0.2,0.2,0.6c0.2-0.2,0.6-0.2,0.6-0.4c4.8-4.4,9.5-8.8,14.1-13.4c2.9-2.9,5.9-6.1,8.8-9.2c0.6-0.4,1-0.8,1.7-1.3
			c0.6-0.2,1.1-0.6,1.9-0.4c0.6,0.2,1,0.8,1.3,1.7c-0.6,1.5-1.9,2.5-2.9,3.8c-1.1,1-2.1,1.9-2.5,3.2c-0.6,1.3-1.5,2.5-2.1,3.6
			c-0.6,1-1.1,2.1-1.9,2.9c-1,1.3-2.3,2.3-3.4,3.6c-0.2,0.2-0.4,0.4-0.8,0.4c-4,2.9-7.1,6.5-9.7,10.5c-0.4,0.6-0.8,0.8-1.5,1.3
			c-0.8,0.4-1.7,0.6-2.5,1c-1,0.6-1.5,1.3-1.7,2.3c-0.2,1.3-0.2,2.5,0,3.8c0.2,1.9,0.2,3.8,0.2,5.7c0,3.1-0.2,6.3-0.4,9.5
			c-0.4,4-0.8,8-0.4,12c0.2,1.3,0,2.5,0,3.8c0,1.5,0,2.9-0.2,4.4c0,2.5,0.2,4.8-0.4,7.1c-0.2,1.5-0.6,2.9-0.8,4.4
			c-0.4,2.1-1,4-2.1,5.9c-0.6,0.8-0.8,1.9-1,2.7c-0.2,1.5-0.8,2.9-1.7,4.2c-1,1.7-1.9,3.4-3.2,4.8c-0.2,0.4-0.4,0.8-0.4,1.3
			c-0.2,0.8-0.2,1.5-0.4,1.9C1584.5,627.2,1583.9,627.8,1583.3,628.4z M1579.3,569.8c-1.5,1.7-3.2,2.9-4.8,4.2
			c-0.4,0.4-1,0.8-1.5,1.3c-1.9,2.1-3.8,4.2-5.7,6.5c-1.9,2.5-4,4.6-5.9,7.1c-1,1.3-2.3,2.5-2.9,4.2c-1,2.1-2.3,4-3.8,5.7
			c-1,1.3-2.1,2.7-2.1,4.4c-0.4,2.9-1.3,6.1-2.3,8.8c-0.6,1.9-1,3.6-0.6,5.3c0,0.2,0,0.4-0.2,0.6c-1.3,1.3-1.3,2.7-0.6,4.2
			c0.6,1,0.8,2.1,1.3,3.1c0.6,1.5,1.3,2.7,2.7,3.6c0.8,0.6,1.5,1.3,2.3,2.1c1.3,1.3,2.7,1.7,4.6,1.5c2.5-0.4,4.8-1.3,6.7-2.5
			c4.2-2.7,6.9-6.5,9.5-10.5c0.4-0.8,0.4-1.7,0.6-2.3c0.2-1.1,0.4-1.9,0.6-2.7c0.2-0.8,0.4-1.7,0.6-2.3c0.2-1.9,0.4-4,0.6-5.9
			s0.4-4,0.6-5.9c0-1.3,0.2-2.3,0.2-3.6c0.4-2.9,0.8-6.1,1.3-9c0.2-2.5,0.2-5,0.6-7.6c0.4-3.6-0.2-7.1-0.4-11.1
			C1580.1,569.4,1579.7,569.6,1579.3,569.8z M1587.3,617.3c0.2,0,0.2,0,0.2,0s0.2,0,0,0v-0.2
			C1587.5,617.3,1587.3,617.3,1587.3,617.3z"/>
		<path d="M1686,521.5c-0.2,0.6-0.4,1.3-0.8,1.7c-1.7,2.1-2.9,4.4-4,6.9c-0.2,0.2-0.4,0.6-0.4,0.8c0,2.5-1.9,4.2-2.5,6.3
			c-1.3,1.5-1.9,3.6-3.2,5.3c-6.3,7.8-9.5,17.4-18.1,23.5c-6.5,4.8-13.2,11.3-22.1,10.7c-3.2-0.2-6.1-1.5-9.2-2.3
			c-0.2,0-0.4-0.2-0.8-0.4c-2.5-1.7-4.8-3.4-6.7-5.9c-2.7-4-4-8.4-4.2-13c-0.2-5.5-0.2-10.7,0.4-16.2c0.4-3.4,0.8-6.9,1.1-10.3
			c0-0.8,0.2-1.5,0.4-2.3c0.8-3.4,1.5-6.7,2.1-10.3c1-4.4,2.7-8.4,4.4-12.6c0.2-0.6,0.6-1.3,0.8-1.7c1.3-1.3,1.9-2.7,2.5-4.2
			c0-0.2,0.2-0.4,0.2-0.6c0.8-2.9,2.9-5.5,5.3-7.6c0.4-0.4,1-0.8,1.5-1c3.6-1.9,7.1-3.4,11.1-4c2.3-0.4,4.4-1,6.7-0.6
			c1.3,0,2.5,0.2,3.6,0.4c0.4,0,0.8,0.2,1.3,0.2c13.7,0.4,7.6,25.2,0.4,30.7c-1.1,0.6-2.3,1.3-3.2,2.3c-0.2,0.4-0.6,0.6-1,0.6
			c-1,0.6-2.1,1.3-3.4,1.7c-2.5,0.8-4.8,1.9-7.1,2.3c-3.8,0.6-3.6,0.4-4.4,3.6c-0.2,1-0.4,1.9-0.4,2.7c0.2,10.7-5.9,27.7,0.6,37
			c1.1,1.5,2.5,2.5,4.2,3.2c0.8,0.6,1.7,0.4,2.7,0.2c1.9-0.6,3.8-1.5,5.5-2.7c2.5-1.7,4.8-3.4,7.1-5c1-0.8,1.9-1.7,2.7-2.7
			c2.5-3.4,5-6.5,6.9-10.3c0.4-0.8,1-1.5,1.5-2.1c3.4-4,5.7-8.6,8.4-12.8c0.4-0.6,0.8-1.3,1-1.9c1.5-3.4,3.4-6.3,5.5-9.2
			c0.4-0.8,1-1.7,2.3-1.7C1684.9,520.5,1685.3,520.9,1686,521.5z M1657,492.1c0-0.4-0.2-0.8-0.6-1.1c-2.1-2.1-4.4-3.4-7.6-2.9
			c-2.3,0.4-4,1.5-4.8,3.8c-0.8,2.3-2.1,4.6-2.3,7.3c0,0.6-0.2,1.5-0.6,2.1c-1,2.3-1.3,4.8-1.7,7.1c-0.2,1.9-0.4,3.6-1,5.3
			c-0.4,1.3-0.8,2.3-0.4,3.6c3.6-0.4,6.7-1.3,9.9-2.7c2.1-1.1,3.8-2.3,5-4.2c1.9-2.5,3.4-5,5-7.8c0.2-0.4,0.6-1,0.2-1.7
			c-0.2-1.1,0-1.9,0.4-2.9c0.2-0.6,0.4-1.5,0.6-2.1C1658,494.6,1657.4,493.4,1657,492.1z"/>
	</g>
	<path d="M845.1,276.5c-1.5,0-3,0.4-4.4,0.5s-3-0.6-4.5-0.5c-1.5,0.1-3-0.3-4.5-0.2c-1.5,0.1-3,0.2-4.5,0.3c-1.5,0.1-3,0.3-4.4,0.5
		c-1.4,0.2-2.9,0.8-4.4,1c-1.5,0.2-3-0.2-4.5,0c-1.4,0.2-3,0.6-4.4,0.8c-1.4,0.2-3,0.3-4.4,0.6c-1.4,0.2-2.9,0.6-4.4,0.8
		s-2.9,0.6-4.3,0.9s-3-0.2-4.5,0.2c-1.4,0.3-2.7,1.5-4.2,1.8s-3,0-4.5,0.3s-2.6,1.5-4.1,1.9c-1.4,0.4-2.9,0.7-4.3,1.1
		c-1.4,0.4-3.2-0.5-4.6-0.1c-1.4,0.4-2.4,2.4-3.8,2.8c-1.4,0.4-3,0.3-4.4,0.7s-3,0.3-4.4,0.8c-1.4,0.5-2.4,2.1-3.8,2.6
		c-1.4,0.5-3,0.5-4.4,1s-3,0.6-4.3,1.1s-2.8,1-4.2,1.6s-2.1,2.6-3.4,3.2c-1.4,0.6-3.1,0.3-4.4,1c-1.3,0.6-2.6,1.4-4,2
		c-1.4,0.6-2.8,1.1-4.1,1.8c-1.3,0.6-2.5,1.6-3.8,2.3c-1.4,0.7-2.6,1.3-4,2c-1.4,0.7-2.8,1.1-4.1,1.8c-1.3,0.7-2.2,2-3.5,2.8
		c-1.3,0.8-2.4,1.8-3.6,2.6c-1.2,0.7-2.6,1.4-3.9,2.2c-1.3,0.8-2.6,1.4-3.8,2.2c-1.2,0.8-2,2.3-3.2,3.1c-1.2,0.8-2.5,1.6-3.7,2.5
		s-2.9,1-4.1,1.9c-1.2,0.9-1.8,2.6-2.9,3.5c-1.1,0.9-2.9,1.2-4,2.1c-1.1,0.9-2.2,2.1-3.3,3c-1.1,1-2.6,1.5-3.7,2.5
		c-1.1,1-2.2,2-3.3,3c-1.1,1-2.1,2.2-3.1,3.2s-1.8,2.5-2.8,3.5s-2.3,1.8-3.4,2.9s-1.8,2.4-2.9,3.4s-3,1.2-4.1,2.2s-1.2,3-2.2,4
		s-3,1.4-3.9,2.5c-1,1.1-1,3-2,4.2c-1,1.1-2,2.2-3,3.4c-1,1.1-2.6,1.8-3.4,2.9c-0.9,1.1-2,2.2-2.9,3.4s-1.2,2.9-2.1,4
		s-2.2,2.1-3,3.4c-0.8,1.3-1.9,2.2-2.8,3.5c-0.9,1.3-1.9,2.2-2.8,3.5s-1.1,2.8-1.9,4.1c-0.8,1.3-2.1,2.2-2.9,3.4
		c-0.8,1.2-0.5,3.2-1.2,4.5s-2.6,1.9-3.4,3.2s-1,2.9-1.8,4.2s-1.6,2.5-2.3,3.8c-0.7,1.4-1.7,2.5-2.3,3.8c-0.6,1.4-1.3,2.7-1.9,4
		c-0.6,1.3-0.4,3.1-1,4.5c-0.6,1.4-1.9,2.4-2.6,3.8c-0.6,1.4-1.7,2.5-2.2,3.8c-0.6,1.4-0.8,2.9-1.4,4.2s-1.4,2.6-1.9,4
		c-0.5,1.4-0.6,3-1.2,4.3s-1.4,2.6-1.8,4.1c-0.5,1.4-0.7,2.9-1.2,4.3s-0.9,2.8-1.4,4.2c-0.5,1.4-1.4,2.6-1.8,4.1
		c-0.4,1.4-0.3,3-0.6,4.4c-0.3,1.4-0.7,2.9-1,4.3s-1,2.8-1.3,4.2c-0.3,1.4,0.2,3.1-0.1,4.6c-0.3,1.4-0.9,2.8-1.2,4.3s-1,2.8-1.3,4.3
		c-0.3,1.5-0.5,3-0.7,4.4c-0.2,1.4-1.1,2.8-1.4,4.3c-0.2,1.5-0.5,3-0.7,4.4c-0.2,1.4,0.5,3,0.3,4.6c-0.2,1.5-1.1,2.9-1.3,4.3
		c-0.2,1.4-0.3,3-0.5,4.5c-0.2,1.4,0.9,3,0.8,4.6c-0.1,1.5-1.2,2.9-1.3,4.4c-0.1,1.5,0.2,3,0.1,4.5c-0.1,1.5-0.2,3-0.2,4.5
		s-0.3,3-0.3,4.5s-0.2,3-0.2,4.5s1.1,3,1.1,4.4c0,1.4,0.5,3,0.6,4.4c0.1,1.4-0.1,3,0,4.5c0.1,1.5-0.6,3-0.5,4.5s1.1,2.9,1.3,4.4
		c0.2,1.5,0.2,3,0.3,4.4s-0.6,3-0.4,4.6c0.2,1.5,0.6,3,0.8,4.4c0.2,1.4,0.9,2.9,1.2,4.3c0.3,1.4,1,2.8,1.3,4.3
		c0.3,1.5,0.5,3,0.7,4.4c0.2,1.4,0.2,3,0.5,4.5c0.3,1.4,0.2,3,0.5,4.5c0.3,1.4,1.6,2.6,1.9,4.1c0.3,1.4-0.1,3.1,0.3,4.6
		c0.4,1.4,1.2,2.8,1.6,4.2c0.4,1.4,1.1,2.8,1.6,4.2s1.4,2.7,1.8,4.1c0.5,1.4,1.2,2.7,1.7,4.2c0.5,1.4,0.9,2.8,1.4,4.2
		s1.2,2.7,1.8,4.1s1,2.8,1.5,4.2c0.6,1.4-0.2,3.3,0.4,4.6c0.6,1.4,1.3,2.7,1.8,4.1c0.6,1.4,1.5,2.6,2.2,3.9s1.4,2.6,2,4
		c0.6,1.4,2.2,2.2,3,3.5s0.8,3,1.4,4.2c0.6,1.3,0.7,3,1.4,4.3c0.7,1.3,1.4,2.6,2.2,3.9s1.8,2.4,2.6,3.7c0.8,1.3,1.8,2.4,2.6,3.7
		c0.8,1.3,1.5,2.6,2.3,3.8c0.8,1.2,1.8,2.3,2.6,3.6c0.8,1.3,1.4,2.6,2.2,3.8s2.6,1.8,3.4,3s1.4,2.6,2.3,3.8s1.3,2.8,2.2,3.9
		c0.9,1.1,1.8,2.4,2.7,3.5c0.9,1.1,1.5,2.6,2.5,3.7c1,1.1,2.1,2.2,3,3.3c1,1.1,2.7,1.6,3.7,2.7c1,1.1,1.6,2.6,2.6,3.7
		c1,1.1,2.1,2.2,3,3.2c1,1,2.6,1.7,3.6,2.7s1.8,2.3,2.9,3.4c1,1,1.6,2.6,2.7,3.6c1.1,1,1.8,2.4,3,3.4c1.1,1,2.2,2,3.4,3
		c1.1,1,3,1.1,4.2,2.1s2.4,1.8,3.6,2.6c1.2,0.9,1.8,2.5,3,3.4c1.1,0.9,2.2,2.1,3.4,3s3,1,4.2,1.9s2.2,2,3.4,2.8s1.8,2.6,3,3.4
		s2.6,1.5,3.8,2.4s3.1,0.6,4.3,1.5c1.2,0.9,2.2,2,3.4,2.8c1.2,0.8,2.7,1.2,4,2c1.3,0.8,2,2.5,3.3,3.2c1.3,0.7,2.8,1.1,4.1,1.8
		c1.3,0.7,2.4,1.8,3.8,2.5c1.4,0.7,3,0.7,4.3,1.4c1.4,0.6,2.2,2.1,3.6,2.7c1.4,0.6,3.2,0.2,4.6,0.8c1.4,0.6,2.2,2.4,3.5,3
		c1.4,0.6,3,0.5,4.4,1.1c1.4,0.6,2.5,1.8,3.8,2.4c1.4,0.6,2.8,1,4.2,1.6c1.4,0.6,3,0.7,4.3,1.2s3,0.6,4.3,1.1
		c1.4,0.5,2.9,0.7,4.3,1.2s2.6,1.4,4.1,1.8c1.4,0.5,2.8,1,4.2,1.4c1.4,0.4,2.9,0.6,4.3,1c1.4,0.4,2.7,1.2,4.2,1.6
		c1.4,0.4,3.1-0.2,4.6,0.1c1.4,0.3,2.7,1.4,4.2,1.8c1.4,0.3,3,0.4,4.4,0.7c1.4,0.3,2.9,0.6,4.3,1s2.8,1,4.3,1.2
		c1.5,0.2,3,0.1,4.5,0.3c1.5,0.2,2.9,1,4.3,1.1c1.4,0.2,3-0.7,4.6-0.6s2.9,0.6,4.4,0.8c1.5,0.2,3,0.6,4.4,0.6c1.4,0.1,3,0.7,4.4,0.8
		c1.4,0.1,3-0.6,4.5-0.6c1.4,0.1,3-0.2,4.5-0.1s3,0.7,4.4,0.8c1.4,0.1,3,0.6,4.5,0.6c1.5,0,3-0.6,4.5-0.6c1.5,0,3,0.3,4.5,0.2
		c1.5-0.1,3-0.5,4.4-0.6s3,0.2,4.5,0.1c1.5-0.1,3-0.6,4.4-0.6c1.4-0.1,3,0.2,4.5,0.1c1.4-0.2,2.9-0.8,4.4-1c1.4-0.2,2.9-0.8,4.3-1
		c1.4-0.2,3-0.2,4.4-0.5c1.4-0.2,2.9-0.6,4.4-0.8c1.5-0.2,3-0.3,4.4-0.6s2.9-0.8,4.3-1c1.4-0.2,3.2,0.6,4.6,0.2
		c1.4-0.4,2.7-1.4,4.2-1.7c1.4-0.3,2.7-1.4,4.2-1.8c1.4-0.4,3.1,0.2,4.6-0.2c1.4-0.4,3-0.4,4.4-0.9s2.6-1.8,3.9-2.3
		c1.4-0.5,2.9-0.7,4.3-1.2s3-0.3,4.4-0.8c1.4-0.5,2.6-1.7,3.9-2.2c1.4-0.6,3.1-0.2,4.5-0.7c1.4-0.6,2.3-2.1,3.8-2.6
		c1.4-0.6,2.8-1,4.2-1.5c1.4-0.6,2.6-1.5,3.9-2.2s2.7-1.1,4.1-1.8s2.8-1,4.2-1.6c1.4-0.6,2.8-1,4.2-1.7c1.4-0.6,2.9-0.9,4.2-1.6
		c1.4-0.7,2.6-1.4,3.9-2.1c1.3-0.7,2.5-1.7,3.8-2.4c1.3-0.7,2.3-1.8,3.6-2.6c1.3-0.8,2.2-2.2,3.4-3c1.3-0.8,2.6-1.4,3.8-2.2
		s2.3-1.8,3.5-2.6c1.2-0.8,3.1-0.7,4.3-1.6c1.2-0.9,2.4-1.8,3.5-2.6c1.1-0.8,1.8-2.6,3-3.4c1.2-0.9,3-1,4.2-1.8s2.6-1.6,3.7-2.5
		c1.1-0.9,1.6-2.8,2.7-3.7c1.1-0.9,2.5-1.7,3.6-2.6c1.1-1,2.8-1.3,3.9-2.3c1.1-1,2-2.2,3-3.3s2.2-1.9,3.4-3c1.1-1,2.2-2,3.2-3
		c1-1,2.2-2,3.3-3c1-1,1.4-2.8,2.4-3.9c1-1.1,2.4-1.8,3.4-3c1-1.1,2-2.2,3-3.3c1-1.1,1.7-2.5,2.6-3.6c1-1.1,2.5-1.8,3.4-3
		c1-1.1,2-2.2,3-3.4c1-1.1,1.3-2.8,2.2-3.9c0.9-1.1,2.3-1.9,3.2-3.1c0.9-1.2,1.8-2.3,2.7-3.5c0.9-1.2,0.7-3.1,1.6-4.3
		s1.8-2.4,2.6-3.6c0.8-1.2,1.5-2.6,2.3-3.8c0.8-1.2,2-2.2,2.8-3.4c0.8-1.2,2.2-2.2,3-3.4c0.8-1.3,1.6-2.6,2.3-3.8
		c0.7-1.3,1.6-2.6,2.3-3.8c0.7-1.3,1.3-2.7,1.9-4c0.6-1.3,1.4-2.6,2-4c0.6-1.4,1-2.8,1.7-4.2s1.2-2.7,1.8-4.1
		c0.6-1.4,1.8-2.5,2.4-3.8c0.6-1.4-0.1-3.3,0.5-4.6c0.6-1.4,1.2-2.7,1.8-4.1s2.1-2.4,2.6-3.8c0.5-1.4,1-2.8,1.6-4.2
		c0.6-1.4,1.4-2.6,1.8-4.1c0.5-1.4-0.4-3.3,0.1-4.6c0.5-1.4,1.8-2.5,2.3-3.9s1.3-2.7,1.7-4.2c0.4-1.4-0.4-3.2,0-4.6
		c0.4-1.4,0.8-2.9,1.2-4.2c0.4-1.4,1-2.8,1.3-4.2s0.7-2.9,1-4.3c0.3-1.4,1.4-2.7,1.7-4.2s0.7-2.9,1-4.3c0.2-1.4,0.6-2.9,0.8-4.4
		c0.2-1.5-0.8-3.1-0.6-4.6c0.2-1.5,1.2-2.8,1.4-4.3c0.2-1.5,0.9-2.9,1-4.4s0.4-3,0.6-4.4c0.2-1.4,0.1-3,0.2-4.5
		c0.1-1.5-0.6-3-0.5-4.5c0.1-1.4,0.2-3,0.2-4.4c0.1-1.4,1.4-2.9,1.5-4.4s-1.1-3-1.1-4.5s1.4-3,1.4-4.4c0-1.4-0.7-3-0.7-4.5
		c0-1.5-0.7-3-0.8-4.4c-0.1-1.4,0.6-3,0.5-4.5s0.6-3,0.4-4.5c-0.2-1.4-1.7-2.9-1.8-4.3s1-3,0.9-4.6c-0.2-1.5-0.1-3-0.2-4.5
		c-0.2-1.5-0.9-2.9-1-4.4c-0.2-1.5-0.8-2.9-1-4.3c-0.2-1.4-1-2.8-1.2-4.3c-0.2-1.5,0.5-3.1,0.2-4.6c-0.2-1.4-0.2-3-0.4-4.5
		c-0.2-1.4-0.9-2.9-1.2-4.3c-0.3-1.4-0.6-3-0.9-4.4c-0.3-1.4-1.3-2.7-1.6-4.2c-0.3-1.4-1-2.8-1.4-4.2c-0.4-1.4,0.2-3.1-0.3-4.6
		c-0.5-1.4-2-2.5-2.4-3.9s-0.9-2.8-1.4-4.2c-0.5-1.4-1.1-2.7-1.7-4.2c-0.6-1.4,0.1-3.2-0.4-4.6c-0.5-1.4-1.5-2.6-2.1-4
		c-0.6-1.4-0.5-3-1-4.4c-0.6-1.4-1.8-2.5-2.3-3.8s-0.5-3-1.1-4.4c-0.6-1.4-2.2-2.2-2.9-3.6c-0.6-1.4-1.4-2.6-2.1-3.9s-0.7-3-1.4-4.3
		s-1.1-2.8-1.8-4.1c-0.7-1.3-1.8-2.4-2.5-3.7c-0.7-1.3-1.3-2.7-2-4c-0.7-1.3-2.1-2.2-2.8-3.5c-0.7-1.3-1.7-2.4-2.5-3.7
		c-0.8-1.3-1.5-2.6-2.3-3.8c-0.8-1.2-0.7-3.1-1.5-4.3c-0.8-1.2-2.2-2.1-3-3.3c-0.8-1.2-1-2.9-1.9-4.2c-0.9-1.3-2.8-1.6-3.8-2.8
		s-1-3-1.8-4.2s-1.8-2.4-2.6-3.6c-0.9-1.2-2.5-1.8-3.4-3c-1-1.2-1.9-2.2-3-3.4c-1-1.1-1.6-2.6-2.6-3.7s-2.2-2.1-3.1-3.2
		c-1-1.1-1.9-2.2-3-3.3c-1-1-2.4-1.8-3.4-2.8c-1-1-2.1-2.2-3.1-3.2c-1-1-1.4-2.8-2.5-3.8c-1-1-2.8-1.4-3.8-2.4c-1-1-1.9-2.2-3-3.2
		c-1.1-1-2.7-1.4-3.8-2.3c-1.1-1-1.4-2.9-2.6-3.8c-1.2-0.9-2.5-1.7-3.6-2.6c-1.1-0.9-2.8-1.2-4-2.1c-1.2-0.9-1.8-2.5-3-3.4
		s-2.9-1-4.2-1.9c-1.3-0.9-2-2.2-3.3-3.1c-1.3-0.9-2.1-2.3-3.3-3.1s-3.2-0.5-4.5-1.3c-1.3-0.8-2.4-1.8-3.7-2.6
		c-1.3-0.8-1.9-2.6-3.2-3.3c-1.3-0.7-3-0.9-4.2-1.6c-1.3-0.7-2.6-1.4-3.9-2.1c-1.3-0.7-2.5-1.6-3.8-2.3c-1.4-0.7-2.6-1.4-3.9-2.1
		c-1.4-0.6-2.5-1.6-3.8-2.2c-1.4-0.6-3-0.6-4.3-1.3c-1.4-0.6-2.5-1.7-3.8-2.3c-1.4-0.6-2.5-1.8-3.8-2.3c-1.4-0.6-2.8-1.1-4.2-1.7
		s-2.6-1.4-4.1-1.9c-1.4-0.6-2.8-0.9-4.2-1.4s-2.9-0.8-4.2-1.3c-1.4-0.5-2.9-0.7-4.3-1.1s-2.9-0.6-4.3-1c-1.4-0.4-3-0.3-4.4-0.8
		c-1.4-0.5-2.8-1-4.2-1.4c-1.4-0.4-2.7-1.4-4.2-1.8c-1.4-0.4-2.9-0.8-4.3-1.1s-2.7-1.4-4.2-1.8c-1.4-0.3-3-0.3-4.4-0.6
		c-1.4-0.3-3-0.3-4.4-0.6c-1.4-0.2-2.9-0.8-4.3-1s-3,0.3-4.6,0.1s-3-0.2-4.4-0.4c-1.4-0.2-2.9-1.2-4.3-1.4c-1.4-0.2-3,0.2-4.5,0.1
		c-1.4-0.2-3-0.6-4.4-0.6s-3-0.3-4.4-0.4c-1.4-0.1-3,0.1-4.5,0s-3-0.6-4.4-0.6c-1.4-0.1-3,0.5-4.5,0.4S846.6,276.5,845.1,276.5z
		 M845.1,781.9c-1.4,0-3,0.4-4.4,0.4s-3-0.6-4.4-0.7c-1.4-0.1-3-0.5-4.4-0.6c-1.4-0.1-3-0.2-4.4-0.2c-1.4-0.1-3-0.1-4.4-0.2
		c-1.4-0.2-3,0.2-4.5,0.2c-1.4-0.1-2.9-0.8-4.3-1s-3-0.2-4.4-0.4s-2.9-0.6-4.4-0.8c-1.5-0.2-3-0.4-4.4-0.6c-1.4-0.2-3-0.4-4.4-0.7
		c-1.4-0.3-2.7-1.3-4.2-1.6c-1.4-0.3-3,0.2-4.5-0.2c-1.4-0.4-2.7-1.4-4.2-1.8c-1.4-0.4-3.1,0.1-4.5-0.3c-1.4-0.4-2.8-0.9-4.2-1.3
		s-2.4-2.2-3.8-2.6c-1.4-0.5-3.3,0.6-4.7,0.1c-1.4-0.5-2.6-1.6-4-2.1c-1.4-0.5-2.6-1.7-3.9-2.2c-1.4-0.5-3.2,0-4.6-0.6
		c-1.4-0.6-2.5-1.7-3.8-2.2c-1.4-0.6-2.5-1.7-3.8-2.2c-1.4-0.6-2.6-1.4-3.9-2c-1.3-0.6-3.4,0.1-4.6-0.6c-1.3-0.6-2.2-2.2-3.5-2.9
		c-1.3-0.7-2.6-1.3-3.9-2c-1.3-0.7-2.5-1.6-3.8-2.3s-2.7-1.2-4-2c-1.3-0.8-2.5-1.6-3.8-2.4c-1.3-0.8-2.3-1.9-3.5-2.7s-2.8-1.1-4-1.9
		s-2.6-1.4-3.8-2.2s-2.2-1.9-3.4-2.8s-2.2-1.9-3.4-2.8s-2.8-1.2-4-2.1c-1.2-0.9-2.2-1.9-3.4-2.8c-1.2-0.9-1.8-2.6-2.9-3.4
		c-1.1-0.9-3-1.1-4.1-2.1c-1.1-1-1.7-2.6-2.8-3.6c-1.1-1-2.4-1.8-3.4-2.8s-1.8-2.4-2.9-3.4c-1-1-2.2-2-3.2-3s-2.2-1.9-3.3-3
		s-2.5-1.7-3.5-2.8c-1-1.1-1.8-2.4-2.8-3.4s-2.2-1.9-3.2-3c-1-1.1-0.9-3.1-1.8-4.2c-1-1.1-2.8-1.5-3.7-2.7s-0.9-3.1-1.8-4.2
		c-0.9-1.1-2.8-1.6-3.7-2.7c-0.9-1.1-1.7-2.4-2.6-3.6c-0.9-1.2-1-2.9-1.8-4.1c-0.8-1.2-1.5-2.5-2.4-3.8c-0.9-1.3-2.3-2-3.1-3.3
		c-0.8-1.3-1.2-2.7-2-4c-0.8-1.3-1.3-2.6-2.1-3.9c-0.8-1.3-1.2-2.7-1.9-4c-0.7-1.3-2-2.2-2.6-3.6c-0.6-1.4-0.9-2.9-1.6-4.2
		c-0.7-1.3-2.5-2-3.1-3.4c-0.6-1.4-0.2-3.2-0.8-4.6c-0.6-1.4-1.8-2.4-2.3-3.8s-1-2.8-1.6-4.2s-0.9-2.8-1.4-4.2
		c-0.6-1.4-1.2-2.7-1.7-4.1s-2-2.4-2.5-3.8c-0.5-1.4-0.3-3-0.8-4.4s-0.5-3-0.9-4.3c-0.4-1.4-1.3-2.6-1.7-4.1c-0.4-1.4-0.6-2.9-1-4.3
		c-0.4-1.4-1.2-2.7-1.6-4.2c-0.4-1.4-0.4-3-0.7-4.4c-0.3-1.4-1-2.8-1.2-4.2c-0.2-1.4-0.6-2.9-1-4.3c-0.3-1.4,0-3-0.2-4.5
		c-0.2-1.5-1-2.8-1.3-4.2c-0.2-1.4-0.6-2.9-0.8-4.4s-0.2-3-0.3-4.4c-0.2-1.4-1.3-2.8-1.4-4.3c-0.2-1.5,0-3-0.2-4.4
		c-0.2-1.4,0.2-3,0.1-4.5c-0.1-1.5-0.2-3-0.3-4.4c-0.1-1.4,0.5-3,0.4-4.4c-0.1-1.4,0-3-0.1-4.4c-0.1-1.4-1-3-1-4.4
		c0-1.4,0.8-3,0.9-4.4c0.1-1.4,0.2-3,0.2-4.4c0-1.4-1-3-1-4.5c0.1-1.4,1.2-2.9,1.3-4.3c0.1-1.4-0.1-3,0.1-4.4c0.2-1.4,0.3-3,0.5-4.4
		c0.2-1.4,0.6-2.9,0.8-4.4c0.2-1.5,0.6-2.9,0.8-4.3c0.2-1.4-0.6-3-0.3-4.6c0.2-1.5,0.2-3,0.4-4.4c0.2-1.4,0.8-2.9,1.1-4.3
		c0.3-1.4,1.4-2.7,1.8-4.2c0.3-1.4-0.2-3,0.2-4.5c0.3-1.4,0.9-2.8,1.3-4.2c0.4-1.4,1.7-2.6,2.1-4c0.4-1.4,0.6-2.9,1-4.3
		c0.4-1.4,0.4-3,0.9-4.4c0.5-1.4,0.5-3,1-4.3c0.5-1.4,1-2.8,1.6-4.2c0.6-1.4,1.4-2.6,2-4c0.6-1.4,1.6-2.6,2.2-3.9s0.3-3,0.9-4.4
		c0.6-1.4,2-2.3,2.6-3.7c0.6-1.4,0.9-2.8,1.4-4.2c0.6-1.4,1-2.8,1.6-4.1c0.6-1.3,0.9-2.9,1.6-4.2c0.7-1.3,1.2-2.7,1.8-4
		c0.6-1.3,1.5-2.6,2.2-3.8c0.7-1.3,1.3-2.7,2-3.9c0.7-1.2,1.6-2.5,2.4-3.8c0.8-1.3,2.7-1.8,3.5-3c0.8-1.3,1.5-2.5,2.3-3.8
		c0.8-1.3,1.4-2.6,2.2-3.8c0.8-1.2,1.6-2.5,2.5-3.7c0.9-1.2,0.9-3,1.8-4.2s2.3-2,3.2-3.1s2.4-1.8,3.4-3c1-1.1,1.9-2.2,2.8-3.4
		c0.9-1.1,1.6-2.5,2.6-3.6s1.8-2.4,2.7-3.5c1-1.1,2-2.2,3-3.2s1.8-2.3,2.9-3.4s2.2-1.9,3.3-3s1.4-2.8,2.4-3.8s2.4-1.8,3.4-2.8
		s2.6-1.5,3.8-2.5c1.1-1,2.2-1.9,3.4-2.9s2.5-1.6,3.6-2.6c1.1-1,2.2-2,3.3-3c1.1-1,1.7-2.6,2.9-3.5c1.2-0.9,2.6-1.4,3.8-2.2
		s2.3-1.8,3.5-2.6c1.2-0.9,2-2.2,3.2-3.1c1.2-0.9,2.6-1.4,3.8-2.2c1.2-0.8,2.9-1,4.1-1.8s2.7-1.2,4-1.9c1.3-0.7,2.5-1.6,3.8-2.3
		c1.3-0.7,2-2.5,3.3-3.2c1.3-0.7,2.5-1.7,3.8-2.4c1.3-0.7,3-0.7,4.2-1.4c1.3-0.7,2.7-1.1,4.1-1.8s2.2-2.2,3.6-2.8
		c1.4-0.6,2.8-1,4.2-1.6c1.4-0.6,3.1-0.2,4.5-0.8s2.6-1.3,4-1.8c1.4-0.6,2.3-2.2,3.7-2.7c1.4-0.6,3-0.6,4.3-1c1.4-0.5,2.6-1.4,4-1.8
		c1.4-0.5,3.1,0.1,4.6-0.3c1.4-0.4,2.7-1.3,4.1-1.7c1.4-0.4,3-0.5,4.3-0.9c1.4-0.4,2.6-1.5,4.1-1.9c1.4-0.4,3,0.1,4.5-0.2
		s2.6-1.9,4-2.2s3.1,0.6,4.6,0.3c1.4-0.3,2.7-1.3,4.2-1.6s3,0.2,4.5-0.1s2.9-0.6,4.3-0.7c1.4-0.2,2.9-0.8,4.3-1
		c1.4-0.2,2.9-0.8,4.3-0.9c1.4-0.1,2.9-0.6,4.4-0.7s3,0.2,4.5,0.1c1.5-0.2,3-0.1,4.4-0.2c1.4-0.1,3-0.3,4.4-0.4
		c1.4-0.1,3,0.4,4.4,0.3c1.4-0.1,3-1,4.4-1c1.4,0,3,0.8,4.4,0.9c1.4,0.1,3-0.2,4.4-0.1c1.4,0.1,3,0.2,4.4,0.2c1.4,0.1,3,0.6,4.4,0.7
		c1.4,0.1,3-0.2,4.4-0.1c1.4,0.1,2.9,0.8,4.3,1c1.4,0.2,3-0.8,4.6-0.6c1.5,0.2,2.9,0.7,4.3,1c1.4,0.2,2.9,0.6,4.3,0.9
		c1.4,0.2,2.8,1,4.2,1.3c1.4,0.3,3-0.2,4.5,0c1.4,0.2,3,0.3,4.4,0.6s2.7,1.3,4.2,1.6c1.4,0.3,2.7,1.3,4.2,1.7c1.4,0.4,3,0.2,4.4,0.6
		s2.7,1.1,4.2,1.6c1.4,0.5,3,0.5,4.3,1c1.4,0.5,2.7,1.3,4.1,1.8s2.9,0.6,4.2,1.1c1.4,0.5,2.6,1.5,4,2c1.4,0.5,3,0.6,4.3,1.1
		c1.4,0.6,3,0.7,4.2,1.3c1.3,0.6,2.6,1.3,4,1.9c1.4,0.6,2.7,1.1,4.1,1.8c1.4,0.6,2.6,1.4,3.9,2.1c1.3,0.6,2.7,1.1,4.1,1.8
		s2.1,2.5,3.4,3.1c1.3,0.6,3,0.8,4.2,1.5c1.3,0.7,3,0.9,4.2,1.6c1.2,0.7,2.1,2.3,3.3,3.1c1.2,0.8,2.3,1.8,3.5,2.6s3,0.7,4.3,1.5
		c1.3,0.8,2.3,1.8,3.5,2.6s2.1,2.2,3.3,3c1.2,0.8,2.8,1.1,4,2c1.2,0.9,1.8,2.5,3,3.4c1.1,1,3,1,4.2,1.9c1.1,1,2.2,2,3.3,3
		c1.1,1,2.6,1.6,3.6,2.6s2.2,2,3.3,3c1.1,1,1.9,2.2,3,3.3c1.1,1,1.9,2.2,3,3.3s1.7,2.5,2.7,3.5c1,1,2,2.2,3,3.2s2.2,2,3.2,3
		c1,1,2.3,1.9,3.3,3c1,1,2.5,1.8,3.4,2.9c1,1.1,1.8,2.4,2.7,3.5c1,1.1,2.1,2.1,3,3.3s1,3,1.8,4.2s1.9,2.2,2.8,3.4
		c0.9,1.2,2.6,1.8,3.4,3s0.9,3,1.7,4.2c0.8,1.2,1.4,2.6,2.2,3.8s2.6,1.8,3.4,3.1s1.4,2.6,2.1,3.9c0.7,1.3,0.8,3,1.5,4.2
		c0.7,1.3,1.8,2.4,2.5,3.7c0.7,1.3,1.4,2.6,2,3.9s1.4,2.6,2.1,3.9c0.7,1.3,1.2,2.7,1.8,4c0.6,1.3,2.2,2.2,2.8,3.5
		c0.6,1.3,0.8,2.9,1.4,4.2c0.6,1.4,1.1,2.7,1.8,4.1c0.6,1.4,1.5,2.6,2.1,3.9c0.6,1.4,0.4,3,1,4.4s0.9,2.8,1.4,4.2s1.7,2.6,2.2,3.9
		c0.5,1.4,0.3,3,0.7,4.4c0.4,1.4,0.8,2.8,1.2,4.2c0.4,1.4,2,2.5,2.4,3.9c0.4,1.4,0.7,2.9,1,4.3c0.3,1.4,0.9,2.8,1.2,4.2
		c0.3,1.4,0.2,3,0.5,4.4c0.3,1.4-0.1,3,0.2,4.5c0.3,1.4,0.5,2.9,0.7,4.3c0.2,1.4,0.4,2.9,0.6,4.4c0.2,1.5,0.6,2.9,0.9,4.3
		s0.5,2.9,0.6,4.4c0.2,1.5,0.7,2.9,0.9,4.3c0.2,1.4,0.4,2.9,0.5,4.4c0.2,1.4-0.3,3-0.2,4.5s1.6,2.9,1.7,4.3c0.1,1.4,0.1,3,0.2,4.4
		c0.1,1.4-0.9,3-0.9,4.5s0.1,3,0.1,4.4s-0.4,3-0.4,4.4c0,1.4,1.4,3,1.3,4.5c-0.1,1.5-1.1,2.9-1.2,4.4s-0.6,3-0.6,4.4
		c-0.1,1.4,1,3,0.9,4.5c-0.2,1.4-0.3,3-0.5,4.4c-0.2,1.4-0.6,3-0.7,4.4c-0.2,1.4-0.4,3-0.6,4.4c-0.2,1.4-1.2,2.8-1.4,4.2
		c-0.2,1.4-0.6,2.9-0.9,4.3c-0.2,1.4-0.6,2.9-0.9,4.3s0.7,3.2,0.4,4.6c-0.3,1.4-1.4,2.7-1.8,4.2c-0.3,1.4-1.1,2.7-1.5,4.2
		c-0.4,1.4-0.8,2.8-1.2,4.2c-0.4,1.4-0.6,2.9-1,4.3c-0.5,1.4-0.1,3-0.6,4.5c-0.5,1.4-0.9,2.8-1.4,4.2c-0.5,1.4-2.2,2.3-2.7,3.8
		c-0.5,1.4,0.2,3.2-0.4,4.6s-2.2,2.2-2.8,3.7c-0.6,1.4-0.5,3-1,4.3s-0.6,3-1.1,4.3s-1.8,2.4-2.5,3.8c-0.6,1.4-1.8,2.4-2.6,3.7
		s0,3.4-0.6,4.6c-0.6,1.3-2.5,2-3.2,3.4c-0.7,1.4-1.6,2.5-2.3,3.8c-0.7,1.3-1,2.8-1.8,4.1c-0.7,1.3-1.2,2.7-1.9,4
		c-0.7,1.3-1.1,2.8-1.9,4c-0.8,1.2-2.4,1.9-3.3,3.2c-0.9,1.3-2,2.2-2.8,3.4s-1.4,2.6-2.3,3.8s-1.8,2.3-2.6,3.5
		c-0.8,1.2-1.4,2.7-2.2,3.8c-0.9,1.1-1.6,2.5-2.6,3.7s-2.6,1.7-3.5,2.8s-1,3-2,4.2c-1,1.1-2,2.2-3,3.3c-1,1-1.8,2.3-2.8,3.4
		c-1,1.1-2.9,1.4-3.9,2.4s-1.7,2.5-2.7,3.5s-2.6,1.6-3.6,2.6s-1.7,2.5-2.7,3.5c-1,1-2.6,1.4-3.8,2.4c-1.1,1-1.4,2.8-2.6,3.8
		c-1.1,1-2.2,2.1-3.3,3c-1.1,1-2.7,1.4-3.8,2.2c-1.1,0.9-2.5,1.6-3.7,2.5s-2.1,2.2-3.3,3s-2.5,1.6-3.7,2.4c-1.2,0.8-2,2.2-3.3,3
		c-1.3,0.8-2.3,1.8-3.6,2.6c-1.3,0.8-2.5,1.6-3.8,2.4c-1.3,0.8-3,0.6-4.3,1.4c-1.3,0.8-2.2,2.1-3.4,2.8s-3,0.7-4.2,1.4
		c-1.3,0.7-1.9,2.6-3.2,3.3c-1.3,0.6-3.1,0.5-4.4,1.1c-1.3,0.6-2.6,1.2-4,1.8c-1.4,0.6-2.3,2-3.6,2.6c-1.3,0.6-2.6,1.3-4,1.9
		c-1.4,0.6-2.9,0.8-4.2,1.4c-1.4,0.6-2.6,1.3-4,1.8c-1.4,0.6-2.8,1-4.2,1.5s-2.6,1.5-4,2.1c-1.4,0.6-2.8,1-4.2,1.4
		c-1.4,0.5-3.1,0-4.5,0.5s-2.6,1.8-3.9,2.2c-1.4,0.4-3,0.5-4.3,0.9c-1.4,0.4-2.6,1.5-4.1,1.9s-3.1-0.4-4.6-0.1
		c-1.4,0.3-2.8,1-4.2,1.3s-2.7,1.4-4.2,1.8s-3-0.2-4.5,0s-2.7,1.4-4.2,1.7c-1.5,0.2-3-0.2-4.5,0c-1.4,0.2-3-0.3-4.5-0.1
		c-1.4,0.2-2.8,1.8-4.2,1.9c-1.4,0.2-3,0.2-4.4,0.2c-1.4,0.1-3-0.9-4.5-0.8c-1.4,0.1-2.9,1-4.4,1c-1.5,0.1-3,0.3-4.4,0.4
		c-1.4,0.1-3-0.1-4.4-0.1C847.4,781.9,846.6,781.9,845.1,781.9z"/>
	<g>
		<path d="M703.1,436.7c6.9-4,14.5-5.9,22.1-7.8c6.1-1.7,12.2-2.3,18.5-2.1c9,0.6,18.1,1.1,26.5,5c2.5,1.3,4.8,2.7,7.4,4
			c1.1,0.6,2.1,1.5,3.4,1.9c5.3,1.9,11.3,7.8,15.1,11.5c4.2,4.2,7.6,9.2,10.1,14.7c5.3,10.9,8.2,23.3,8.4,35.3
			c0,6.9-0.6,14.1-1.9,20.8c-6.3,34-30.5,65.3-64.7,75.2c-25.2,7.3-54-4.8-60.7-31.3c-1.3-5.5-1.3-10.7-0.4-16.2
			c0.2-2.3,0.8-4.4,1.3-6.7c1.3-4.6,4-8.2,8.6-10.5c0.6,0.4,1.5,0.8,2.3,1.3c-0.8,1.3-1.5,2.3-2.3,3.2c-2.1,2.1-2.5,4.8-2.7,7.4
			c-0.2,1.3-0.4,2.7-0.2,4c0,8.2,2.5,16.8,6.7,23.9c5.3,8.6,16.2,11.8,25.4,13.2c10.5,1.7,18.5-5.5,26-11.3
			c19.3-14.5,34.4-29.2,37.4-54.2c1.1-9.2,1.7-18.5,1.9-27.9c0-6.1-0.8-11.8-3.1-17.4c-2.1-5.5-4-10.9-6.9-16.2
			c-2.5-4.2-5.7-7.8-9.7-10.7c-5-3.8-10.5-7.1-16.6-9.5c-4.4-1.7-9-2.5-13.9-2.5c-0.4,0-0.8,0.2-1.3,0.2c-0.2,0-0.2,0.2-0.6,0.4
			c0.4,1.5,0.8,2.7,1.5,4.2c1.7,4.2,3.1,8.4,3.4,13c0.4,6.3,0.8,12.6,0.4,18.9c-0.4,5.7-1.9,11.1-2.3,16.6
			c-0.4,5.9-1.3,11.6-2.5,17.2c-1.7,7.6-3.1,15.3-4.2,22.9c-1,6.9-0.6,14.1-1.7,20.8c-0.4,3.6-0.6,6.9-0.2,10.3
			c0.2,4-0.4,7.6-1.5,11.3c0,0,0,0.4-0.2,0.4c-2.7,2.5-2.3,8-5,10.5c-5,4.6-8-7.8-8.6-11.1c-1.5-7.6-2.1-15.3-2.1-23.1
			c0-9.7,0.2-19.3,0.6-29.2c0.2-9.9,0.6-19.7,1.3-29.6c0.6-10.7,1.5-21.4,2.3-32.1c0.4-5.9,1.3-11.6,1.7-17.4c0.2-0.4,0-0.6,0-1.5
			c-1.9,0.4-3.6,0.4-5,1.1c-3.1,1-6.1,2.3-8.8,3.6c-0.4,0.2-0.8,0.6-1.3,0.6c-3.8,1.3-6.5,4-9.5,6.5c-0.4,0.4-1,0.8-1.5,0.6
			c-2.1-0.2-3.8-1-5-3.2C694.7,442.3,698.7,439.2,703.1,436.7z"/>
		<path d="M876.2,579.5c-1.3,0.6-1.9,1-2.7,1.5c-3.4,1.1-7.1,1.9-10.7,1.9c-4.2,0-8.6,0.8-12.6,0.6c-3.6-0.2-7.1,0.4-10.7,1.3
			c-1.7,0.2-3.8,0.2-5.7,0.4c-0.8,0-2.1,0.2-2.5-1.5c4.4-3.2,9.5-3.8,14.7-4.4c-0.4-2.5-0.4-4.8-0.4-7.1
			c-1.1-10.9-2.1-21.8-2.9-32.6c-0.4-4.6-0.8-9.2-1.3-13.9c-0.2-7.1-0.6-14.5-0.6-21.6c0.2-8,0.2-15.8,1.3-23.5
			c0.4-4.4,0.6-8.8,1-13.4c0.6-8,1.5-16.2,2.5-24.4c1-8,2.5-16,3.6-23.7c0-0.6,0.2-1.1,0.2-2.3c-0.8,0.2-1.7,0.2-2.3,0.6
			c-2.7,0.2-5.7,0.8-8.6,1c-1,0.2-2.1,0-2.5-1.3c0.6-1.3,2.1-1.5,3.2-1.5c2.9-1,5.9-1.7,8.6-2.3c5.3-1,10.5-1.9,15.8-2.7
			c4-0.6,7.6,1,10.9,2.7c-5,1.9-10.7,2.1-16,3.2c0.2,0.4,0,0.6,0,0.6c2.5,1.5,2.9,4,3.2,6.7c0.2,1.3,0.8,2.7,1,4.2
			c0.6,3.6,1.1,6.9,1.7,10.7c1,5.5,1.9,10.9,2.9,16.2c0,0.6,0.2,1.3,0.2,2.1c0,5.9,0.4,11.8,0.4,17.6c0,4.6-0.6,8.8-1,13
			c-0.2,4-0.6,7.6-0.8,11.1c-0.2,3.8-0.6,7.6-0.6,11.1c0,4.4,0.4,8.8,0.8,13c0,2.7,0,5.5-0.2,8c-0.4,5-1.1,10.1-1.5,15.1
			c-0.2,1.7-0.6,3.6-0.8,5.3c0,4,0.2,8.2-0.4,12c-0.6,3.4-0.4,6.7-2.5,9.5c-1,1.5-1.3,3.1-1.9,5C864.8,578,870.5,575.9,876.2,579.5z
			"/>
		<path d="M942.3,636.2c-4.4,9.9-8.4,20.6-17,27.7c-2.5,1.9-4.8,4-7.8,5.3c-2.1,1-4.8,2.5-7.1,3.2c-2.3,0.4-4.6,1.9-6.9,2.1
			c-6.3,1.1-12,0.8-17-3.4c-0.6-0.6-1.3-1.5-2.1-1.9c-2.1-1.7-3.4-4.2-4.8-6.3c-2.9-3.8-3.1-9.2-2.7-13.9
			c1.5-21,19.5-36.3,34.7-49.1c5.5-4.4,11.1-8.8,16.6-13.2c0.8-0.4,1.5-1.1,2.3-1.5c3.4-2.9,6.7-5.9,10.1-8.6c1-0.8,1.5-1.7,1.7-2.7
			c0.6-4.6,1.3-9.5,1.7-14.1c0.4-6.7,0.2-13.7,1.3-20.6c0.2-1,0.2-2.1-0.2-3.4c-0.6,0.8-1.1,1.9-1.7,2.7c-2.7,3.8-5.3,7.6-8,11.3
			c-3.1,4.4-6.3,8.8-9.7,13c-3.4,4.2-7.1,7.8-12.2,9.9c-4.8,2.1-9.7,2.9-14.9,2.5c-5.3-0.6-9-3.8-12-8.2c-5.7-8.8-5.3-19.1-5.9-29.2
			c-1.1-17-0.6-34.4-0.4-51.5c0.2-7.3,0.6-14.9,1-22.3c0.2-3.8,1.3-8.2,0.6-11.8c-1.5,0.6-3.1,1.7-4.4,2.7
			c-3.4,2.9-5.9,6.7-8.4,10.3c-1.5,2.1-2.5,4-3.2,6.5c-0.4,1.5-1.7,2.7-1.9,4.6c0,1-1.9,1.5-2.9,0.8c-0.6-0.4-1.3-1-1.9-1.5
			c-1.3-1-1.3-1.5-0.6-3.2c1.7-4,3.4-8,5-12c3.4-6.9,8.4-12.4,15.1-16.4c2.9-1.7,6.3-2.3,9.7-1.5c1.7,0.6,3.4,1,5.3,1.3
			c2.5,0.6,4.2,2.3,5.3,4.6c1.7,3.4,2.7,6.9,2.9,10.9c0,2.9,0.8,6.1,0.8,9.2c0.8,16.4-1.1,32.6-0.8,48.9c0.2,13,1.3,26.3,2.3,39.3
			c0,0.6,0.4,1.3,0.6,1.9c0.4,0.8,1,1.7,1.5,2.7c1.1,2.3,2.7,2.9,5,2.1c3.4-1.3,6.3-3.6,8.6-6.3c6.9-7.8,12.8-16,18.3-24.6
			c2.3-3.6,4.6-7.4,6.9-10.9c0.8-1,1.3-2.3,1.5-3.6c0.6-6.9,1.5-13.7,2.1-20.4c0.4-5.3,0.6-10.5,1.1-15.8c0.8-8,1-16,3.6-23.5
			c0.6-2.1,1.3-4.2,2.1-6.1c0.6-1.5,1.1-1.7,2.7-1.3c2.7,1,4.8,2.9,6.1,5.5c0.8,1.5,1.5,3.2,1.7,4.8s1.9,3.2,1.9,4.8
			c1.5,22.5,7.8,38.9,2.9,59c-1.5,5.7-3.6,16-2.3,21.8c0.2,1.5,0.4,2.9-0.2,4.4c0,0.6,0,1.3,0,1.9c1,0,1.5-0.6,1.9-1.3
			c3.4-3.2,6.5-6.5,9.9-9.9c0.6-0.6,1.3-1.7,1.9-2.3c1.7-1.9,3.4-3.4,4.8-5.3c2.7-3.8,6.3-6.9,9.5-10.5c0.8-1,1.7-2.3,2.5-3.4
			c1.3-1.7,4.4-1.3,5.3,0.8c0.2,0.2,0,0.8-0.2,1.1c-0.4,0.8-1.1,1.7-1.7,2.1c-2.9,1.9-3.4,6.1-5.3,8.8c-2.1,3.6-5.3,6.3-7.8,9.7
			c-5,7.1-12,11.6-17.9,17.9c-0.4,0.2-0.4,0.8-0.6,0.8c-2.3,0.6-3.1,2.9-4.8,4.2c-0.2,0.2-0.4,0.6-0.4,0.8c0.2,1.7-1,2.7-1.7,4.2
			c-4.4,11.8-7.8,23.9-10.7,36.1c-2.3,9.2-5.7,17.9-9.7,26.7C942.9,635.1,942.7,635.6,942.3,636.2z M939,588.5
			c-0.6,0.6-1.3,1.3-2.1,1.9c-0.4,0.4-1,0.8-1.5,1.3c-1.3,0.8-2.3,1.7-3.6,2.5c-1.7,1.5-2.7,3.6-5,4.4c-0.4,0-0.6,0.4-0.8,0.6
			c-0.6,0.6-1,1.3-1.7,1.9c-1.5,1.7-32.6,21.2-35.7,41.6c0,0.6-0.2,0.8-0.4,1.3c-0.4,1.7-0.8,3.1-1,4.8c-0.2,0.8-0.2,1.9-0.4,2.7
			c-0.8,4.4,0,8.6,2.5,12.2c1.3,1.5,2.5,2.7,3.8,4.2c1.3,1.5,3.2,2.3,5,2.3c2.1-0.2,4.4-0.6,6.5-0.8c2.7-0.2,5-1.3,7.4-2.9
			c3.6-2.5,6.3-6.1,8.2-9.9c1.7-2.9,3.2-5.7,4.6-8.6c0.6-1.5,1.7-2.9,2.1-4.4c1.3-4,2.5-8,3.6-12c0.8-3.2,1.5-6.5,2.3-9.7
			c1.3-4.2,2.3-8.4,2.9-12.8c1.1-6.1,2.3-12,3.6-17.9c0.2-0.8,0.2-1.7,0.2-2.5C939.2,588.5,939.2,588.5,939,588.5z M943.6,631.4
			c-0.4,0.2-0.6,0.6-1.1,0.8c0.2,0,0.2,0.2,0.4,0.4c0.2-0.4,0.6-0.6,0.8-0.8C943.8,631.6,943.6,631.4,943.6,631.4z"/>
	</g>
	<g>
		<polygon class="st0" points="593,445 591.8,446.5 590.7,448.1 589.7,449.8 589,451.6 588.1,453.4 587.5,455.2 586.9,457 
			586.5,458.9 586.2,460.9 585.8,462.8 586,464.7 585.8,466.7 586.2,468.6 586.7,470.5 587,472.3 587.8,474 588.5,475.7 589.8,477 
			591,478.5 592.3,479.7 594.2,480.6 596.2,481.4 598.2,481.9 600.2,482.1 602.1,481.4 604.1,481.1 605.9,480.3 607.5,479 
			609.3,478.1 610.6,476.6 611.9,475.1 612.9,473.4 613.9,471.7 614.9,469.9 615.1,467.9 615.5,465.9 616.1,464 615.8,462.1 
			616.2,460.1 615.7,458.2 615.7,456.2 615.6,454.3 615.2,452.4 614.9,450.5 614.4,448.6 613.7,446.8 613,445 612.5,443.1 
			612.1,441.2 611.1,439.5 610.3,437.8 609.6,435.9 608.7,434.2 608,432.4 606.9,430.7 606.1,429 604.9,430.6 603.4,432.1 
			602.1,433.7 600.8,435.3 599.4,436.9 598.2,438.5 597,440.2 595.4,441.6 594.2,443.3 		"/>
		<polygon class="st0" points="729,758.4 728.1,756.7 727.1,755.1 726,753.5 724.9,751.8 723.4,750.6 722.1,749.2 720.5,748 
			719.1,746.7 717.4,745.8 715.7,744.8 713.8,744.2 712,743.4 710,743.2 708,743.1 706,743 704,743.2 702.1,744 700.4,744.7 
			699,745.9 697.7,747.1 696.8,748.8 695.8,750.4 695.6,752.4 695.3,754.3 695.8,756.2 695.9,758.1 696.7,760 697.9,761.5 
			699.1,763 700.4,764.4 701.9,765.6 703.5,766.7 705.2,767.6 707,768.5 708.6,769.5 710.5,770 712.3,770.7 714.2,771.1 
			716.1,771.9 717.9,772.3 719.9,772.4 721.8,773 723.7,773.1 725.7,773.5 727.6,773.9 729.5,773.7 731.5,773.9 733.4,774.3 
			735.3,774.1 734.6,772.4 733.9,770.7 733.3,768.9 732.6,767.1 731.7,765.5 731.2,763.6 730.6,761.9 729.9,760.1 		"/>
		<polygon class="st0" points="563.9,480.5 563.5,482.5 563.3,484.5 563.2,486.5 563.2,488.5 563.5,490.5 563.6,492.4 563.9,494.4 
			564.3,496.4 564.7,498.4 565.4,500.2 566,502.1 566.8,504 567.8,505.7 568.7,507.4 569.6,509.2 570.6,510.9 571.7,512.6 
			573.2,514 574.6,515.3 575.8,516.7 577.2,518 578.8,519.1 580.5,519.9 582.3,520.5 584.2,521.1 586,521.5 588.1,521.9 
			590.2,521.8 592.2,521.5 594.3,521.4 596,520.3 597.8,519.3 599.2,517.9 600.6,516.4 601.9,515 603,513.3 604.2,511.6 
			604.8,509.7 605.4,507.9 606,506 605.9,503.9 606.1,502 605.8,500 605.8,498 605.1,496 604.9,494 604.2,492.1 603.1,490.4 
			602.5,488.5 601.4,486.8 600.5,485 599.3,483.4 598.2,481.7 597.2,479.9 595.7,478.5 594.5,477 593.4,475.3 591.8,474.1 
			590.6,472.3 589,471.1 587.6,469.7 586.2,468.1 584.7,466.9 583.3,465.5 581.7,464.2 580.1,462.9 578.4,461.8 576.9,460.5 
			575.4,459.1 573.7,458.2 572,457 570.4,455.8 568.8,454.8 568.4,456.6 568.1,458.7 567.6,460.6 567.2,462.6 566.7,464.6 
			566.3,466.5 565.9,468.5 565.5,470.5 565.1,472.5 565,474.6 564.3,476.5 564,478.5 		"/>
		<polygon class="st0" points="607.8,471.7 606.2,472.9 604.5,473.8 602.8,474.7 601.4,476.1 599.8,477.1 598.2,478.3 596.8,479.6 
			595.5,481.1 594.2,482.6 593.1,484.1 591.7,485.5 590.6,487.1 589.8,488.9 588.8,490.5 587.8,492.2 587,494 586.3,495.8 
			585.6,497.6 585.4,499.6 584.8,501.4 584.2,503.4 584.2,505.5 584.2,507.6 584.1,509.6 584.4,511.6 584.9,513.7 585.6,515.6 
			586.6,517.5 587.4,519.1 588.4,520.6 589.7,521.9 590.8,523.2 592.2,524.4 593.9,525.2 595.8,525.9 597.7,526.3 599.6,526.7 
			601.5,527 603.4,527.1 605.4,527.1 607.3,526.6 609.1,526 611,525.5 612.9,524.9 614.5,523.9 616.2,522.8 617.6,521.5 619,520.1 
			620.3,518.6 621.6,517.2 622.7,515.6 623.7,514 624.9,512.4 625.7,510.5 626.8,508.8 627.4,506.8 628,504.9 628.8,503.1 
			629.3,501.2 630.1,499.3 630.4,497.3 630.9,495.3 631.6,493.4 631.6,491.4 632,489.4 632.3,487.4 632.9,485.5 632.8,483.4 
			633.3,481.4 633.5,479.4 633.3,477.4 633.8,475.4 633.6,473.4 633.7,471.4 633.6,469.3 633.7,467.3 634,465.3 633.5,463.3 
			633.5,461.3 633.6,459.2 631.7,460.4 629.7,460.9 628.1,462.1 626.1,462.9 624.2,463.6 622.5,464.5 620.5,465.3 618.7,466.2 
			616.9,467.2 615.2,468.2 613.3,469 611.3,469.7 609.7,470.9 		"/>
		<polygon class="st0" points="544.4,541.2 545.6,542.8 546.7,544.6 547.9,546.1 548.8,547.9 550.1,549.5 551.5,550.9 552.8,552.4 
			554.3,553.8 555.5,555.4 557.1,556.6 558.6,558 560.3,559 561.9,560.4 563.5,561.5 565.3,562.5 567.2,563.3 568.9,564.3 
			570.8,565 572.6,565.9 574.5,566.6 576.4,567.1 578.4,567.6 580.3,568.3 582.2,568.6 584.2,568.7 586.1,569 588.1,568.9 
			590,568.8 591.9,568.8 593.8,568.4 595.8,568.2 597.6,567.5 599.4,566.8 601.3,566.4 602.9,565.2 604.7,564.5 606.4,563.4 
			608,562.4 609.3,561 610,560.3 610.2,560 611.4,558.4 612.2,556.6 612.6,554.6 613.2,552.7 613.7,550.8 614.1,548.8 614,546.8 
			614.1,544.9 613.4,543 613,541 612.7,539.1 611.7,537.3 610.7,535.6 609.9,533.8 608.7,532.2 607.4,530.7 606,529.3 604.4,528 
			602.9,526.8 601.3,525.6 599.6,524.6 598,523.5 596.2,522.6 594.5,521.6 592.6,520.8 590.8,520.1 589,519.4 587.2,518.6 
			585.4,517.8 583.5,517 581.5,516.8 579.6,516.3 577.8,515.6 575.8,515 573.9,514.6 572,514.2 570,514 568,513.6 566.1,513.4 
			564.2,512.9 562.2,512.8 560.2,512.6 558.3,512.1 556.3,512.1 554.3,511.7 552.3,511.7 550.3,511.8 548.3,511.6 546.3,511.5 
			544.4,511.2 542.4,511.4 540.4,511.2 538.4,511.1 536.5,511.4 534.5,511.3 532.6,511.4 531,511.9 531.2,513.6 531.7,515.5 
			532.6,517.3 533.8,519.1 534.4,521.1 535.4,522.8 536.3,524.7 537.3,526.4 538.1,528.3 538.8,530.3 540,531.9 540.8,533.8 
			541.5,535.8 542.7,537.5 543.4,539.4 		"/>
		<polygon class="st0" points="621.5,508 619.9,509.2 618,509.7 616.4,510.8 614.7,511.9 613,512.8 611.4,514 609.8,515.1 
			608.3,516.3 606.9,517.6 605.4,518.9 604.1,520.3 602.8,521.8 601.3,523.1 600.2,524.7 599.2,526.4 598.3,528.2 597.2,529.8 
			596.2,531.5 595.4,533.2 594.6,535.1 594,536.9 593.5,538.8 592.7,540.7 592.2,542.7 592.2,544.7 592.1,546.7 592.3,548.7 
			592.2,550.8 592.7,552.8 593.4,554.7 594.1,556.6 594.9,558.4 595.5,560.3 597,561.8 598,563.5 599.5,564.8 601.1,566 
			602.9,566.9 604.7,567.6 606.6,567.9 608.5,568.6 610.5,568.6 612.5,569 614.4,569 616.4,568.7 618.3,568.2 620.2,568 
			622.1,567.1 623.8,566.2 625.5,565.4 627.1,564.2 628.6,563 630.3,561.9 631.6,560.4 633,559.1 634.2,557.5 635.3,555.9 
			636.8,554.5 637.6,552.6 638.8,551 639.7,549.3 640.8,547.5 641.4,545.6 642.1,543.8 642.8,541.9 643.9,540.1 644.4,538.2 
			644.8,536.2 645.5,534.3 646.2,532.4 646.8,530.5 647.2,528.5 647.7,526.6 647.8,524.6 648.3,522.6 648.8,520.7 649.1,518.7 
			649.2,516.7 649.8,514.8 650,512.8 650.3,510.8 650.4,508.8 650.5,506.8 650.7,504.7 650.8,502.7 650.8,500.7 651,498.7 
			650.9,496.8 649.2,497.4 647.3,498.1 645.5,498.9 643.6,499.6 641.8,500.2 639.9,500.8 638,501.3 636.3,502.4 634.4,503.1 
			632.5,503.7 630.6,504.2 628.8,504.9 626.9,505.6 625.2,506.5 623.3,507.2 		"/>
		<polygon class="st0" points="556.7,597.6 557.9,599 559.4,600.4 560.5,602 561.9,603.4 563.4,604.7 565,605.8 566.4,607.3 
			567.9,608.5 569.5,609.6 571,611 572.7,611.8 574.3,613.1 576.1,614 577.8,615 579.5,615.8 581.3,616.8 583.1,617.5 585,617.9 
			586.8,618.8 588.7,619.3 590.6,619.6 592.6,620.4 594.5,620.7 596.4,620.9 598.3,621.3 600.3,621.6 602.2,621.7 604.2,621.8 
			606.2,621.6 608.1,621.7 610.1,621.5 612,621.1 613.9,620.8 615.7,620 617.7,619.6 619.3,618.7 621.1,617.8 622.9,616.9 
			624.5,615.9 626.1,614.8 627.8,613.6 629.3,612 630.7,610.5 632,608.7 633.1,606.9 634.5,605.3 635.1,603.3 635.2,601.3 
			635.3,599.3 635.6,597.4 635.8,595.4 635.7,593.5 635.6,591.5 635.2,589.6 634.6,587.7 634.3,585.7 633.7,583.8 632.7,582.1 
			631.9,580.3 630.7,578.7 629.8,577 628.5,575.4 627.1,574 625.7,572.7 624.1,571.4 622.9,569.9 621.1,569 619.5,567.8 617.7,567 
			616.1,565.8 614.3,565 612.5,564.2 610.5,563.7 608.7,562.8 606.8,562.4 604.9,561.7 603,561.2 601,560.8 599.1,560.6 597.2,560 
			595.2,559.8 593.2,559.7 591.3,559.4 589.3,559.4 587.4,559.2 585.4,558.9 583.4,559 581.4,558.8 579.4,558.9 577.4,559 
			575.4,558.6 573.5,559 571.5,559 569.5,559 567.5,559 565.6,559.4 563.6,559.7 561.7,559.9 559.7,559.8 557.7,560.1 555.8,560.6 
			553.9,560.9 551.9,561 549.9,561.2 547.9,561.7 545.9,561.8 544.1,562.6 542.1,562.9 540.2,563 538.3,563.6 536.4,564.2 
			534.4,564.4 532.4,565 533.6,566.8 534.8,568.4 536,570 537.2,571.6 538.4,573.3 539.7,574.9 540.7,576.6 542.1,578.1 
			543.2,579.8 544.4,581.3 545.8,582.9 547,584.5 548.1,586.2 549.1,588 550.3,589.7 551.8,591.1 553.1,592.7 554.2,594.4 
			555.2,596.1 		"/>
		<polygon class="st0" points="601,605.7 600.6,603.8 600.3,601.9 599.9,600 599.9,598.1 600.2,596.1 600.2,594.3 600.6,592.4 
			600.9,590.5 601.3,588.6 601.8,586.8 602.4,584.9 603,583.1 603.8,581.3 604.8,579.6 605.7,577.8 606.8,576.2 607.7,574.5 
			608.6,572.8 609.7,571.2 610.7,569.5 611.8,567.8 613.2,566.4 614.3,564.8 615.7,563.4 617,562 618.3,560.6 619.8,559.3 
			621.2,557.8 622.7,556.6 624.3,555.5 625.8,554.3 627.3,553 629.1,552.2 630.8,551.1 632.3,549.9 633.9,548.8 635.6,547.9 
			637.4,547.1 639.1,546 641,545.5 642.6,544.3 644.5,543.6 646.3,542.7 648.1,541.9 650,541.1 651.8,540.4 653.6,539.5 
			655.3,538.5 657.2,537.9 659,537.1 660.8,536 662.7,535.5 664.4,534.7 666.3,533.8 668.1,533.1 669.9,532.3 671.6,531.5 
			671.4,533.4 671.3,535.5 670.9,537.4 670.6,539.4 670.3,541.4 669.9,543.4 669.8,545.4 669.1,547.3 669,549.3 668.6,551.3 
			668.1,553.2 667.7,555.2 667.1,557.1 666.6,559 666.2,561 665.5,563 665,564.9 664.5,566.9 663.6,568.7 663.1,570.6 662.6,572.6 
			662,574.6 661.2,576.3 660.4,578.2 659.6,580.1 658.8,581.9 658.1,583.7 657.4,585.7 656.3,587.3 655.3,589.2 654.6,591 
			653.6,592.8 652.7,594.6 651.3,596.1 650.4,597.9 649.2,599.6 648.1,601.3 646.9,602.9 645.3,604.1 644.2,605.8 642.7,607.2 
			641.4,608.7 639.7,609.9 638.1,611.1 636.5,612.4 635,613.6 633.2,614.4 631.5,615.6 629.6,616.1 627.7,616.8 625.8,617.5 
			623.8,618 621.8,618 619.8,618.3 617.8,618.4 615.8,618 613.8,617.8 611.8,617.3 610,616.5 608.1,615.8 606.4,614.8 605,613.2 
			603.7,611.5 602.8,609.6 601.6,607.7 		"/>
		<polygon class="st0" points="667.2,575.7 665.4,576.5 663.5,577 661.6,577.7 659.9,578.6 658,579.4 656.4,580.3 654.6,581.3 
			652.8,582.2 651,582.9 649.4,584.1 647.6,585 646.1,586.5 644.4,587.4 642.8,588.6 641.4,590 639.9,591.3 638.4,592.5 636.9,594 
			635.6,595.4 634.3,596.9 633,598.5 631.6,599.8 630.5,601.6 629.3,603.1 628.4,604.9 627,606.4 626.1,608.1 625.3,610 
			624.2,611.6 623.5,613.5 622.5,615.2 621.7,617 621.3,619 620.6,620.9 619.8,622.8 619.7,624.8 619.4,626.8 619.2,628.8 
			619.1,630.8 619.1,632.8 619.5,634.8 619.7,636.8 619.9,638.8 620.5,640.8 621,642.7 621.8,644.7 622.8,646.5 623.9,648.3 
			625.2,649.9 626.5,651.5 627.8,653.1 629,654.9 630.7,655.9 632.4,657.1 634.1,657.9 636,658.6 637.8,659.3 639.7,659.8 
			641.6,660.2 643.5,660.9 645.5,661.1 647.4,661.4 649.4,661.6 651.3,661.6 653.3,661.7 655.2,661.5 657.2,661.3 659.2,661.1 
			661.1,660.6 663,659.9 664.9,659.5 666.7,658.8 668.5,657.9 670.1,656.7 671.9,655.9 673.6,655 675.1,653.7 676.9,652.7 
			678.2,651.2 679.9,650.2 681.2,648.7 682.7,647.4 684,645.9 685.4,644.5 686.7,643 687.6,641.3 689,639.9 690.2,638.3 
			691.1,636.4 692.3,634.9 693.3,633.2 694.2,631.5 695.3,629.9 696.2,628.1 697,626.4 697.9,624.5 698.6,622.7 699.5,620.9 
			700.2,619.1 701,617.2 701.8,615.5 702.2,613.6 703.1,611.8 703.5,609.8 704.1,608 704.7,606.1 705.3,604.2 705.8,602.3 
			706.5,600.5 706.9,598.5 707.4,596.6 707.9,594.7 708.2,592.8 709,590.9 709.4,589 709.6,587 709.8,585.1 710.3,583.2 
			710.8,581.3 711.1,579.3 711.4,577.4 711.6,575.4 711.8,573.4 712.2,571.5 712.6,569.6 712.6,567.6 712.8,565.6 712.8,563.7 
			713.2,561.6 711.2,562.2 709.3,562.9 707.4,563.5 705.4,564.1 703.4,564.3 701.6,565.1 699.6,565.4 697.8,566.2 695.8,566.6 
			693.8,567 691.9,567.7 690.1,568.5 688.1,568.8 686.3,569.6 684.3,569.9 682.3,570.5 680.5,571.2 678.6,571.9 676.6,572.2 
			674.7,573 672.9,573.7 671,574.2 669.1,575 		"/>
		<polygon class="st0" points="567.5,672.9 569.4,673.7 571,674.7 572.8,675.5 574.6,676.3 576.6,676.8 578.4,677.7 580.2,678.5 
			582.2,679.1 584,679.7 586,680 587.9,680.5 589.8,681.2 591.8,681.3 593.8,681.9 595.8,682.1 597.8,682.1 599.7,682.5 
			601.7,682.7 603.7,682.4 605.7,682.7 607.7,682.7 609.6,682.5 611.6,682.2 613.6,681.8 615.6,681.8 617.5,681.5 619.5,681 
			621.4,680.6 623.3,679.9 625.2,679.3 627.2,678.9 628.9,677.9 630.8,677.2 632.5,676.2 634.4,675.5 636,674.3 637.7,673.3 
			639.2,671.9 640.8,670.7 642,669.1 643.2,667.6 644.6,666.1 645.7,664.5 646.7,662.7 647.6,661.1 648.4,659.1 649,657.3 
			649.7,655.4 650.4,653.5 650.8,651.6 651.2,649.6 651.2,647.6 651.6,646.5 651.6,645.8 650.8,643.9 650.3,641.9 649.7,640 
			648.9,638.2 648.1,636.4 647.2,634.7 646.2,632.9 645.3,631.1 644,629.6 642.9,627.9 641.5,626.4 640.4,624.8 638.9,623.4 
			637.2,622.2 635.9,620.8 634.1,619.7 632.5,618.5 630.9,617.3 629,616.7 627.2,615.8 625.5,614.8 623.5,614.3 621.6,613.7 
			619.7,613.2 617.7,612.8 615.7,612.3 613.7,612.2 611.7,611.9 609.7,611.6 607.7,611.6 605.7,611.5 603.7,611.6 601.7,611.8 
			599.8,612 597.8,612.4 595.8,612.8 593.9,613 591.9,613.2 590,613.6 588,613.9 586.1,614.5 584.2,615.1 582.3,615.6 580.5,616.4 
			578.6,617.1 576.6,617.6 574.9,618.4 573,619.1 571.1,619.8 569.4,620.7 567.5,621.4 565.8,622.4 563.9,623.1 562.1,624 
			560.3,624.8 558.7,625.8 556.8,626.6 555.1,627.6 553.4,628.7 551.8,629.9 550,630.8 548.3,631.7 546.7,632.9 544.8,633.7 
			543.4,635.1 541.5,636 540,637.2 538.4,638.2 536.8,639.4 535.1,640.4 533.5,641.6 532,643.1 530.3,644 528.8,645.2 527.4,646.7 
			526.5,648.7 527.9,650.5 529.6,651.4 531.2,652.6 533,653.5 534.7,654.5 536.4,655.5 538.2,656.3 539.9,657.5 541.5,658.5 
			543.3,659.5 544.9,660.6 546.8,661.2 548.3,662.5 550.2,663.3 551.9,664.3 553.6,665.3 555.4,666.3 557.1,667.2 558.7,668.3 
			560.6,669.2 562.3,670.2 564,671.1 565.8,672 		"/>
		<polygon class="st0" points="583.8,720.9 585.6,721.8 587.4,722.4 589.1,723.5 591,724.1 592.8,724.8 594.6,725.6 596.5,726.1 
			598.3,726.8 600.2,727.4 602.1,727.8 603.9,728.3 605.8,728.7 607.8,728.9 609.7,729.5 611.7,729.7 613.6,729.7 615.6,729.7 
			617.5,729.9 619.4,730 621.4,729.9 623.3,729.8 625.3,729.5 627.2,729.2 629.2,729.1 631.1,728.8 633,728.1 634.9,727.7 
			636.8,727.1 638.7,726.8 640.5,726.1 642.4,725.3 644.1,724.5 645.9,723.7 647.8,723.1 649.4,721.8 651.2,720.9 652.6,719.5 
			654.3,718.5 655.8,717.1 657.2,715.7 658.3,714.1 659.6,712.6 660.6,710.9 661.8,709.3 662.7,707.5 663.5,705.7 664.2,703.7 
			665,701.8 665.2,699.8 665.5,697.8 665.9,695.9 665.6,694 665.1,692.1 664.9,690.1 664.2,688.3 663.6,686.4 662.7,684.6 
			661.9,682.9 661.2,681 659.9,679.6 658.9,677.8 657.7,676.3 656.5,674.7 654.9,673.5 653.5,672.3 651.9,671.1 650.4,669.8 
			648.8,668.7 646.8,668.1 645.2,667.2 643.4,666.3 641.6,665.7 639.6,665.2 637.7,664.7 635.7,664.7 633.8,664.3 631.9,663.8 
			629.9,663.8 628,663.9 626,663.5 624,663.6 622.1,663.8 620.1,663.9 618.1,664.3 616.2,664.5 614.2,664.8 612.3,665.3 
			610.4,665.6 608.5,666.2 606.5,666.7 604.6,667.1 602.8,667.9 601,668.4 599,668.9 597.1,669.5 595.2,670 593.4,671 591.7,671.8 
			589.8,672.4 587.9,673 586.1,673.8 584.3,674.6 582.6,675.6 580.8,676.4 579,677.4 577.3,678.2 575.5,679.1 573.8,680.2 
			572,680.9 570.3,682 568.6,682.8 566.9,683.9 565.3,685.1 563.5,686 561.9,687.1 560.1,687.9 558.6,689.2 556.9,690.2 
			555.1,691.2 553.7,692.6 552,693.6 550.5,694.8 548.7,695.7 547.2,697 545.5,698.2 547.2,699.4 549.1,700.2 550.7,701.5 
			552.5,702.4 554.3,703.4 556,704.3 557.7,705.5 559.3,706.8 561.2,707.5 563,708.5 564.6,709.9 566.4,710.6 568,712 569.9,712.7 
			571.6,713.9 573.3,715 575,716 576.7,717.1 578.5,718.1 580.3,719 582.2,719.8 		"/>
		<polygon class="st0" points="711.8,665.6 710.6,667.9 709.4,670 708.1,672.3 706.6,674.2 705.4,676.5 704.1,678.7 702.4,680.6 
			700.8,682.5 699.4,684.7 697.7,686.5 695.9,688.3 694.2,690.1 692.2,691.7 690.4,693.5 688.4,695 686.4,696.6 684.2,697.9 
			682,699.2 679.8,700.3 677.4,701.3 675.1,702.2 672.7,703.2 670.4,704.1 668,705 665.5,705.5 662.9,705.9 660.3,705.8 
			657.7,705.6 655.1,705.5 652.6,704.7 650.3,703.7 647.8,702.9 645.6,701.5 643.4,699.8 641.4,698.1 639.6,696 638,693.9 
			636.4,691.7 635.3,689.5 634.8,687 634.3,684.6 633.8,682.2 633.7,679.7 633.6,677.2 633.4,674.8 633.7,672.3 634,669.8 
			634,667.4 634.5,664.9 635.1,662.5 635.9,660.2 637,657.9 638.1,655.7 639.3,653.6 640.5,651.4 641.9,649.4 643.3,647.4 
			644.9,645.5 646.7,643.7 648.3,641.7 650.1,640.1 652.2,638.8 654.1,637.3 656.3,636 658.2,634.3 660.5,633.3 662.8,632.2 
			664.9,630.8 667.2,629.8 669.5,628.8 671.9,628 674.3,627.3 676.7,626.6 679.1,625.9 681.5,625 683.9,624.5 686.4,624.1 
			688.9,623.6 691.3,623.2 693.8,622.5 696.2,622.2 698.8,622.2 701.3,621.6 703.8,621.8 706.3,621.4 708.8,621.1 711.3,621.1 
			713.8,621.2 716.3,620.8 718.9,621.1 721.3,621.2 723.8,621.1 726.3,621.2 728.9,621.2 731.3,621.6 730.2,623.9 729.2,626.2 
			728.2,628.5 727.3,630.9 726.4,633.3 725.2,635.5 724.4,637.9 723.4,640.2 722.4,642.6 721.1,644.8 720.2,647.2 719,649.4 
			718.1,651.8 716.9,654.1 716.1,656.5 715.1,658.8 713.9,661.1 712.7,663.3 		"/>
		<polygon class="st0" points="613.7,728.7 614.9,727.2 616.3,725.7 617.3,724 618.8,722.7 619.9,721.1 621.1,719.5 622.5,718.1 
			624.1,716.9 625.3,715.3 626.9,714.2 628.5,712.9 630,711.7 631.6,710.5 633.1,709.2 634.9,708.4 636.7,707.5 638.4,706.5 
			640.1,705.7 641.9,704.7 643.7,703.9 645.6,703.4 647.4,702.6 649.3,702 651.2,701.5 653.2,701.4 655.2,700.9 657.2,700.7 
			659.1,700.4 661,700.6 663,700.3 665,700.5 666.9,701 668.7,701.5 670.7,702.1 672.4,702.8 674.3,703.5 676,704.5 677.7,705.5 
			679.1,706.9 680.7,708.1 681.9,709.7 683.5,710.9 684.5,712.5 685.6,714.1 686.3,714.9 686.6,715.4 687,717.3 687.4,719.3 
			687.6,721.3 687.9,723.2 688,725.2 687.8,727.2 687.9,729.2 687.5,731.1 687.4,733.1 686.7,734.9 686.2,736.8 685.7,738.8 
			684.7,740.5 684,742.4 682.9,744 681.7,745.6 680.8,747.5 679.5,748.9 677.9,750.2 676.7,751.7 675.2,753.1 673.6,754.3 
			672,755.4 670.3,756.4 668.7,757.6 666.9,758.5 665.1,759.2 663.3,760.1 661.5,760.8 659.6,761.6 657.8,762.4 655.9,763.1 
			654,763.7 652.1,764.3 650.2,764.7 648.2,765 646.2,765.4 644.2,765.5 642.3,765.9 640.3,766.3 638.3,766.4 636.4,766.7 
			634.4,767 632.4,766.9 630.4,767.1 628.4,767.1 626.4,767.1 624.4,767.2 622.4,767.1 620.4,767.1 618.4,767 616.4,766.8 
			614.4,766.7 612.4,766.7 610.4,766.3 608.4,766.1 606.4,766 604.4,766 602.5,765.6 600.5,765.2 598.5,765.1 596.6,764.5 
			594.6,764.5 593.4,763.1 593.4,761.2 594.6,759.5 595.6,757.8 596.8,756.1 597.8,754.4 598.6,752.5 599.8,750.9 601,749.2 
			601.7,747.4 603,745.8 604,744 605,742.3 606.2,740.7 607.3,739 608.3,737.2 609.4,735.6 610.3,733.7 611.6,732.1 612.6,730.5 		
			"/>
		<polygon class="st0" points="717.6,717.2 716,717.9 714.7,718.9 713.1,719.6 711.6,720.2 710,720.8 708.4,721.2 706.8,721.7 
			705.3,722.1 703.7,722.8 702,723.1 700.4,723.2 698.7,723.5 697.1,723.7 695.4,724 693.7,724.1 692.1,723.8 690.4,724 
			688.8,723.6 687.1,723.6 685.4,723.5 683.8,723.1 682.2,722.6 680.5,722.5 679,721.8 677.4,721.3 675.8,720.8 674.2,720.3 
			672.6,719.6 671.2,718.6 669.9,717.7 668.5,716.8 667.2,715.7 665.9,714.7 664.7,713.5 663.9,712.1 662.7,710.9 661.7,709.4 
			660.9,708 660.4,706.4 659.8,704.9 659.4,703.2 659,701.5 658.8,699.9 658.8,698.3 659.1,696.6 659.7,695 660.3,693.4 
			660.8,691.9 661.5,690.4 662.2,688.8 663.1,687.4 664.1,686.1 665.4,684.9 666.5,683.7 667.9,682.7 669,681.5 670.5,680.8 
			672,680 673.4,679.1 675,678.5 676.7,678 678.2,677.6 679.9,677.2 681.5,676.9 683.2,676.7 684.9,676.8 686.6,676.6 688.2,676.6 
			689.9,676.6 691.6,676.9 693.3,677.1 694.9,677.2 696.5,677.6 698.2,677.8 699.8,678.2 701.5,678.8 703.2,678.9 704.8,679.5 
			706.4,680.2 708,680.6 709.6,681.1 711.2,681.8 712.7,682.4 714.2,683.1 715.9,683.7 717.3,684.4 718.8,685.2 720.3,686 
			721.8,686.7 723.4,687.5 724.8,688.2 726.3,689 727.9,689.8 729.4,690.5 730.9,691.3 732.3,692.3 733.6,693.2 735,694.2 
			736.5,695.1 737.9,695.9 739.3,696.9 740.8,697.7 742.2,698.7 743.4,699.8 744.9,700.8 743.4,701.7 742,702.5 740.6,703.5 
			739.2,704.3 737.7,705.3 736.3,706.1 734.8,706.9 733.4,707.8 732,708.7 730.5,709.4 729.1,710.4 727.7,711.3 726.4,712.4 
			724.9,713.2 723.4,713.9 722,714.9 720.5,715.5 719.2,716.6 		"/>
		<polygon class="st0" points="662.9,764.3 662.7,762.4 662.7,760.4 662.7,758.4 662.9,756.4 663.3,754.5 663.3,752.5 663.8,750.6 
			664.6,748.8 665.2,746.9 666,745.2 666.6,743.2 667.7,741.6 668.7,740 669.5,738.1 670.7,736.5 671.9,735 673.3,733.5 
			674.7,732.2 676.2,730.9 677.7,729.7 679.1,728.2 681,727.4 682.8,726.7 684.7,726 686.6,725.3 688.4,724.7 690.4,724.5 
			692.4,724.7 694.4,724.5 696.3,725 697,724.9 697.4,724.9 699,726 700.5,727.3 702.2,728.2 703.3,729.9 704.5,731.4 705.6,732.9 
			706.5,734.7 707.3,736.4 707.4,738.4 707.5,740.3 707.6,742.2 707.4,744.1 707.2,746 706.8,748 705.9,749.7 705.5,751.6 
			704.6,753.4 703.8,755.2 702.6,756.7 701.6,758.4 700.3,760 699.3,761.7 697.8,763.2 696.8,764.8 695.4,766.3 694,767.7 
			692.5,769.1 691.1,770.5 689.7,771.9 688.3,773.3 686.8,774.7 685.3,775.9 683.5,777 682.1,778.3 680.3,779.4 679,780.9 
			677.1,781.9 675.5,783 673.9,784.3 672.3,785.4 670.6,786.4 668.9,787.5 667.2,788.5 665.1,787.6 664.9,785.7 664.9,783.8 
			664.4,781.9 664.3,779.9 663.9,777.9 663.9,776 663.6,774 663.2,772.1 663.2,770.2 662.7,768.3 662.7,766.3 		"/>
		<polygon class="st0" points="730.6,723.3 728.8,722.6 727.1,721.7 725.3,720.9 723.3,720.6 721.4,720.1 719.5,719.7 717.6,719.3 
			715.7,718.9 713.8,718.8 711.8,718.8 709.8,718.9 707.9,719.2 706,719.7 704.1,720.1 702.2,720.5 700.4,721.5 698.6,722.2 
			696.8,722.9 695.2,724 693.7,725.1 692.5,726.7 691.1,728.1 689.9,729.6 689.3,731.3 688.6,733 688.1,734.7 687.6,736.5 
			687.7,738.4 688.2,740.3 688.7,742.1 689.9,743.8 690.7,745.5 691.9,747.1 693.2,748.4 694.8,749.6 696.6,750.4 698.3,751.2 
			700.1,752.2 702,752.3 703.8,752.9 705.8,752.8 707.8,752.7 709.7,752.8 711.8,752.8 713.7,752 715.8,752 717.7,751.6 
			719.6,750.9 721.5,750.2 723.3,749.4 725.3,748.9 727.3,748.3 729.1,747.4 730.9,746.5 732.7,745.6 734.5,744.5 736.4,743.8 
			738,742.6 739.7,741.6 741.5,740.4 743.3,739.6 744.9,738.4 746.7,737.5 748.3,736.1 750.1,734.9 748.1,734 746.4,732.9 
			744.7,731.7 743,730.6 741.2,729.7 739.5,728.5 737.7,727.6 735.8,726.6 734.1,725.5 732.5,724.3 		"/>
	</g>
</g>
<g id="Untouched_Font" class="st1">
	<text transform="matrix(1 0 0 1 256.7145 583.4685)" class="st2 st3 st4">The</text>
	<text transform="matrix(1 0 0 1 1155.3009 583.4685)" class="st2 st3 st4">Cottage</text>
	<text transform="matrix(1 0 0 1 703.3421 583.469)" class="st2 st3 st4">DIY</text>
</g>
</svg>
