<?xml version="1.0" encoding="utf-8"?>
<!-- Generator: Adobe Illustrator 21.1.0, SVG Export Plug-In . SVG Version: 6.00 Build 0)  -->
<svg version="1.1" xmlns="http://www.w3.org/2000/svg" xmlns:xlink="http://www.w3.org/1999/xlink" x="0px" y="0px"
	 viewBox="0 0 1920 1080" style="enable-background:new 0 0 1920 1080;" xml:space="preserve">
<style type="text/css">
	.st0{fill:#FFFFFF;stroke:#000000;stroke-width:8;stroke-miterlimit:10;}
	.st1{display:none;}
	.st2{display:inline;}
	.st3{font-family:'bromello';}
	.st4{font-size:240.0187px;}
</style>
<g id="Layer_1">
	<title>DIY Life - Blog Logo</title>
	<g>
		<g>
			<path d="M868.8,202.8c1,4.1,1.9,8.2,2.4,12.2c0.7,4.3,0.7,8.6,1,13c0.2,1.7,0.5,3.4,0.7,5c0.5,4.8,1.2,9.6,1.7,14.4
				c0.7,8.2,1.9,16.6,1.4,25c-0.2,2.2,0.2,4.3,0.2,6.7c0,0.2,0.2,0.5,0,0.7c-1.2,3.4-0.2,6.7,0,9.8c0.2,1.2,0,2.2,0,3.4
				c-0.7,4.3-0.7,8.4-0.5,12.7c0.2,1.4,0,2.9-0.2,4.1c-1.9,5.8-2.9,11.5-3.6,17.5c-0.5,4.1,0,8.4-1.7,12.5c-0.7,1.9-0.5,4.3-0.5,6.5
				c-0.2,1.7-0.2,3.4-0.5,5c-0.2,2.9-0.5,5.8-0.7,8.6c0,3.1,0,6-0.2,8.9c-0.2,1.9-0.7,3.8-1,5.8c-0.5,2.9-1,5.8-1.4,8.4
				c0,1,0,1.9-0.2,2.6c0,1-0.2,1.9-0.5,2.9c-0.2,0.7-0.5,1.7-0.7,2.4c-0.2,1.2-0.5,2.4-1.2,2.9c-1.4,1.2-1.2,2.2,0,3.1
				c0.2,0.2,0.2,0.7,0.7,1.2c-1.7-0.2-3.4-0.7-4.6-0.2c-1.4,0.5-2.4,1.7-3.6,2.6c-3.8-1.4-5.5-4.6-6-8.2c-0.7-7.2-1.4-14.2-1.9-21.4
				c-0.2-7-0.2-13.7-0.5-20.4c0-4.3-0.5-8.6-0.5-13c0-5.8,0.5-11.5,0.2-17.3c0-4.8-0.5-9.6-1-14.6c-0.2-3.8-0.7-7.7-1-11.8
				c-0.2-7-0.7-14.2-0.7-21.1c0-4.3,0.2-8.4,0.5-12.5c0.2-9.8,0.5-19.4,0.5-29.3c0.2-7,0.7-13.9,1.9-20.9c1-5.5,1.7-11.3,2.6-17
				c-2.6-0.2-5.3-0.7-7.9-1c-5.8-0.5-11.5-1-17.5-1.2c-2.9,0-5.8,0.5-8.6,0.2c-4.3-0.2-8.4-1.7-12-3.8c-0.5-0.2-1-0.7-1.4-1.2
				c1.2-1.9,3.1-2.2,4.8-2.2c3.6-0.5,7.4-1,11-1.2c8.9-0.7,18-1.7,27.1-2.2c7.2-0.2,14.4,0.2,21.8,0.2c4.1-0.2,8.2,0,12.2-0.5
				c9.4-0.7,18.5-0.7,27.8-0.2c1.7,0.2,3.1,0.5,4.3,1.7c0.5,0.7,1.4,0.7,2.4,1.2c-1.4,1.9-3.6,2.2-5.5,2.6c-0.2,0.5-0.5,1.2-0.7,1.7
				c-0.7,1.9-2.2,2.9-4.3,2.9c-4.8-0.5-9.6,0.5-14.6,1c-3.1,0.2-6.2,1-9.4,1.2c-3.1,0.2-6.5,0.5-9.6,0.5c-1.4,0.2-2.6,0.2-4.3,0.5
				C866.9,197,868.1,199.9,868.8,202.8z"/>
			<path d="M936.3,305c-0.7,2.2-1.7,4.3-3.8,5.5c-0.2,0.2-0.7,0.7-0.7,1.2c-1.2,3.1-3.4,5.8-4.3,9.1c-0.2,1-1.2,1.9-1.9,2.9
				c-1.2,2.2-2.6,4.1-2.6,7c0,0.5-0.2,0.7-0.5,1.2c-1.7,4.1-2.2,8.6-2.4,13c0,2.6-0.7,5-1.4,7.4c-0.7,1.9-1,3.8-0.2,5.8
				c0.2,1.2,0,2.4-0.2,3.6c-1.2,3.4-2.4,6.5-3.1,9.6c-0.5,1.9-1.4,3.6-2.4,5.5c0,0.2-0.7,0.5-1,0.7c-1.9,0-3.4-1.4-5-1.7
				c-0.5,0.5-1,1.2-1.4,1.9c-1,0-1.4-0.5-1.9-1c-1-1.2-2.2-1.2-3.4-1c-0.2,0-0.5,0.2-0.7,0.2c-1.4,0.2-1.9,0-2.4-1.4
				c0-0.2-0.2-0.5-0.2-0.7c0.2-2.4-1-4.3-1.4-6.7c-0.7-2.6-1-5.5-1.2-8.2c-0.2-3.6,0-7.2-0.5-10.6c0-0.2,0-0.2,0-0.2
				c0-5-0.5-9.8-0.7-14.6c-0.2-2.4,0.2-4.8,0.5-7c0-1.9,0.2-3.6,0.2-5.5c0-3.4,0-6.7,0.5-9.8c0.2-2.9,0.2-5.5,0-8.2
				c-0.2-4.3,0-8.6,0.7-13c0.5-2.4,0.7-4.8,1.2-7.2c0.7-4.6,1.4-9.4,2.2-13.9c1-4.6,1.4-9.1,2.4-13.7c0-1.2,0.2-2.4,0.7-3.6
				c1-4.3,2.2-8.6,3.4-12.7c0-0.2,0.2-0.7,0.2-1c1.9-6.2,3.8-12.5,5.8-18.7c1.7-5,3.6-10.1,5.5-14.9c1-2.6,2.2-5,3.4-7.4
				c0.7-2.2,1.9-4.1,3.1-5.8c1-1.7,1.9-3.4,2.6-5.3c1.2-2.6,2.4-5.3,4.8-7.2c1.4-1.2,2.4-2.9,3.4-4.8c1-1.9,2.2-3.6,4.1-5
				c5.3-4.1,11.5-6,18.2-6.5c1.4,0,2.9-0.2,4.3-0.2c2.6-0.2,5.5,0.2,8.2,1c4.8,1,9.4,2.4,13.4,4.8c2.6,1.4,4.6,3.6,6.5,6.2
				c1.4,2.2,2.4,4.6,3.1,7.2c0.2,0.7,0.5,1.2,0.7,1.9c0.5,1.2,1,2.6,1,4.1c0,1,0.2,1.7,0.2,2.6c0.2,1.2,0.5,2.4,0.2,3.6
				c-0.7,4.1-0.5,8.2-1,12c-0.5,4.6-1.4,8.9-2.4,13c-3.6,13.7-14.6,24.5-22.8,35.3c-3.8,5-7,9.1-11.8,13c-4.6,3.4-9.4,6.7-13.9,10.3
				c-7.9,6.2-14.6,12.7-24.7,15.4c-3.8,1-3.4,1-4.1,4.6c-0.5,1.9-0.7,3.6-0.7,5.5c-0.2,1.9,0,3.6,0,5.3c0.2,1.4,0,2.6,0,3.8
				c-0.2,1.4-0.2,3.1-0.5,4.6c-0.7,3.1-0.5,6.2-0.5,9.4c-0.2,2.2-0.5,4.3-0.2,6.5c0.2,0.5,0.2,0.7,0.5,1.4c0.5-0.7,0.7-1.2,1-1.7
				c1.9-5,5-9.8,7.4-14.9c1.2-2.4,2.9-4.3,4.3-6.7c1-1.4,2.2-3.1,3.4-4.8c1-1,1.9-2.2,2.9-3.1c2.6-2.6,5.8-4.8,8.9-6.7
				c2.9-1.7,6.2-2.4,9.6-1.9c1.7,0,2.6,1,3.6,2.2c0.5,1,1.2,1.9,1.9,2.9c1,1,1.4,2.2,1.7,3.6c1.9,8.2,5,15.1,5,24
				c-0.2,14.2-4.6,28.3-3.6,42.7c0.5,4.1,0.7,8.2,1,12.2c0,1.4-0.2,2.6-0.2,3.8c0,2.9,1,5.3,2.6,7.7c0.5,0.7,1.2,1,2.2,1
				c2.2,0,3.8-1,5.5-2.2c1.2-1,2.4-2.2,3.4-3.4c1.7-2.4,3.4-4.8,4.8-7.2c3.8-6.2,7-13,9.8-19.7c0.5-0.7,0.7-1.7,1-2.4
				c0.2-0.7,0.5-1.7,0.7-2.4c2.4-5,3.6-10.3,6-15.4c0.5-1.2,1-2.4,1.2-3.6c0.7-2.6,1.9-4.8,2.9-7.2c2.4-5,4.6-10.6,5.8-16.1
				c1-4.3,2.2-8.9,3.4-13.2c0.7-1.9,1.7-3.8,2.6-5.8c0.7-1.4,1.7-2.6,2.6-4.1s2.2-2.2,4.1-1.9c1,1.4,0.5,3.1,0,4.6
				c-0.2,1.4-1,2.9-1.4,4.3c-0.5,0.7-0.7,1.4-0.5,2.4c0.2,0.7,0,1.4-0.2,1.9c-0.7,2.6-1.4,5.3-2.2,8.2c-0.5,1.4-1,2.9-1.7,4.6
				c-2.9,7.2-4.8,14.2-6,22.1c-1.9,11.5-7.2,22.1-12.5,32.4c-4.3,8.2-8.2,19.4-16.3,24.5c-2.9,1.7-5.5,3.4-8.6,4.1
				c-0.7,0.2-1.2,0.7-1.9,1c-1.2,0.5-2.4,1-3.8,0.7c-0.7,0-1.2,0.2-1.9,0.2c-5.5,1.4-11.8-1.9-14.6-7c-1.4-2.6-2.6-5.3-3.4-8.4
				c-1.2-7.7-0.7-15.4-1.7-23.3c-0.2-4.3,0-9.4,0-13.7c0.7-12.5,3.4-24,4.1-36.5c0-3.4,0.5-7,0.2-10.6c0-0.7,0-1.4-0.7-1.9
				C940.6,300,937.2,302.6,936.3,305z M910.6,334.8v-0.2V334.8z M916.1,288c2.9-1.9,6-3.8,8.6-5.8c4.1-3.1,7.9-6.2,11.8-9.1
				c5.5-4.3,10.1-9.1,14.6-14.2c0.7-1,1.7-1.9,2.4-2.9c2.9-2.9,5.8-6,8.6-8.9c0.7-0.7,1.2-1.4,1.9-2.2c2.2-2.4,3.8-5.3,5.5-8.2
				c3.6-5.8,6.7-11.8,9.4-18c0.7-1.9,1.2-3.6,1.9-5.5c0.2-1.4,0.5-3.1,0.7-4.6c0.5-2.6,0.7-5.3,1-7.7c0-1.9,0-3.8,0.2-5.8
				c0.2-1,0.2-2.2,0-3.1c-0.2-0.7-0.5-1.2-0.2-1.9c0-2.2-0.5-4.1-1.4-6c-0.2-0.5-0.5-1-0.5-1.4c-0.2-1.9-1.2-3.6-2.4-5.3
				c-0.7-1.2-1.4-2.4-1.9-3.8c-0.5-1.7-1.4-2.6-2.9-3.6c-1-0.5-1.9-0.7-2.6-1.4c-1.9-1.2-4.1-1.2-6-0.7c-2.9,0.7-5.5,2.2-7.9,3.6
				c-0.7,0.7-1.4,1.4-2.2,2.2c-1,1.2-1.9,2.6-2.9,3.8c-0.7,1-1.4,1.9-1.4,3.4c0,0.5-0.2,1-0.5,1.2c-1.9,3.1-3.1,6.2-4.6,9.6
				c-0.2,0.7-0.7,1.2-0.7,2.2c0,0.5-0.5,1.2-0.7,1.7c-0.7,1-1,1.9-1.2,2.9c-0.5,3.1-1.4,5.8-3.1,8.4c-0.5,1-0.7,1.9-1.2,2.6
				c-1,2.9-1.9,6-2.9,8.6c-1.2,2.6-1.7,5.5-2.6,8.2c-1,1.7-1.2,3.8-1.9,5.8c-1.2,3.6-2.6,7.2-3.8,10.6c-0.5,1.4-1,2.6-1.2,4.1
				c-0.5,4.1-2.2,7.7-4.1,11.3c-0.7,1.4-1.4,3.1-1.7,4.8c-0.5,2.4-1,4.8-1.7,7.4c-0.2,1.2-0.7,2.4-1,3.8c-0.5,2.2-0.5,4.3-1.7,6.2
				c-0.2,0.2-0.2,0.7-0.2,1c0,1.4-0.2,2.9-1.2,4.1c-0.5,1-0.7,1.9-0.2,3.4C914.9,288.4,915.6,288.2,916.1,288z"/>
			<path d="M1084.4,291.8c-0.2,0.7-0.5,1.4-1,1.9c-1.9,2.4-3.4,5-4.6,7.9c-0.2,0.2-0.5,0.7-0.5,1c0,2.9-2.2,4.8-2.9,7.2
				c-1.4,1.7-2.2,4.1-3.6,6c-7.2,8.9-10.8,19.9-20.6,26.9c-7.4,5.5-15.1,13-25.2,12.2c-3.6-0.2-7-1.7-10.6-2.6c-0.2,0-0.5-0.2-1-0.5
				c-2.9-1.9-5.5-3.8-7.7-6.7c-3.1-4.6-4.6-9.6-4.8-14.9c-0.2-6.2-0.2-12.2,0.5-18.5c0.5-3.8,1-7.9,1.2-11.8c0-1,0.2-1.7,0.5-2.6
				c1-3.8,1.7-7.7,2.4-11.8c1.2-5,3.1-9.6,5-14.4c0.2-0.7,0.7-1.4,1-1.9c1.4-1.4,2.2-3.1,2.9-4.8c0-0.2,0.2-0.5,0.2-0.7
				c1-3.4,3.4-6.2,6-8.6c0.5-0.5,1.2-1,1.7-1.2c4.1-2.2,8.2-3.8,12.7-4.6c2.6-0.5,5-1.2,7.7-0.7c1.4,0,2.9,0.2,4.1,0.5
				c0.5,0,1,0.2,1.4,0.2c15.6,0.5,8.6,28.8,0.5,35c-1.2,0.7-2.6,1.4-3.6,2.6c-0.2,0.5-0.7,0.7-1.2,0.7c-1.2,0.7-2.4,1.4-3.8,1.9
				c-2.9,1-5.5,2.2-8.2,2.6c-4.3,0.7-4.1,0.5-5,4.1c-0.2,1.2-0.5,2.2-0.5,3.1c0.2,12.2-6.7,31.7,0.7,42.2c1.2,1.7,2.9,2.9,4.8,3.6
				c1,0.7,1.9,0.5,3.1,0.2c2.2-0.7,4.3-1.7,6.2-3.1c2.9-1.9,5.5-3.8,8.2-5.8c1.2-1,2.2-1.9,3.1-3.1c2.9-3.8,5.8-7.4,7.9-11.8
				c0.5-1,1.2-1.7,1.7-2.4c3.8-4.6,6.5-9.8,9.6-14.6c0.5-0.7,1-1.4,1.2-2.2c1.7-3.8,3.8-7.2,6.2-10.6c0.5-1,1.2-1.9,2.6-1.9
				C1083.2,290.6,1083.6,291.1,1084.4,291.8z M1051.2,258.2c0-0.5-0.2-1-0.7-1.2c-2.4-2.4-5-3.8-8.6-3.4c-2.6,0.5-4.6,1.7-5.5,4.3
				c-1,2.6-2.4,5.3-2.6,8.4c0,0.7-0.2,1.7-0.7,2.4c-1.2,2.6-1.4,5.5-1.9,8.2c-0.2,2.2-0.5,4.1-1.2,6c-0.5,1.4-1,2.6-0.5,4.1
				c4.1-0.5,7.7-1.4,11.3-3.1c2.4-1.2,4.3-2.6,5.8-4.8c2.2-2.9,3.8-5.8,5.8-8.9c0.2-0.5,0.7-1.2,0.2-1.9c-0.2-1.2,0-2.2,0.5-3.4
				c0.2-0.7,0.5-1.7,0.7-2.4C1052.4,261.1,1051.7,259.6,1051.2,258.2z"/>
		</g>
	</g>
	<g>
		<g>
			<path d="M949.7,422.4c7.9-4.6,16.6-6.7,25.2-8.9c7-1.9,13.9-2.6,21.1-2.4c10.3,0.7,20.6,1.2,30.2,5.8c2.9,1.4,5.5,3.1,8.4,4.6
				c1.2,0.7,2.4,1.7,3.8,2.2c6,2.2,13,8.9,17.3,13.2c4.8,4.8,8.6,10.6,11.5,16.8c6,12.5,9.4,26.6,9.6,40.3c0,7.9-0.7,16.1-2.2,23.8
				c-7.2,38.9-34.8,74.6-73.9,85.9c-28.8,8.4-61.7-5.5-69.4-35.8c-1.4-6.2-1.4-12.2-0.5-18.5c0.2-2.6,1-5,1.4-7.7
				c1.4-5.3,4.6-9.4,9.8-12c0.7,0.5,1.7,1,2.6,1.4c-1,1.4-1.7,2.6-2.6,3.6c-2.4,2.4-2.9,5.5-3.1,8.4c-0.2,1.4-0.5,3.1-0.2,4.6
				c0,9.4,2.9,19.2,7.7,27.4c6,9.8,18.5,13.4,29,15.1c12,1.9,21.1-6.2,29.8-13c22.1-16.6,39.4-33.4,42.7-61.9
				c1.2-10.6,1.9-21.1,2.2-31.9c0-7-1-13.4-3.6-19.9c-2.4-6.2-4.6-12.5-7.9-18.5c-2.9-4.8-6.5-8.9-11-12.2c-5.8-4.3-12-8.2-19-10.8
				c-5-1.9-10.3-2.9-15.8-2.9c-0.5,0-1,0.2-1.4,0.2c-0.2,0-0.2,0.2-0.7,0.5c0.5,1.7,1,3.1,1.7,4.8c1.9,4.8,3.6,9.6,3.8,14.9
				c0.5,7.2,1,14.4,0.5,21.6c-0.5,6.5-2.2,12.7-2.6,19c-0.5,6.7-1.4,13.2-2.9,19.7c-1.9,8.6-3.6,17.5-4.8,26.2
				c-1.2,7.9-0.7,16.1-1.9,23.8c-0.5,4.1-0.7,7.9-0.2,11.8c0.2,4.6-0.5,8.6-1.7,13c0,0,0,0.5-0.2,0.5c-3.1,2.9-2.6,9.1-5.8,12
				c-5.8,5.3-9.1-8.9-9.8-12.7c-1.7-8.6-2.4-17.5-2.4-26.4c0-11,0.2-22.1,0.7-33.4c0.2-11.3,0.7-22.6,1.4-33.8
				c0.7-12.2,1.7-24.5,2.6-36.7c0.5-6.7,1.4-13.2,1.9-19.9c0.2-0.5,0-0.7,0-1.7c-2.2,0.5-4.1,0.5-5.8,1.2c-3.6,1.2-7,2.6-10.1,4.1
				c-0.5,0.2-1,0.7-1.4,0.7c-4.3,1.4-7.4,4.6-10.8,7.4c-0.5,0.5-1.2,1-1.7,0.7c-2.4-0.2-4.3-1.2-5.8-3.6
				C940.1,428.8,944.7,425.2,949.7,422.4z"/>
			<path d="M1147.5,585.6c-1.4,0.7-2.2,1.2-3.1,1.7c-3.8,1.2-8.2,2.2-12.2,2.2c-4.8,0-9.8,1-14.4,0.7c-4.1-0.2-8.2,0.5-12.2,1.4
				c-1.9,0.2-4.3,0.2-6.5,0.5c-1,0-2.4,0.2-2.9-1.7c5-3.6,10.8-4.3,16.8-5c-0.5-2.9-0.5-5.5-0.5-8.2c-1.2-12.5-2.4-25-3.4-37.2
				c-0.5-5.3-1-10.6-1.4-15.8c-0.2-8.2-0.7-16.6-0.7-24.7c0.2-9.1,0.2-18,1.4-26.9c0.5-5,0.7-10.1,1.2-15.4
				c0.7-9.1,1.7-18.5,2.9-27.8c1.2-9.1,2.9-18.2,4.1-27.1c0-0.7,0.2-1.2,0.2-2.6c-1,0.2-1.9,0.2-2.6,0.7c-3.1,0.2-6.5,1-9.8,1.2
				c-1.2,0.2-2.4,0-2.9-1.4c0.7-1.4,2.4-1.7,3.6-1.7c3.4-1.2,6.7-1.9,9.8-2.6c6-1.2,12-2.2,18-3.1c4.6-0.7,8.6,1.2,12.5,3.1
				c-5.8,2.2-12.2,2.4-18.2,3.6c0.2,0.5,0,0.7,0,0.7c2.9,1.7,3.4,4.6,3.6,7.7c0.2,1.4,1,3.1,1.2,4.8c0.7,4.1,1.2,7.9,1.9,12.2
				c1.2,6.2,2.2,12.5,3.4,18.5c0,0.7,0.2,1.4,0.2,2.4c0,6.7,0.5,13.4,0.5,20.2c0,5.3-0.7,10.1-1.2,14.9c-0.2,4.6-0.7,8.6-1,12.7
				c-0.2,4.3-0.7,8.6-0.7,12.7c0,5,0.5,10.1,1,14.9c0,3.1,0,6.2-0.2,9.1c-0.5,5.8-1.2,11.5-1.7,17.3c-0.2,1.9-0.7,4.1-1,6
				c0,4.6,0.2,9.4-0.5,13.7c-0.7,3.8-0.5,7.7-2.9,10.8c-1.2,1.7-1.4,3.6-2.2,5.8C1134.6,583.9,1141,581.5,1147.5,585.6z"/>
			<path d="M1223.1,650.4c-5,11.3-9.6,23.5-19.4,31.7c-2.9,2.2-5.5,4.6-8.9,6c-2.4,1.2-5.5,2.9-8.2,3.6c-2.6,0.5-5.3,2.2-7.9,2.4
				c-7.2,1.2-13.7,1-19.4-3.8c-0.7-0.7-1.4-1.7-2.4-2.2c-2.4-1.9-3.8-4.8-5.5-7.2c-3.4-4.3-3.6-10.6-3.1-15.8
				c1.7-24,22.3-41.5,39.6-56.2c6.2-5,12.7-10.1,19-15.1c1-0.5,1.7-1.2,2.6-1.7c3.8-3.4,7.7-6.7,11.5-9.8c1.2-1,1.7-1.9,1.9-3.1
				c0.7-5.3,1.4-10.8,1.9-16.1c0.5-7.7,0.2-15.6,1.4-23.5c0.2-1.2,0.2-2.4-0.2-3.8c-0.7,1-1.2,2.2-1.9,3.1c-3.1,4.3-6,8.6-9.1,13
				c-3.6,5-7.2,10.1-11,14.9c-3.8,4.8-8.2,8.9-13.9,11.3c-5.5,2.4-11,3.4-17,2.9c-6-0.7-10.3-4.3-13.7-9.4
				c-6.5-10.1-6-21.8-6.7-33.4c-1.2-19.4-0.7-39.4-0.5-58.8c0.2-8.4,0.7-17,1.2-25.4c0.2-4.3,1.4-9.4,0.7-13.4
				c-1.7,0.7-3.6,1.9-5,3.1c-3.8,3.4-6.7,7.7-9.6,11.8c-1.7,2.4-2.9,4.6-3.6,7.4c-0.5,1.7-1.9,3.1-2.2,5.3c0,1.2-2.2,1.7-3.4,1
				c-0.7-0.5-1.4-1.2-2.2-1.7c-1.4-1.2-1.4-1.7-0.7-3.6c1.9-4.6,3.8-9.1,5.8-13.7c3.8-7.9,9.6-14.2,17.3-18.7
				c3.4-1.9,7.2-2.6,11-1.7c1.9,0.7,3.8,1.2,6,1.4c2.9,0.7,4.8,2.6,6,5.3c1.9,3.8,3.1,7.9,3.4,12.5c0,3.4,1,7,1,10.6
				c1,18.7-1.2,37.2-1,55.9c0.2,14.9,1.4,30,2.6,44.9c0,0.7,0.5,1.4,0.7,2.2c0.5,1,1.2,1.9,1.7,3.1c1.2,2.6,3.1,3.4,5.8,2.4
				c3.8-1.4,7.2-4.1,9.8-7.2c7.9-8.9,14.6-18.2,20.9-28.1c2.6-4.1,5.3-8.4,7.9-12.5c1-1.2,1.4-2.6,1.7-4.1
				c0.7-7.9,1.7-15.6,2.4-23.3c0.5-6,0.7-12,1.2-18c1-9.1,1.2-18.2,4.1-26.9c0.7-2.4,1.4-4.8,2.4-7c0.7-1.7,1.2-1.9,3.1-1.4
				c3.1,1.2,5.5,3.4,7,6.2c1,1.7,1.7,3.6,1.9,5.5c0.2,1.9,2.2,3.6,2.2,5.5c1.7,25.7,8.9,44.4,3.4,67.4c-1.7,6.5-4.1,18.2-2.6,25
				c0.2,1.7,0.5,3.4-0.2,5c0,0.7,0,1.4,0,2.2c1.2,0,1.7-0.7,2.2-1.4c3.8-3.6,7.4-7.4,11.3-11.3c0.7-0.7,1.4-1.9,2.2-2.6
				c1.9-2.2,3.8-3.8,5.5-6c3.1-4.3,7.2-7.9,10.8-12c1-1.2,1.9-2.6,2.9-3.8c1.4-1.9,5-1.4,6,1c0.2,0.2,0,1-0.2,1.2
				c-0.5,1-1.2,1.9-1.9,2.4c-3.4,2.2-3.8,7-6,10.1c-2.4,4.1-6,7.2-8.9,11c-5.8,8.2-13.7,13.2-20.4,20.4c-0.5,0.2-0.5,1-0.7,1
				c-2.6,0.7-3.6,3.4-5.5,4.8c-0.2,0.2-0.5,0.7-0.5,1c0.2,1.9-1.2,3.1-1.9,4.8c-5,13.4-8.9,27.4-12.2,41.3
				c-2.6,10.6-6.5,20.4-11,30.5C1223.8,649.2,1223.6,649.7,1223.1,650.4z M1219.3,595.9c-0.7,0.7-1.4,1.4-2.4,2.2
				c-0.5,0.5-1.2,1-1.7,1.4c-1.4,1-2.6,1.9-4.1,2.9c-1.9,1.7-3.1,4.1-5.8,5c-0.5,0-0.7,0.5-1,0.7c-0.7,0.7-1.2,1.4-1.9,2.2
				c-1.7,1.9-37.2,24.2-40.8,47.5c0,0.7-0.2,1-0.5,1.4c-0.5,1.9-1,3.6-1.2,5.5c-0.2,1-0.2,2.2-0.5,3.1c-1,5,0,9.8,2.9,13.9
				c1.4,1.7,2.9,3.1,4.3,4.8c1.4,1.7,3.6,2.6,5.8,2.6c2.4-0.2,5-0.7,7.4-1c3.1-0.2,5.8-1.4,8.4-3.4c4.1-2.9,7.2-7,9.4-11.3
				c1.9-3.4,3.6-6.5,5.3-9.8c0.7-1.7,1.9-3.4,2.4-5c1.4-4.6,2.9-9.1,4.1-13.7c1-3.6,1.7-7.4,2.6-11c1.4-4.8,2.6-9.6,3.4-14.6
				c1.2-7,2.6-13.7,4.1-20.4c0.2-1,0.2-1.9,0.2-2.9C1219.5,595.9,1219.5,595.9,1219.3,595.9z M1224.6,644.9c-0.5,0.2-0.7,0.7-1.2,1
				c0.2,0,0.2,0.2,0.5,0.5c0.2-0.5,0.7-0.7,1-1C1224.8,645.1,1224.6,644.9,1224.6,644.9z"/>
		</g>
	</g>
	<g>
		<g>
			<path d="M885.9,699.1c-0.5-0.2-1-1-1.2-1.4c-0.5-1-1-1.9-1.7-3.4c2.9-5.5,3.8-12,4.8-18.5c0.5-4.3,0-8.6-1-12.7
				c-2.2-9.1-13.9-3.8-18.5,0.2c-3.4,3.1-5.5,7.4-7.7,11.5c-4.6,8.4-8.9,16.8-12.5,25.7c-2.6,6.5-5,13-7.9,19.4
				c-2.4,6-4.8,12.5-6.5,18.7c-3.4,13.4-7.9,26.4-10.1,40.3c-0.7,5-1.4,10.6-1.9,15.6c-0.5,7.4,0.7,14.4,0.5,21.6
				c0,6,3.6,11,9.6,12.2c7.4,1.2,14.9,0.5,21.8-2.6c6.2-2.6,10.8-7.4,15.8-11.5c7.7-6.2,13.9-13.7,20.6-20.9
				c6.2-6.5,12-13.2,16.3-21.1c4.3-7.4,8.6-14.6,13.2-22.1c0.2-0.7,0.7-1.4,1.4-1.9c2.4-1.4,5.5-2.2,8.6-2.6c-0.2,1-0.2,1.7-0.2,2.2
				c-0.2,0.5-1,1.2-0.7,1.7c0.7,2.9-1.2,5-2.4,7.2c-1.2,2.4-2.9,4.6-4.3,6.7c-6.7,9.8-11.8,21.4-19.4,30.5
				c-18.5,21.4-41,41.5-67.4,52.3c-6.7,2.6-13.4,3.4-20.4,2.2c-3.6-0.7-6.7-2.4-9.6-4.8c-7.2-5.5-10.3-13.2-11.8-21.8
				c-4.3-26.6,1.7-53,7.9-79c2.4-10.1,4.8-19.7,8.2-29.5c6.5-18.7,13.4-36.2,28.3-49.9c6.5-6,14.2-10.1,22.8-12.5
				c8.4-2.4,18.7-5,27.6-3.8c6.2,0.7,9.4,4.8,11,10.3c0.7,2.4,0.7,4.8,1,7c0.2,2.4,0.5,4.8,0.5,7.2c0,2.2-0.5,4.3-1,6.7
				c-1.2,4.8-1.7,9.6-4.6,13.9c-0.5,0.7-1,1.7-1.4,2.4c-1.2,1.9-2.4,3.6-4.1,5.8C888.8,700.1,887.3,699.6,885.9,699.1z"/>
			<path d="M949.2,717.1c-0.5,0.5-1,1-1.2,1.4c-0.5,1.2-1,2.2-2.2,2.9c-0.5,1.7-1.7,2.6-2.4,3.8c-1,1.9-1.9,4.1-2.4,6.5
				c-1.2,5-2.4,10.3-4.1,15.4c-1.2,3.4-1.9,7-2.9,10.3c-1,3.4-2.6,6.5-3.4,9.8c0,0.2-0.2,0.7-0.5,1.2c-1.9,2.6-2.2,5.8-1.9,8.9
				c0.2,3.4,0.5,6.7,1,10.1c0,1.2,0.7,2.2,1.7,2.9c1,1,2.2,1.9,3.1,2.9c1.2,1,2.4,1.2,3.6,0.7c4.1-1.4,8.2-2.4,11.5-5.3
				c1.7-1.2,3.8-2.4,5.5-3.8c1.2-0.7,1.9-1.7,2.9-2.6c1.9-1.9,3.6-3.8,5-6.2c0,0,0.2-0.2,0.2-0.5c0.5-1.7,1.2-2.9,2.2-4.1
				c0.2-0.5,0.2-1,0.5-1.7c-1.4-0.7-2.9-1.7-4.3-2.6c-4.1-2.6-7.7-5.8-10.6-9.6c-1.2-1.7-2.4-3.4-3.4-5c-3.1-6-3.4-12.2-1.9-18.5
				c0.7-3.8,2.6-7.2,4.1-10.6c0-0.2,0.2-0.5,0.2-0.5c1.9-0.7,2.9-2.9,5-3.1c1,0,1.9-0.2,2.9-0.5c3.4-0.5,5.8,1.2,8.6,2.6
				c3.6,1.9,7.7,3.6,9.6,7.4c1.7,3.1,2.6,5.8,2.6,9.4c0.2,1.4,0.5,2.6,0.7,3.8c0.7,2.9,0.7,6.5,0.5,9.4c-0.2,2.4-1.9,4.3-2.2,6.5
				c-0.5,1.7-0.5,3.1-1,5c0.7,0,1.2,0.5,1.7,0.5c1.4,0,3.1-0.2,4.8-0.5c9.6-1.4,18.7-7.2,25.7-13.9c0.5-0.5,1-1.2,1.2-1.7
				c0.5-0.5,0.7-1.2,1.2-1.4c1-0.2,1.9-0.5,2.6,0c1.2,0.5,2.2,1,2.9,1.9c-1.2,3.8-11.5,13-14.9,14.2c-4.3,1.4-8.2,4.3-12.5,6
				c-3.8,1.4-7.2,2.6-11.3,1.9c-1.7-0.5-3.4,0.2-5,0.5c-1.2,0.2-1.9,1.4-2.4,2.6c-1.2,2.2-2.2,4.6-3.1,7c-1.4,3.4-5,5.3-7,8.2
				c-1.4,1.9-3.1,4.3-5,5.5c-2.2,1.4-3.8,3.4-6,4.8c-2.9,1.7-5.5,3.8-9.1,3.6c-3.6-0.2-7.2-2.4-10.3-4.1
				c-6.2-3.6-13.2-9.1-16.6-15.6c-1.7-3.4-2.4-7.4-2.6-11.3c-0.5-4.3-0.7-8.6-0.5-13c0.5-4.1,1.4-8.2,2.6-12
				c1.9-5.8,4.3-11.3,7-16.6c0.7-1.7,1.7-3.1,3.1-4.6c1.4-1.7,3.1-3.6,4.6-5.5c1.4-1.7,3.4-2.6,5-3.8c2.6-1.9,5.3-3.4,8.2-5.3
				c1-0.7,2.2-1,3.6-0.7c2.4,0.2,4.6,1,6.7,2.4C951.4,714.5,950.4,715.9,949.2,717.1z M969.4,758.2c0-0.5,0-1,0.2-1.4
				c1.9-2.2,2.2-6.2,1.9-8.9c-0.2-3.6,0-8.4-1.9-11.8c-1.2-1.9-2.6-3.8-3.1-6.2v-0.2c-0.5-0.2-0.7-0.7-1.2-0.7c-0.5,0-1,0.2-1.2,1
				c-0.2,0.7-0.5,1.7-1,2.4c-1.2,2.6-1.9,5.3-2.4,7.9c0,0.5-0.2,1-0.5,1.4c-1.4,3.1-1.7,6-0.7,9.1c1,3.1,2.4,6,4.3,8.4
				c1.2,1.2,2.2,2.6,3.8,2.9C968.7,760.8,969.6,759.9,969.4,758.2z"/>
			<path d="M1009.2,695.1c-2.6-0.7-5-1.7-7.2-2.2c-1.7-0.5-3.6-1-5.3-1.4c-0.7-0.5-1.7-1-2.4-1.2c-3.4-1.2-6.5-1.9-9.8-2.2
				c-1.2-0.2-2.9-1-4.1-1.4c-2.4-0.5-4.3-1.2-6.7-0.5c-1.4,0-3.1,0.2-4.3,0.2c-1,0-2.2-0.2-3.1-0.2c-0.5-0.2-0.7-0.7-0.2-1
				c0.2-0.2,0.5-0.5,0.5-0.7c1.7-0.7,3.4-1.7,4.8-2.4c2.9-1.4,5.5-1.7,8.4-1.9c2.9,0,6,0.2,8.9,0.5c2.2,0,4.3,0.2,6.5,0.5
				c1.2,0.2,2.4,0.2,3.4,0.5c1.9,0.5,3.6,0.5,5,0.2c2.6-0.2,5-0.2,7.9,0c0.7,0.2,1.9,0.5,2.6,0.2c0.7-0.7,0.7-1.7,0.7-2.2
				c0.7-3.8,1.4-7.7,1.9-11.5c0.2-2.4,1-4.6,1.9-6.7c0-0.2,0.2-0.5,0.2-0.5c1.7,0,3.1,0.2,4.1,1.7c0.5,1,1,1.7,1.2,2.4
				c0.7,1.4,1,2.9,0.2,4.3c-0.2,0.7-0.2,1.9-0.2,2.6c0.2,2.2,0.2,4.6,1,6.7c0,0.5,0,1,0,1.2c0,0.7,0.2,1.4,0,2.2
				c0,1.7,0.7,2.6,2.4,3.4c2.6,1.2,5.8,1.9,8.4,2.9c0.5,0.2,1.2,0.5,1.7,0.5c3.6,0.2,7,0,10.3-1.2c4.6-1.7,8.9-3.4,13.4-5
				c1-0.5,2.4-0.7,3.4-1.2c1.4-0.7,2.9-0.5,4.3,0.5c0.2,1.4-1,2.4-0.2,3.6c-1.2,1.4-2.6,2.4-3.8,3.4c-0.2,0.2-0.7,0.5-1.2,0.7
				c-1.7,0.7-3.6,1.4-5.3,2.4c-0.2,0-0.5,0-0.7,0c-1.4,0.5-2.6,0.7-3.8,1.7c-0.5,0.2-1,0.2-1.4,0.5c-0.7,0.2-1.2,0.7-1.9,1.2
				c-0.7,0.2-1,0.7-1.7,0.7c-1,0-1.4,0.2-1.9,1.2c0,0.2,0,0.5-0.2,0.5c-0.7,1.2-1,1.2-2.4,0.2c-0.7,0.2-1.4,0.7-2.4,1.2
				c-0.5,0.5-1.4,0.7-2.2,0.7c-0.2,0.2-0.2,0-0.2,0.2c-1.7,0.7-3.6,0.7-5,0.5c-1.7,0-3.4,0-4.8-0.2c-0.5,0-1.2,0-1.4,0
				c-0.5,0-1.2,0-1.9,0c-0.2,1.7,0,3.6,0,5.3c-0.2,3.1,0,6.5-0.2,10.1c0,1,0,1.9,0,2.9c0,0.5,0,1,0,1.2c-0.5,1.2-0.5,2.2-0.2,3.4
				c2.2,28.3-1.7,56.9-1.7,85.4c0,0.7,0,1.7,0,2.4c0.2,1,0,1.9,0,2.9c0,0,0,0.5,0,1c0.2,1,0,2.2,0,3.4c-0.5,1.9,0.5,4.1,2.4,4.6
				c1,0.2,1.7,0,2.4-0.5c1-1,1.7-1.4,2.9-2.6c1.4-1.9,3.1-4.1,4.6-6c5-7,9.6-13.9,14.2-20.6c0.2-0.7,0.5-1.4,1-1.7
				c1.7-2.4,3.1-5,4.8-7.4c1.7-2.6,3.4-5.3,5-7.7c1.2-1.9,2.4-3.8,4.1-5.8c2.4-4.1,5.3-7.9,7.9-11.8c0.2-0.5,0.2-1,0.5-1.2
				c1-1.4,1.9-3.1,2.9-4.6c1.2-1.4,2.2-3.4,2.9-5.3c0.7-1.2,1.2-2.6,2.2-3.8c0.7-0.7,1.4-0.7,2.4-0.5c2.2,0.7,2.9,1.7,1.7,3.8
				c-0.2,0.2-0.2,0.2-0.5,0.5c-0.2,0.5-0.7,1-0.7,1.2c-0.2,1-0.5,1.7-1,2.4c-0.7,1.2-1.4,2.4-2.2,3.8c-3.1,5.3-5.8,11.5-9.4,16.8
				c-6.2,8.9-12.2,17.5-16.8,27.4c-2.4,4.6-4.6,9.1-7.4,13.4c-2.9,4.3-7.2,6.7-10.8,10.3c-1.2,1.7-2.6,2.9-4.3,3.4
				c-0.5,0-0.7,0.5-1,0.5c-1.2,0.7-1.9,1-3.1,1c-3.1,0-6.5,0-9.8-1c-5.5-1-9.1-4.3-11-9.8c-1.4-3.4-1.9-7-2.2-10.3
				c-0.2-1.7-0.5-3.1-0.7-4.6c0-1,0-1.4-0.2-2.4c-0.2-2.2-0.5-4.3-0.5-6.5c0-1,0-2.2,0-3.6c0-2.2,0-4.6,0-7s0.2-5.3,0.2-7.7
				c0.2-1.4,0.2-2.4,0.2-3.8c0-1.9,0.2-3.8,0.2-5.8c0.2-4.3,0.5-8.6,0.7-13c0.2-1,0.2-1.9,0.2-2.9c0.2-5,1-10.1,1.9-14.9
				c0.2-3.1,0.5-6.7,0.7-10.1c1-5.5,1.2-11.3,2.4-16.8c0.5-2.6,0.7-5.5,1-7.9c0.2-1.2,0.2-1.9,0.5-3.6
				C1011.2,696.3,1010.2,695.5,1009.2,695.1z"/>
			<path d="M1081,695.1c-2.6-0.7-5-1.7-7.2-2.2c-1.7-0.5-3.6-1-5.3-1.4c-0.7-0.5-1.7-1-2.4-1.2c-3.4-1.2-6.5-1.9-9.8-2.2
				c-1.2-0.2-2.9-1-4.1-1.4c-2.4-0.5-4.3-1.2-6.7-0.5c-1.4,0-3.1,0.2-4.3,0.2c-1,0-2.2-0.2-3.1-0.2c-0.5-0.2-0.7-0.7-0.2-1
				c0.2-0.2,0.5-0.5,0.5-0.7c1.7-0.7,3.4-1.7,4.8-2.4c2.9-1.4,5.5-1.7,8.4-1.9c2.9,0,6,0.2,8.9,0.5c2.2,0,4.3,0.2,6.5,0.5
				c1.2,0.2,2.4,0.2,3.4,0.5c1.9,0.5,3.6,0.5,5,0.2c2.6-0.2,5-0.2,7.9,0c0.7,0.2,1.9,0.5,2.6,0.2c0.7-0.7,0.7-1.7,0.7-2.2
				c0.7-3.8,1.4-7.7,1.9-11.5c0.2-2.4,1-4.6,1.9-6.7c0-0.2,0.2-0.5,0.2-0.5c1.7,0,3.1,0.2,4.1,1.7c0.5,1,1,1.7,1.2,2.4
				c0.7,1.4,1,2.9,0.2,4.3c-0.2,0.7-0.2,1.9-0.2,2.6c0.2,2.2,0.2,4.6,1,6.7c0,0.5,0,1,0,1.2c0,0.7,0.2,1.4,0,2.2
				c0,1.7,0.7,2.6,2.4,3.4c2.6,1.2,5.8,1.9,8.4,2.9c0.5,0.2,1.2,0.5,1.7,0.5c3.6,0.2,7,0,10.3-1.2c4.6-1.7,8.9-3.4,13.4-5
				c1-0.5,2.4-0.7,3.4-1.2c1.4-0.7,2.9-0.5,4.3,0.5c0.2,1.4-1,2.4-0.2,3.6c-1.2,1.4-2.6,2.4-3.8,3.4c-0.2,0.2-0.7,0.5-1.2,0.7
				c-1.7,0.7-3.6,1.4-5.3,2.4c-0.2,0-0.5,0-0.7,0c-1.4,0.5-2.6,0.7-3.8,1.7c-0.5,0.2-1,0.2-1.4,0.5c-0.7,0.2-1.2,0.7-1.9,1.2
				c-0.7,0.2-1,0.7-1.7,0.7c-1,0-1.4,0.2-1.9,1.2c0,0.2,0,0.5-0.2,0.5c-0.7,1.2-1,1.2-2.4,0.2c-0.7,0.2-1.4,0.7-2.4,1.2
				c-0.5,0.5-1.4,0.7-2.2,0.7c-0.2,0.2-0.2,0-0.2,0.2c-1.7,0.7-3.6,0.7-5,0.5c-1.7,0-3.4,0-4.8-0.2c-0.5,0-1.2,0-1.4,0
				c-0.5,0-1.2,0-1.9,0c-0.2,1.7,0,3.6,0,5.3c-0.2,3.1,0,6.5-0.2,10.1c0,1,0,1.9,0,2.9c0,0.5,0,1,0,1.2c-0.5,1.2-0.5,2.2-0.2,3.4
				c2.2,28.3-1.7,56.9-1.7,85.4c0,0.7,0,1.7,0,2.4c0.2,1,0,1.9,0,2.9c0,0,0,0.5,0,1c0.2,1,0,2.2,0,3.4c-0.5,1.9,0.5,4.1,2.4,4.6
				c1,0.2,1.7,0,2.4-0.5c1-1,1.7-1.4,2.9-2.6c1.4-1.9,3.1-4.1,4.6-6c5-7,9.6-13.9,14.2-20.6c0.2-0.7,0.5-1.4,1-1.7
				c1.7-2.4,3.1-5,4.8-7.4c1.7-2.6,3.4-5.3,5-7.7c1.2-1.9,2.4-3.8,4.1-5.8c2.4-4.1,5.3-7.9,7.9-11.8c0.2-0.5,0.2-1,0.5-1.2
				c1-1.4,1.9-3.1,2.9-4.6c1.2-1.4,2.2-3.4,2.9-5.3c0.7-1.2,1.2-2.6,2.2-3.8c0.7-0.7,1.4-0.7,2.4-0.5c2.2,0.7,2.9,1.7,1.7,3.8
				c-0.2,0.2-0.2,0.2-0.5,0.5c-0.2,0.5-0.7,1-0.7,1.2c-0.2,1-0.5,1.7-1,2.4c-0.7,1.2-1.4,2.4-2.2,3.8c-3.1,5.3-5.8,11.5-9.4,16.8
				c-6.2,8.9-12.2,17.5-16.8,27.4c-2.4,4.6-4.6,9.1-7.4,13.4c-2.9,4.3-7.2,6.7-10.8,10.3c-1.2,1.7-2.6,2.9-4.3,3.4
				c-0.5,0-0.7,0.5-1,0.5c-1.2,0.7-1.9,1-3.1,1c-3.1,0-6.5,0-9.8-1c-5.5-1-9.1-4.3-11-9.8c-1.4-3.4-1.9-7-2.2-10.3
				c-0.2-1.7-0.5-3.1-0.7-4.6c0-1,0-1.4-0.2-2.4c-0.2-2.2-0.5-4.3-0.5-6.5c0-1,0-2.2,0-3.6c0-2.2,0-4.6,0-7s0.2-5.3,0.2-7.7
				c0.2-1.4,0.2-2.4,0.2-3.8c0-1.9,0.2-3.8,0.2-5.8c0.2-4.3,0.5-8.6,0.7-13c0.2-1,0.2-1.9,0.2-2.9c0.2-5,1-10.1,1.9-14.9
				c0.2-3.1,0.5-6.7,0.7-10.1c1-5.5,1.2-11.3,2.4-16.8c0.5-2.6,0.7-5.5,1-7.9c0.2-1.2,0.2-1.9,0.5-3.6
				C1082.9,696.3,1082,695.5,1081,695.1z"/>
			<path d="M1180.9,774c-2.9,2.6-6.2,5-10.6,5.3c-2.9,0.2-5.5,1.4-8.4,1.7c-5.5,0.2-10.6-1-13.9-6c-1.2-1.4-1.9-3.4-2.4-5.3
				c-1.4-5.3-1.7-10.6-0.5-16.1c0.5-2.4,0.7-4.8,1.2-7.2c0.7-2.4,1.4-4.8,2.2-7.2c1-2.9,2.2-5.8,2.9-8.6c1.7-5.8,4.6-11,8.4-15.6
				c1.4-1.4,2.6-2.9,3.8-4.6c1.9-2.6,4.8-4.1,7.7-5c1.9-0.7,3.8-1.4,5.8-2.2c3.4-1.2,7-1,10.3-1.7c0.7,0,1.4,0,2.2-0.2
				c2.9-1,5.5-0.5,8.4,0c2.2,0.2,4.1,1.9,5.5,3.8c1,1.4,2.2,2.9,2.9,4.6c1.4,2.6,1.2,5-1,7c-0.5,0.5-1.4,0.7-2.4,0.7
				c-0.7,0.2-1.2-0.2-1.4-1.2c-0.5-3.8-3.4-6.2-5.8-9.1c-0.2-0.2-0.5-0.5-0.7-0.7c-2.6-1-5.5-1.2-8.2-0.5c-4.6,1-8.6,2.6-11,6.7
				c-3.4,6-5.5,13.4-7.9,19.7c-1.2,3.1-2.2,6.5-3.4,9.6c-2.4,7.7-4.6,14.9-2.6,22.8c1,4.6,7.4,8.2,11.5,6.2
				c5.5-2.4,10.3-11.3,13.2-16.3c0.7-1.7,1-3.6,1.4-5.5c0.5-1.9,0.7-4.1,1.4-5.8c0.7-2.9,1.9-5.8,2.9-8.6c1-3.1,2.2-6,2.9-9.1
				c0.7-2.4,1.9-3.8,4.1-4.1c1.7-0.5,3.1-0.7,4.6-1c1.9-0.2,3.1,0.7,3.6,2.4c0.2,0.5,0.5,1,0.7,1.4c0.5,2.4-1.7,4.6-0.5,7
				c0.2,1.2,0,2.4,0,3.6c0,5-1.9,12-2.9,17c-1,5.8-1,9.6-1.9,15.4c-0.5,1.9-1,3.6-1.2,5.5c-0.5,3.6-1,7.2-1.4,11
				c-0.2,1.4-0.5,3.1-0.5,4.6c0,1.9-2.4,13,4.6,9.8c1.9-1,7.2-5.8,8.4-7.4c2.4-3.6,6.7-9.6,8.6-13.7c3.8-7.9,9.4-20.6,13.2-28.6
				c0.7-1.2,0.2-3.1,1.7-3.1c1-0.2,1.9-0.2,3.1-0.5c1.2,0,1.7,0.2,1.4,1.4c-0.2,1.4-0.2,3.1-1,4.3c-2.2,3.1-6.7,14.6-8.2,18
				c-6.2,14.4-15.1,35-31,40.6c-3.8,1.2-10.8,0.7-13.9-2.2c-1-0.7-1.7-1.7-2.2-2.6c-3.1-5-3.4-10.8-3.1-16.6
				c0.2-4.6,0.7-8.9,1.2-13.4c0-0.5,0-1.2,0-2.2C1182.1,773.1,1181.3,773.6,1180.9,774z"/>
			<path d="M1278.1,869.1c-1,1-1.7,2.2-3.1,2.4c-0.2,0-0.5,0-0.7,0c-1.4,1.4-3.6,1.9-5.3,2.9c-2.2,1.2-4.3,1.9-6.5,2.2
				c-3.6,0.7-7.2,1-10.8,1.2c-3.1,0.5-8.4-0.5-11.5-1.7c-0.7-0.2-1.4-0.5-2.2-0.7c-0.2-0.2-0.5-0.7-1-1.2c-3.4-2.4-5-5.8-6.2-9.8
				c-0.2-0.7-0.5-1.4-0.7-2.2c-1-1.2-1.2-2.6-1.2-4.1c-0.5-5.5,0.2-10.6,2.2-15.6c3.6-9.1,8.6-17,14.9-24c2.2-2.4,4.3-4.8,6.2-7.2
				c4.1-4.6,8.4-8.4,13-12.2c3.1-2.4,6-4.8,8.9-7.2c1-0.7,1.4-1.7,1.4-2.9c-0.2-2.4,0-4.8-0.2-7.2c-0.2-3.6,0.2-7.2,0.5-10.6
				c0.2-2.2,0.2-4.3,0.5-6.7c-0.5,0.2-0.7,0.2-1,0.5c-1.4,1.2-2.6,2.4-3.8,3.4c-2.4,2.2-5.3,3.8-8.2,5c-1.4,0.5-2.9,1.2-4.3,1.7
				c-0.5,0.2-1.2,0.5-1.7,0.5c-4.1,0.2-8.2,0-12.2-1c-1.9-0.7-3.6-1.7-5.3-3.1c-1-1-1.9-1.9-2.9-2.9c-2.9-2.4-5-5.5-5.8-9.6
				c-0.5-3.8-0.7-7.9-0.5-12c0.5-5.3,1.4-10.1,2.6-15.1c1.2-6.7,4.6-12.5,7.7-18.5c1-1.4,1.9-2.9,2.6-4.3c1-1.4,2.2-2.9,3.6-3.6
				c0.2,0,0.2-0.2,0.5-0.2c1.2-1.2,2.4-2.4,3.6-3.4s2.9-1.4,4.1-2.6c0.2-0.5,1-0.7,1.4-1c1.4-0.2,2.6-0.7,4.1-1c0.5,0,1-0.2,1.4-0.2
				c2.6,0.2,5.3,0.2,7.7,0.5c4.3,1,8.4,2.4,12.5,4.3c0.7,0.5,1.7,0.7,2.4,1c1,0.2,1.7,0.5,2.2,1.2c0.5,0.5,0.2,1.4-0.2,1.7
				c-1.2,0.7-2.2,1-3.4,0.2c-1.7-1-3.6-1.7-5.5-2.4c-1.9-0.7-3.6-0.5-5.5,0.2c-2.9,1.4-5.5,3.4-7.9,5.8c-1.2,1-2.4,2.2-2.9,3.8
				c-0.2,0.5-0.7,1-1.2,1.4c-1.2,1-1.9,2.2-2.4,3.6c-0.5,1.4-1.4,2.9-2.4,4.1c-1,1.4-1.4,2.6-1.9,4.3c-0.7,2.4-1.7,5-2.6,7.7
				c-0.5,1.4-1.2,3.1-1.2,4.8c-0.2,0.7-0.2,1.2-0.5,1.9c-0.7,2.4-1.2,5-1.2,7.7c0,1.2-0.5,2.4-1,3.6c-0.5,1.2-1,2.6-0.7,3.8
				c0,0.7-0.2,1.4-0.2,1.9c0,0.7-1,1.2-0.7,1.9c0.2,0.7,0.5,1.4,0.7,1.9c0.2,1.4,0.7,2.9,0.7,4.3c0.2,1,0.7,1.7,1.7,1.9
				c1.4,0.7,3.1,0.7,4.6,0.2c2.2-0.5,4.3-1.4,6-2.9c3.1-2.2,5.8-4.8,7.9-8.2c1.7-2.4,3.4-4.8,4.6-7.4c0-0.2,0.2-0.5,0.2-0.5
				c3.1-4.6,3.8-9.8,4.6-14.9c0.2-2.6,0.7-5,1.4-7.4c1-2.9,1.7-6,2.4-8.9c0.2-1,0-2.2,0.2-3.4c0.7-0.5,1.4-1,2.2-1.2
				c1.4-0.5,3.1-0.5,4.6,0.2c1.4,0.7,2.2,1.9,2.2,3.6c-0.5,2.9,0.2,5.5,1.2,8.4c0.7,2.6,1,5.5,1,8.2c0,3.8,0.5,7.4,1,11
				c0.2,3.1,0.7,6.2,0.7,9.6c0,1,0.2,2.2,0.2,3.4c0.2,2.4,0,4.8,0.2,7.2c0.2,2.9,0.2,5.5-0.2,8.2c0,0.2,0,0.2,0.2,0.7
				c0.2-0.2,0.7-0.2,0.7-0.5c5.5-5,10.8-10.1,16.1-15.4c3.4-3.4,6.7-7,10.1-10.6c0.7-0.5,1.2-1,1.9-1.4c0.7-0.2,1.2-0.7,2.2-0.5
				c0.7,0.2,1.2,1,1.4,1.9c-0.7,1.7-2.2,2.9-3.4,4.3c-1.2,1.2-2.4,2.2-2.9,3.6c-0.7,1.4-1.7,2.9-2.4,4.1c-0.7,1.2-1.2,2.4-2.2,3.4
				c-1.2,1.4-2.6,2.6-3.8,4.1c-0.2,0.2-0.5,0.5-1,0.5c-4.6,3.4-8.2,7.4-11,12c-0.5,0.7-1,1-1.7,1.4c-1,0.5-1.9,0.7-2.9,1.2
				c-1.2,0.7-1.7,1.4-1.9,2.6c-0.2,1.4-0.2,2.9,0,4.3c0.2,2.2,0.2,4.3,0.2,6.5c0,3.6-0.2,7.2-0.5,10.8c-0.5,4.6-1,9.1-0.5,13.7
				c0.2,1.4,0,2.9,0,4.3c0,1.7,0,3.4-0.2,5c0,2.9,0.2,5.5-0.5,8.2c-0.2,1.7-0.7,3.4-1,5c-0.5,2.4-1.2,4.6-2.4,6.7
				c-0.7,1-1,2.2-1.2,3.1c-0.2,1.7-1,3.4-1.9,4.8c-1.2,1.9-2.2,3.8-3.6,5.5c-0.2,0.5-0.5,1-0.5,1.4c-0.2,1-0.2,1.7-0.5,2.2
				C1279.5,867.6,1278.8,868.4,1278.1,869.1z M1273.5,802.1c-1.7,1.9-3.6,3.4-5.5,4.8c-0.5,0.5-1.2,1-1.7,1.4
				c-2.2,2.4-4.3,4.8-6.5,7.4c-2.2,2.9-4.6,5.3-6.7,8.2c-1.2,1.4-2.6,2.9-3.4,4.8c-1.2,2.4-2.6,4.6-4.3,6.5c-1.2,1.4-2.4,3.1-2.4,5
				c-0.5,3.4-1.4,7-2.6,10.1c-0.7,2.2-1.2,4.1-0.7,6c0,0.2,0,0.5-0.2,0.7c-1.4,1.4-1.4,3.1-0.7,4.8c0.7,1.2,1,2.4,1.4,3.6
				c0.7,1.7,1.4,3.1,3.1,4.1c1,0.7,1.7,1.4,2.6,2.4c1.4,1.4,3.1,1.9,5.3,1.7c2.9-0.5,5.5-1.4,7.7-2.9c4.8-3.1,7.9-7.4,10.8-12
				c0.5-1,0.5-1.9,0.7-2.6c0.2-1.2,0.5-2.2,0.7-3.1s0.5-1.9,0.7-2.6c0.2-2.2,0.5-4.6,0.7-6.7c0.2-2.2,0.5-4.6,0.7-6.7
				c0-1.4,0.2-2.6,0.2-4.1c0.5-3.4,1-7,1.4-10.3c0.2-2.9,0.2-5.8,0.7-8.6c0.5-4.1-0.2-8.2-0.5-12.7
				C1274.5,801.6,1274,801.9,1273.5,802.1z M1282.6,856.4c0.2,0,0.2,0,0.2,0s0.2,0,0,0v-0.2C1282.9,856.4,1282.6,856.4,1282.6,856.4
				z"/>
			<path d="M1395.4,746.9c-0.2,0.7-0.5,1.4-1,1.9c-1.9,2.4-3.4,5-4.6,7.9c-0.2,0.2-0.5,0.7-0.5,1c0,2.9-2.2,4.8-2.9,7.2
				c-1.4,1.7-2.2,4.1-3.6,6c-7.2,8.9-10.8,19.9-20.6,26.9c-7.4,5.5-15.1,13-25.2,12.2c-3.6-0.2-7-1.7-10.6-2.6c-0.2,0-0.5-0.2-1-0.5
				c-2.9-1.9-5.5-3.8-7.7-6.7c-3.1-4.6-4.6-9.6-4.8-14.9c-0.2-6.2-0.2-12.2,0.5-18.5c0.5-3.8,1-7.9,1.2-11.8c0-1,0.2-1.7,0.5-2.6
				c1-3.8,1.7-7.7,2.4-11.8c1.2-5,3.1-9.6,5-14.4c0.2-0.7,0.7-1.4,1-1.9c1.4-1.4,2.2-3.1,2.9-4.8c0-0.2,0.2-0.5,0.2-0.7
				c1-3.4,3.4-6.2,6-8.6c0.5-0.5,1.2-1,1.7-1.2c4.1-2.2,8.2-3.8,12.7-4.6c2.6-0.5,5-1.2,7.7-0.7c1.4,0,2.9,0.2,4.1,0.5
				c0.5,0,1,0.2,1.4,0.2c15.6,0.5,8.6,28.8,0.5,35c-1.2,0.7-2.6,1.4-3.6,2.6c-0.2,0.5-0.7,0.7-1.2,0.7c-1.2,0.7-2.4,1.4-3.8,1.9
				c-2.9,1-5.5,2.2-8.2,2.6c-4.3,0.7-4.1,0.5-5,4.1c-0.2,1.2-0.5,2.2-0.5,3.1c0.2,12.2-6.7,31.7,0.7,42.2c1.2,1.7,2.9,2.9,4.8,3.6
				c1,0.7,1.9,0.5,3.1,0.2c2.2-0.7,4.3-1.7,6.2-3.1c2.9-1.9,5.5-3.8,8.2-5.8c1.2-1,2.2-1.9,3.1-3.1c2.9-3.8,5.8-7.4,7.9-11.8
				c0.5-1,1.2-1.7,1.7-2.4c3.8-4.6,6.5-9.8,9.6-14.6c0.5-0.7,1-1.4,1.2-2.2c1.7-3.8,3.8-7.2,6.2-10.6c0.5-1,1.2-1.9,2.6-1.9
				C1394.2,745.7,1394.7,746.2,1395.4,746.9z M1362.3,713.3c0-0.5-0.2-1-0.7-1.2c-2.4-2.4-5-3.8-8.6-3.4c-2.6,0.5-4.6,1.7-5.5,4.3
				c-1,2.6-2.4,5.3-2.6,8.4c0,0.7-0.2,1.7-0.7,2.4c-1.2,2.6-1.4,5.5-1.9,8.2c-0.2,2.2-0.5,4.1-1.2,6c-0.5,1.4-1,2.6-0.5,4.1
				c4.1-0.5,7.7-1.4,11.3-3.1c2.4-1.2,4.3-2.6,5.8-4.8c2.2-2.9,3.8-5.8,5.8-8.9c0.2-0.5,0.7-1.2,0.2-1.9c-0.2-1.2,0-2.2,0.5-3.4
				c0.2-0.7,0.5-1.7,0.7-2.4C1363.5,716.2,1362.8,714.7,1362.3,713.3z"/>
		</g>
	</g>
	<g>
		<path d="M1011,47.4c-2.8,0-5.5,0.7-8.2,0.9s-5.5-1-8.4-0.9c-2.8,0.1-5.5-0.6-8.4-0.4s-5.5,0.4-8.4,0.6c-2.8,0.1-5.5,0.6-8.2,0.9
			c-2.7,0.3-5.4,1.5-8.2,1.8c-2.8,0.3-5.7-0.3-8.4,0c-2.7,0.3-5.5,1-8.2,1.5c-2.7,0.4-5.5,0.6-8.2,1c-2.7,0.4-5.4,1-8.2,1.5
			c-2.8,0.4-5.4,1.2-8.1,1.6c-2.7,0.4-5.7-0.3-8.4,0.3c-2.7,0.6-5.1,2.8-7.8,3.4c-2.7,0.6-5.7,0-8.4,0.6s-4.9,2.8-7.6,3.6
			c-2.7,0.7-5.4,1.3-8.1,2.1c-2.7,0.7-6-0.9-8.7-0.1c-2.7,0.7-4.5,4.5-7.2,5.2c-2.7,0.7-5.7,0.6-8.2,1.3s-5.7,0.6-8.2,1.5
			c-2.5,0.9-4.5,3.9-7.2,4.8c-2.7,0.9-5.7,0.9-8.2,1.8c-2.5,0.9-5.5,1.2-8.1,2.1c-2.5,0.9-5.2,1.9-7.8,3c-2.5,1-3.9,4.8-6.4,6
			c-2.5,1.2-5.8,0.6-8.2,1.8s-4.9,2.5-7.5,3.7s-5.2,2.1-7.6,3.3c-2.4,1.2-4.6,3-7.2,4.3c-2.5,1.3-4.9,2.4-7.5,3.7
			c-2.5,1.3-5.2,2.1-7.6,3.4c-2.4,1.3-4.2,3.7-6.6,5.2c-2.4,1.5-4.5,3.4-6.7,4.8c-2.2,1.3-4.9,2.5-7.3,4c-2.4,1.5-4.9,2.7-7.2,4.2
			c-2.2,1.5-3.7,4.3-6,5.8c-2.2,1.5-4.6,3-6.9,4.6c-2.2,1.6-5.4,1.9-7.6,3.6c-2.2,1.6-3.3,4.9-5.4,6.6s-5.4,2.2-7.5,3.9
			c-2.1,1.6-4,3.9-6.1,5.7c-2.1,1.8-4.8,2.8-6.9,4.6c-2.1,1.8-4,3.7-6.1,5.5c-2.1,1.8-3.9,4-5.8,6S675,181,673,183
			c-1.9,1.9-4.3,3.4-6.4,5.4s-3.4,4.5-5.4,6.4c-1.9,1.9-5.7,2.2-7.6,4.2c-1.9,1.9-2.2,5.5-4.2,7.5c-1.9,1.9-5.5,2.5-7.3,4.6
			c-1.8,2.1-1.9,5.7-3.7,7.8c-1.8,2.1-3.7,4.2-5.5,6.3c-1.8,2.1-4.8,3.3-6.4,5.4c-1.6,2.1-3.7,4.2-5.4,6.4c-1.6,2.2-2.2,5.4-3.9,7.5
			c-1.6,2.1-4,3.9-5.5,6.3c-1.5,2.4-3.6,4.2-5.2,6.6c-1.6,2.4-3.6,4.2-5.2,6.6c-1.6,2.4-2.1,5.2-3.6,7.6c-1.5,2.4-3.9,4.2-5.4,6.4
			c-1.5,2.2-0.9,6-2.2,8.4c-1.3,2.4-4.9,3.6-6.3,6c-1.3,2.4-1.9,5.4-3.3,7.8c-1.3,2.4-3,4.6-4.3,7.2c-1.3,2.5-3.1,4.6-4.3,7.2
			c-1.2,2.5-2.4,5.1-3.6,7.5s-0.7,5.8-1.9,8.4c-1.2,2.5-3.6,4.5-4.8,7c-1.2,2.5-3.1,4.6-4.2,7.2s-1.5,5.4-2.5,7.9
			c-1,2.5-2.7,4.9-3.6,7.5s-1.2,5.5-2.2,8.1c-1,2.5-2.5,4.9-3.4,7.6c-0.9,2.7-1.3,5.4-2.2,8.1c-0.9,2.7-1.6,5.2-2.5,7.9
			c-0.9,2.7-2.7,4.9-3.4,7.6c-0.7,2.7-0.6,5.7-1.2,8.2s-1.3,5.4-1.9,8.1c-0.6,2.7-1.8,5.2-2.4,7.9s0.4,5.8-0.1,8.5
			c-0.6,2.7-1.6,5.2-2.2,8.1c-0.6,2.8-1.8,5.2-2.4,8.1s-0.9,5.5-1.3,8.2c-0.4,2.7-2.1,5.2-2.5,8.1c-0.4,2.8-0.9,5.5-1.3,8.2
			s0.9,5.7,0.6,8.5c-0.3,2.8-2.1,5.4-2.4,8.1c-0.3,2.7-0.6,5.5-0.9,8.4c-0.3,2.7,1.6,5.7,1.5,8.5c-0.1,2.8-2.2,5.4-2.4,8.2
			c-0.1,2.8,0.3,5.5,0.1,8.4c-0.1,2.8-0.3,5.5-0.3,8.4s-0.6,5.5-0.6,8.4c0,2.8-0.3,5.5-0.3,8.4s2.1,5.5,2.1,8.2c0,2.7,0.9,5.5,1,8.2
			c0.1,2.7-0.1,5.5,0,8.4c0.1,2.8-1.2,5.7-0.9,8.4c0.3,2.7,2.1,5.4,2.4,8.2c0.3,2.8,0.3,5.5,0.6,8.2c0.3,2.7-1.2,5.7-0.7,8.5
			c0.4,2.8,1,5.5,1.5,8.2s1.6,5.4,2.2,8.1c0.6,2.7,1.8,5.2,2.4,8.1c0.6,2.8,0.9,5.5,1.3,8.2c0.4,2.7,0.3,5.7,0.9,8.4
			c0.6,2.7,0.3,5.7,0.9,8.4c0.6,2.7,3,4.9,3.6,7.6c0.6,2.7-0.1,5.8,0.6,8.5c0.7,2.7,2.2,5.2,3,7.8c0.7,2.5,2.1,5.2,3,7.8
			c0.9,2.5,2.5,5.1,3.4,7.6c0.9,2.5,2.2,5.1,3.1,7.8c0.9,2.7,1.6,5.2,2.7,7.9c1,2.7,2.2,5.1,3.3,7.6c1,2.5,1.8,5.2,2.8,7.8
			c1,2.5-0.3,6.1,0.7,8.7c1,2.5,2.4,5.1,3.4,7.6c1,2.5,2.8,4.8,4,7.3c1.2,2.5,2.5,4.9,3.7,7.5c1.2,2.5,4.2,4,5.5,6.6
			c1.3,2.5,1.5,5.5,2.7,7.9c1.2,2.4,1.3,5.7,2.7,8.1c1.3,2.4,2.7,4.9,4,7.3c1.3,2.4,3.3,4.5,4.8,6.9s3.3,4.5,4.8,6.9
			c1.5,2.4,2.8,4.8,4.3,7s3.4,4.3,4.9,6.7c1.5,2.4,2.7,4.9,4.2,7.2c1.5,2.2,4.8,3.4,6.4,5.7c1.6,2.2,2.7,4.9,4.3,7
			c1.6,2.1,2.4,5.2,4,7.3c1.6,2.1,3.4,4.5,5.1,6.6c1.6,2.1,2.8,4.8,4.6,6.9c1.8,2.1,3.9,4,5.7,6.1s5.1,3,6.9,5.1
			c1.8,2.1,3,4.8,4.8,6.9s3.9,4,5.7,6c1.8,1.9,4.8,3.1,6.7,5.1c1.9,1.9,3.4,4.3,5.4,6.3c1.9,1.9,3,4.8,5.1,6.7
			c2.1,1.9,3.4,4.5,5.5,6.3c2.1,1.8,4.2,3.7,6.3,5.5c2.1,1.8,5.5,2.1,7.8,3.9c2.2,1.8,4.5,3.3,6.7,4.9s3.4,4.6,5.5,6.3
			c2.1,1.6,4,3.9,6.3,5.5c2.2,1.6,5.5,1.9,7.8,3.6c2.2,1.6,4.2,3.7,6.4,5.2s3.4,4.8,5.7,6.4c2.2,1.6,4.8,2.8,7,4.5s5.8,1.2,8.1,2.8
			s4.2,3.7,6.4,5.2s5.1,2.2,7.5,3.7s3.7,4.6,6.1,6c2.4,1.3,5.2,2.1,7.6,3.4s4.5,3.3,7,4.6s5.5,1.3,8.1,2.5c2.5,1.2,4.2,3.9,6.7,5.1
			c2.5,1.2,6,0.3,8.5,1.5c2.5,1.2,4,4.5,6.6,5.7c2.5,1.2,5.7,0.9,8.2,2.1s4.6,3.4,7.2,4.5s5.2,1.9,7.8,3s5.5,1.3,8.1,2.2
			c2.5,0.9,5.5,1.2,8.1,2.1s5.4,1.3,8.1,2.2s4.9,2.5,7.6,3.4c2.7,0.9,5.2,1.9,7.9,2.7c2.7,0.7,5.4,1.2,8.1,1.9s5.1,2.2,7.8,3
			c2.7,0.7,5.8-0.4,8.5,0.1c2.7,0.6,5.1,2.7,7.8,3.3c2.7,0.6,5.5,0.7,8.2,1.3c2.7,0.6,5.4,1.2,8.1,1.8s5.2,1.8,8.1,2.2
			s5.5,0.1,8.4,0.6s5.4,1.8,8.1,2.1s5.7-1.3,8.5-1s5.4,1.2,8.2,1.5c2.8,0.3,5.5,1,8.2,1.2c2.7,0.1,5.5,1.3,8.2,1.5
			c2.7,0.1,5.7-1.2,8.4-1c2.7,0.1,5.5-0.3,8.4-0.1s5.5,1.3,8.2,1.5c2.7,0.1,5.5,1.2,8.4,1.2s5.5-1.2,8.4-1.2s5.5,0.6,8.4,0.4
			s5.5-0.9,8.2-1s5.5,0.3,8.4,0.1s5.5-1,8.2-1.2c2.7-0.1,5.7,0.4,8.4,0.1c2.7-0.3,5.4-1.5,8.2-1.8c2.7-0.3,5.4-1.5,8.1-1.9
			c2.7-0.4,5.5-0.4,8.2-0.9c2.7-0.4,5.4-1,8.2-1.5c2.8-0.4,5.5-0.6,8.2-1.2c2.7-0.6,5.4-1.5,8.1-1.9c2.7-0.4,6,1.2,8.7,0.4
			c2.7-0.7,5.1-2.5,7.8-3.1s5.1-2.5,7.8-3.3s5.8,0.3,8.5-0.4s5.5-0.7,8.2-1.6c2.7-0.9,4.8-3.4,7.3-4.3c2.5-0.9,5.4-1.3,8.1-2.2
			c2.7-0.9,5.7-0.6,8.2-1.5c2.5-0.9,4.8-3.1,7.3-4.2s5.8-0.3,8.4-1.3s4.3-3.9,7-4.9c2.7-1,5.2-1.8,7.8-2.8c2.5-1,4.8-2.8,7.3-4
			c2.5-1.2,5.1-2.1,7.6-3.3c2.5-1.2,5.2-1.8,7.8-3c2.5-1.2,5.2-1.9,7.8-3.1c2.5-1.2,5.4-1.6,7.9-3c2.5-1.3,4.9-2.5,7.3-3.9
			c2.4-1.3,4.6-3.1,7-4.5c2.4-1.3,4.3-3.4,6.7-4.9s4-4,6.4-5.5s4.9-2.5,7.2-4.2s4.3-3.4,6.6-4.9s5.8-1.3,8.1-3
			c2.2-1.6,4.5-3.4,6.6-4.9s3.3-4.8,5.5-6.4c2.2-1.6,5.5-1.8,7.8-3.4c2.2-1.6,4.8-3,6.9-4.6c2.1-1.6,3-5.2,5.1-6.9
			c2.1-1.6,4.6-3.1,6.7-4.9c2.1-1.8,5.2-2.4,7.3-4.3c2.1-1.9,3.7-4.2,5.7-6.1c1.9-1.9,4.2-3.6,6.3-5.5c2.1-1.9,4-3.7,6-5.7
			c1.9-1.9,4.2-3.7,6.1-5.7c1.9-1.9,2.5-5.2,4.5-7.3c1.9-2.1,4.5-3.4,6.3-5.5c1.8-2.1,3.7-4,5.7-6.1s3.1-4.6,4.9-6.7
			c1.8-2.1,4.6-3.4,6.4-5.5c1.8-2.1,3.7-4.2,5.5-6.3s2.4-5.2,4-7.3s4.3-3.6,6-5.8c1.6-2.2,3.4-4.3,5.1-6.6c1.6-2.2,1.3-5.8,3-8.1
			c1.6-2.2,3.3-4.5,4.8-6.7s2.8-4.8,4.3-7s3.7-4.2,5.2-6.4c1.5-2.2,4-4,5.5-6.4s3-4.8,4.3-7.2c1.3-2.4,3-4.8,4.3-7.2
			c1.3-2.4,2.4-5.1,3.6-7.5c1.2-2.4,2.5-4.9,3.7-7.5c1.2-2.5,1.9-5.2,3.1-7.8s2.2-5.1,3.4-7.6c1.2-2.5,3.3-4.6,4.5-7.2
			c1.2-2.5-0.1-6.1,0.9-8.7s2.2-5.1,3.3-7.6c1-2.5,3.9-4.5,4.8-7c0.9-2.5,1.9-5.2,3-7.8c1-2.5,2.5-4.9,3.4-7.6
			c0.9-2.7-0.7-6.1,0.1-8.7c0.9-2.5,3.4-4.6,4.3-7.3c0.9-2.7,2.4-5.1,3.1-7.8c0.7-2.7-0.7-6,0-8.7c0.7-2.7,1.5-5.4,2.2-7.9
			c0.7-2.5,1.8-5.2,2.4-7.9c0.6-2.7,1.3-5.4,1.9-8.1s2.5-5.1,3.1-7.9c0.6-2.8,1.3-5.4,1.8-8.1c0.4-2.7,1-5.4,1.5-8.2
			c0.4-2.8-1.5-5.8-1-8.7s2.2-5.2,2.5-8.1c0.3-2.8,1.6-5.4,1.9-8.2c0.3-2.8,0.7-5.5,1-8.2c0.3-2.7,0.1-5.5,0.3-8.4
			c0.1-2.8-1-5.7-0.9-8.4c0.1-2.7,0.3-5.5,0.4-8.2c0.1-2.7,2.7-5.4,2.8-8.2c0.1-2.8-2.1-5.7-2.1-8.4c0-2.7,2.5-5.5,2.5-8.2
			c0-2.7-1.3-5.5-1.3-8.4s-1.3-5.5-1.5-8.2c-0.1-2.7,1-5.5,0.9-8.4c-0.1-2.8,1-5.7,0.7-8.4c-0.3-2.7-3.1-5.4-3.4-8.1
			s1.9-5.7,1.6-8.5c-0.3-2.8-0.1-5.5-0.4-8.4c-0.3-2.8-1.6-5.4-1.9-8.2s-1.5-5.4-1.9-8.1s-1.8-5.2-2.2-8.1c-0.4-2.8,0.9-5.8,0.4-8.5
			c-0.4-2.7-0.3-5.7-0.7-8.4s-1.6-5.4-2.2-8.1c-0.6-2.7-1-5.5-1.6-8.2c-0.6-2.7-2.4-5.1-3-7.8c-0.6-2.7-1.9-5.2-2.7-7.9
			c-0.7-2.7,0.3-5.8-0.6-8.5c-0.9-2.7-3.7-4.6-4.5-7.3c-0.7-2.7-1.6-5.2-2.5-7.9c-0.9-2.7-2.1-5.1-3.1-7.8c-1-2.7,0.1-6-0.7-8.5
			s-2.8-4.8-3.9-7.5c-1-2.7-0.9-5.7-1.9-8.2c-1-2.5-3.3-4.6-4.3-7.2c-1-2.5-0.9-5.7-2.1-8.2c-1.2-2.5-4.2-4.2-5.4-6.7
			s-2.7-4.8-3.9-7.3c-1.2-2.5-1.3-5.5-2.5-8.1c-1.2-2.5-2.1-5.2-3.4-7.6s-3.3-4.5-4.6-6.9s-2.4-5.1-3.7-7.5
			c-1.3-2.4-3.9-4.2-5.2-6.6c-1.3-2.4-3.1-4.5-4.6-6.9s-2.8-4.8-4.3-7c-1.5-2.2-1.3-5.8-2.8-8.1c-1.5-2.2-4.2-3.9-5.7-6.1
			c-1.5-2.2-1.9-5.4-3.6-7.8c-1.6-2.4-5.2-3-7-5.2c-1.8-2.2-1.8-5.7-3.4-7.8c-1.6-2.1-3.3-4.5-4.9-6.7c-1.6-2.2-4.6-3.3-6.4-5.5
			c-1.8-2.2-3.6-4.2-5.5-6.3c-1.9-2.1-3-4.8-4.8-6.9c-1.8-2.1-4-3.9-5.8-6c-1.8-2.1-3.6-4.2-5.5-6.1c-1.9-1.9-4.5-3.3-6.4-5.2
			s-3.9-4-5.8-6s-2.7-5.2-4.6-7.2c-1.9-1.9-5.2-2.5-7.2-4.5s-3.6-4.2-5.7-6c-2.1-1.8-5.1-2.5-7.2-4.3c-2.1-1.8-2.7-5.4-4.9-7
			c-2.2-1.6-4.6-3.1-6.7-4.8c-2.1-1.6-5.2-2.2-7.5-3.9c-2.2-1.6-3.4-4.6-5.7-6.3c-2.2-1.6-5.4-1.9-7.8-3.6c-2.4-1.6-3.7-4.2-6.1-5.8
			c-2.4-1.6-3.9-4.3-6.1-5.8c-2.2-1.5-6-0.9-8.4-2.4c-2.4-1.5-4.5-3.3-6.9-4.8c-2.4-1.5-3.6-4.8-6-6.1c-2.4-1.3-5.5-1.6-7.9-3
			c-2.4-1.3-4.9-2.5-7.3-3.9s-4.6-3-7.2-4.3c-2.5-1.3-4.8-2.7-7.3-3.9c-2.5-1.2-4.6-3-7.2-4.2s-5.5-1.2-8.1-2.4
			c-2.5-1.2-4.6-3.1-7.2-4.3s-4.6-3.3-7.2-4.3c-2.5-1-5.2-2.1-7.8-3.1c-2.5-1-4.9-2.5-7.6-3.6c-2.7-1-5.2-1.6-7.9-2.7
			c-2.7-1-5.4-1.5-7.9-2.4c-2.5-0.9-5.4-1.3-8.1-2.1c-2.7-0.7-5.4-1.2-8.1-1.9c-2.7-0.7-5.5-0.6-8.2-1.5c-2.7-0.9-5.2-1.8-7.9-2.5
			c-2.7-0.7-5.1-2.5-7.8-3.3s-5.4-1.5-8.1-2.1c-2.7-0.6-5.1-2.7-7.8-3.3c-2.7-0.6-5.5-0.6-8.2-1.2c-2.7-0.6-5.5-0.6-8.2-1
			c-2.7-0.4-5.4-1.5-8.1-1.9c-2.7-0.4-5.7,0.6-8.5,0.1c-2.8-0.4-5.5-0.3-8.2-0.7c-2.7-0.4-5.4-2.2-8.1-2.5c-2.7-0.3-5.7,0.4-8.4,0.1
			c-2.7-0.3-5.5-1-8.2-1.2c-2.7-0.1-5.5-0.6-8.2-0.7c-2.7-0.1-5.5,0.1-8.4,0s-5.5-1-8.2-1.2s-5.5,0.9-8.4,0.7S1013.8,47.4,1011,47.4
			z M1011,992.2c-2.7,0-5.5,0.7-8.2,0.7s-5.5-1.2-8.2-1.3c-2.7-0.1-5.5-0.9-8.2-1c-2.7-0.1-5.5-0.3-8.2-0.4
			c-2.7-0.1-5.5-0.1-8.2-0.4c-2.7-0.3-5.7,0.4-8.4,0.3c-2.7-0.1-5.4-1.5-8.1-1.8s-5.5-0.3-8.2-0.7c-2.7-0.4-5.4-1-8.2-1.5
			c-2.8-0.4-5.5-0.7-8.2-1.2c-2.7-0.4-5.5-0.7-8.2-1.3c-2.7-0.6-5.1-2.4-7.8-3c-2.7-0.6-5.7,0.4-8.4-0.3c-2.7-0.7-5.1-2.5-7.8-3.3
			c-2.7-0.7-5.8,0.1-8.4-0.6c-2.5-0.7-5.2-1.6-7.9-2.4c-2.7-0.7-4.5-4-7.2-4.9c-2.7-0.9-6.1,1-8.8,0.1c-2.7-0.9-4.8-3-7.5-3.9
			c-2.7-0.9-4.8-3.1-7.3-4c-2.5-0.9-6,0-8.5-1c-2.5-1-4.6-3.1-7.2-4.2s-4.6-3.1-7.2-4.2s-4.9-2.5-7.3-3.7c-2.4-1.2-6.3,0.1-8.7-1
			c-2.4-1.2-4.2-4-6.6-5.4c-2.4-1.3-4.9-2.4-7.3-3.7c-2.4-1.3-4.6-3-7-4.3c-2.4-1.3-5.1-2.2-7.5-3.7c-2.4-1.5-4.6-3-7-4.5
			s-4.3-3.6-6.6-5.1s-5.2-2.1-7.5-3.6s-4.9-2.5-7.2-4.2c-2.2-1.6-4.2-3.6-6.4-5.2c-2.2-1.6-4.2-3.6-6.4-5.2
			c-2.2-1.6-5.2-2.2-7.5-3.9c-2.2-1.6-4.2-3.6-6.4-5.2s-3.3-4.8-5.4-6.4c-2.1-1.6-5.5-2.1-7.6-3.9c-2.1-1.8-3.1-4.8-5.2-6.7
			c-2.1-1.9-4.5-3.3-6.4-5.2c-1.9-1.9-3.4-4.5-5.4-6.3c-1.9-1.8-4-3.7-6-5.7c-1.9-1.9-4.2-3.6-6.1-5.5c-1.9-1.9-4.6-3.1-6.6-5.2
			c-1.9-2.1-3.3-4.5-5.2-6.4c-1.9-1.9-4.2-3.6-6-5.7c-1.8-2.1-1.6-5.8-3.4-7.9c-1.8-2.1-5.2-2.8-6.9-5.1c-1.6-2.2-1.6-5.8-3.3-7.9
			c-1.6-2.1-5.2-3-6.9-5.1c-1.6-2.1-3.1-4.5-4.8-6.7c-1.6-2.2-1.9-5.4-3.4-7.6c-1.5-2.2-2.8-4.6-4.5-7c-1.6-2.4-4.3-3.7-5.8-6.1
			c-1.5-2.4-2.2-5.1-3.7-7.5c-1.5-2.4-2.4-4.9-3.9-7.3c-1.5-2.4-2.2-5.1-3.6-7.5c-1.3-2.4-3.7-4.2-4.9-6.7c-1.2-2.5-1.6-5.4-3-7.8
			c-1.3-2.4-4.6-3.7-5.8-6.3c-1.2-2.5-0.3-6-1.5-8.5c-1.2-2.5-3.3-4.5-4.3-7c-1-2.5-1.9-5.2-3-7.8s-1.6-5.2-2.7-7.8
			s-2.2-5.1-3.1-7.6c-0.9-2.5-3.7-4.5-4.6-7c-0.9-2.5-0.6-5.7-1.5-8.2c-0.9-2.5-0.9-5.5-1.6-8.1s-2.4-4.9-3.1-7.6
			c-0.7-2.7-1-5.4-1.8-8.1s-2.2-5.1-3-7.8c-0.7-2.7-0.7-5.5-1.3-8.2c-0.6-2.7-1.8-5.2-2.2-7.9s-1.2-5.4-1.8-8.1
			c-0.6-2.7,0-5.5-0.4-8.4c-0.4-2.8-1.9-5.2-2.4-7.9c-0.4-2.7-1-5.4-1.5-8.2c-0.4-2.8-0.3-5.5-0.6-8.2c-0.3-2.7-2.4-5.2-2.7-8.1
			c-0.3-2.8,0-5.5-0.3-8.2c-0.3-2.7,0.3-5.5,0.1-8.4c-0.1-2.8-0.4-5.5-0.6-8.2c-0.1-2.7,0.9-5.5,0.7-8.2c-0.1-2.7,0-5.5-0.1-8.2
			c-0.1-2.7-1.8-5.5-1.8-8.2c0-2.7,1.5-5.5,1.6-8.2c0.1-2.7,0.3-5.5,0.3-8.2c0-2.7-1.9-5.7-1.8-8.4c0.1-2.7,2.2-5.4,2.4-8.1
			c0.1-2.7-0.1-5.5,0.1-8.2c0.3-2.7,0.6-5.5,0.9-8.2c0.3-2.7,1-5.4,1.5-8.2c0.4-2.8,1-5.4,1.5-8.1c0.4-2.7-1-5.7-0.6-8.5
			c0.4-2.8,0.3-5.5,0.7-8.2c0.4-2.7,1.5-5.4,2.1-8.1c0.6-2.7,2.7-5.1,3.3-7.8c0.6-2.7-0.3-5.7,0.3-8.4c0.6-2.7,1.6-5.2,2.4-7.9
			s3.1-4.8,3.9-7.5c0.7-2.7,1.2-5.4,1.9-8.1c0.7-2.7,0.7-5.5,1.6-8.2s0.9-5.5,1.8-8.1c0.9-2.5,1.9-5.2,3-7.8s2.7-4.9,3.7-7.5
			c1-2.5,3-4.8,4-7.3c1-2.5,0.6-5.7,1.6-8.2c1-2.5,3.7-4.3,4.8-6.9c1-2.5,1.6-5.2,2.7-7.8s1.8-5.2,3-7.6c1.2-2.4,1.6-5.4,3-7.8
			c1.3-2.4,2.2-5.1,3.4-7.5c1.2-2.4,2.8-4.8,4.2-7.2c1.3-2.4,2.4-5.1,3.7-7.3c1.3-2.2,3-4.6,4.5-7s5.1-3.3,6.6-5.7s2.8-4.6,4.3-7
			c1.5-2.4,2.5-4.9,4-7.2c1.5-2.2,3-4.6,4.6-6.9c1.6-2.2,1.6-5.7,3.3-7.9c1.6-2.2,4.3-3.7,6-5.8c1.6-2.1,4.5-3.4,6.3-5.5
			c1.8-2.1,3.6-4.2,5.2-6.3c1.6-2.1,3-4.6,4.9-6.7c1.9-2.1,3.3-4.5,5.1-6.6c1.8-2.1,3.7-4,5.7-6c1.9-1.9,3.4-4.3,5.4-6.3
			c1.9-1.9,4.2-3.6,6.1-5.5c1.9-1.9,2.5-5.2,4.5-7.2c1.9-1.9,4.5-3.3,6.4-5.2c1.9-1.9,4.9-2.8,7-4.6c2.1-1.8,4.2-3.6,6.3-5.4
			c2.1-1.8,4.6-3,6.7-4.8c2.1-1.8,4-3.7,6.1-5.5c2.1-1.8,3.1-4.9,5.4-6.6s4.9-2.5,7.2-4.2s4.3-3.3,6.6-4.9s3.7-4.2,6-5.8
			c2.2-1.6,4.9-2.7,7.2-4.2c2.2-1.5,5.4-1.9,7.6-3.4c2.2-1.5,5.1-2.2,7.5-3.6c2.4-1.3,4.6-3,7-4.3c2.4-1.3,3.7-4.6,6.1-6
			c2.4-1.3,4.6-3.1,7-4.5c2.4-1.3,5.5-1.3,7.9-2.7c2.4-1.3,5.1-2.1,7.6-3.3c2.5-1.2,4.2-4,6.7-5.2c2.5-1.2,5.2-1.9,7.8-3
			c2.5-1,5.8-0.4,8.4-1.5c2.5-1,4.9-2.4,7.5-3.4c2.5-1,4.3-4,6.9-5.1c2.5-1,5.5-1,8.1-1.9c2.5-0.9,4.9-2.5,7.5-3.4
			c2.5-0.9,5.8,0.1,8.5-0.6c2.7-0.7,5.1-2.4,7.6-3.1c2.5-0.7,5.5-0.9,8.1-1.6c2.5-0.7,4.9-2.8,7.6-3.6c2.7-0.7,5.7,0.1,8.4-0.4
			c2.7-0.6,4.8-3.6,7.5-4.2c2.7-0.6,5.8,1.2,8.5,0.6c2.7-0.6,5.1-2.4,7.9-3c2.8-0.6,5.7,0.3,8.4-0.1c2.7-0.4,5.4-1,8.1-1.3
			c2.7-0.3,5.4-1.5,8.1-1.9c2.7-0.4,5.4-1.5,8.1-1.6s5.4-1,8.2-1.3c2.8-0.3,5.5,0.4,8.4,0.1c2.8-0.3,5.5-0.1,8.2-0.3
			c2.7-0.1,5.5-0.6,8.2-0.7c2.7-0.1,5.5,0.7,8.2,0.6c2.7-0.1,5.5-1.9,8.2-1.9c2.7,0,5.5,1.5,8.2,1.6c2.7,0.1,5.5-0.3,8.2-0.1
			c2.7,0.1,5.5,0.3,8.2,0.4c2.7,0.1,5.5,1.2,8.2,1.3c2.7,0.1,5.5-0.3,8.2-0.1s5.4,1.5,8.1,1.8c2.7,0.3,5.7-1.5,8.5-1.2
			c2.8,0.3,5.4,1.3,8.1,1.8c2.7,0.4,5.4,1.2,8.1,1.6c2.7,0.4,5.2,1.8,7.9,2.4c2.7,0.6,5.7-0.4,8.4,0c2.7,0.4,5.5,0.6,8.2,1.2
			c2.7,0.6,5.1,2.4,7.8,3s5.1,2.4,7.8,3.1s5.7,0.3,8.2,1c2.5,0.7,5.1,2.1,7.8,3c2.7,0.9,5.5,0.9,8.1,1.8c2.5,0.9,5.1,2.4,7.6,3.3
			c2.5,0.9,5.4,1.2,7.9,2.1c2.5,0.9,4.8,2.8,7.5,3.7c2.7,0.9,5.5,1,8.1,2.1c2.5,1,5.5,1.3,7.9,2.4s4.9,2.4,7.5,3.6s5.1,2.1,7.6,3.3
			c2.5,1.2,4.9,2.7,7.3,3.9s5.1,2.1,7.6,3.4c2.5,1.3,3.9,4.6,6.3,5.8c2.4,1.2,5.5,1.5,7.9,2.8s5.5,1.6,7.8,3
			c2.2,1.3,3.9,4.3,6.1,5.8c2.2,1.5,4.3,3.4,6.6,4.9c2.2,1.5,5.7,1.3,8.1,2.8c2.4,1.5,4.3,3.4,6.6,4.9c2.2,1.5,3.9,4.2,6.1,5.7
			c2.2,1.5,5.2,2.1,7.5,3.7s3.4,4.6,5.5,6.4c2.1,1.8,5.7,1.8,7.8,3.6c2.1,1.8,4,3.7,6.1,5.5c2.1,1.8,4.8,3,6.7,4.8
			c1.9,1.8,4,3.7,6.1,5.7s3.6,4.2,5.7,6.1s3.6,4.2,5.5,6.1c1.9,1.9,3.1,4.6,5.1,6.6s3.7,4,5.7,6s4.2,3.7,6,5.7s4.3,3.6,6.1,5.5
			c1.8,1.9,4.6,3.3,6.4,5.4c1.8,2.1,3.3,4.5,5.1,6.6c1.8,2.1,3.9,3.9,5.7,6.1c1.8,2.2,1.8,5.7,3.4,7.8c1.6,2.1,3.6,4.2,5.2,6.4
			c1.6,2.2,4.8,3.3,6.4,5.5c1.6,2.2,1.6,5.7,3.1,7.9c1.5,2.2,2.5,4.9,4,7.2c1.5,2.2,4.8,3.4,6.3,5.8c1.5,2.4,2.5,4.9,3.9,7.3
			c1.3,2.4,1.5,5.5,2.8,7.9c1.3,2.4,3.3,4.5,4.6,6.9s2.5,4.9,3.7,7.3c1.2,2.4,2.5,4.9,3.9,7.3c1.3,2.4,2.2,5.1,3.4,7.5
			c1.2,2.4,4.2,4.2,5.2,6.6s1.5,5.4,2.7,7.9c1.2,2.5,2.1,5.1,3.3,7.6s2.8,4.8,3.9,7.3c1,2.5,0.7,5.7,1.8,8.2c1,2.5,1.6,5.2,2.7,7.8
			s3.1,4.8,4,7.3c0.9,2.5,0.6,5.7,1.3,8.2c0.7,2.5,1.5,5.2,2.2,7.9c0.7,2.7,3.7,4.6,4.5,7.3c0.7,2.7,1.3,5.4,1.9,8.1
			c0.6,2.7,1.6,5.2,2.2,7.9s0.3,5.5,0.9,8.2c0.6,2.7-0.1,5.7,0.4,8.4c0.6,2.7,0.9,5.4,1.3,8.1s0.7,5.4,1.2,8.2
			c0.4,2.8,1.2,5.4,1.6,8.1s0.9,5.4,1.2,8.2c0.3,2.8,1.3,5.4,1.6,8.1c0.3,2.7,0.7,5.4,0.9,8.2c0.3,2.7-0.6,5.5-0.4,8.4
			c0.1,2.8,3,5.4,3.1,8.1c0.1,2.7,0.1,5.5,0.3,8.2c0.1,2.7-1.6,5.5-1.6,8.4s0.1,5.5,0.1,8.2c0,2.7-0.7,5.5-0.7,8.2
			c0,2.7,2.5,5.5,2.4,8.4s-2.1,5.4-2.2,8.2c-0.1,2.8-1,5.5-1.2,8.2c-0.1,2.7,1.9,5.7,1.6,8.4c-0.3,2.7-0.6,5.5-0.9,8.2
			c-0.3,2.7-1,5.5-1.3,8.2c-0.3,2.7-0.7,5.5-1.2,8.2c-0.4,2.7-2.2,5.2-2.7,7.9c-0.4,2.7-1.2,5.4-1.6,8.1c-0.4,2.7-1.2,5.4-1.6,8.1
			c-0.4,2.7,1.3,6,0.7,8.7c-0.6,2.7-2.7,5.1-3.3,7.8c-0.6,2.7-2.1,5.1-2.8,7.8c-0.7,2.7-1.5,5.2-2.2,7.9c-0.7,2.7-1,5.4-1.9,8.1
			c-0.9,2.7-0.1,5.7-1,8.4c-0.9,2.7-1.6,5.2-2.5,7.9c-0.9,2.7-4.2,4.3-5.1,7c-0.9,2.7,0.3,6-0.7,8.5c-1,2.5-4.2,4.2-5.2,6.9
			c-1,2.7-0.9,5.7-1.9,8.1c-1,2.4-1,5.5-2.1,8.1s-3.4,4.5-4.6,7s-3.4,4.5-4.8,6.9c-1.3,2.4,0,6.3-1.2,8.7c-1.2,2.4-4.6,3.7-6,6.3
			c-1.3,2.5-3,4.6-4.3,7c-1.3,2.4-1.9,5.2-3.3,7.6c-1.3,2.4-2.2,5.1-3.6,7.5c-1.3,2.4-2.1,5.2-3.6,7.5c-1.5,2.2-4.5,3.6-6.1,6
			c-1.6,2.4-3.7,4.2-5.2,6.4c-1.5,2.2-2.7,4.8-4.3,7s-3.4,4.3-4.9,6.6s-2.5,5.1-4.2,7.2c-1.6,2.1-3,4.6-4.8,6.9
			c-1.8,2.2-4.9,3.1-6.6,5.2c-1.6,2.1-1.9,5.7-3.7,7.8c-1.8,2.1-3.7,4.2-5.5,6.1c-1.8,1.9-3.4,4.3-5.2,6.4s-5.4,2.5-7.3,4.5
			c-1.9,1.9-3.1,4.6-5.1,6.6s-4.8,3-6.7,4.9c-1.9,1.9-3.1,4.6-5.1,6.6s-4.9,2.7-7,4.5s-2.7,5.2-4.8,7c-2.1,1.8-4,3.9-6.1,5.7
			s-5.1,2.5-7.2,4.2c-2.1,1.6-4.6,3-6.9,4.6c-2.2,1.6-3.9,4-6.1,5.7c-2.2,1.6-4.6,3-6.9,4.5c-2.2,1.5-3.7,4.2-6.1,5.7
			s-4.3,3.4-6.7,4.9c-2.4,1.5-4.6,3-7,4.5c-2.4,1.5-5.7,1.2-8.1,2.7c-2.4,1.5-4,3.9-6.4,5.2c-2.4,1.3-5.5,1.3-7.9,2.7
			s-3.6,4.9-6,6.1c-2.4,1.2-5.8,0.9-8.2,2.1c-2.4,1.2-4.9,2.2-7.5,3.4c-2.5,1.2-4.3,3.7-6.7,4.9c-2.4,1.2-4.9,2.4-7.5,3.6
			c-2.5,1.2-5.4,1.5-7.9,2.5c-2.5,1-4.9,2.4-7.5,3.4s-5.2,1.8-7.8,2.8s-4.8,2.8-7.5,3.9c-2.7,1-5.2,1.8-7.9,2.7
			c-2.7,0.9-5.8,0-8.4,0.9c-2.5,0.9-4.8,3.3-7.3,4s-5.5,0.9-8.1,1.6s-4.9,2.8-7.6,3.6s-5.8-0.7-8.5-0.1c-2.7,0.6-5.2,1.8-7.9,2.4
			c-2.7,0.6-5.1,2.7-7.8,3.3s-5.7-0.4-8.4,0s-5.1,2.7-7.9,3.1s-5.7-0.3-8.4,0s-5.7-0.6-8.4-0.1c-2.7,0.4-5.2,3.3-7.9,3.6
			c-2.7,0.3-5.5,0.3-8.2,0.4c-2.7,0.1-5.7-1.6-8.4-1.5c-2.7,0.1-5.4,1.8-8.2,1.9c-2.8,0.1-5.5,0.6-8.2,0.7c-2.7,0.1-5.5-0.1-8.2-0.1
			C1015.3,992.2,1013.8,992.2,1011,992.2z"/>
		<g>
			<polygon class="st0" points="539.7,362.3 537.3,365.1 535.3,368.1 533.4,371.3 532,374.7 530.4,378 529.3,381.4 528.2,384.9 
				527.4,388.5 527,392.1 526.2,395.6 526.5,399.2 526.2,403 527,406.6 527.9,410 528.4,413.4 529.9,416.6 531.1,419.9 533.7,422.2 
				535.9,424.9 538.3,427.3 541.9,429 545.5,430.5 549.2,431.4 553,431.7 556.6,430.5 560.3,429.9 563.7,428.4 566.7,426 
				570.2,424.3 572.5,421.5 574.9,418.7 576.7,415.5 578.7,412.2 580.5,408.9 580.9,405.2 581.7,401.5 582.7,397.9 582.3,394.3 
				583,390.6 582.1,387 582.1,383.4 581.8,379.8 581.1,376.2 580.5,372.6 579.6,369.2 578.4,365.7 577,362.3 576,358.9 575.2,355.3 
				573.4,352.1 571.9,348.9 570.6,345.4 569,342.3 567.6,338.8 565.7,335.7 564.2,332.6 561.8,335.6 559.1,338.2 556.6,341.2 
				554.2,344.2 551.6,347.2 549.2,350.2 547,353.5 544,356 541.8,359.2 			"/>
			<polygon class="st0" points="793.9,948.4 792.3,945.1 790.3,942.1 788.2,939.1 786.3,936 783.5,933.7 780.9,931.2 777.9,929 
				775.4,926.4 772.1,924.8 769,923 765.4,921.8 762.1,920.3 758.3,920 754.6,919.7 750.9,919.5 747.1,920 743.5,921.3 740.4,922.7 
				737.9,924.9 735.3,927.2 733.7,930.3 731.9,933.4 731.4,937 730.8,940.6 731.7,944.2 732,947.8 733.5,951.2 735.8,954.1 
				738,956.9 740.4,959.6 743.2,961.8 746.2,963.9 749.4,965.6 752.7,967.2 755.8,969.2 759.2,970.1 762.7,971.4 766.3,972.2 
				769.7,973.7 773.1,974.3 776.9,974.6 780.3,975.6 784.1,975.7 787.6,976.5 791.2,977.2 794.8,976.9 798.5,977.2 802.1,978 
				805.7,977.7 804.4,974.6 803,971.3 801.8,968 800.6,964.7 799,961.5 798,958.1 796.9,954.8 795.6,951.5 			"/>
			<polygon class="st0" points="485.3,428.8 484.4,432.6 484.1,436.3 483.9,440 483.9,443.8 484.4,447.5 484.7,451.1 485.1,454.8 
				486,458.4 486.6,462.2 487.9,465.6 489.1,469.2 490.6,472.6 492.4,475.9 494.1,479 495.9,482.3 497.7,485.6 499.8,488.8 
				502.6,491.3 505.1,493.8 507.5,496.4 510.1,498.9 513.1,500.9 516.2,502.5 519.6,503.6 523.1,504.8 526.5,505.4 530.4,506.1 
				534.3,506 538.2,505.4 542.1,505.2 545.2,503.1 548.5,501.3 551.2,498.6 553.7,495.9 556.3,493.2 558.3,490.1 560.6,487 
				561.6,483.4 562.8,479.9 563.9,476.4 563.7,472.5 564,468.9 563.6,465.1 563.6,461.4 562.2,457.8 561.8,454.1 560.6,450.5 
				558.5,447.4 557.4,443.6 555.4,440.5 553.6,437.2 551.3,434.2 549.4,431.1 547.4,427.6 544.6,425.1 542.4,422.2 540.3,419.1 
				537.3,416.7 535.2,413.4 532,411.2 529.5,408.5 527,405.7 524.1,403.3 521.4,400.7 518.4,398.3 515.4,395.9 512.3,393.8 
				509.5,391.5 506.8,388.8 503.5,387 500.3,384.9 497.4,382.6 494.4,380.7 493.6,384.1 493,388 492.1,391.6 491.4,395.3 
				490.3,399.1 489.6,402.7 489,406.4 488.1,410.1 487.5,413.9 487.2,417.8 485.8,421.3 485.4,425.1 			"/>
			<polygon class="st0" points="567.3,412.4 564.3,414.5 561.2,416.3 557.9,417.9 555.4,420.5 552.2,422.4 549.4,424.6 546.7,427 
				544.3,429.9 541.9,432.7 539.8,435.5 537.1,438.1 535.2,441.1 533.7,444.4 531.7,447.5 529.8,450.6 528.3,453.9 527.1,457.4 
				525.8,460.8 525.3,464.4 524.3,467.8 523.2,471.6 523.1,475.5 523.2,479.3 522.9,483.2 523.5,487 524.4,490.9 525.8,494.4 
				527.6,497.9 529,500.9 531,503.7 533.4,506.1 535.5,508.6 538.2,510.9 541.3,512.4 544.7,513.6 548.3,514.3 551.9,515.1 
				555.5,515.7 559.1,516 562.8,516 566.3,514.9 569.7,513.9 573.3,513 576.7,511.8 579.9,509.8 583,507.9 585.5,505.4 588.2,502.8 
				590.6,500 593,497.4 595.1,494.4 597.1,491.3 599.2,488.3 600.6,484.9 602.7,481.6 603.9,478 605,474.4 606.5,471 607.5,467.4 
				609,463.9 609.5,460.2 610.5,456.5 611.7,452.9 611.9,449.2 612.6,445.4 613.1,441.7 614.2,438.1 614.1,434.2 615,430.5 
				615.3,426.7 615,423 615.9,419.3 615.6,415.5 615.7,411.8 615.4,407.9 615.7,404.2 616.2,400.4 615.3,396.7 615.3,392.9 
				615.4,388.9 612,391.2 608.3,392.2 605.1,394.3 601.5,395.8 598,397.1 594.7,398.9 591.1,400.3 587.6,402.1 584.4,403.9 
				581.1,405.8 577.5,407.3 573.9,408.6 570.8,410.7 			"/>
			<polygon class="st0" points="448.8,542.3 451,545.3 453,548.6 455.2,551.4 457,554.8 459.4,557.7 461.9,560.4 464.5,563.2 
				467.2,565.7 469.4,568.9 472.5,571 475.2,573.7 478.5,575.6 481.4,578.1 484.5,580.2 487.8,582 491.4,583.5 494.5,585.5 
				498.1,586.7 501.4,588.5 505,589.7 508.6,590.7 512.3,591.6 515.9,592.9 519.5,593.4 523.1,593.7 526.7,594.1 530.4,594 
				534,593.8 537.6,593.8 541.2,593.1 544.7,592.6 548.2,591.5 551.6,590.1 555.2,589.4 558.2,587.1 561.5,585.8 564.6,583.8 
				567.6,581.9 570.2,579.2 571.3,578 571.8,577.4 574,574.4 575.5,571 576.3,567.2 577.3,563.8 578.4,560.2 579,556.5 578.8,552.7 
				579,549.1 577.8,545.6 577,541.8 576.4,538.2 574.6,534.9 572.7,531.8 571.2,528.4 569,525.4 566.6,522.5 563.9,520 560.9,517.6 
				558,515.4 555.2,513.1 551.9,511.2 548.9,509.1 545.6,507.4 542.4,505.7 538.9,504.2 535.5,502.8 532,501.5 528.7,500 
				525.3,498.5 521.9,497 518.1,496.5 514.5,495.6 511.1,494.4 507.5,493.2 503.9,492.5 500.3,491.8 496.6,491.3 492.9,490.6 
				489.3,490.3 485.7,489.4 482,489.1 478.2,488.8 474.6,487.9 470.9,487.9 467.3,487.1 463.6,487.1 459.8,487.3 456.1,486.8 
				452.4,486.7 448.8,486.1 445,486.5 441.3,486.2 437.6,485.9 434,486.5 430.2,486.4 426.7,486.5 423.7,487.4 424,490.6 425,494.1 
				426.7,497.6 428.9,500.9 429.9,504.6 431.9,507.9 433.5,511.3 435.5,514.6 437,518.2 438.2,521.8 440.6,524.9 442.1,528.4 
				443.4,532.1 445.6,535.2 446.8,538.8 			"/>
			<polygon class="st0" points="592.9,480.1 589.9,482.3 586.3,483.4 583.3,485.5 580.2,487.4 577,489.2 574,491.3 571.1,493.4 
				568.2,495.6 565.5,498.2 562.8,500.6 560.3,503.3 557.9,506 555.2,508.5 553,511.5 551.2,514.6 549.5,517.9 547.4,520.9 
				545.6,524 544,527.3 542.6,530.8 541.5,534.2 540.6,537.8 539.1,541.4 538.2,545 538.2,548.9 537.9,552.6 538.3,556.3 
				538.2,560.2 539.1,563.9 540.3,567.5 541.6,571 543.1,574.4 544.3,578 547,580.7 548.9,584 551.8,586.4 554.8,588.6 558,590.3 
				561.5,591.6 565.1,592.2 568.7,593.4 572.4,593.5 576,594.1 579.6,594.1 583.3,593.7 586.9,592.8 590.5,592.3 593.9,590.7 
				597.2,589.1 600.3,587.4 603.3,585.3 606.2,582.9 609.3,581 611.7,578.1 614.4,575.8 616.6,572.8 618.7,569.8 621.4,567.1 
				622.9,563.6 625.2,560.7 627,557.4 628.9,554.1 630.1,550.5 631.4,547.1 632.8,543.5 634.7,540.2 635.8,536.6 636.5,532.9 
				637.7,529.4 639.1,525.8 640.1,522.2 640.9,518.5 641.9,514.9 642.1,511.2 642.9,507.4 644,503.9 644.4,500.1 644.7,496.4 
				645.8,492.8 646.2,489.1 646.7,485.3 646.8,481.6 647.1,477.8 647.4,474 647.7,470.2 647.7,466.5 648,462.8 647.9,459.2 
				644.6,460.4 641.2,461.7 637.7,463.2 634.3,464.5 630.8,465.6 627.3,466.6 623.7,467.7 620.5,469.6 617.1,471 613.5,472.2 
				609.9,473.1 606.5,474.4 603,475.8 599.7,477.4 596.3,478.7 			"/>
			<polygon class="st0" points="471.6,647.7 474,650.3 476.7,652.9 478.8,655.9 481.4,658.6 484.2,661 487.2,663 489.9,665.7 
				492.6,668.1 495.7,670.1 498.4,672.8 501.7,674.3 504.7,676.7 508,678.3 511.1,680.2 514.4,681.7 517.7,683.5 521.1,684.9 
				524.7,685.6 528,687.3 531.6,688.3 535.2,688.9 538.8,690.3 542.4,690.9 545.9,691.3 549.5,692 553.3,692.5 556.9,692.8 
				560.6,692.9 564.3,692.6 567.9,692.8 571.5,692.3 575.1,691.6 578.7,691.1 582.1,689.5 585.7,688.9 588.8,687.1 592.1,685.5 
				595.4,683.8 598.4,681.9 601.4,679.8 604.7,677.5 607.4,674.6 610.1,671.7 612.5,668.4 614.5,665.1 617.2,662 618.3,658.4 
				618.6,654.7 618.7,650.9 619.3,647.4 619.6,643.6 619.5,640 619.2,636.3 618.4,632.7 617.4,629.1 616.8,625.4 615.7,621.9 
				613.8,618.7 612.3,615.4 610.1,612.4 608.4,609.1 606,606.2 603.3,603.6 600.6,601.2 597.8,598.8 595.4,595.9 592.1,594.1 
				589.1,591.9 585.7,590.4 582.7,588.3 579.4,586.7 576,585.2 572.4,584.3 569,582.6 565.4,581.9 561.9,580.5 558.3,579.6 
				554.6,578.9 551,578.4 547.4,577.4 543.7,577.1 540,576.8 536.4,576.2 532.6,576.2 529,575.9 525.3,575.3 521.6,575.5 518,575.2 
				514.2,575.3 510.5,575.5 506.8,574.9 503.2,575.6 499.5,575.5 495.7,575.6 492,575.6 488.4,576.4 484.7,576.8 481.1,577.3 
				477.3,577.1 473.6,577.5 470,578.6 466.4,579 462.7,579.2 458.9,579.6 455.4,580.5 451.6,580.8 448.2,582.2 444.4,582.8 
				440.9,583.1 437.3,584.1 433.7,585.2 429.9,585.6 426.2,586.7 428.5,590.1 430.8,593.1 433.1,596.1 435.3,599.1 437.6,602.2 
				440,605.2 441.9,608.3 444.4,611.2 446.5,614.3 448.8,617.3 451.3,620.3 453.6,623.3 455.7,626.4 457.6,629.7 459.7,632.9 
				462.5,635.5 464.9,638.5 467,641.7 469,644.8 			"/>
			<polygon class="st0" points="554.6,662.7 553.7,659.3 553.3,655.7 552.5,652.1 552.5,648.5 553,645 553.1,641.5 553.7,637.9 
				554.3,634.5 555.1,630.9 556.1,627.5 557.1,624 558.3,620.6 559.8,617.2 561.6,614 563.3,610.7 565.4,607.7 567,604.5 
				568.8,601.3 570.9,598.3 572.7,595.2 574.8,592 577.3,589.4 579.4,586.4 582,583.8 584.5,581.1 586.9,578.4 589.7,576.1 
				592.3,573.4 595.1,571.1 598.1,569 600.9,566.8 603.8,564.4 607.1,562.8 610.2,560.8 613.1,558.6 616,556.5 619.3,554.8 
				622.6,553.2 625.8,551.2 629.3,550.2 632.3,548 635.9,546.8 639.2,545 642.6,543.6 646.1,542.1 649.5,540.8 652.8,539.1 
				656.1,537.2 659.7,536.1 663,534.7 666.3,532.6 669.9,531.5 673.1,530 676.6,528.4 680,527.2 683.5,525.7 686.6,524 686.1,527.6 
				686,531.5 685.2,535.1 684.7,538.8 684.2,542.6 683.3,546.3 683.2,550 682,553.6 681.7,557.4 680.9,561.1 680,564.7 679.3,568.4 
				678.2,572 677.2,575.6 676.4,579.3 675.2,582.9 674.2,586.5 673.3,590.3 671.6,593.7 670.6,597.1 669.7,600.9 668.7,604.6 
				667,607.9 665.5,611.3 664.2,614.9 662.7,618.4 661.3,621.8 660,625.4 657.9,628.5 656.1,632 654.8,635.4 652.8,638.7 
				651.2,642.1 648.6,645 646.8,648.3 644.7,651.4 642.6,654.5 640.4,657.5 637.4,659.9 635.3,663 632.5,665.6 630.1,668.4 
				627,670.7 624,672.9 621,675.3 618.1,677.7 614.7,679.2 611.6,681.3 608,682.3 604.4,683.7 600.9,684.9 597.2,685.8 593.5,685.9 
				589.7,686.4 586,686.5 582.3,685.9 578.5,685.5 574.8,684.6 571.3,683.1 567.9,681.7 564.6,679.8 562.1,676.8 559.5,673.7 
				557.9,670.1 555.7,666.6 			"/>
			<polygon class="st0" points="678.4,606.7 674.9,608.2 671.5,609.2 667.9,610.4 664.6,612.1 661.2,613.6 658,615.4 654.8,617.2 
				651.5,619 648,620.3 645,622.5 641.6,624.2 638.9,626.9 635.6,628.7 632.6,630.9 630.1,633.5 627.3,636 624.4,638.2 621.7,640.9 
				619.2,643.6 616.8,646.5 614.4,649.3 611.7,651.8 609.8,655.1 607.5,658 605.7,661.3 603.2,664.1 601.4,667.4 600,670.8 598,674 
				596.6,677.4 594.8,680.7 593.2,684 592.4,687.7 591.2,691.3 589.7,694.7 589.4,698.6 589,702.4 588.5,706.1 588.4,709.8 
				588.4,713.6 589.1,717.3 589.4,721 589.9,724.8 590.9,728.4 592,732.1 593.5,735.7 595.3,739.1 597.4,742.6 599.7,745.6 
				602.3,748.5 604.7,751.5 606.9,754.8 610.1,756.8 613.2,758.9 616.5,760.4 619.9,761.7 623.4,763 627,763.9 630.5,764.7 634,766 
				637.7,766.3 641.3,766.9 645,767.4 648.6,767.4 652.4,767.5 656,767.1 659.7,766.8 663.3,766.3 666.9,765.4 670.5,764.2 
				674,763.5 677.5,762.1 680.8,760.4 683.8,758.3 687,756.8 690.3,755 693.2,752.6 696.5,750.8 698.9,747.9 702,746 704.5,743.2 
				707.2,740.8 709.8,738.1 712.3,735.4 714.7,732.6 716.5,729.4 719,726.7 721.3,723.7 722.9,720.3 725.3,717.5 727.1,714.3 
				728.7,711 730.8,708 732.6,704.8 734.1,701.5 735.8,698 737,694.6 738.8,691.3 740.1,687.9 741.5,684.4 742.9,681.1 743.7,677.5 
				745.5,674.3 746.2,670.5 747.3,667.1 748.5,663.6 749.5,660.1 750.6,656.5 751.8,653 752.5,649.4 753.6,645.9 754.5,642.3 
				755.1,638.7 756.4,635.2 757.1,631.7 757.6,627.9 758,624.3 758.9,620.7 759.8,617.2 760.4,613.4 761,609.8 761.3,606.1 
				761.6,602.5 762.5,598.9 763.1,595.3 763.1,591.6 763.6,587.9 763.6,584.3 764.3,580.4 760.6,581.6 757,582.8 753.4,584 
				749.8,585 746.1,585.5 742.6,587 738.9,587.6 735.5,589.1 731.7,589.7 728.1,590.6 724.6,591.7 721.1,593.2 717.4,593.8 
				713.9,595.3 710.2,595.9 706.6,597 703.2,598.3 699.6,599.7 695.9,600.3 692.4,601.8 689,603 685.4,604 682,605.4 			"/>
			<polygon class="st0" points="492,788.5 495.4,790 498.6,791.9 501.8,793.4 505.3,794.9 509,795.8 512.3,797.4 515.7,798.9 
				519.3,800.1 522.8,801.2 526.5,801.8 530.1,802.7 533.7,804 537.4,804.2 541,805.3 544.7,805.6 548.5,805.6 552.1,806.4 
				555.8,806.8 559.5,806.2 563.3,806.8 567,806.8 570.6,806.4 574.3,805.8 578.1,805.2 581.8,805 585.4,804.6 589.1,803.7 
				592.7,802.8 596.3,801.6 599.7,800.4 603.5,799.7 606.8,797.9 610.2,796.5 613.5,794.7 616.9,793.4 619.9,791.1 623.2,789.2 
				625.9,786.7 628.9,784.4 631.1,781.4 633.5,778.6 636.1,775.8 638.2,772.8 640,769.5 641.8,766.3 643.1,762.7 644.3,759.3 
				645.6,755.7 647,752.3 647.6,748.7 648.5,745 648.3,741.2 649.1,739.1 649.1,737.8 647.7,734.2 646.7,730.6 645.6,727 
				644.1,723.6 642.6,720.1 640.9,717 639.1,713.7 637.4,710.3 635,707.4 632.9,704.3 630.2,701.6 628.1,698.5 625.5,695.9 
				622.3,693.7 619.8,691 616.5,689.1 613.5,686.8 610.5,684.6 606.9,683.4 603.5,681.7 600.3,679.8 596.6,678.9 593,677.8 
				589.4,676.8 585.8,676.1 582.1,675.2 578.4,675 574.6,674.4 570.9,674 567.2,673.8 563.4,673.7 559.7,674 556,674.3 552.2,674.7 
				548.6,675.3 544.9,676.1 541.3,676.5 537.6,676.9 534,677.7 530.2,678.1 526.7,679.3 523.2,680.4 519.6,681.3 516.2,682.8 
				512.8,684.1 509,685 505.7,686.7 502.1,687.9 498.7,689.2 495.4,690.9 492,692.2 488.7,694 485.3,695.3 481.8,697 478.5,698.6 
				475.4,700.4 471.9,701.9 468.7,703.7 465.5,705.8 462.5,708 459.2,709.7 456,711.5 453,713.7 449.5,715.2 446.8,717.8 
				443.4,719.4 440.6,721.6 437.4,723.6 434.4,725.8 431.3,727.8 428.3,730 425.6,732.7 422.3,734.5 419.5,736.7 416.9,739.4 
				415.3,743.2 417.8,746.6 421.1,748.2 424.1,750.5 427.4,752.3 430.5,754.1 433.8,756 437.1,757.5 440.3,759.6 443.4,761.6 
				446.7,763.3 449.7,765.4 453.3,766.6 456.1,769 459.5,770.5 462.8,772.3 466,774.3 469.3,776.1 472.4,777.8 475.5,779.9 
				479,781.6 482.1,783.4 485.4,785.2 488.7,786.8 			"/>
			<polygon class="st0" points="522.5,878.1 525.8,879.9 529.2,881 532.3,883.1 535.9,884.1 539.2,885.5 542.6,887 546.1,888 
				549.5,889.2 553,890.4 556.6,891.1 560,892 563.6,892.8 567.3,893.2 570.8,894.3 574.5,894.7 578.1,894.7 581.8,894.6 585.4,895 
				589,895.2 592.7,895 596.3,894.9 599.9,894.3 603.5,893.7 607.2,893.5 610.8,892.9 614.4,891.7 618,891 621.4,889.8 625,889.2 
				628.4,887.9 631.9,886.5 635.2,885 638.5,883.4 642.1,882.3 645,879.9 648.3,878.3 651,875.6 654.2,873.7 657,871.1 659.5,868.4 
				661.6,865.4 664.2,862.7 666,859.5 668.2,856.5 670,853.2 671.5,849.7 672.7,846.2 674.2,842.6 674.6,838.8 675.2,835.1 
				676,831.5 675.4,827.9 674.5,824.3 674,820.6 672.7,817.3 671.6,813.7 670,810.4 668.4,807.1 667.2,803.7 664.6,801 662.8,797.7 
				660.6,794.9 658.3,791.9 655.4,789.7 652.7,787.3 649.7,785.2 647,782.6 643.8,780.7 640.3,779.5 637.1,777.8 633.8,776.2 
				630.4,775 626.7,774.1 623.2,773.1 619.5,773.1 615.9,772.3 612.3,771.4 608.6,771.4 605,771.6 601.2,771 597.5,771.1 
				593.9,771.4 590.2,771.7 586.6,772.3 583,772.8 579.3,773.4 575.7,774.3 572.1,774.9 568.5,775.9 564.9,776.8 561.3,777.7 
				557.9,779 554.5,780.1 550.9,781 547.3,782 543.7,783.1 540.4,784.9 537.1,786.4 533.5,787.6 530.1,788.6 526.7,790.1 
				523.4,791.6 520.1,793.5 516.8,795 513.5,796.8 510.2,798.3 506.9,800.1 503.8,802.1 500.3,803.4 497.2,805.5 493.9,807 
				490.8,809.1 487.8,811.3 484.5,813 481.5,815.1 478.1,816.6 475.2,819 472.1,820.9 468.8,822.7 466.1,825.2 463,827.2 
				460.1,829.4 456.7,831.1 454,833.6 450.7,835.7 454,837.9 457.6,839.4 460.4,842 463.9,843.6 467.2,845.6 470.5,847.2 
				473.6,849.4 476.6,851.8 480.2,853.2 483.5,855.1 486.4,857.7 489.9,859 492.9,861.6 496.5,862.9 499.6,865.1 502.7,867.2 
				506,869 509.2,871.1 512.5,872.9 515.9,874.7 519.3,876.2 			"/>
			<polygon class="st0" points="761.7,774.9 759.5,779.1 757.2,783.1 754.9,787.3 752,791 749.7,795.2 747.4,799.2 744.2,802.8 
				741.2,806.5 738.5,810.5 735.3,813.9 732,817.2 728.8,820.6 725,823.6 721.7,827 717.9,829.8 714.2,832.7 710.2,835.2 706,837.6 
				701.9,839.7 697.5,841.5 693.1,843.3 688.7,845.2 684.3,846.8 679.9,848.5 675.2,849.5 670.3,850.1 665.4,849.9 660.7,849.7 
				655.8,849.5 651.1,847.8 646.7,846 642,844.6 637.9,841.9 633.9,838.8 630,835.6 626.8,831.7 623.6,827.7 620.7,823.7 
				618.7,819.5 617.8,814.9 616.9,810.4 615.9,805.8 615.7,801.2 615.5,796.5 615.2,792 615.6,787.4 616.2,782.7 616.3,778.2 
				617.2,773.6 618.4,769 619.9,764.6 621.9,760.5 623.9,756.4 626.1,752.4 628.4,748.3 631,744.5 633.7,740.7 636.7,737.2 
				640.1,733.9 642.9,730.2 646.3,727.2 650.3,724.7 653.9,721.9 657.9,719.4 661.5,716.4 665.8,714.4 670,712.3 674,709.8 
				678.3,707.8 682.6,706 687,704.5 691.7,703.3 696.1,701.9 700.6,700.7 705,698.8 709.6,698.1 714.3,697.2 718.8,696.3 
				723.4,695.5 728,694.3 732.6,693.6 737.3,693.7 742,692.6 746.7,692.9 751.5,692.2 756.1,691.5 760.8,691.6 765.5,691.9 
				770.1,691.1 774.9,691.6 779.5,691.9 784.2,691.7 788.9,691.8 793.6,691.9 798.1,692.6 796.1,696.8 794.3,701.2 792.3,705.5 
				790.7,710 789,714.4 786.7,718.6 785.2,723.1 783.3,727.3 781.5,731.8 779.1,736 777.4,740.4 775.2,744.5 773.6,749 771.3,753.2 
				769.8,757.7 768,762.2 765.6,766.3 763.5,770.5 			"/>
			<polygon class="st0" points="578.2,892.8 580.5,890 583.2,887.3 585,884 587.8,881.6 589.9,878.6 592.1,875.6 594.8,873.1 
				597.7,870.7 599.9,867.7 603,865.7 606,863.3 608.7,861 611.7,858.7 614.5,856.3 618,854.8 621.3,853.2 624.4,851.2 627.7,849.7 
				631,847.9 634.4,846.5 638,845.6 641.3,843.9 644.9,842.9 648.5,842 652.2,841.7 655.8,840.8 659.5,840.5 663.1,839.9 
				666.7,840.2 670.5,839.7 674.2,840 677.8,841.1 681.2,842 684.8,843 688.1,844.4 691.5,845.7 694.8,847.5 698,849.4 700.5,852.1 
				703.5,854.2 705.9,857.2 708.7,859.5 710.7,862.6 712.8,865.6 714.1,866.9 714.5,868 715.3,871.6 716,875.2 716.5,878.9 
				717.1,882.5 717.2,886.2 716.8,890 716.9,893.7 716.3,897.3 716,901 714.7,904.4 713.8,908 712.9,911.8 711.1,914.9 709.8,918.5 
				707.7,921.5 705.4,924.5 703.8,927.9 701.2,930.6 698.4,933 696,935.8 693.3,938.4 690.3,940.6 687.3,942.7 684.2,944.7 
				681.2,946.9 677.8,948.5 674.3,949.9 671,951.5 667.6,952.9 664.2,954.4 660.7,955.7 657.1,957.1 653.7,958.3 650.1,959.5 
				646.5,960.2 642.8,960.7 639.1,961.4 635.3,961.7 631.7,962.3 628,963 624.3,963.3 620.7,963.9 616.9,964.4 613.2,964.2 
				609.5,964.7 605.7,964.7 602,964.7 598.3,964.8 594.5,964.5 590.8,964.7 587,964.4 583.3,964.1 579.6,963.9 575.8,963.8 
				572.1,963 568.4,962.7 564.6,962.6 560.9,962.6 557.3,961.8 553.6,961.1 549.8,961 546.2,959.8 542.5,959.8 540.3,957.1 
				540.4,953.5 542.6,950.3 544.4,947.2 546.7,944.1 548.5,940.8 550.1,937.3 552.4,934.3 554.5,931.2 556,927.8 558.3,924.8 
				560.1,921.5 562.1,918.2 564.3,915.2 566.3,912.1 568.2,908.8 570.3,905.6 571.9,902.2 574.3,899.2 576.3,896.1 			"/>
			<polygon class="st0" points="772.5,871.3 769.6,872.6 767.1,874.4 764.2,875.7 761.3,876.9 758.4,878 755.3,878.8 752.4,879.7 
				749.5,880.5 746.6,881.8 743.4,882.3 740.3,882.6 737.2,883 734.2,883.4 731,884 727.9,884.1 724.8,883.6 721.7,884 718.7,883.2 
				715.5,883.2 712.4,883.1 709.3,882.3 706.3,881.4 703.2,881.3 700.3,879.9 697.4,878.9 694.4,878.1 691.3,877 688.5,875.9 
				685.9,874 683.3,872.3 680.7,870.6 678.3,868.5 675.9,866.6 673.7,864.4 672.1,861.7 669.8,859.5 668.1,856.8 666.5,854.2 
				665.6,851.1 664.4,848.2 663.8,845.1 662.9,842 662.6,838.9 662.5,835.9 663.1,832.7 664.3,829.9 665.4,826.8 666.4,823.9 
				667.7,821.2 669.1,818.3 670.7,815.6 672.6,813.1 675,811 677,808.6 679.6,806.8 681.7,804.5 684.5,803.2 687.4,801.7 690,800.1 
				693,798.9 696,798.1 699,797.2 702.1,796.6 705,795.9 708.2,795.7 711.4,795.8 714.5,795.4 717.6,795.5 720.8,795.3 723.9,796 
				727,796.3 730.2,796.4 733.2,797.2 736.4,797.5 739.3,798.5 742.4,799.6 745.6,799.7 748.6,800.8 751.5,802.1 754.6,803 
				757.5,803.9 760.5,805.1 763.4,806.2 766.3,807.5 769.3,808.6 772,810 774.8,811.5 777.6,812.9 780.5,814.4 783.3,815.8 
				786,817.1 788.9,818.6 791.7,820 794.6,821.3 797.4,822.9 799.9,824.8 802.6,826.4 805.1,828.4 807.8,830 810.6,831.6 
				813.1,833.4 815.9,834.9 818.5,836.7 820.9,838.7 823.6,840.6 820.8,842.3 818.2,843.9 815.6,845.6 812.9,847.2 810.2,849 
				807.5,850.6 804.7,852.1 802.1,853.7 799.6,855.5 796.7,856.8 794,858.5 791.5,860.3 789,862.3 786.1,863.8 783.5,865.2 
				780.8,867.1 777.9,868.2 775.5,870.2 			"/>
			<polygon class="st0" points="670.3,959.5 670,955.7 670,952 670,948.4 670.3,944.7 671,941.1 671,937.3 671.9,933.7 673.4,930.5 
				674.6,926.9 676.1,923.6 677.2,920 679.3,917 681.2,913.9 682.7,910.4 684.9,907.4 687.2,904.6 689.7,901.8 692.4,899.4 
				695.1,896.8 698,894.6 700.6,891.9 704.1,890.4 707.5,889.1 711,887.7 714.5,886.5 718,885.3 721.7,884.9 725.5,885.3 
				729.2,884.9 732.8,885.9 734,885.8 734.9,885.6 737.9,887.7 740.6,890.1 743.7,891.9 745.8,895 748,897.9 750.1,900.7 751.8,904 
				753.3,907.3 753.6,910.9 753.7,914.5 753.9,918.1 753.6,921.6 753.1,925.2 752.4,928.8 750.7,932.1 750,935.7 748.3,939 
				746.8,942.3 744.4,945.1 742.6,948.4 740.3,951.4 738.3,954.5 735.6,957.2 733.7,960.4 731.1,963.2 728.4,965.7 725.6,968.3 
				723.1,971 720.4,973.5 717.7,976.2 715,978.7 712.2,981.1 708.9,983.1 706.2,985.6 702.9,987.6 700.3,990.4 696.9,992.2 
				693.9,994.3 690.9,996.7 687.9,998.8 684.7,1000.7 681.5,1002.7 678.4,1004.6 674.5,1003 674,999.4 674,995.8 673.1,992.2 
				672.8,988.5 672.1,984.9 672.2,981.3 671.6,977.5 670.9,974 670.9,970.4 670,966.8 670,963 			"/>
			<polygon class="st0" points="796.9,882.8 793.5,881.4 790.3,879.6 786.9,878.3 783.3,877.7 779.7,876.6 776.1,875.9 772.5,875.2 
				769,874.4 765.4,874.3 761.6,874.3 758,874.6 754.5,875 750.9,875.9 747.3,876.6 743.7,877.4 740.4,879.3 737.1,880.7 
				733.7,881.9 730.7,884 727.8,886.1 725.6,889.1 723.1,891.6 720.8,894.4 719.6,897.7 718.3,900.9 717.4,904 716.5,907.4 
				716.6,911 717.5,914.5 718.6,917.9 720.8,921 722.3,924.2 724.4,927.2 727,929.7 729.9,932 733.2,933.4 736.5,934.9 739.8,936.7 
				743.4,936.9 746.8,938.1 750.6,937.9 754.2,937.6 757.7,937.8 761.6,937.8 765.2,936.4 769.1,936.4 772.7,935.5 776.3,934.3 
				779.9,933 783.3,931.5 787,930.6 790.6,929.4 794.1,927.8 797.5,926.1 800.8,924.3 804.1,922.4 807.7,921 810.7,918.8 
				813.9,916.9 817.2,914.8 820.7,913.3 823.7,911 827,909.2 829.9,906.7 833.4,904.4 829.6,902.7 826.4,900.7 823.2,898.5 
				820.1,896.4 816.6,894.6 813.5,892.5 810.1,890.7 806.6,888.9 803.3,886.8 800.3,884.6 			"/>
		</g>
	</g>
</g>
<g id="Unaltered_Text" class="st1">
	<g class="st2">
		<text transform="matrix(1 0 0 1 828.5063 362.605)" class="st3 st4">The</text>
	</g>
	<g class="st2">
		<text transform="matrix(1 0 0 1 949.9888 590.1426)" class="st3 st4">DIY</text>
	</g>
	<g class="st2">
		<text transform="matrix(1 0 0 1 788.9092 817.7148)" class="st3 st4">Cottage</text>
	</g>
</g>
</svg>
