<svg xmlns="http://www.w3.org/2000/svg" width="1920" height="1080" viewBox="0 0 1920 1080">
  <metadata><?xpacket begin="﻿" id="W5M0MpCehiHzreSzNTczkc9d"?>
<x:xmpmeta xmlns:x="adobe:ns:meta/" x:xmptk="Adobe XMP Core 5.6-c138 79.159824, 2016/09/14-01:09:01        ">
   <rdf:RDF xmlns:rdf="http://www.w3.org/1999/02/22-rdf-syntax-ns#">
      <rdf:Description rdf:about=""/>
   </rdf:RDF>
</x:xmpmeta>
                                                                                                    
                                                                                                    
                                                                                                    
                                                                                                    
                                                                                                    
                                                                                                    
                                                                                                    
                                                                                                    
                                                                                                    
                                                                                                    
                                                                                                    
                                                                                                    
                                                                                                    
                                                                                                    
                                                                                                    
                                                                                                    
                                                                                                    
                                                                                                    
                                                                                                    
                                                                                                    
                           
<?xpacket end="w"?></metadata>
<defs>
    <style>
      .cls-1 {
        fill: #fff;
        stroke: #000;
        stroke-width: 1.5px;
        fill-rule: evenodd;
      }
    </style>
  </defs>
  <path class="cls-1" d="M0,0H1920V64H0V0ZM0,64.114H1920v64H0v-64Zm0,64.091H1920v64H0v-64ZM0,192.3H1920v64H0v-64Zm0,64.569H1920v64H0v-64Zm0,64.068H1920v64H0v-64Zm0,64.091H1920v64H0v-64Zm0,64.091H1920v64H0v-64Zm0,65.25H1920v64H0v-64Zm0,64.75H1920v64H0v-64Zm0,64.091H1920v64H0v-64ZM0,707.3H1920v64H0v-64Zm0,64.569H1920v64H0v-64Zm0,64.068H1920v64H0v-64Zm0,64.091H1920v64H0v-64Zm0,64.091H1920v64H0v-64Zm0,64H1920v64H0v-64Z"/>
</svg>
